<svg enable-background="new 0 0 100 100" viewBox="0 0 100 100" xmlns="http://www.w3.org/2000/svg"><path d="m19.2 13.9c.5 0 .8-.4.8-.8v-.8c0-.5-.4-.8-.8-.8h-1.1c-.4 0-.8.2-1 .5h-.1l-.4-2c-.3-1.1-1.2-2-2.4-2h-8.3c-1.1 0-2.2.8-2.4 2l-.4 2h-.1c-.3-.3-.6-.5-1-.5h-1.2c-.5 0-.8.4-.8.8v.8c0 .6.4.9.8.9h.1c.1 0 .2.1.2.2s0 .1-.1.2c-.7.6-1 1.5-1 2.4v3.4c0 .5.3.9.8 1.1.1 0 .1.1.1.2v1.2c0 .7.6 1.2 1.2 1.2h1.7c.6.1 1.2-.5 1.2-1.1v-1c0-.1.1-.2.2-.2h9.6c.1 0 .2.1.2.2v1c0 .7.6 1.2 1.2 1.2h1.7c.7 0 1.2-.6 1.2-1.2v-1.2c0-.1 0-.2.1-.2.5-.2.8-.7.8-1.1v-3.4c0-.9-.4-1.9-1-2.5-.1-.1-.1-.2 0-.3s.1-.2.2-.2zm-16.5 6.7h-1.5c-.2 0-.4-.2-.4-.4v-.4c0-.2.2-.4.4-.4h1.5c.4 0 .7.3.7.7 0 .2-.3.5-.7.5zm1.8-3.4c0 .1-.1.1-.2.1h-.9c-.8 0-1.5-.6-1.7-1.4 0-.1.1-.2.2-.3h1.9c.3 0 .5.2.6.4l.3 1c-.2.1-.2.1-.2.2zm8.9-.2-.5 1.3c-.3.8-1.1 1.4-2 1.4h-1.8c-.9 0-1.7-.6-2-1.4l-.5-1.4c-.1-.2 0-.5.3-.6h.1 5.8c.2 0 .4.2.4.4.2.2.2.2.2.3zm2-3.9c0 .1-.1.1-.2.1h-10.4c-.1 0-.1 0-.2-.1 0-.1-.1-.1 0-.2l.6-2.6c.1-.4.4-.7.8-.7h8.2c.4 0 .8.3.8.7l.6 2.6c-.2 0-.2.1-.2.2zm.3 4.2c-.1 0-.2-.1-.2-.2 0 0 0 0 0-.1l.3-1c.1-.2.3-.4.6-.4h1.9c.1 0 .1 0 .2.1 0 0 .1.1.1.2-.1.8-.8 1.4-1.7 1.4zm3.5 2.6v.4c0 .2-.2.4-.4.4h-1.5c-.4 0-.7-.3-.7-.7s.3-.7.7-.7h1.5c.2.1.4.3.4.6z" fill="#8fc03f" transform="scale(4.16666667)"/><path d="m98.9 17.9c-3.2 0-6.4 0-9.5 0 .4-2.5.9-5 1.3-7.5.5-3.1 1.1-6 1.6-9.1.2-1.1-1.2-1.8-1.9-.8-1.2 1.8-2.5 3.4-3.6 5.2-2.5 3.5-5 6.9-7.5 10.5-1.5 2.1-3 4.2-4.5 6.4-.4.7-1 1.3-1.4 2-.2.3-.5.8-.8 1.1-.4.7.1 1.5.9 1.5h9.5c-.4 2.5-.9 5-1.3 7.5-.5 3.1-1.1 6-1.6 9.1-.2 1.1 1.2 1.8 1.9.8 1.2-1.8 2.5-3.4 3.6-5.2 2.5-3.5 5-6.9 7.5-10.5 1.5-2.1 3-4.2 4.5-6.4.4-.7 1-1.3 1.4-2 .2-.3.5-.8.8-1.1.5-.7-.1-1.5-.9-1.5z" fill="#8fc03f"/></svg>