<svg viewBox="0 0 40.04 40" xmlns="http://www.w3.org/2000/svg"><g transform="translate(.02 -.23)"><g fill="#8fc03f"><path d="m35.11 30.71-7.46-2.5a.83.83 0 0 0 -.94.29 8.3 8.3 0 0 1 -11.63 1.8 8.63 8.63 0 0 1 -1.81-1.81.82.82 0 0 0 -.93-.29l-7.49 2.51a7.52 7.52 0 0 0 -4.87 7v1.66a.84.84 0 0 0 .83.84h38.34a.84.84 0 0 0 .83-.84v-1.64a7.51 7.51 0 0 0 -4.87-7.02z"/><path d="m16.93 21.89a1.25 1.25 0 0 0 .51 1.7 4.9 4.9 0 0 0 .85.35 6.07 6.07 0 0 0 1.69.25 6.05 6.05 0 0 0 1.7-.19 4.52 4.52 0 0 0 .85-.36 1.25 1.25 0 1 0 -1.13-2.23h-.06a1.92 1.92 0 0 1 -.39.17 3.48 3.48 0 0 1 -1 .14 3.43 3.43 0 0 1 -1-.14 1.78 1.78 0 0 1 -.4-.17 1.26 1.26 0 0 0 -1.62.48z"/><path d="m15.62 17.65a1 1 0 0 1 1 0 1.25 1.25 0 0 0 1.67-1.86 3.5 3.5 0 0 0 -4.39 0 1.25 1.25 0 0 0 1.67 1.86z"/><path d="m23.23 17.65a1 1 0 0 1 1 0 1.25 1.25 0 1 0 1.77-1.77l-.1-.09a3.52 3.52 0 0 0 -4.4 0 1.25 1.25 0 0 0 1.68 1.86z"/></g><path d="m34 .23a6 6 0 1 0 6 6 6 6 0 0 0 -6-6zm-1.21 8.85a.81.81 0 0 1 -.58-.23l-1.63-1.63a.82.82 0 0 1 0-1.16.81.81 0 0 1 1.15 0l1.06 1.06 3.52-3.51a.82.82 0 0 1 1.16 0 .83.83 0 0 1 0 1.12l-4.09 4.13a.81.81 0 0 1 -.59.22z" fill="#8fc03f"/><path d="m31.13 13.15a7.52 7.52 0 0 1 -2.77-2 17.53 17.53 0 0 1 .34 4.09 1.24 1.24 0 0 0 .69 1.13 1 1 0 0 1 .17.73 2.1 2.1 0 0 1 -.93 1.83 2.9 2.9 0 0 0 -1.63 2.15c-.63 3.74-5.3 6.23-7 6.23s-6.38-2.49-7-6.23a2.9 2.9 0 0 0 -1.67-2.18 2.14 2.14 0 0 1 -.93-1.83 1.07 1.07 0 0 1 .16-.72 1.25 1.25 0 0 0 .7-1.11 17.32 17.32 0 0 1 .74-5.77.42.42 0 0 1 .53-.25.46.46 0 0 1 .16.11 6.38 6.38 0 0 0 4.79 1.73h5a6.37 6.37 0 0 0 4.74-1.69 7.33 7.33 0 0 1 -.7-3.14 7.45 7.45 0 0 1 .41-2.42c-1.25-1-3.11-1.16-4.55-1.28-1-.08-2.27-.18-2.5-.53a.89.89 0 0 1 .12-.66.83.83 0 0 0 -.12-.75.82.82 0 0 0 -.68-.36c-5 0-6.78 2.32-7.32 4.8a.36.36 0 0 1 -.13.23c-.54.47-2.85 2.8-3 9.35a3.51 3.51 0 0 0 -.87 2.52 4.54 4.54 0 0 0 2.4 4.05.42.42 0 0 1 .24.31c.85 5.08 6.7 8.32 9.48 8.32s8.62-3.24 9.47-8.31a.45.45 0 0 1 .25-.32 4.54 4.54 0 0 0 2.39-4.06 3.48 3.48 0 0 0 -.86-2.5c-.06-.51-.08-1-.12-1.47z" fill="#8fc03f"/></g></svg>