<svg enable-background="new 0 0 40 40" viewBox="0 0 40 40" xmlns="http://www.w3.org/2000/svg"><g fill="#8fc03f" transform="scale(1.66666667)"><path d="m22.5 0h-8c-.7 0-1.3.5-1.5 1.2 0 .1.1.3.2.3h6.2c.4 0 .8.3.8.7s-.3.8-.7.8h-6.2c-.2 0-.3.1-.3.2v1c0 .1.1.2.2.2h4.2c.4 0 .8.3.8.8 0 .4-.3.7-.8.7h-4.2c-.1.1-.2.2-.2.3v1c0 .1.1.2.2.2h.2c1.7 0 3 1.3 3 3v13.2c0 .1.1.3.2.3h1c.1 0 .2-.1.2-.2v-2.7c0-.6.4-1 1-1h2c.6 0 1 .4 1 1v2.7c0 .1.1.2.2.2h1c.6 0 1-.4 1-1v-21.4c0-.8-.7-1.5-1.5-1.5z"/><path d="m13.5 9h-8c-.8 0-1.5.7-1.5 1.5v.2c0 .2.1.3.2.3h4.2c.4 0 .7.3.7.8s-.3.8-.7.8h-4.2c-.1 0-.2.1-.2.2v1.5c0 .1.1.2.2.2h2.2c.4 0 .8.3.8.7s-.3.8-.8.8h-2.2c-.1 0-.2.1-.2.2v6.8c0 .6.4 1 1 1h.8c.1 0 .2-.1.2-.3v-2.7c0-.6.4-1 1-1h2c.6 0 1 .4 1 1v2.7c0 .1.1.2.2.2h4.2c.3 0 .5-.2.5-.5v-13c.1-.7-.6-1.4-1.4-1.4z"/></g><path d="m3.4 10.5h8.9.1c2.2-.3 3.8-2.3 3.5-4.5-.2-1.8-1.6-3.3-3.5-3.5-.9-1.6-2.5-2.5-4.3-2.5-2.4 0-4.5 1.6-5.2 3.9-1.7.2-2.9 1.6-2.9 3.3 0 1.8 1.4 3.3 3.2 3.3z" fill="#8fc03f"/></svg>