<svg viewBox="0 0 39.96 39.74" xmlns="http://www.w3.org/2000/svg"><g transform="translate(-.04)"><path d="m8.28 26.5a6.72 6.72 0 0 0 -3 .7l-5 2.52a.43.43 0 0 0 -.28.38v9a.41.41 0 0 0 .42.41.43.43 0 0 0 .22-.06l5.69-3.56a.85.85 0 0 1 .71-.08c17.09 5.72 11.29 5.82 30.17-3.73a.86.86 0 0 0 .37-1.15.91.91 0 0 0 -.23-.28 4.14 4.14 0 0 0 -4-.8l-5.7 1.89a.85.85 0 0 0 -.49.42 3.32 3.32 0 0 1 -3 1.85h-6.62a.83.83 0 0 1 -.83-.83.84.84 0 0 1 .83-.84h6.67a1.67 1.67 0 0 0 0-3.33h-5.54a.82.82 0 0 1 -.5-.17 11.63 11.63 0 0 0 -6.46-2.33z" fill="#8fc03f"/><path d="m39.69 1a1.16 1.16 0 0 0 -1.35-1 1.12 1.12 0 0 0 -.47.18 15.67 15.67 0 0 1 -8.93 2.28c-7.21 0-10.22 2.94-10.28 3a9.42 9.42 0 0 0 -3.12 11.14.57.57 0 0 1 -.12.62l-3.11 3.37a1.18 1.18 0 0 0 1.6 1.72c2-1.82 5.26-7.3 14.45-11.14a1.17 1.17 0 0 1 1.53.64 1.19 1.19 0 0 1 -.63 1.53 30.68 30.68 0 0 0 -9.83 6.46l-.27.3a.57.57 0 0 0 0 .82l.09.07a9.3 9.3 0 0 0 5 1.43 14.25 14.25 0 0 0 6.75-1.8c10.21-5.62 9.23-16.46 8.69-19.62z" fill="#8fc03f"/></g></svg>