<svg viewBox="0 0 548.73 71.57" xmlns="http://www.w3.org/2000/svg"><g fill="#05582b"><path d="m32.92 26.37c0 3.95-2.19 7.17-6.38 8.81a10.56 10.56 0 0 1 7.71 10.08c.01 9.11-7.58 11.74-15.66 11.74h-18.59v-42.47h18.59c7.71 0 14.33 3.76 14.33 11.84zm-14.09 6.44c5 0 8.81-1.82 8.81-6.38 0-4.74-3.83-7.11-9.05-7.11h-13.24v13.49zm-.24 19.26c4.37 0 10.33-1.15 10.33-7 0-5.28-5.53-7.47-10.08-7.47h-13.49v14.46z"/><path d="m54.54 57.77c-9.29 0-15.79-6.07-15.79-15.85 0-9.05 6.5-15.55 15.55-15.55 8.5 0 15.12 4.68 15.12 14.88 0 .79-.06 1.64-.12 2.49h-25.57c.55 5.83 5.22 9.41 10.93 9.41 3.34 0 7.59-1.28 9.54-3.71l3.4 3h-.06c-3.16 3.63-8.32 5.33-13 5.33zm-.12-26.91c-5.22 0-9.72 2.92-10.69 8.75h20.77c-.18-5.77-4.19-8.74-10.08-8.74z"/><path d="m79.87 27.1.24 4.68a11.53 11.53 0 0 1 10.14-5.41c7.47 0 12.76 5 12.76 14v16.63h-5.01v-16.54c0-6-2.92-9.41-8.69-9.41-5.47 0-9.05 4.56-9.05 9.9v16.05h-4.94v-29.9z"/><path d="m125.51 26.92v4.25h-9.29v16.4c0 3.52 1.09 5.77 4.74 5.77a9.89 9.89 0 0 0 4.13-1.15l1.46 4.13a14.31 14.31 0 0 1 -6.26 1.46c-6.2 0-9.05-3.77-9.05-10.2v-16.41h-6v-4.25h6v-8.08l5-.55v8.63z"/><path d="m141.4 57.77c-6.13 0-12-3.1-12-10.08 0-6.8 6-9.72 12.09-9.72a23.35 23.35 0 0 1 10.63 2.43v-2.4c0-5.41-4.92-7-9.84-7a25.68 25.68 0 0 0 -9.84 2.19l-.82-4.19a26.15 26.15 0 0 1 10.75-2.61c8 0 14.46 3 14.46 11.72v18.89h-4.07l-.3-4.74-.06-.06a13.39 13.39 0 0 1 -11 5.57zm.79-15.61c-3.89 0-7.84 1.58-7.84 5.65s4.31 5.65 7.71 5.65c5 0 9.9-3.58 10.08-8.75a22.07 22.07 0 0 0 -9.95-2.55z"/><path d="m164.61 57v-42.47h4.92v42.47z"/><path d="m177.91 57v-42.47h4.92v42.47z"/><path d="m211.74 18.6c-10.87 0-16.89 8.32-16.89 17.61 0 8.63 5.47 16.76 17 16.76a17 17 0 0 0 11.6-4.37v-10.08h-13.23v-4.62h18v16.83a21.44 21.44 0 0 1 -16.42 7.17c-15.19 0-22.17-10.26-22.17-21.68 0-12.76 8.2-22.53 22.11-22.53a22.32 22.32 0 0 1 15.67 6.44l-3.1 3.52a19 19 0 0 0 -12.57-5.05z"/><path d="m248.91 26.37a12.24 12.24 0 0 1 6.8 2.37l-2.24 4.26a8.29 8.29 0 0 0 -5.22-1.7 8.63 8.63 0 0 0 -8.81 9v16.7h-5v-29.9h4.62l.43 4.37c2.25-3.94 6.02-5.1 9.42-5.1z"/><path d="m271.81 57.77c-9.29 0-15.79-6.07-15.79-15.85 0-9.05 6.5-15.55 15.55-15.55 8.5 0 15.12 4.68 15.12 14.88 0 .79-.06 1.64-.12 2.49h-25.57c.55 5.83 5.22 9.41 10.93 9.41 3.34 0 7.59-1.28 9.54-3.71l3.4 3h-.06c-3.16 3.63-8.32 5.33-13 5.33zm-.12-26.91c-5.22 0-9.72 2.92-10.69 8.75h20.77c-.18-5.77-4.19-8.74-10.08-8.74z"/><path d="m305.89 57.77c-9.29 0-15.79-6.07-15.79-15.85 0-9.05 6.5-15.55 15.55-15.55 8.5 0 15.12 4.68 15.12 14.88 0 .79-.06 1.64-.12 2.49h-25.57c.55 5.83 5.22 9.41 10.93 9.41 3.34 0 7.59-1.28 9.54-3.71l3.4 3h-.06c-3.16 3.63-8.32 5.33-13 5.33zm-.12-26.91c-5.22 0-9.72 2.92-10.69 8.75h20.77c-.18-5.77-4.19-8.74-10.08-8.74z"/><path d="m331.22 27.1.24 4.68a11.53 11.53 0 0 1 10.14-5.41c7.47 0 12.76 5 12.76 14v16.63h-5v-16.54c0-6-2.92-9.41-8.69-9.41-5.47 0-9.05 4.56-9.05 9.9v16.05h-4.92v-29.9z"/><path d="m402.53 35.91c0 11.18-7 22-21.56 22s-21.68-10.75-21.68-22c0-12.39 8.32-22.23 21.75-22.23 14.38 0 21.49 10.99 21.49 22.23zm-21.53-17.37c-10.87 0-16.4 8.14-16.4 17.37 0 8.56 5.22 17.07 16.4 17.07s16.28-8.69 16.28-17.07c.03-8.57-5.14-17.13-16.28-17.37z"/><path d="m417.66 57.77c-6.13 0-12-3.1-12-10.08 0-6.8 6-9.72 12.09-9.72a23.35 23.35 0 0 1 10.63 2.43v-2.4c0-5.41-4.92-7-9.84-7a25.68 25.68 0 0 0 -9.84 2.19l-.82-4.19a26.15 26.15 0 0 1 10.75-2.61c8 0 14.46 3 14.46 11.72v18.89h-4.09l-.3-4.74-.06-.06a13.39 13.39 0 0 1 -10.98 5.57zm.79-15.61c-3.89 0-7.84 1.58-7.84 5.65s4.31 5.65 7.71 5.65c5 0 9.9-3.58 10.08-8.75a22.07 22.07 0 0 0 -9.95-2.55z"/><path d="m457.75 27h6.2v.36l-13.79 13.83 15.43 15.49v.32h-6l-14.17-14.17v14.17h-4.92v-42.47h4.92v25.14z"/><path d="m491.62 33.63c4.41 0 7.71-1.59 7.71-5.58 0-4.15-3.35-6.22-7.92-6.22h-11.66v11.8z"/><path d="m491.4 50.48c3.83 0 9-1 9-6.11 0-4.62-4.84-6.54-8.82-6.54h-11.83v12.65z"/><path d="m491.4 17.63a17.6 17.6 0 0 1 5.15.73 23.51 23.51 0 0 1 -.18-2.94 20.37 20.37 0 0 1 4.74-13.63 36 36 0 0 0 -19.26 15.84z"/></g><path d="m512.22 46.18a20.55 20.55 0 0 1 3.49-11.79 20.31 20.31 0 0 1 -12.23-3.6 8.36 8.36 0 0 1 -5.11 4.9 9.25 9.25 0 0 1 6.75 8.82c0 8-6.64 10.31-13.72 10.31h-8.9a35.89 35.89 0 0 0 50.5 10.54q-.9.07-1.84.07c-12.77-.01-18.94-9.43-18.94-19.25z" fill="#005d95"/><path d="m517.53.12a14.4 14.4 0 0 0 -1.81-.12c-9.52 0-14.78 7.28-14.78 15.42 0 7.55 4.78 14.67 14.88 14.67a14.83 14.83 0 0 0 10.18-3.83v-8.82h-11.61v-4h15.79v13.31h1.07c9.11 0 14.89 5 17.39 11.54.06-.85.09-1.71.09-2.57a35.88 35.88 0 0 0 -31.2-35.6z" fill="#005d95"/><path d="m531.25 31c-9.52 0-14.35 7.12-14.35 15.2 0 7.5 4.57 14.94 14.35 14.94s14.25-7.6 14.25-14.94c0-7.51-4.5-15.01-14.25-15.2z" fill="#05582b"/></svg>