<svg viewBox="0 0 39.31 40" xmlns="http://www.w3.org/2000/svg"><g transform="translate(-.35)"><path d="m21.28 37a16.24 16.24 0 0 1 -6.68-7.82h3.4a1.67 1.67 0 0 0 0-3.34h-4.49a25.44 25.44 0 0 1 -.67-5.84 26.24 26.24 0 0 1 .49-5h24.15a1.57 1.57 0 0 0 1.66-1.47 1.64 1.64 0 0 0 -.18-.82 19.91 19.91 0 0 0 -18.71-12.71c-12.52.81-19.25 10.15-19.86 18.6a20 20 0 0 0 18.61 21.4h1.35a1.64 1.64 0 0 0 1.65-1.35 1.57 1.57 0 0 0 -.72-1.65zm-11.18-11.17h-5.35a16.49 16.49 0 0 1 -.3-10.83h5.47a31 31 0 0 0 -.41 5 29.27 29.27 0 0 0 .59 5.83zm10.24-22.22a16.88 16.88 0 0 1 6.07 8.06h-12.14a16.78 16.78 0 0 1 6.07-8.06zm14.45 8.06h-4.85a21.58 21.58 0 0 0 -4-7.37 16.53 16.53 0 0 1 8.85 7.37zm-20.09-7.34a21.68 21.68 0 0 0 -3.95 7.34h-4.81a16.73 16.73 0 0 1 8.76-7.34zm-8.26 24.84h4.56a21.49 21.49 0 0 0 3.69 6.5 16.84 16.84 0 0 1 -8.25-6.5z" fill="#8fc03f"/><path d="m31.32 18.33a8.35 8.35 0 0 0 -8.32 8.34c0 5.28 7.43 12.77 7.74 13.09a.85.85 0 0 0 1.18 0c.31-.32 7.74-7.81 7.74-13.09a8.35 8.35 0 0 0 -8.34-8.34zm0 5.42a2.92 2.92 0 1 1 -2.92 2.92 2.92 2.92 0 0 1 2.92-2.92z" fill="#8fc03f"/></g></svg>