<svg viewBox="0 0 40.01 40.02" xmlns="http://www.w3.org/2000/svg"><g transform="translate(.01 .02)"><path d="m23.92 23.71a.41.41 0 0 0 .26-.36 7.37 7.37 0 0 1 .85-3 .38.38 0 0 0 0-.33.42.42 0 0 0 -.23-.24l-6.24-2.68a.42.42 0 0 1 -.26-.39v-1.93a.41.41 0 0 1 .13-.29 5.6 5.6 0 0 0 1.3-3.72.37.37 0 0 1 .14-.29 3.14 3.14 0 0 0 .9-2.34 2.66 2.66 0 0 0 -.53-1.69.43.43 0 0 1 -.03-.45 4.15 4.15 0 0 0 .26-2.88c-.56-2.3-3.4-3.12-5.66-3.12a6.23 6.23 0 0 0 -5.27 2.21.41.41 0 0 1 -.35.19 1.79 1.79 0 0 0 -1.5.6c-.62.82-.18 2 .29 2.88a.41.41 0 0 1 -.08.48 2.88 2.88 0 0 0 -.27.34 3 3 0 0 0 -.43 1.6 2.55 2.55 0 0 0 1.06 2.22.4.4 0 0 1 .2.32 5.26 5.26 0 0 0 1.41 3.66.44.44 0 0 1 .13.31v1.86a.43.43 0 0 1 -.25.39l-6.56 2.81c-2.12.91-2.43 2.84-2.85 5.51-.09.6-.19 1.25-.33 2a.82.82 0 0 0 .67 1h19.75a.42.42 0 0 0 .42-.38 5 5 0 0 1 3.07-4.29z" fill="#8fc03f"/><path d="m37.5 40a2.5 2.5 0 0 0 2.5-2.5v-9.17a2.5 2.5 0 0 0 -2.14-2.47.42.42 0 0 1 -.36-.41v-1.7a5.84 5.84 0 0 0 -11.67 0v1.7a.42.42 0 0 1 -.35.41 2.51 2.51 0 0 0 -2.15 2.47v9.17a2.5 2.5 0 0 0 2.5 2.5zm-8.33-16.25a2.5 2.5 0 0 1 5 0v1.67a.41.41 0 0 1 -.42.41h-4.17a.41.41 0 0 1 -.41-.41zm4.16 10a1.67 1.67 0 1 1 -1.66-1.67 1.66 1.66 0 0 1 1.66 1.67z" fill="#8fc03f"/></g></svg>