<svg viewBox="0 0 40.01 40.01" xmlns="http://www.w3.org/2000/svg"><g transform="translate(.01 .01)"><path d="m40 18.33a.83.83 0 0 0 -.83-.83h-8.34a.83.83 0 0 0 -.83.83.87.87 0 0 0 .24.59l2.36 2.36a.42.42 0 0 1 0 .59l-7.64 7a.4.4 0 0 1 -.54 0l-4.83-3.87a3.57 3.57 0 0 0 -4.59.2l-.37.32-12.23 10.84a2.08 2.08 0 0 0 2.77 3.11l11.92-10.6a.42.42 0 0 1 .54 0l4.84 3.87a3.59 3.59 0 0 0 4.67-.17l8.41-7.75a.43.43 0 0 1 .58 0l2.44 2.44a.83.83 0 0 0 1.17 0 .85.85 0 0 0 .26-.62z" fill="#8fc03f"/><path d="m11.67 0a11.67 11.67 0 0 0 0 23.34 11.67 11.67 0 0 0 0-23.34zm5.33 10.44-.29.43c-.2.28-.4.54-.58.81l-1.8 2.52-3 4.15c-.49.7-1 1.37-1.46 2a.41.41 0 0 1 -.74-.32c.21-1.21.44-2.41.66-3.61l.54-3h-3.69a.41.41 0 0 1 -.35-.61 3.39 3.39 0 0 0 .27-.43l.58-.81 1.79-2.45 2.97-4.12c.49-.7 1-1.37 1.47-2a.41.41 0 0 1 .74.32c-.22 1.21-.45 2.41-.66 3.61l-.54 3h3.75a.44.44 0 0 1 .34.51z" fill="#8fc03f"/></g></svg>