<svg enable-background="new 0 0 40 40" viewBox="0 0 40 40" xmlns="http://www.w3.org/2000/svg"><g transform="scale(1.66666667)"><path d="m20.5 12c.6 0 1-.4 1-1v-3.9c0-1.4-1.1-2.6-2.5-2.6h-10.5c-.6 0-1 .4-1 1s.4 1 1 1h10.5c.3 0 .5.3.5.6v3.9c0 .6.4 1 1 1z" fill="#8fc03f"/><path d="m10.7 18.5c.1 0 .2.1.2.2v2c0 .1-.1.2-.2.2h-1.7c-.6 0-1 .4-1 1s.4 1 1 1h6c.6 0 1-.4 1-1s-.4-1-1-1h-1.7c-.1 0-.2-.1-.2-.2v-2c0-.1.1-.2.2-.2h2.2c.3 0 .5-.2.5-.5v-2.1c0-.3 0-.5.1-.8s-.1-.5-.3-.6h-.1-10.7c-.3 0-.5-.2-.5-.5v-1.5c0-.6-.4-1-1-1s-1 .4-1 1v3.4c0 1.4 1.1 2.6 2.5 2.6z" fill="#8fc03f"/><g fill="#8fc03f"><path d="m1.8 9.7h3.3c.9 0 1.6-.7 1.6-1.6v-6.2c0-.9-.7-1.6-1.6-1.6h-3.3c-.9 0-1.6.7-1.6 1.6v6.2c0 .9.7 1.6 1.6 1.6zm-.1-7.8c0-.1.1-.1.1-.1h3.3s.1.1.1.1v6.2c0 .1-.1.1-.1.1h-3.3s-.1-.1-.1-.1z"/><path d="m18.8 14.2c-.9 0-1.6.7-1.6 1.6v6.4c0 .9.7 1.5 1.6 1.5h3.3c.9 0 1.6-.6 1.6-1.5v-6.4c0-.9-.7-1.6-1.6-1.6zm3.4 1.7v5.1c0 .1-.1.2-.2.2h-3c-.1 0-.2-.1-.2-.2v-5.1c0-.1.1-.1.1-.1h3.3c0-.1 0 0 0 .1z"/></g></g></svg>