<svg width="464" height="341" viewBox="0 0 464 341" fill="none" xmlns="http://www.w3.org/2000/svg">
<g filter="url(#filter0_dd_2975_6657)">
<rect x="64" y="60" width="336" height="212.389" rx="12.1528" fill="url(#paint0_linear_2975_6657)"/>
<mask id="mask0_2975_6657" style="mask-type:luminance" maskUnits="userSpaceOnUse" x="64" y="60" width="336" height="213">
<rect x="64" y="60" width="336" height="212.389" rx="12.1528" fill="white"/>
</mask>
<g mask="url(#mask0_2975_6657)">
<mask id="mask1_2975_6657" style="mask-type:luminance" maskUnits="userSpaceOnUse" x="109" y="205" width="29" height="35">
<path fill-rule="evenodd" clip-rule="evenodd" d="M130.627 205.883C130.146 206.206 129.851 206.742 129.759 207.325V207.325C130.007 208.014 130.302 208.658 130.627 209.331V209.331C132.863 213.363 133.994 217.852 133.933 222.448V222.448C133.994 227.185 132.8 231.856 130.472 235.995V235.995C129.851 237.097 129.774 237.373 129.851 237.771V237.771C129.961 238.461 130.425 239.043 131.076 239.304V239.304H131.714H132.101C132.692 239.304 133.25 238.477 134.244 236.516V236.516C135.888 233.281 136.96 229.819 137.441 226.233V226.233C137.705 223.443 137.657 220.625 137.301 217.852V217.852C136.742 214.327 135.61 210.956 133.933 207.769V207.769C133.622 207.125 133.25 206.574 132.817 206.023V206.023C132.455 205.779 132.024 205.648 131.592 205.648V205.648C131.262 205.648 130.929 205.725 130.627 205.883V205.883ZM122.93 210.041C122.358 210.868 122.418 211.175 123.396 213.106V213.106C124.747 215.573 125.569 218.3 125.787 221.105V221.105C126.143 225.012 125.351 228.934 123.521 232.413V232.413C123.086 233.271 122.605 234.114 122.605 234.299V234.299C122.418 235.185 122.978 236.074 123.862 236.32V236.32V236.245C125.151 236.642 126.066 235.706 127.37 232.811V232.811C129.914 227.234 130.224 220.906 128.238 215.098V215.098C127.587 213.227 126.703 211.451 125.584 209.826V209.826C125.214 209.542 124.784 209.404 124.365 209.404V209.404C123.833 209.404 123.312 209.622 122.93 210.041V210.041ZM116.223 213.29C115.401 214.026 115.401 214.423 116.41 216.355V216.355C118.723 220.491 118.723 225.516 116.41 229.655V229.655C115.712 230.88 115.712 231.278 115.712 231.586V231.586C115.867 232.168 116.285 232.658 116.844 232.904V232.904V232.811C117.124 232.949 117.434 232.981 117.729 232.949V232.949C118.567 232.811 118.987 232.429 119.823 230.818V230.818C121.175 228.383 121.857 225.624 121.795 222.852V222.852C121.811 220.123 121.128 217.442 119.808 215.052V215.052C118.971 213.32 118.413 212.846 117.419 212.846V212.846C117.356 212.836 117.293 212.833 117.231 212.833V212.833C116.838 212.833 116.479 212.998 116.223 213.29V213.29ZM111.228 216.001C110.157 216.184 109.505 217.106 109.676 218.07V218.07C109.878 218.484 110.095 218.897 110.359 219.282V219.282C111.12 220.354 111.476 221.639 111.368 222.943V222.943C111.446 224.229 111.074 225.516 110.296 226.558V226.558C109.676 227.539 109.521 228 109.676 228.536V228.536C109.878 229.072 110.282 229.486 110.793 229.731V229.731H110.81C111.74 230.038 112.64 229.685 113.432 228.505V228.505C115.681 225.118 115.681 220.75 113.432 217.364V217.364C112.769 216.369 112.243 215.967 111.579 215.967V215.967C111.467 215.967 111.349 215.979 111.228 216.001V216.001Z" fill="white"/>
</mask>
<g mask="url(#mask1_2975_6657)">
<path fill-rule="evenodd" clip-rule="evenodd" d="M107.02 242.038H140.704V202.378H107.02V242.038Z" fill="white"/>
</g>
<path opacity="0.2" d="M402.201 158.357C381.191 158.357 360.279 158.357 339.269 158.357C342.313 141.922 345.356 125.585 348.4 109.15C352.13 89.2143 355.763 69.3761 359.494 49.4405C359.494 49.4405 359.494 49.4405 359.494 49.3433C360.868 41.8553 351.738 38.0627 347.222 44.1892C339.073 55.4698 331.022 66.7504 322.873 78.031C306.38 100.981 289.886 123.931 273.392 146.784C263.378 160.69 253.462 174.499 243.448 188.406C240.306 192.782 237.066 197.255 233.925 201.631C232.256 203.965 230.587 206.299 228.918 208.633C225.874 212.815 229.998 218.649 234.71 218.649C255.72 218.649 276.632 218.649 297.642 218.649C294.598 235.084 291.555 251.421 288.511 267.856C284.781 287.792 281.148 307.63 277.417 327.565C277.417 327.565 277.417 327.565 277.417 327.663C276.043 335.151 285.173 338.943 289.689 332.817C297.838 321.536 305.889 310.256 314.038 298.975C330.531 276.025 347.025 253.075 363.519 230.222C373.533 216.315 383.449 202.506 393.463 188.6C396.605 184.224 399.845 179.751 402.986 175.375C404.655 173.041 406.324 170.707 407.993 168.373C411.037 164.094 406.913 158.357 402.201 158.357Z" fill="white"/>
<g clip-path="url(#clip0_2975_6657)">
<path d="M133.803 117.021C131.694 117.021 129.988 116.312 128.623 114.925C127.258 113.538 126.575 111.843 126.575 109.808C126.575 107.774 127.258 106.047 128.623 104.691C129.988 103.335 131.725 102.626 133.803 102.626C135.044 102.626 136.223 102.934 137.309 103.52C138.395 104.105 139.201 104.907 139.791 105.893L137.433 107.25C137.092 106.633 136.596 106.14 135.944 105.801C135.324 105.462 134.579 105.277 133.803 105.277C132.438 105.277 131.353 105.677 130.546 106.541C129.708 107.404 129.305 108.483 129.305 109.808C129.305 111.134 129.708 112.213 130.546 113.076C131.384 113.939 132.47 114.339 133.803 114.339C134.61 114.339 135.324 114.155 135.975 113.815C136.596 113.476 137.092 112.983 137.433 112.397L139.791 113.754C139.201 114.74 138.364 115.542 137.309 116.127C136.254 116.744 135.075 117.021 133.803 117.021V117.021Z" fill="white"/>
<path d="M151.58 102.903H154.31V116.744H151.58V111.01H146.399V116.744H143.638V102.903H146.399V108.39H151.58V102.903Z" fill="white"/>
<path d="M168.053 116.744L167.215 114.247H161.662L160.824 116.744H157.846L162.717 102.903H166.129L171.031 116.744H168.053ZM162.531 111.689H166.377L164.485 106.047L162.531 111.689Z" fill="white"/>
<path d="M182.23 116.744L179.407 111.935H177.297V116.744H174.536V102.903H180.12C181.392 102.903 182.509 103.366 183.409 104.26C184.308 105.153 184.774 106.232 184.774 107.496C184.774 108.359 184.525 109.13 184.029 109.87C183.533 110.61 182.881 111.134 182.075 111.504L185.146 116.713L182.23 116.744ZM177.328 105.462V109.562H180.151C180.679 109.562 181.113 109.346 181.485 108.976C181.857 108.575 182.044 108.082 182.044 107.527C182.044 106.972 181.857 106.479 181.485 106.078C181.113 105.678 180.648 105.493 180.151 105.493L177.328 105.462Z" fill="white"/>
<path d="M202.519 109.315V110.394C202.519 112.367 201.898 113.97 200.626 115.203C199.354 116.436 197.71 117.021 195.694 117.021C193.553 117.021 191.754 116.312 190.358 114.925C188.931 113.538 188.217 111.843 188.217 109.839C188.217 107.804 188.931 106.109 190.327 104.722C191.723 103.335 193.46 102.626 195.539 102.626C196.842 102.626 198.02 102.934 199.106 103.52C200.192 104.105 200.999 104.907 201.619 105.862L199.261 107.219C198.92 106.664 198.424 106.202 197.741 105.832C197.059 105.493 196.314 105.308 195.508 105.308C194.174 105.308 193.088 105.739 192.25 106.602C191.382 107.465 190.978 108.544 190.978 109.87C190.978 111.195 191.413 112.243 192.281 113.106C193.15 113.97 194.298 114.37 195.725 114.37C196.78 114.37 197.648 114.124 198.362 113.661C199.075 113.199 199.541 112.552 199.789 111.75H195.57V109.346H202.55L202.519 109.315Z" fill="white"/>
<path d="M209.375 114.124H215.238V116.744H206.645V102.903H215.145V105.523H209.375V108.452H214.649V111.01H209.375V114.124Z" fill="white"/>
<path d="M222.715 114.987H228.733V116.744H220.884V102.903H222.715V114.987Z" fill="white"/>
<path d="M242.352 116.744L241.204 113.631H234.938L233.79 116.744H231.835L237.016 102.903H239.126L244.307 116.744H242.352ZM235.558 111.935H240.553L238.04 105.123L235.558 111.935Z" fill="white"/>
<path d="M256.095 109.561C256.716 109.87 257.243 110.301 257.615 110.856C257.987 111.411 258.174 112.058 258.174 112.798C258.174 113.908 257.801 114.833 256.995 115.603C256.219 116.343 255.258 116.744 254.141 116.744H248.122V102.872H253.706C254.792 102.872 255.723 103.242 256.467 103.951C257.212 104.691 257.615 105.585 257.615 106.664C257.646 107.928 257.119 108.852 256.095 109.561V109.561ZM253.737 104.629H250.015V108.852H253.737C254.327 108.852 254.823 108.637 255.226 108.236C255.63 107.835 255.816 107.311 255.816 106.726C255.816 106.14 255.599 105.647 255.226 105.215C254.761 104.845 254.296 104.629 253.737 104.629V104.629ZM254.141 115.018C254.761 115.018 255.289 114.802 255.723 114.37C256.126 113.939 256.343 113.415 256.343 112.767C256.343 112.151 256.126 111.627 255.723 111.195C255.289 110.764 254.761 110.548 254.172 110.548H250.015V115.048L254.141 115.018Z" fill="white"/>
<path d="M119.006 106.387C116.648 106.387 114.29 106.387 111.933 106.387C112.274 104.537 112.615 102.687 112.956 100.838C113.36 98.5876 113.794 96.3373 114.197 94.0871C114.197 94.0871 114.197 94.0871 114.197 94.0562C114.352 93.1931 113.329 92.7924 112.801 93.4706C111.871 94.7344 110.971 95.9983 110.04 97.2929C108.179 99.8823 106.318 102.472 104.456 105.061C103.339 106.633 102.223 108.174 101.075 109.777C100.734 110.271 100.361 110.764 99.989 111.288C99.8649 111.565 99.6787 111.812 99.4926 112.089C99.1514 112.552 99.6167 113.23 100.144 113.23H107.217C106.876 115.079 106.535 116.929 106.194 118.778C105.79 121.029 105.356 123.279 104.953 125.529V125.56C104.797 126.423 105.821 126.824 106.349 126.146C107.279 124.882 108.179 123.618 109.11 122.323L114.694 114.555C115.811 112.983 116.927 111.442 118.075 109.839C118.416 109.346 118.789 108.853 119.161 108.329C119.347 108.051 119.533 107.804 119.719 107.527C119.999 107.034 119.533 106.387 119.006 106.387V106.387Z" fill="white"/>
</g>
<g opacity="0.4" filter="url(#filter1_f_2975_6657)">
<ellipse cx="334.568" cy="126.406" rx="120.253" ry="120.416" fill="url(#paint1_radial_2975_6657)"/>
</g>
</g>
</g>
<defs>
<filter id="filter0_dd_2975_6657" x="0" y="0" width="464" height="340.389" filterUnits="userSpaceOnUse" color-interpolation-filters="sRGB">
<feFlood flood-opacity="0" result="BackgroundImageFix"/>
<feColorMatrix in="SourceAlpha" type="matrix" values="0 0 0 0 0 0 0 0 0 0 0 0 0 0 0 0 0 0 127 0" result="hardAlpha"/>
<feOffset dy="4"/>
<feGaussianBlur stdDeviation="8"/>
<feColorMatrix type="matrix" values="0 0 0 0 0 0 0 0 0 0 0 0 0 0 0 0 0 0 0.08 0"/>
<feBlend mode="normal" in2="BackgroundImageFix" result="effect1_dropShadow_2975_6657"/>
<feColorMatrix in="SourceAlpha" type="matrix" values="0 0 0 0 0 0 0 0 0 0 0 0 0 0 0 0 0 0 127 0" result="hardAlpha"/>
<feOffset dy="4"/>
<feGaussianBlur stdDeviation="32"/>
<feColorMatrix type="matrix" values="0 0 0 0 0 0 0 0 0 0 0 0 0 0 0 0 0 0 0.16 0"/>
<feBlend mode="normal" in2="effect1_dropShadow_2975_6657" result="effect2_dropShadow_2975_6657"/>
<feBlend mode="normal" in="SourceGraphic" in2="effect2_dropShadow_2975_6657" result="shape"/>
</filter>
<filter id="filter1_f_2975_6657" x="94.3157" y="-114.01" width="480.505" height="480.833" filterUnits="userSpaceOnUse" color-interpolation-filters="sRGB">
<feFlood flood-opacity="0" result="BackgroundImageFix"/>
<feBlend mode="normal" in="SourceGraphic" in2="BackgroundImageFix" result="shape"/>
<feGaussianBlur stdDeviation="60" result="effect1_foregroundBlur_2975_6657"/>
</filter>
<linearGradient id="paint0_linear_2975_6657" x1="232" y1="378.583" x2="423.85" y2="75.0756" gradientUnits="userSpaceOnUse">
<stop stop-color="#18A0D7"/>
<stop offset="0.243949" stop-color="#8fc03f"/>
<stop offset="0.500316" stop-color="#00D1CA"/>
<stop offset="0.761899" stop-color="#8fc03f"/>
<stop offset="1" stop-color="#A7F288"/>
</linearGradient>
<radialGradient id="paint1_radial_2975_6657" cx="0" cy="0" r="1" gradientUnits="userSpaceOnUse" gradientTransform="translate(334.568 126.406) rotate(90) scale(126.169 125.998)">
<stop stop-color="white"/>
<stop offset="1" stop-color="white" stop-opacity="0.01"/>
</radialGradient>
<clipPath id="clip0_2975_6657">
<rect width="158.836" height="33.6" fill="white" transform="translate(99.3684 93.0082)"/>
</clipPath>
</defs>
</svg>
