<svg width="1001" height="293" viewBox="0 0 1001 293" fill="none" xmlns="http://www.w3.org/2000/svg">
<mask id="mask0_284_1959" style="mask-type:luminance" maskUnits="userSpaceOnUse" x="245" y="23" width="510" height="270">
<path d="M754.359 23H245V292.284H754.359V23Z" fill="white"/>
</mask>
<g mask="url(#mask0_284_1959)">
<path d="M245 262.869L280.003 282.531L315.099 262.869L280.003 243.212L245 262.869Z" fill="#0A4056"/>
<path d="M315.099 262.869L280.003 282.531V285.456L315.099 265.799V262.869Z" fill="#1CD7EA"/>
<path d="M245 265.799L280.101 285.456V282.531L245 262.869V265.799Z" fill="#8fc03f"/>
<path d="M245 256.917L280.003 276.574L315.099 256.917L280.003 237.26L245 256.917Z" fill="#0A4056"/>
<path d="M315.099 256.917L280.003 276.574V279.504L315.099 259.842V256.917Z" fill="#1CD7EA"/>
<path d="M245 259.842L280.101 279.504V276.574L245 256.917V259.842Z" fill="#8fc03f"/>
<path d="M245 250.96L280.003 270.617L315.099 250.96L280.003 231.303L245 250.96Z" fill="#0A4056"/>
<path d="M315.099 250.96L280.003 270.617V273.547L315.099 253.89V250.96Z" fill="#1CD7EA"/>
<path d="M245 253.89L280.101 273.547V270.617L245 250.96V253.89Z" fill="#8fc03f"/>
<path d="M308.527 63.1072H280.091V153.187L291.486 146.806V155.119L300.76 149.926V141.613L308.527 137.262V63.1072Z" fill="#18A0D7"/>
<path d="M308.527 132.113V250.96L280.091 266.889V132.113H308.527Z" fill="#18A0D7"/>
<path d="M251.573 63.1072V137.262V250.96L280.013 266.933L280.091 266.889V153.187V63.1072H251.573Z" fill="#117DB8"/>
<path d="M280.008 46.1172L249.754 63.1071L280.008 80.102L310.35 63.1071L280.008 46.1172Z" fill="#0A4056"/>
<path d="M310.35 63.1072L280.008 80.102V82.6327L310.35 65.6379V63.1072Z" fill="#1CD7EA"/>
<path d="M249.754 63.1072L280.091 80.102V82.6327L249.754 65.6379V63.1072Z" fill="#8fc03f"/>
<mask id="mask1_284_1959" style="mask-type:luminance" maskUnits="userSpaceOnUse" x="245" y="23" width="510" height="270">
<path d="M754.359 23H245V292.284H754.359V23Z" fill="white"/>
</mask>
<g mask="url(#mask1_284_1959)">
<path d="M312.491 79.6397L310.443 78.7782C310.17 78.6322 309.828 78.6079 309.521 78.7782L276.293 97.3791C275.981 97.5543 275.791 97.8804 275.791 98.2356V156.306C275.791 156.686 276.005 156.987 276.303 157.143L278.346 158L279.209 156.014L310.428 138.538C310.735 138.362 310.93 138.036 310.93 137.681V83.2021L312.481 79.6397H312.491Z" fill="#082E3A"/>
<path d="M278.433 98.2892L311.662 79.6883C312.296 79.3331 313.076 79.7905 313.076 80.5157V138.586C313.076 138.941 312.886 139.268 312.574 139.438L279.345 158.039C278.711 158.394 277.931 157.937 277.931 157.211V99.1409C277.931 98.7856 278.121 98.4595 278.433 98.2892Z" fill="#0A4056"/>
</g>
<mask id="mask2_284_1959" style="mask-type:luminance" maskUnits="userSpaceOnUse" x="281" y="84" width="29" height="48">
<path d="M308.946 84.7937L281.651 100.07C281.291 100.275 281.066 100.655 281.066 101.068V130.663C281.066 131.179 281.622 131.5 282.071 131.247L309.365 115.97C309.726 115.766 309.95 115.386 309.95 114.973V85.3777C309.95 84.9883 309.629 84.7061 309.278 84.7061C309.165 84.7061 309.053 84.7353 308.951 84.7937" fill="white"/>
</mask>
<g mask="url(#mask2_284_1959)">
<path d="M309.95 84.7061H281.066V131.5H309.95V84.7061Z" fill="url(#paint0_linear_284_1959)"/>
</g>
<mask id="mask3_284_1959" style="mask-type:luminance" maskUnits="userSpaceOnUse" x="284" y="116" width="24" height="15">
<path d="M305.621 116.866L285.493 128.132C284.986 128.415 284.806 129.057 285.089 129.563C285.284 129.909 285.64 130.099 286.005 130.099C286.181 130.099 286.356 130.055 286.517 129.962L306.645 118.696C307.152 118.413 307.332 117.771 307.049 117.265C306.854 116.924 306.498 116.729 306.133 116.729C305.957 116.729 305.782 116.773 305.621 116.866Z" fill="white"/>
</mask>
<g mask="url(#mask3_284_1959)">
<path d="M307.337 116.729H284.806V130.099H307.337V116.729Z" fill="url(#paint1_linear_284_1959)"/>
</g>
<mask id="mask4_284_1959" style="mask-type:luminance" maskUnits="userSpaceOnUse" x="245" y="23" width="510" height="270">
<path d="M754.359 23H245V292.284H754.359V23Z" fill="white"/>
</mask>
<g mask="url(#mask4_284_1959)">
<path d="M300.686 123.509L292.807 127.918C292.398 128.147 292.139 128.58 292.139 129.052V148.184C292.139 148.748 292.749 149.108 293.246 148.831L301.125 144.421C301.535 144.193 301.788 143.76 301.788 143.288V124.156C301.788 123.587 301.179 123.232 300.682 123.509" fill="#082E3A"/>
<path d="M305.362 150.481L301.442 151.225L298.034 141.093C297.044 138.854 294.255 138.061 292.242 139.457C292.178 139.501 292.139 139.53 292.139 139.53V135.34L295.347 132.722L297.059 131.335C297.059 131.335 297.073 131.335 297.108 131.34C300.828 131.807 303.758 134.649 304.412 138.27C304.465 138.562 304.504 138.859 304.524 139.165L304.636 140.679L305.362 150.476V150.481Z" fill="#117DB8"/>
</g>
<mask id="mask5_284_1959" style="mask-type:luminance" maskUnits="userSpaceOnUse" x="295" y="131" width="10" height="8">
<path d="M295.347 132.727C295.347 132.727 301.525 139.253 304.411 138.275C303.758 134.654 300.823 131.812 297.108 131.344C297.073 131.344 297.059 131.339 297.059 131.339L295.352 132.727H295.347Z" fill="white"/>
</mask>
<g mask="url(#mask5_284_1959)">
<path d="M304.411 131.339H295.347V139.253H304.411V131.339Z" fill="url(#paint2_linear_284_1959)"/>
</g>
<mask id="mask6_284_1959" style="mask-type:luminance" maskUnits="userSpaceOnUse" x="245" y="23" width="510" height="270">
<path d="M754.359 23H245V292.284H754.359V23Z" fill="white"/>
</mask>
<g mask="url(#mask6_284_1959)">
<path d="M301.442 151.225L303.017 157.148H306.303L305.362 150.481L301.442 151.225Z" fill="#0A4056"/>
<path d="M308.527 200.526L310.248 196.189C310.794 194.812 310.935 193.303 310.648 191.848L303.47 155.279L305.123 154.953L312.393 192.009C312.681 193.464 312.539 194.968 311.993 196.345L308.527 205.086V200.521V200.526Z" fill="#0A4056"/>
<path d="M470.715 245.475L470.754 245.451L470.695 245.466L443.815 231.771L380.879 267.61L380.737 267.644L380.781 267.663L380.737 267.687L380.796 267.673L407.681 281.373L470.617 245.529L470.754 245.495L470.715 245.475Z" fill="#0A4056"/>
<path d="M407.681 285.096L380.781 271.391V267.663L407.681 281.368V285.096Z" fill="#8fc03f"/>
<path d="M470.617 245.529L407.681 281.373V285.101L470.617 249.257V245.529Z" fill="#1CD7EA"/>
</g>
<mask id="mask7_284_1959" style="mask-type:luminance" maskUnits="userSpaceOnUse" x="441" y="74" width="13" height="72">
<path d="M441.299 80.9683V145.784L453.367 138.635V74.0964L441.299 80.9683Z" fill="white"/>
</mask>
<g mask="url(#mask7_284_1959)">
<path d="M447.336 68.0707L405.391 109.938L447.336 151.805L489.281 109.938L447.336 68.0707Z" fill="url(#paint3_linear_284_1959)"/>
</g>
<mask id="mask8_284_1959" style="mask-type:luminance" maskUnits="userSpaceOnUse" x="389" y="45" width="73" height="233">
<path d="M394.731 71.0352C391.376 72.943 389.304 76.5055 389.304 80.36V266.179L410.826 277.144L416.916 250.454L439.69 237.489V150.68L440.807 145.784L420.046 157.606V99.1896C420.046 95.4032 422.084 91.904 425.38 90.0303L453.367 74.0964V90.7651L461.212 56.3959L439.69 45.431L394.731 71.0352Z" fill="white"/>
</mask>
<g mask="url(#mask8_284_1959)">
<path d="M461.212 45.431H389.304V277.144H461.212V45.431Z" fill="url(#paint4_linear_284_1959)"/>
</g>
<mask id="mask9_284_1959" style="mask-type:luminance" maskUnits="userSpaceOnUse" x="410" y="56" width="52" height="222">
<path d="M420.046 99.1895C420.046 95.4032 422.084 91.904 425.38 90.0302L453.367 74.0964V138.635L440.807 145.784L420.046 157.606V99.1895ZM416.252 81.9952C412.898 83.9078 410.826 87.4654 410.826 91.3199V277.144L461.212 248.449V56.3959L416.252 81.9952Z" fill="white"/>
</mask>
<g mask="url(#mask9_284_1959)">
<path d="M461.212 56.3959H410.826V277.144H461.212V56.3959Z" fill="url(#paint5_linear_284_1959)"/>
</g>
<mask id="mask10_284_1959" style="mask-type:luminance" maskUnits="userSpaceOnUse" x="420" y="134" width="34" height="24">
<path d="M420.046 145.984V157.606L453.367 138.635L441.299 134.853L420.046 145.984Z" fill="white"/>
</mask>
<g mask="url(#mask10_284_1959)">
<path d="M453.367 134.853H420.046V157.606H453.367V134.853Z" fill="url(#paint6_linear_284_1959)"/>
</g>
<mask id="mask11_284_1959" style="mask-type:luminance" maskUnits="userSpaceOnUse" x="393" y="217" width="8" height="14">
<path d="M394.75 218.844C394.35 219.433 394.024 220.178 393.804 221.02C393.575 221.847 393.448 222.777 393.448 223.76C393.448 227.293 395.072 230.155 397.081 230.155C398.792 230.155 400.216 228.082 400.611 225.288C400.674 224.801 400.713 224.29 400.713 223.76C400.713 223.643 400.713 223.536 400.699 223.424C400.611 220.042 399.021 217.355 397.081 217.355C396.193 217.355 395.384 217.915 394.75 218.844Z" fill="white"/>
</mask>
<g mask="url(#mask11_284_1959)">
<path d="M400.713 217.355H393.453V230.15H400.713V217.355Z" fill="url(#paint7_linear_284_1959)"/>
</g>
<mask id="mask12_284_1959" style="mask-type:luminance" maskUnits="userSpaceOnUse" x="394" y="218" width="6" height="11">
<path d="M395.311 220.027C395.009 220.475 394.76 221.039 394.594 221.677C394.419 222.305 394.326 223.01 394.326 223.755C394.326 226.437 395.56 228.607 397.081 228.607C398.378 228.607 399.46 227.035 399.758 224.913C399.806 224.543 399.836 224.154 399.836 223.755C399.836 223.667 399.836 223.585 399.826 223.502C399.758 220.937 398.553 218.898 397.081 218.898C396.408 218.898 395.794 219.321 395.311 220.027Z" fill="white"/>
</mask>
<g mask="url(#mask12_284_1959)">
<path d="M399.836 218.898H394.326V228.607H399.836V218.898Z" fill="url(#paint8_linear_284_1959)"/>
</g>
<mask id="mask13_284_1959" style="mask-type:luminance" maskUnits="userSpaceOnUse" x="245" y="23" width="510" height="270">
<path d="M754.359 23H245V292.284H754.359V23Z" fill="white"/>
</mask>
<g mask="url(#mask13_284_1959)">
<path d="M425.575 172.654L449.081 159.27C450.383 158.525 452.007 159.47 452.007 160.964V190.082C452.007 190.997 451.514 191.843 450.714 192.301L427.208 205.685C425.906 206.424 424.283 205.485 424.283 203.986V174.868C424.283 173.948 424.775 173.106 425.575 172.649" fill="#0A4056"/>
</g>
<mask id="mask14_284_1959" style="mask-type:luminance" maskUnits="userSpaceOnUse" x="426" y="162" width="24" height="41">
<path d="M448.072 162.648L428.013 174.065C427.213 174.518 426.721 175.365 426.721 176.284V201.446C426.721 202.21 427.55 202.692 428.213 202.312L448.272 190.89C449.071 190.437 449.564 189.585 449.564 188.67V163.509C449.564 162.925 449.086 162.511 448.564 162.511C448.398 162.511 448.233 162.555 448.072 162.643" fill="white"/>
</mask>
<g mask="url(#mask14_284_1959)">
<path d="M449.564 162.511H426.721V202.687H449.564V162.511Z" fill="url(#paint9_linear_284_1959)"/>
</g>
<mask id="mask15_284_1959" style="mask-type:luminance" maskUnits="userSpaceOnUse" x="245" y="23" width="510" height="270">
<path d="M754.359 23H245V292.284H754.359V23Z" fill="white"/>
</mask>
<g mask="url(#mask15_284_1959)">
<path d="M445.01 204.731L449.72 202.049V205.052L445.01 207.733V204.731Z" fill="#0A4056"/>
<path d="M445.01 209.159L449.72 206.478V209.481L445.01 212.162V209.159Z" fill="#0A4056"/>
<path d="M445.01 213.593L449.72 210.911V213.914L445.01 216.596V213.593Z" fill="#0A4056"/>
<path d="M438.861 208.308L443.571 205.626V208.629L438.861 211.311V208.308Z" fill="#0A4056"/>
<path d="M438.861 212.741L443.571 210.06V213.063L438.861 215.744V212.741Z" fill="#0A4056"/>
<path d="M438.861 217.175L443.571 214.489V217.491L438.861 220.173V217.175Z" fill="#0A4056"/>
<path d="M432.713 211.89L437.428 209.208V212.211L432.713 214.893V211.89Z" fill="#0A4056"/>
<path d="M432.713 216.318L437.428 213.637V216.64L432.713 219.321V216.318Z" fill="#0A4056"/>
<path d="M432.713 220.752L437.428 218.071V221.073L432.713 223.755V220.752Z" fill="#0A4056"/>
<path d="M426.565 215.467L431.28 212.785V215.788L426.565 218.47V215.467Z" fill="#0A4056"/>
<path d="M426.565 219.9L431.28 217.219V220.222L426.565 222.903V219.9Z" fill="#0A4056"/>
<path d="M426.565 224.329L431.28 221.648V224.65L426.565 227.332V224.329Z" fill="#0A4056"/>
<path d="M406.511 127.792V160.438L398.085 156.452V123.772L393.926 121.377L406.511 127.792Z" fill="#0A4056"/>
<path d="M398.085 123.772V156.452L393.926 158.608V121.377L398.085 123.772Z" fill="#082E3A"/>
<path d="M406.511 160.438V165.023L393.926 158.608L398.085 156.452L406.511 160.438Z" fill="#12586D"/>
</g>
<mask id="mask16_284_1959" style="mask-type:luminance" maskUnits="userSpaceOnUse" x="397" y="134" width="10" height="26">
<path d="M399.831 138.138C398.334 138.873 397.432 140.445 397.549 142.105L398.685 158.097L401.445 159.62L402.595 145.074C402.654 144.324 402.98 143.618 403.512 143.083L406.515 140.075V134.858L399.831 138.143V138.138Z" fill="white"/>
</mask>
<g mask="url(#mask16_284_1959)">
<path d="M406.51 134.853H397.427V159.616H406.51V134.853Z" fill="url(#paint10_linear_284_1959)"/>
</g>
<mask id="mask17_284_1959" style="mask-type:luminance" maskUnits="userSpaceOnUse" x="245" y="23" width="510" height="270">
<path d="M754.359 23H245V292.284H754.359V23Z" fill="white"/>
</mask>
<g mask="url(#mask17_284_1959)">
<path d="M400.933 171.924C400.747 173.16 400.728 174.172 400.713 175.068C400.689 176.367 400.669 177.491 400.206 178.854C399.582 180.699 398.251 182.095 396.959 183.443C396.661 183.755 396.359 184.066 396.076 184.378C393.746 186.933 392.186 189.819 391.561 192.715C390.864 195.946 391.362 199.256 392.927 201.791C393.365 202.502 393.882 203.154 394.428 203.845C394.955 204.507 395.496 205.193 395.964 205.933C397.183 207.86 397.554 209.812 397.013 211.432C396.774 212.148 396.384 212.751 395.998 213.34C395.803 213.642 395.618 213.924 395.457 214.221C394.506 215.954 394.433 218.144 395.267 219.935C395.282 219.964 395.296 219.998 395.311 220.027C396.159 221.779 397.856 223.093 399.763 223.482C399.782 223.482 399.806 223.492 399.826 223.502C399.836 223.585 399.836 223.667 399.836 223.755C399.836 224.154 399.806 224.543 399.758 224.913C399.709 224.923 399.665 224.928 399.616 224.928C399.567 224.928 399.519 224.928 399.47 224.913C397.51 224.514 395.73 223.317 394.594 221.677C394.341 221.322 394.126 220.947 393.941 220.553C392.917 218.343 393.005 215.652 394.175 213.52C394.36 213.175 394.57 212.853 394.775 212.542C395.121 212.011 395.447 211.51 395.623 210.975C396.164 209.354 395.296 207.607 394.731 206.712C394.302 206.035 393.804 205.412 393.283 204.75C392.732 204.054 392.166 203.339 391.683 202.555C389.923 199.703 389.358 196.005 390.128 192.403C390.806 189.259 392.488 186.144 394.994 183.4C395.287 183.074 395.594 182.752 395.901 182.431C397.134 181.146 398.3 179.925 398.821 178.387C399.212 177.238 399.231 176.27 399.251 175.043C399.27 174.104 399.285 173.038 399.485 171.71C399.543 171.311 399.914 171.033 400.313 171.092C400.713 171.15 400.991 171.525 400.933 171.924Z" fill="#0A4056"/>
<path d="M401.445 159.62L398.685 158.097V173.301L401.445 174.824V159.62Z" fill="#082E3A"/>
</g>
<mask id="mask18_284_1959" style="mask-type:luminance" maskUnits="userSpaceOnUse" x="523" y="235" width="77" height="43">
<path d="M523.393 262.524L523.383 262.529L552.935 277.898L599.86 251.174H599.87L570.313 235.805L523.393 262.524Z" fill="white"/>
</mask>
<g mask="url(#mask18_284_1959)">
<path d="M599.865 235.805H523.383V277.898H599.865V235.805Z" fill="url(#paint11_linear_284_1959)"/>
</g>
<mask id="mask19_284_1959" style="mask-type:luminance" maskUnits="userSpaceOnUse" x="518" y="262" width="35" height="24">
<path d="M518.547 270.525L548.05 285.894L552.935 277.898L523.393 262.524L518.547 270.525Z" fill="white"/>
</mask>
<g mask="url(#mask19_284_1959)">
<path d="M552.935 262.524H518.547V285.894H552.935V262.524Z" fill="url(#paint12_linear_284_1959)"/>
</g>
<mask id="mask20_284_1959" style="mask-type:luminance" maskUnits="userSpaceOnUse" x="548" y="251" width="55" height="35">
<path d="M552.935 277.898L548.079 285.894L602.2 255.078L599.87 251.174L552.935 277.898Z" fill="white"/>
</mask>
<g mask="url(#mask20_284_1959)">
<path d="M602.2 251.174H548.079V285.894H602.2V251.174Z" fill="url(#paint13_linear_284_1959)"/>
</g>
<mask id="mask21_284_1959" style="mask-type:luminance" maskUnits="userSpaceOnUse" x="549" y="26" width="35" height="243">
<path d="M549.362 46.3459V268.476L583.668 248.936V26.8058L549.362 46.3459Z" fill="white"/>
</mask>
<g mask="url(#mask21_284_1959)">
<path d="M583.668 26.8058H549.362V268.476H583.668V26.8058Z" fill="url(#paint14_linear_284_1959)"/>
</g>
<mask id="mask22_284_1959" style="mask-type:luminance" maskUnits="userSpaceOnUse" x="543" y="43" width="7" height="226">
<path d="M543.16 265.351L549.362 268.476V46.5261L543.16 43.4016V265.351Z" fill="white"/>
</mask>
<g mask="url(#mask22_284_1959)">
<path d="M549.362 43.4016H543.16V268.476H549.362V43.4016Z" fill="url(#paint15_linear_284_1959)"/>
</g>
<mask id="mask23_284_1959" style="mask-type:luminance" maskUnits="userSpaceOnUse" x="543" y="23" width="41" height="24">
<path d="M543.16 43.4016L549.362 46.5261L583.668 26.8059L577.47 23.6814L543.16 43.4016Z" fill="white"/>
</mask>
<g mask="url(#mask23_284_1959)">
<path d="M583.668 23.6814H543.16V46.5261H583.668V23.6814Z" fill="url(#paint16_linear_284_1959)"/>
</g>
<mask id="mask24_284_1959" style="mask-type:luminance" maskUnits="userSpaceOnUse" x="245" y="23" width="510" height="270">
<path d="M754.359 23H245V292.284H754.359V23Z" fill="white"/>
</mask>
<g mask="url(#mask24_284_1959)">
<path d="M586.627 64.7571L580.942 63.3311C580.893 63.3165 580.84 63.3068 580.786 63.2922L580.586 63.2435C579.27 62.9564 577.831 63.1218 576.5 63.8811L553.837 76.7878C549.82 79.0752 547.343 83.3336 547.343 87.9473V133.963C547.343 136.829 549.347 139.005 551.809 139.594H551.814C551.853 139.603 551.892 139.613 551.931 139.623L557.475 140.99L558.864 137.36L578.67 126.083C582.683 123.796 585.164 119.538 585.164 114.924V68.9084C585.164 68.8111 585.16 68.7138 585.155 68.6116L586.627 64.7668V64.7571Z" fill="#0A4056"/>
</g>
<mask id="mask25_284_1959" style="mask-type:luminance" maskUnits="userSpaceOnUse" x="552" y="88" width="39" height="54">
<path d="M552.984 110.865V135.374C552.984 139.813 557.787 142.596 561.649 140.397L584.311 127.49C588.324 125.207 590.811 120.944 590.811 116.326V88.4437C577.758 117.528 559.074 113.23 552.989 110.87" fill="white"/>
</mask>
<g mask="url(#mask25_284_1959)">
<path d="M590.806 88.4385H552.984V142.591H590.806V88.4385Z" fill="url(#paint17_linear_284_1959)"/>
</g>
<mask id="mask26_284_1959" style="mask-type:luminance" maskUnits="userSpaceOnUse" x="245" y="23" width="510" height="270">
<path d="M754.359 23H245V292.284H754.359V23Z" fill="white"/>
</mask>
<g mask="url(#mask26_284_1959)">
<path d="M590.806 70.31V88.4388C577.753 117.523 559.069 113.225 552.984 110.865V89.3537C552.984 84.7449 555.466 80.4816 559.484 78.1942L582.141 65.2875C586.003 63.0877 590.806 65.8715 590.806 70.31Z" fill="#18A0D7"/>
<path d="M569.513 102.197V107.682C569.513 107.95 569.294 108.169 569.026 108.169C568.757 108.169 568.538 107.95 568.538 107.682V102.197C568.538 101.93 568.757 101.711 569.026 101.711C569.294 101.711 569.513 101.93 569.513 102.197Z" fill="url(#paint18_linear_284_1959)"/>
<path d="M572.356 100.591V106.076C572.356 106.344 572.136 106.563 571.868 106.563C571.6 106.563 571.381 106.344 571.381 106.076V100.591C571.381 100.323 571.6 100.104 571.868 100.104C572.136 100.104 572.356 100.323 572.356 100.591Z" fill="url(#paint19_linear_284_1959)"/>
<path d="M575.198 98.99V104.475C575.198 104.743 574.979 104.962 574.711 104.962C574.443 104.962 574.223 104.743 574.223 104.475V98.99C574.223 98.7223 574.443 98.5033 574.711 98.5033C574.979 98.5033 575.198 98.7223 575.198 98.99Z" fill="url(#paint20_linear_284_1959)"/>
<path d="M578.036 97.3839V102.869C578.036 103.136 577.817 103.355 577.548 103.355C577.28 103.355 577.061 103.136 577.061 102.869V97.3839C577.061 97.1162 577.28 96.8972 577.548 96.8972C577.817 96.8972 578.036 97.1162 578.036 97.3839Z" fill="url(#paint21_linear_284_1959)"/>
<path d="M555.52 189.614C553.404 193.834 551.638 198.238 550.566 202.837C549.527 207.281 549.113 211.846 548.976 216.401C548.703 225.638 549.308 236.511 557.129 242.828C560.742 245.743 565.393 247.101 569.981 246.069C574.077 245.144 577.553 242.365 580.133 239.153C583.043 235.523 585.018 231.337 586.53 226.957C588.241 222.003 589.255 216.81 589.601 211.583C589.948 206.419 589.601 201.192 588.563 196.121C587.583 191.303 585.803 186.509 582.493 182.786C579.431 179.341 574.774 176.907 570.084 177.146C565.651 177.37 561.868 179.895 559.196 183.317C556.344 186.972 554.613 191.337 553.384 195.771C551.96 200.9 551.248 206.254 551.273 211.578C551.317 220.324 553.052 230.116 559.215 236.764C562.063 239.835 565.905 241.85 570.123 242.069C574.833 242.317 579.352 240.263 582.946 237.353C590.221 231.464 593.444 221.745 593.565 212.649C593.692 203.134 590.503 193.921 585.598 185.852C583.117 181.769 580.284 177.798 577.246 174.104C574.652 170.95 570.049 170.162 566.266 171.379C562.175 172.697 558.596 175.948 556.295 179.511C555.052 181.438 554.262 183.687 553.413 185.809C552.57 187.921 551.79 190.062 551.102 192.228C549.795 196.34 548.84 200.545 548.104 204.794C547.704 207.106 547.362 209.432 547.041 211.758C546.694 214.274 546.329 216.791 546.148 219.326C545.49 228.573 547.045 238.092 551.677 246.215C553.989 250.264 556.997 254.09 560.805 256.83C564.442 259.448 569.216 261.171 573.687 259.891C575.998 259.229 578.08 257.813 579.894 256.275C581.722 254.722 583.385 252.849 584.54 250.741C587.007 246.249 588.86 241.343 590.143 236.389C592.688 226.573 592.868 216.309 591.557 206.293C590.952 201.674 589.957 197.143 588.324 192.773C586.798 188.69 584.813 184.787 582.449 181.122C580.016 177.35 577.217 173.822 574.243 170.464C573.482 169.607 572.712 168.76 571.932 167.928C571.439 167.402 570.693 166.813 570.752 166.152C570.82 165.349 571.054 164.531 571.2 163.738C571.576 161.733 571.951 159.727 572.326 157.722C572.473 156.949 572.112 156.145 571.303 155.926C570.591 155.732 569.65 156.165 569.503 156.949C569.133 158.934 568.757 160.925 568.387 162.91C568.236 163.723 568.07 164.536 567.929 165.353C567.753 166.38 567.851 167.398 568.397 168.308C568.982 169.286 569.962 170.099 570.727 170.936C576.339 177.053 581.376 183.774 584.657 191.444C588.168 199.659 589.392 208.863 589.441 217.788C589.494 227.313 587.778 236.847 583.838 245.553C582.907 247.617 581.942 249.758 580.489 251.52C579.079 253.223 577.402 254.727 575.505 255.871C573.76 256.927 572.024 257.482 570.02 257.394C568.143 257.311 566.178 256.63 564.462 255.691C560.703 253.642 557.792 250.357 555.466 246.819C553.096 243.207 551.385 239.236 550.317 235.056C549.24 230.826 548.835 226.48 548.937 222.12C549.045 217.525 549.752 212.951 550.454 208.42C551.088 204.327 551.863 200.253 552.96 196.258C554.115 192.033 555.617 187.906 557.353 183.886C558.114 182.129 559.016 180.513 560.22 179.131C561.517 177.642 562.984 176.333 564.667 175.321C566.363 174.299 567.924 173.797 569.806 173.797C570.776 173.797 571.468 173.861 572.414 174.167C572.838 174.303 572.824 174.294 573.263 174.532C573.448 174.634 573.623 174.741 573.799 174.858C573.877 174.912 573.95 174.96 574.023 175.014C574.15 175.106 573.911 174.912 574.106 175.082C575.603 176.372 576.72 178.158 577.89 179.73C579.245 181.56 580.567 183.414 581.81 185.322C584.214 189.016 586.335 192.914 587.851 197.056C590.85 205.237 591.703 214.313 589.085 222.704C587.846 226.67 585.793 230.481 582.873 233.469C580.045 236.36 576.198 238.725 572.166 239.1C570.171 239.285 568.289 239.041 566.417 238.326C566.09 238.204 565.847 238.092 565.437 237.883C565.008 237.664 564.589 237.426 564.184 237.168C563.409 236.671 562.902 236.267 562.199 235.615C559.513 233.104 557.67 229.731 556.461 226.295C555.008 222.149 554.393 217.744 554.232 213.369C554.047 208.332 554.54 203.29 555.72 198.389C556.743 194.14 558.128 190.013 560.556 186.373C562.614 183.288 565.564 180.64 569.338 180.119C573.341 179.569 577.427 181.633 580.157 184.563C583.268 187.901 584.804 192.408 585.711 196.793C587.68 206.342 586.954 216.43 583.872 225.663C582.556 229.605 580.786 233.542 578.275 236.808C577.129 238.297 575.686 239.806 574.252 240.857C572.702 241.991 571.171 242.779 569.357 243.212C567.592 243.631 565.671 243.602 563.843 243.115C561.868 242.594 560.049 241.562 558.533 240.2C555.266 237.26 553.443 233.138 552.57 228.904C551.663 224.509 551.755 219.944 551.921 215.481C552.082 211.228 552.506 207.115 553.525 202.993C554.549 198.852 556.124 194.895 558.036 191.089C558.387 190.383 558.221 189.507 557.509 189.094C556.86 188.714 555.861 188.909 555.51 189.619" fill="#0A4056"/>
<path d="M571.098 156.063L561.887 161.304V146.587L571.098 141.341V156.063Z" fill="#0A4056"/>
<path d="M574.608 149.186C574.608 149.473 574.574 149.765 574.511 150.052L572.478 161.041H568.226L569.045 154.486C569.221 153.104 567.826 152.057 566.544 152.607L561.887 154.603V149.897L568.835 145.828C570.196 145.035 571.912 145.156 573.141 146.139C574.082 146.889 574.608 148.018 574.608 149.186Z" fill="#117DB8"/>
<path d="M704.509 232.291L654.805 260.207L704.509 288.123L754.359 260.207L704.509 232.291Z" fill="#082E3A"/>
</g>
<mask id="mask27_284_1959" style="mask-type:luminance" maskUnits="userSpaceOnUse" x="704" y="260" width="51" height="33">
<path d="M704.509 288.123V292.284L754.359 264.363V260.207L704.509 288.123Z" fill="white"/>
</mask>
<g mask="url(#mask27_284_1959)">
<path d="M754.354 260.207H704.509V292.284H754.354V260.207Z" fill="url(#paint22_linear_284_1959)"/>
</g>
<mask id="mask28_284_1959" style="mask-type:luminance" maskUnits="userSpaceOnUse" x="654" y="260" width="51" height="33">
<path d="M654.805 264.363L704.651 292.284V288.123L654.805 260.207V264.363Z" fill="white"/>
</mask>
<g mask="url(#mask28_284_1959)">
<path d="M704.651 260.207H654.805V292.284H704.651V260.207Z" fill="url(#paint23_linear_284_1959)"/>
</g>
<mask id="mask29_284_1959" style="mask-type:luminance" maskUnits="userSpaceOnUse" x="245" y="23" width="510" height="270">
<path d="M754.359 23H245V292.284H754.359V23Z" fill="white"/>
</mask>
<g mask="url(#mask29_284_1959)">
<path d="M704.509 224.465L654.805 252.381L704.509 280.302L754.359 252.381L704.509 224.465Z" fill="#082E3A"/>
</g>
<mask id="mask30_284_1959" style="mask-type:luminance" maskUnits="userSpaceOnUse" x="704" y="252" width="51" height="33">
<path d="M704.509 280.302V284.458L754.359 256.542V252.386L704.509 280.302Z" fill="white"/>
</mask>
<g mask="url(#mask30_284_1959)">
<path d="M754.354 252.386H704.509V284.463H754.354V252.386Z" fill="url(#paint24_linear_284_1959)"/>
</g>
<mask id="mask31_284_1959" style="mask-type:luminance" maskUnits="userSpaceOnUse" x="654" y="252" width="51" height="33">
<path d="M654.805 256.542L704.651 284.458V280.302L654.805 252.386V256.542Z" fill="white"/>
</mask>
<g mask="url(#mask31_284_1959)">
<path d="M704.651 252.386H654.805V284.463H704.651V252.386Z" fill="url(#paint25_linear_284_1959)"/>
</g>
<mask id="mask32_284_1959" style="mask-type:luminance" maskUnits="userSpaceOnUse" x="663" y="57" width="42" height="219">
<path d="M663.245 252.235L704.558 275.761V81.2749L663.245 57.744V252.235Z" fill="white"/>
</mask>
<g mask="url(#mask32_284_1959)">
<path d="M683.9 37.1262L554.032 166.755L683.9 296.383L813.768 166.754L683.9 37.1262Z" fill="url(#paint26_linear_284_1959)"/>
</g>
<mask id="mask33_284_1959" style="mask-type:luminance" maskUnits="userSpaceOnUse" x="245" y="23" width="510" height="270">
<path d="M754.359 23H245V292.284H754.359V23Z" fill="white"/>
</mask>
<g mask="url(#mask33_284_1959)">
<path d="M748.201 103.633V56.3765L704.582 81.2165V122.935L700.594 132.707V160.214L704.582 166.799V275.688L748.201 250.848V147.492L752.19 137.72V110.218L748.201 103.633Z" fill="#0A4056"/>
<path d="M742.375 73.8823V136.406L711.384 154.053V91.5293L742.375 73.8823Z" fill="#082E3A"/>
</g>
<mask id="mask34_284_1959" style="mask-type:luminance" maskUnits="userSpaceOnUse" x="712" y="77" width="29" height="74">
<path d="M712.9 93.3202V150.539L740.858 134.62V77.3961L712.9 93.3202Z" fill="white"/>
</mask>
<g mask="url(#mask34_284_1959)">
<path d="M726.88 63.4466L676.26 113.972L726.88 164.498L777.499 113.972L726.88 63.4466Z" fill="url(#paint27_linear_284_1959)"/>
</g>
<mask id="mask35_284_1959" style="mask-type:luminance" maskUnits="userSpaceOnUse" x="245" y="23" width="510" height="270">
<path d="M754.359 23H245V292.284H754.359V23Z" fill="white"/>
</mask>
<g mask="url(#mask35_284_1959)">
<path d="M748.201 56.3764L744.218 40.9633L700.594 65.8082L704.582 81.2213L748.201 56.3764Z" fill="#082E3A"/>
</g>
<mask id="mask36_284_1959" style="mask-type:luminance" maskUnits="userSpaceOnUse" x="663" y="47" width="42" height="35">
<path d="M663.245 57.744L704.582 81.2214L700.594 65.8764L669.052 47.9082L663.245 57.744Z" fill="white"/>
</mask>
<g mask="url(#mask36_284_1959)">
<path d="M683.908 27.282L646.556 64.5654L683.908 101.849L721.261 64.5654L683.908 27.282Z" fill="url(#paint28_linear_284_1959)"/>
</g>
<mask id="mask37_284_1959" style="mask-type:luminance" maskUnits="userSpaceOnUse" x="669" y="23" width="76" height="43">
<path d="M712.671 23C712.671 23.0681 669.048 47.9082 669.048 47.9082C669.048 47.9082 700.594 65.9397 700.594 65.8715C700.594 65.8034 744.218 40.9633 744.218 40.9633C744.218 40.9633 712.793 23 712.676 23" fill="white"/>
</mask>
<g mask="url(#mask37_284_1959)">
<path d="M744.218 23H669.053V65.9397H744.218V23Z" fill="url(#paint29_linear_284_1959)"/>
</g>
<mask id="mask38_284_1959" style="mask-type:luminance" maskUnits="userSpaceOnUse" x="245" y="23" width="510" height="270">
<path d="M754.359 23H245V292.284H754.359V23Z" fill="white"/>
</mask>
<g mask="url(#mask38_284_1959)">
<path d="M712.379 66.3485L737.001 52.3224C737.704 51.9233 738.596 52.1666 738.996 52.8675C739.396 53.5683 739.152 54.4589 738.45 54.858L713.827 68.8841C713.125 69.2831 712.232 69.0398 711.833 68.339C711.433 67.6382 711.677 66.7475 712.379 66.3485Z" fill="url(#paint30_linear_284_1959)"/>
</g>
<mask id="mask39_284_1959" style="mask-type:luminance" maskUnits="userSpaceOnUse" x="702" y="128" width="4" height="35">
<path d="M702.944 132.941V158.228L705.143 162.21V128.269L702.944 132.941Z" fill="white"/>
</mask>
<g mask="url(#mask39_284_1959)">
<path d="M704.045 127.172L685.942 145.242L704.045 163.313L722.149 145.242L704.045 127.172Z" fill="url(#paint31_linear_284_1959)"/>
</g>
<mask id="mask40_284_1959" style="mask-type:luminance" maskUnits="userSpaceOnUse" x="748" y="107" width="3" height="35">
<path d="M748.201 141.798L750.405 137.126V111.843L748.201 107.857V141.798Z" fill="white"/>
</mask>
<g mask="url(#mask40_284_1959)">
<path d="M749.305 106.757L731.201 124.828L749.305 142.898L767.409 124.828L749.305 106.757Z" fill="url(#paint32_linear_284_1959)"/>
</g>
<mask id="mask41_284_1959" style="mask-type:luminance" maskUnits="userSpaceOnUse" x="725" y="154" width="7" height="7">
<path d="M725.27 158.16L728.22 160.506L731.438 154.647L725.27 158.16Z" fill="white"/>
</mask>
<g mask="url(#mask41_284_1959)">
<path d="M731.438 154.647H725.27V160.501H731.438V154.647Z" fill="url(#paint33_linear_284_1959)"/>
</g>
<mask id="mask42_284_1959" style="mask-type:luminance" maskUnits="userSpaceOnUse" x="725" y="159" width="7" height="7">
<path d="M725.27 163.28L728.22 165.626L731.438 159.766L725.27 163.28Z" fill="white"/>
</mask>
<g mask="url(#mask42_284_1959)">
<path d="M731.438 159.766H725.27V165.621H731.438V159.766Z" fill="url(#paint34_linear_284_1959)"/>
</g>
<mask id="mask43_284_1959" style="mask-type:luminance" maskUnits="userSpaceOnUse" x="245" y="23" width="510" height="270">
<path d="M754.359 23H245V292.284H754.359V23Z" fill="white"/>
</mask>
<g mask="url(#mask43_284_1959)">
<path d="M738.303 188.622L730.926 192.822L726.309 182.387L733.686 178.187L738.303 188.622Z" fill="#18A0D7"/>
<path d="M726.309 182.387L723.252 180.806L726.918 203.436L729.98 205.31L730.926 192.822L726.309 182.387Z" fill="#117DB8"/>
<path d="M723.252 180.806L726.309 182.387L733.686 178.187L730.341 176.703L723.252 180.806Z" fill="#22B3E0"/>
<path d="M737.811 188.899L730.926 192.822L728.469 206.02L729.746 213.126L732.555 213.953V206.186L737.811 188.899Z" fill="#082E3A"/>
<path d="M750.693 232.505C749.035 234.218 746.816 235.153 744.437 235.153H744.276C741.833 235.109 739.59 234.087 737.957 232.277L733.306 227.128C732.038 225.726 731.253 223.911 731.097 222.027L730.17 210.965L731.628 210.843L732.555 221.906C732.681 223.473 733.335 224.981 734.393 226.154L739.044 231.303C740.405 232.807 742.272 233.659 744.3 233.693C746.324 233.742 748.23 232.948 749.644 231.488C751.092 229.994 751.824 227.95 751.658 225.877L748.201 186.461V169.714L753.116 225.755C753.316 228.252 752.433 230.71 750.693 232.505Z" fill="#082E3A"/>
</g>
</g>
<mask id="mask44_284_1959" style="mask-type:luminance" maskUnits="userSpaceOnUse" x="818" y="3" width="39" height="40">
<path d="M856.677 3.89355H818.158V42.3412H856.677V3.89355Z" fill="white"/>
</mask>
<g mask="url(#mask44_284_1959)">
<mask id="mask45_284_1959" style="mask-type:luminance" maskUnits="userSpaceOnUse" x="818" y="3" width="39" height="40">
<path d="M856.677 3.89355H818.158V42.3412H856.677V3.89355Z" fill="white"/>
</mask>
<g mask="url(#mask45_284_1959)">
<mask id="mask46_284_1959" style="mask-type:luminance" maskUnits="userSpaceOnUse" x="818" y="3" width="39" height="40">
<path d="M856.677 3.89355H818.158V42.3412H856.677V3.89355Z" fill="white"/>
</mask>
<g mask="url(#mask46_284_1959)">
<g opacity="0.5">
<mask id="mask47_284_1959" style="mask-type:luminance" maskUnits="userSpaceOnUse" x="818" y="3" width="39" height="40">
<path d="M856.677 3.89355H818.158V42.3412H856.677V3.89355Z" fill="white"/>
</mask>
<g mask="url(#mask47_284_1959)">
<g opacity="0.8">
<mask id="mask48_284_1959" style="mask-type:luminance" maskUnits="userSpaceOnUse" x="818" y="3" width="39" height="40">
<path d="M856.677 3.89355H818.158V42.3412H856.677V3.89355Z" fill="white"/>
</mask>
<g mask="url(#mask48_284_1959)">
<g opacity="0.5">
<mask id="mask49_284_1959" style="mask-type:luminance" maskUnits="userSpaceOnUse" x="818" y="3" width="39" height="40">
<path d="M856.677 3.89355H818.158V42.3412H856.677V3.89355Z" fill="white"/>
</mask>
<g mask="url(#mask49_284_1959)">
<mask id="mask50_284_1959" style="mask-type:luminance" maskUnits="userSpaceOnUse" x="818" y="3" width="39" height="40">
<path d="M856.677 27.7311L842.039 42.3412L826.057 34.457L818.158 18.5036L832.795 3.89355L848.783 11.7729L856.677 27.7311Z" fill="white"/>
</mask>
<g mask="url(#mask50_284_1959)">
<path d="M837.419 -15.3285L798.901 23.1182L837.419 61.5648L875.937 23.1182L837.419 -15.3285Z" fill="url(#paint35_linear_284_1959)"/>
</g>
</g>
</g>
</g>
</g>
<g opacity="0.8">
<mask id="mask51_284_1959" style="mask-type:luminance" maskUnits="userSpaceOnUse" x="818" y="3" width="39" height="40">
<path d="M856.677 3.89355H818.158V42.3412H856.677V3.89355Z" fill="white"/>
</mask>
<g mask="url(#mask51_284_1959)">
<g opacity="0.5">
<mask id="mask52_284_1959" style="mask-type:luminance" maskUnits="userSpaceOnUse" x="818" y="3" width="39" height="40">
<path d="M856.677 3.89355H818.158V42.3412H856.677V3.89355Z" fill="white"/>
</mask>
<g mask="url(#mask52_284_1959)">
<mask id="mask53_284_1959" style="mask-type:luminance" maskUnits="userSpaceOnUse" x="818" y="3" width="39" height="40">
<path d="M842.039 3.89355L856.677 18.5036L848.783 34.457L832.795 42.3412L818.158 27.7311L826.057 11.7729L842.039 3.89355Z" fill="white"/>
</mask>
<g mask="url(#mask53_284_1959)">
<path d="M837.419 -15.3285L798.901 23.1182L837.419 61.5648L875.937 23.1182L837.419 -15.3285Z" fill="url(#paint36_linear_284_1959)"/>
</g>
</g>
</g>
</g>
</g>
</g>
</g>
<mask id="mask54_284_1959" style="mask-type:luminance" maskUnits="userSpaceOnUse" x="824" y="10" width="28" height="26">
<path d="M851.343 10.5172H824.774V35.7272H851.343V10.5172Z" fill="white"/>
</mask>
<g mask="url(#mask54_284_1959)">
<mask id="mask55_284_1959" style="mask-type:luminance" maskUnits="userSpaceOnUse" x="824" y="15" width="15" height="21">
<path d="M838.022 35.7224L824.999 31.3179C824.867 31.2741 824.774 31.1476 824.774 31.0064V15.204L824.921 15.4425C824.921 15.4425 824.95 15.4765 824.969 15.4814L838.041 19.9004C838.041 19.9004 838.061 19.915 838.061 19.9296V35.6931C838.061 35.6931 838.041 35.7272 838.022 35.7224Z" fill="white"/>
</mask>
<g mask="url(#mask55_284_1959)">
<path d="M838.061 15.204H824.774V35.7272H838.061V15.204Z" fill="url(#paint37_linear_284_1959)"/>
</g>
<mask id="mask56_284_1959" style="mask-type:luminance" maskUnits="userSpaceOnUse" x="838" y="15" width="14" height="21">
<path d="M838.134 35.7078L851.138 31.313C851.26 31.2741 851.343 31.1573 851.343 31.0308V15.204L851.196 15.4473C851.196 15.4473 851.172 15.4717 851.157 15.4814L838.061 19.9102V35.6591C838.061 35.698 838.1 35.7272 838.134 35.7126" fill="white"/>
</mask>
<g mask="url(#mask56_284_1959)">
<path d="M851.347 15.204H838.061V35.7224H851.347V15.204Z" fill="url(#paint38_linear_284_1959)"/>
</g>
<mask id="mask57_284_1959" style="mask-type:luminance" maskUnits="userSpaceOnUse" x="824" y="10" width="28" height="10">
<path d="M851.342 15.2039C851.342 15.3305 851.26 15.4473 851.138 15.4862L838.056 19.9101L824.974 15.4862C824.852 15.4473 824.769 15.3305 824.769 15.2039C824.769 15.0774 824.852 14.9606 824.974 14.9217L837.958 10.5318C838.022 10.5123 838.09 10.5123 838.149 10.5318L851.133 14.9217C851.255 14.9606 851.338 15.0774 851.338 15.2039" fill="white"/>
</mask>
<g mask="url(#mask57_284_1959)">
<path d="M851.343 10.5122H824.774V19.91H851.343V10.5122Z" fill="url(#paint39_linear_284_1959)"/>
</g>
</g>
</g>
</g>
</g>
<mask id="mask58_284_1959" style="mask-type:luminance" maskUnits="userSpaceOnUse" x="889" y="7" width="112" height="113">
<path d="M1001 7.78687H889.344V119.236H1001V7.78687Z" fill="white"/>
</mask>
<g mask="url(#mask58_284_1959)">
<mask id="mask59_284_1959" style="mask-type:luminance" maskUnits="userSpaceOnUse" x="889" y="7" width="112" height="113">
<path d="M1001 7.78687H889.344V119.236H1001V7.78687Z" fill="white"/>
</mask>
<g mask="url(#mask59_284_1959)">
<mask id="mask60_284_1959" style="mask-type:luminance" maskUnits="userSpaceOnUse" x="889" y="7" width="112" height="113">
<path d="M1001 7.78687H889.344V119.236H1001V7.78687Z" fill="white"/>
</mask>
<g mask="url(#mask60_284_1959)">
<g opacity="0.5">
<mask id="mask61_284_1959" style="mask-type:luminance" maskUnits="userSpaceOnUse" x="889" y="7" width="112" height="113">
<path d="M1001 7.78687H889.344V119.236H1001V7.78687Z" fill="white"/>
</mask>
<g mask="url(#mask61_284_1959)">
<g opacity="0.8">
<mask id="mask62_284_1959" style="mask-type:luminance" maskUnits="userSpaceOnUse" x="889" y="7" width="112" height="113">
<path d="M1001 7.78687H889.344V119.236H1001V7.78687Z" fill="white"/>
</mask>
<g mask="url(#mask62_284_1959)">
<g opacity="0.5">
<mask id="mask63_284_1959" style="mask-type:luminance" maskUnits="userSpaceOnUse" x="889" y="7" width="112" height="113">
<path d="M1001 7.78687H889.344V119.236H1001V7.78687Z" fill="white"/>
</mask>
<g mask="url(#mask63_284_1959)">
<mask id="mask64_284_1959" style="mask-type:luminance" maskUnits="userSpaceOnUse" x="889" y="7" width="112" height="113">
<path d="M1001 76.8855L958.571 119.236L912.236 96.3867L889.344 50.1376L931.774 7.78687L978.113 30.6316L1001 76.8855Z" fill="white"/>
</mask>
<g mask="url(#mask64_284_1959)">
<path d="M945.171 -47.9356L833.517 63.5121L945.171 174.96L1056.82 63.5121L945.171 -47.9356Z" fill="url(#paint40_linear_284_1959)"/>
</g>
</g>
</g>
</g>
</g>
<g opacity="0.8">
<mask id="mask65_284_1959" style="mask-type:luminance" maskUnits="userSpaceOnUse" x="889" y="7" width="112" height="113">
<path d="M1001 7.78687H889.344V119.236H1001V7.78687Z" fill="white"/>
</mask>
<g mask="url(#mask65_284_1959)">
<g opacity="0.5">
<mask id="mask66_284_1959" style="mask-type:luminance" maskUnits="userSpaceOnUse" x="889" y="7" width="112" height="113">
<path d="M1001 7.78687H889.344V119.236H1001V7.78687Z" fill="white"/>
</mask>
<g mask="url(#mask66_284_1959)">
<mask id="mask67_284_1959" style="mask-type:luminance" maskUnits="userSpaceOnUse" x="889" y="7" width="112" height="113">
<path d="M958.571 7.78687L1001 50.1376L978.113 96.3867L931.774 119.236L889.344 76.8855L912.236 30.6316L958.571 7.78687Z" fill="white"/>
</mask>
<g mask="url(#mask67_284_1959)">
<path d="M945.171 -47.9356L833.517 63.5121L945.171 174.96L1056.82 63.5121L945.171 -47.9356Z" fill="url(#paint41_linear_284_1959)"/>
</g>
</g>
</g>
</g>
</g>
</g>
</g>
<mask id="mask68_284_1959" style="mask-type:luminance" maskUnits="userSpaceOnUse" x="908" y="26" width="78" height="75">
<path d="M985.544 26.9814H908.526V100.051H985.544V26.9814Z" fill="white"/>
</mask>
<g mask="url(#mask68_284_1959)">
<mask id="mask69_284_1959" style="mask-type:luminance" maskUnits="userSpaceOnUse" x="908" y="40" width="40" height="61">
<path d="M946.923 100.051L909.174 87.2906C908.789 87.1592 908.526 86.7991 908.526 86.3903V40.5743L908.945 41.2703C908.979 41.3238 909.028 41.3628 909.086 41.3871L946.971 54.1965C947.005 54.2062 947.03 54.2403 947.03 54.2792V99.9735C947.03 100.032 946.971 100.071 946.918 100.056" fill="white"/>
</mask>
<g mask="url(#mask69_284_1959)">
<path d="M947.035 40.5743H908.526V100.071H947.035V40.5743Z" fill="url(#paint42_linear_284_1959)"/>
</g>
<mask id="mask70_284_1959" style="mask-type:luminance" maskUnits="userSpaceOnUse" x="947" y="40" width="39" height="61">
<path d="M947.254 100.012L984.954 87.2663C985.305 87.1446 985.544 86.8185 985.544 86.4487V40.5743L985.115 41.2849C985.09 41.3287 985.046 41.3628 985.003 41.3774L947.035 54.2111V99.8567C947.035 99.9686 947.147 100.051 947.254 100.012Z" fill="white"/>
</mask>
<g mask="url(#mask70_284_1959)">
<path d="M985.544 40.5743H947.035V100.051H985.544V40.5743Z" fill="url(#paint43_linear_284_1959)"/>
</g>
<mask id="mask71_284_1959" style="mask-type:luminance" maskUnits="userSpaceOnUse" x="908" y="26" width="78" height="29">
<path d="M985.544 40.5745C985.544 40.9444 985.305 41.2753 984.954 41.3921L947.035 54.2113L909.116 41.3921C908.765 41.2753 908.526 40.9444 908.526 40.5745C908.526 40.2046 908.765 39.8737 909.116 39.7569L946.757 27.0303C946.937 26.9718 947.132 26.9718 947.313 27.0303L984.954 39.7569C985.305 39.8737 985.544 40.2046 985.544 40.5745Z" fill="white"/>
</mask>
<g mask="url(#mask71_284_1959)">
<path d="M985.544 26.9668H908.526V54.2111H985.544V26.9668Z" fill="url(#paint44_linear_284_1959)"/>
</g>
</g>
</g>
</g>
</g>
<mask id="mask72_284_1959" style="mask-type:luminance" maskUnits="userSpaceOnUse" x="0" y="0" width="135" height="151">
<path d="M134.123 0H0V150.384H134.123V0Z" fill="white"/>
</mask>
<g mask="url(#mask72_284_1959)">
<mask id="mask73_284_1959" style="mask-type:luminance" maskUnits="userSpaceOnUse" x="0" y="0" width="135" height="151">
<path d="M134.123 0H0V150.384H134.123V0Z" fill="white"/>
</mask>
<g mask="url(#mask73_284_1959)">
<mask id="mask74_284_1959" style="mask-type:luminance" maskUnits="userSpaceOnUse" x="0" y="0" width="135" height="151">
<path d="M134.123 0H0V150.384H134.123V0Z" fill="white"/>
</mask>
<g mask="url(#mask74_284_1959)">
<g opacity="0.5">
<mask id="mask75_284_1959" style="mask-type:luminance" maskUnits="userSpaceOnUse" x="46" y="0" width="89" height="88">
<path d="M134.123 0H46.6906V87.2712H134.123V0Z" fill="white"/>
</mask>
<g mask="url(#mask75_284_1959)">
<g opacity="0.8">
<mask id="mask76_284_1959" style="mask-type:luminance" maskUnits="userSpaceOnUse" x="46" y="0" width="89" height="88">
<path d="M134.123 0H46.6906V87.2712H134.123V0Z" fill="white"/>
</mask>
<g mask="url(#mask76_284_1959)">
<g opacity="0.5">
<mask id="mask77_284_1959" style="mask-type:luminance" maskUnits="userSpaceOnUse" x="46" y="0" width="89" height="88">
<path d="M134.123 0H46.6906V87.2712H134.123V0Z" fill="white"/>
</mask>
<g mask="url(#mask77_284_1959)">
<mask id="mask78_284_1959" style="mask-type:luminance" maskUnits="userSpaceOnUse" x="46" y="0" width="89" height="88">
<path d="M134.123 54.1089L100.9 87.2712L64.614 69.3809L46.6906 33.1623L79.9142 0L116.2 17.8903L134.123 54.1089Z" fill="white"/>
</mask>
<g mask="url(#mask78_284_1959)">
<path d="M90.4074 -43.633L2.97357 43.6393L90.4074 130.912L177.841 43.6393L90.4074 -43.633Z" fill="url(#paint45_linear_284_1959)"/>
</g>
</g>
</g>
</g>
</g>
<g opacity="0.8">
<mask id="mask79_284_1959" style="mask-type:luminance" maskUnits="userSpaceOnUse" x="46" y="0" width="89" height="88">
<path d="M134.123 0H46.6906V87.2712H134.123V0Z" fill="white"/>
</mask>
<g mask="url(#mask79_284_1959)">
<g opacity="0.5">
<mask id="mask80_284_1959" style="mask-type:luminance" maskUnits="userSpaceOnUse" x="46" y="0" width="89" height="88">
<path d="M134.123 0H46.6906V87.2712H134.123V0Z" fill="white"/>
</mask>
<g mask="url(#mask80_284_1959)">
<mask id="mask81_284_1959" style="mask-type:luminance" maskUnits="userSpaceOnUse" x="46" y="0" width="89" height="88">
<path d="M100.9 0L134.123 33.1623L116.2 69.3809L79.9142 87.2712L46.6906 54.1089L64.614 17.8903L100.9 0Z" fill="white"/>
</mask>
<g mask="url(#mask81_284_1959)">
<path d="M90.4074 -43.633L2.97357 43.6393L90.4074 130.912L177.841 43.6393L90.4074 -43.633Z" fill="url(#paint46_linear_284_1959)"/>
</g>
</g>
</g>
</g>
</g>
</g>
</g>
<mask id="mask82_284_1959" style="mask-type:luminance" maskUnits="userSpaceOnUse" x="61" y="15" width="62" height="58">
<path d="M122.022 15.0334H61.7129V72.2523H122.022V15.0334Z" fill="white"/>
</mask>
<g mask="url(#mask82_284_1959)">
<mask id="mask83_284_1959" style="mask-type:luminance" maskUnits="userSpaceOnUse" x="61" y="25" width="31" height="48">
<path d="M91.777 72.2474L62.22 62.2559C61.9177 62.1537 61.7129 61.8714 61.7129 61.5502V25.6722L62.0396 26.2173C62.0639 26.2611 62.1078 26.2903 62.1517 26.3098L91.8209 36.3402C91.8453 36.35 91.8648 36.3743 91.8648 36.4035V72.189C91.8648 72.2328 91.8209 72.2669 91.777 72.2523" fill="white"/>
</mask>
<g mask="url(#mask83_284_1959)">
<path d="M91.8697 25.6722H61.7129V72.262H91.8697V25.6722Z" fill="url(#paint47_linear_284_1959)"/>
</g>
<mask id="mask84_284_1959" style="mask-type:luminance" maskUnits="userSpaceOnUse" x="91" y="25" width="32" height="48">
<path d="M92.0403 72.223L121.563 62.2413C121.836 62.1488 122.022 61.8909 122.022 61.5989V25.6722L121.685 26.2319C121.666 26.266 121.631 26.2903 121.597 26.3049L91.8696 36.3548V72.0965C91.8696 72.1841 91.9574 72.2474 92.0403 72.2182" fill="white"/>
</mask>
<g mask="url(#mask84_284_1959)">
<path d="M122.026 25.6722H91.8696V72.2474H122.026V25.6722Z" fill="url(#paint48_linear_284_1959)"/>
</g>
<mask id="mask85_284_1959" style="mask-type:luminance" maskUnits="userSpaceOnUse" x="61" y="15" width="62" height="22">
<path d="M122.022 25.672C122.022 25.964 121.836 26.2219 121.563 26.3144L91.8697 36.3546L62.1761 26.3144C61.903 26.2219 61.7129 25.964 61.7129 25.672C61.7129 25.38 61.8982 25.122 62.1761 25.0296L91.6503 15.0673C91.7916 15.0186 91.9428 15.0186 92.0842 15.0673L121.558 25.0296C121.831 25.122 122.017 25.38 122.017 25.672" fill="white"/>
</mask>
<g mask="url(#mask85_284_1959)">
<path d="M122.022 15.0187H61.7129V36.3547H122.022V15.0187Z" fill="url(#paint49_linear_284_1959)"/>
</g>
</g>
<g opacity="0.5">
<mask id="mask86_284_1959" style="mask-type:luminance" maskUnits="userSpaceOnUse" x="0" y="93" width="58" height="58">
<path d="M57.2808 93.2087H0V150.384H57.2808V93.2087Z" fill="white"/>
</mask>
<g mask="url(#mask86_284_1959)">
<g opacity="0.8">
<mask id="mask87_284_1959" style="mask-type:luminance" maskUnits="userSpaceOnUse" x="0" y="93" width="58" height="58">
<path d="M57.2808 93.2087H0V150.384H57.2808V93.2087Z" fill="white"/>
</mask>
<g mask="url(#mask87_284_1959)">
<g opacity="0.5">
<mask id="mask88_284_1959" style="mask-type:luminance" maskUnits="userSpaceOnUse" x="0" y="93" width="58" height="58">
<path d="M57.2808 93.2087H0V150.384H57.2808V93.2087Z" fill="white"/>
</mask>
<g mask="url(#mask88_284_1959)">
<mask id="mask89_284_1959" style="mask-type:luminance" maskUnits="userSpaceOnUse" x="0" y="93" width="58" height="58">
<path d="M57.2808 128.658L35.5153 150.384L11.7409 138.665L0 114.934L21.7655 93.2087L45.5399 104.928L57.2808 128.658Z" fill="white"/>
</mask>
<g mask="url(#mask89_284_1959)">
<path d="M28.6385 64.6196L-28.6417 121.794L28.6384 178.968L85.9186 121.794L28.6385 64.6196Z" fill="url(#paint50_linear_284_1959)"/>
</g>
</g>
</g>
</g>
</g>
<g opacity="0.8">
<mask id="mask90_284_1959" style="mask-type:luminance" maskUnits="userSpaceOnUse" x="0" y="93" width="58" height="58">
<path d="M57.2808 93.2087H0V150.384H57.2808V93.2087Z" fill="white"/>
</mask>
<g mask="url(#mask90_284_1959)">
<g opacity="0.5">
<mask id="mask91_284_1959" style="mask-type:luminance" maskUnits="userSpaceOnUse" x="0" y="93" width="58" height="58">
<path d="M57.2808 93.2087H0V150.384H57.2808V93.2087Z" fill="white"/>
</mask>
<g mask="url(#mask91_284_1959)">
<mask id="mask92_284_1959" style="mask-type:luminance" maskUnits="userSpaceOnUse" x="0" y="93" width="58" height="58">
<path d="M35.5153 93.2087L57.2808 114.934L45.5399 138.665L21.7655 150.384L0 128.658L11.7409 104.928L35.5153 93.2087Z" fill="white"/>
</mask>
<g mask="url(#mask92_284_1959)">
<path d="M28.6385 64.6196L-28.6417 121.794L28.6384 178.968L85.9186 121.794L28.6385 64.6196Z" fill="url(#paint51_linear_284_1959)"/>
</g>
</g>
</g>
</g>
</g>
</g>
</g>
<mask id="mask93_284_1959" style="mask-type:luminance" maskUnits="userSpaceOnUse" x="9" y="103" width="41" height="38">
<path d="M49.3479 103.059H9.83936V140.548H49.3479V103.059Z" fill="white"/>
</mask>
<g mask="url(#mask93_284_1959)">
<mask id="mask94_284_1959" style="mask-type:luminance" maskUnits="userSpaceOnUse" x="9" y="110" width="21" height="31">
<path d="M29.5376 140.543L10.1709 133.997C9.971 133.929 9.83936 133.744 9.83936 133.535V110.033L10.0539 110.388C10.0685 110.418 10.0978 110.437 10.127 110.447L29.5619 117.017C29.5619 117.017 29.5912 117.041 29.5912 117.061V140.504C29.5912 140.533 29.5619 140.558 29.5327 140.548" fill="white"/>
</mask>
<g mask="url(#mask94_284_1959)">
<path d="M29.5961 110.028H9.83936V140.553H29.5961V110.028Z" fill="url(#paint52_linear_284_1959)"/>
</g>
<mask id="mask95_284_1959" style="mask-type:luminance" maskUnits="userSpaceOnUse" x="29" y="110" width="21" height="31">
<path d="M29.7082 140.524L49.0505 133.983C49.2309 133.919 49.3528 133.754 49.3528 133.564V110.028L49.1334 110.393C49.1334 110.393 49.0992 110.432 49.0749 110.442L29.601 117.027V140.446C29.601 140.504 29.6595 140.543 29.7131 140.528" fill="white"/>
</mask>
<g mask="url(#mask95_284_1959)">
<path d="M49.3527 110.028H29.5959V140.543H49.3527V110.028Z" fill="url(#paint53_linear_284_1959)"/>
</g>
<mask id="mask96_284_1959" style="mask-type:luminance" maskUnits="userSpaceOnUse" x="9" y="103" width="41" height="15">
<path d="M49.3528 110.029C49.3528 110.218 49.2309 110.389 49.0505 110.447L29.5961 117.022L10.1417 110.447C9.96125 110.384 9.83936 110.218 9.83936 110.029C9.83936 109.839 9.96125 109.668 10.1417 109.61L29.4547 103.084C29.5473 103.054 29.6497 103.054 29.7375 103.084L49.0505 109.61C49.2309 109.673 49.3528 109.839 49.3528 110.029Z" fill="white"/>
</mask>
<g mask="url(#mask96_284_1959)">
<path d="M49.3479 103.049H9.83936V117.027H49.3479V103.049Z" fill="url(#paint54_linear_284_1959)"/>
</g>
</g>
</g>
</g>
</g>
<defs>
<linearGradient id="paint0_linear_284_1959" x1="300.74" y1="75.0456" x2="300.74" y2="121.679" gradientUnits="userSpaceOnUse">
<stop stop-color="#F7F7F7"/>
<stop offset="0.07" stop-color="#F0F5F6"/>
<stop offset="0.18" stop-color="#DDF0F4"/>
<stop offset="0.3" stop-color="#BDE8F0"/>
<stop offset="0.44" stop-color="#92DEEB"/>
<stop offset="0.59" stop-color="#5AD0E5"/>
<stop offset="0.75" stop-color="#17BFDD"/>
<stop offset="0.8" stop-color="#8fc03f"/>
<stop offset="1" stop-color="#8fc03f"/>
</linearGradient>
<linearGradient id="paint1_linear_284_1959" x1="275.07" y1="117.834" x2="297.304" y2="117.834" gradientUnits="userSpaceOnUse">
<stop stop-color="#F6F6F7"/>
<stop offset="0.99" stop-color="#00E7A6"/>
<stop offset="1" stop-color="#00E7A6"/>
</linearGradient>
<linearGradient id="paint2_linear_284_1959" x1="291.899" y1="133.235" x2="300.963" y2="133.235" gradientUnits="userSpaceOnUse">
<stop stop-color="#F6F6F7"/>
<stop offset="0.99" stop-color="#00E7A6"/>
<stop offset="1" stop-color="#00E7A6"/>
</linearGradient>
<linearGradient id="paint3_linear_284_1959" x1="415.303" y1="73.8701" x2="481.053" y2="139.742" gradientUnits="userSpaceOnUse">
<stop stop-color="#F7F7F7"/>
<stop offset="0.05" stop-color="#F7F7F7"/>
<stop offset="0.12" stop-color="#DFF1F4"/>
<stop offset="0.41" stop-color="#80D9E9"/>
<stop offset="0.65" stop-color="#3BC8E1"/>
<stop offset="0.82" stop-color="#10BEDC"/>
<stop offset="0.91" stop-color="#8fc03f"/>
<stop offset="1" stop-color="#8fc03f"/>
</linearGradient>
<linearGradient id="paint4_linear_284_1959" x1="356.109" y1="157.404" x2="491.748" y2="157.404" gradientUnits="userSpaceOnUse">
<stop stop-color="#8fc03f"/>
<stop offset="0.09" stop-color="#8fc03f"/>
<stop offset="0.18" stop-color="#10BEDC"/>
<stop offset="0.35" stop-color="#3BC8E1"/>
<stop offset="0.59" stop-color="#80D9E9"/>
<stop offset="0.88" stop-color="#DFF1F4"/>
<stop offset="0.95" stop-color="#F7F7F7"/>
<stop offset="1" stop-color="#F7F7F7"/>
</linearGradient>
<linearGradient id="paint5_linear_284_1959" x1="392.275" y1="166.351" x2="519.952" y2="166.351" gradientUnits="userSpaceOnUse">
<stop stop-color="#8fc03f"/>
<stop offset="0.05" stop-color="#30C5E0"/>
<stop offset="0.12" stop-color="#5ED1E5"/>
<stop offset="0.18" stop-color="#87DBEA"/>
<stop offset="0.25" stop-color="#AAE3EE"/>
<stop offset="0.32" stop-color="#C6EAF1"/>
<stop offset="0.4" stop-color="#DBF0F3"/>
<stop offset="0.48" stop-color="#EBF4F5"/>
<stop offset="0.58" stop-color="#F4F6F6"/>
<stop offset="0.72" stop-color="#F7F7F7"/>
<stop offset="1" stop-color="#F7F7F7"/>
</linearGradient>
<linearGradient id="paint6_linear_284_1959" x1="423.706" y1="146.167" x2="457.028" y2="146.167" gradientUnits="userSpaceOnUse">
<stop stop-color="#00BCDE"/>
<stop offset="0.62" stop-color="#0097C9"/>
<stop offset="1" stop-color="#007FBC"/>
</linearGradient>
<linearGradient id="paint7_linear_284_1959" x1="388.525" y1="220.78" x2="397.043" y2="220.78" gradientUnits="userSpaceOnUse">
<stop stop-color="#00BCDE"/>
<stop offset="0.62" stop-color="#0097C9"/>
<stop offset="1" stop-color="#007FBC"/>
</linearGradient>
<linearGradient id="paint8_linear_284_1959" x1="394.893" y1="224.081" x2="400.403" y2="224.081" gradientUnits="userSpaceOnUse">
<stop stop-color="#00BCDE"/>
<stop offset="0.62" stop-color="#0097C9"/>
<stop offset="1" stop-color="#007FBC"/>
</linearGradient>
<linearGradient id="paint9_linear_284_1959" x1="442.899" y1="153.003" x2="442.899" y2="192.935" gradientUnits="userSpaceOnUse">
<stop stop-color="#8fc03f"/>
<stop offset="0.05" stop-color="#30C5E0"/>
<stop offset="0.12" stop-color="#5ED1E5"/>
<stop offset="0.18" stop-color="#87DBEA"/>
<stop offset="0.25" stop-color="#AAE3EE"/>
<stop offset="0.32" stop-color="#C6EAF1"/>
<stop offset="0.4" stop-color="#DBF0F3"/>
<stop offset="0.48" stop-color="#EBF4F5"/>
<stop offset="0.58" stop-color="#F4F6F6"/>
<stop offset="0.72" stop-color="#F7F7F7"/>
<stop offset="1" stop-color="#F7F7F7"/>
</linearGradient>
<linearGradient id="paint10_linear_284_1959" x1="397.247" y1="147.073" x2="406.223" y2="147.073" gradientUnits="userSpaceOnUse">
<stop stop-color="#00BCDE"/>
<stop offset="0.62" stop-color="#0097C9"/>
<stop offset="1" stop-color="#007FBC"/>
</linearGradient>
<linearGradient id="paint11_linear_284_1959" x1="529.84" y1="260.831" x2="606.321" y2="260.831" gradientUnits="userSpaceOnUse">
<stop stop-color="#B3B3B3"/>
<stop offset="0.72" stop-color="#F7F7F7"/>
<stop offset="0.99" stop-color="#E6E6E6"/>
<stop offset="1" stop-color="#E6E6E6"/>
</linearGradient>
<linearGradient id="paint12_linear_284_1959" x1="523.666" y1="277.011" x2="558.055" y2="277.011" gradientUnits="userSpaceOnUse">
<stop stop-color="#B3B3B3"/>
<stop offset="0.25" stop-color="#C6C6C6"/>
<stop offset="0.63" stop-color="#DDDDDD"/>
<stop offset="0.87" stop-color="#E6E6E6"/>
<stop offset="1" stop-color="#E6E6E6"/>
</linearGradient>
<linearGradient id="paint13_linear_284_1959" x1="543.301" y1="265.828" x2="597.422" y2="265.828" gradientUnits="userSpaceOnUse">
<stop stop-color="#B3B3B3"/>
<stop offset="0.72" stop-color="#F7F7F7"/>
<stop offset="0.99" stop-color="#E6E6E6"/>
<stop offset="1" stop-color="#E6E6E6"/>
</linearGradient>
<linearGradient id="paint14_linear_284_1959" x1="570.735" y1="20.128" x2="570.735" y2="261.798" gradientUnits="userSpaceOnUse">
<stop stop-color="#E6E6E6"/>
<stop offset="0.01" stop-color="#E6E6E6"/>
<stop offset="0.28" stop-color="#F7F7F7"/>
<stop offset="1" stop-color="#B3B3B3"/>
</linearGradient>
<linearGradient id="paint15_linear_284_1959" x1="550.017" y1="35.1972" x2="550.017" y2="260.271" gradientUnits="userSpaceOnUse">
<stop stop-color="#B3B3B3"/>
<stop offset="0.72" stop-color="#F7F7F7"/>
<stop offset="0.99" stop-color="#E6E6E6"/>
<stop offset="1" stop-color="#E6E6E6"/>
</linearGradient>
<linearGradient id="paint16_linear_284_1959" x1="541.772" y1="34.2117" x2="617.537" y2="34.2117" gradientUnits="userSpaceOnUse">
<stop stop-color="#E6E6E6"/>
<stop offset="0.01" stop-color="#E6E6E6"/>
<stop offset="0.28" stop-color="#F7F7F7"/>
<stop offset="1" stop-color="#B3B3B3"/>
</linearGradient>
<linearGradient id="paint17_linear_284_1959" x1="570.384" y1="91.6023" x2="570.384" y2="150.067" gradientUnits="userSpaceOnUse">
<stop stop-color="#8fc03f"/>
<stop offset="0.04" stop-color="#13BEDD"/>
<stop offset="0.23" stop-color="#63D2E6"/>
<stop offset="0.4" stop-color="#A2E2ED"/>
<stop offset="0.55" stop-color="#D0EDF2"/>
<stop offset="0.66" stop-color="#ECF4F5"/>
<stop offset="0.72" stop-color="#F7F7F7"/>
<stop offset="1" stop-color="#F7F7F7"/>
</linearGradient>
<linearGradient id="paint18_linear_284_1959" x1="568.243" y1="102.714" x2="568.243" y2="109.659" gradientUnits="userSpaceOnUse">
<stop stop-color="#F6F6F7"/>
<stop offset="0.99" stop-color="#00E7A6"/>
<stop offset="1" stop-color="#00E7A6"/>
</linearGradient>
<linearGradient id="paint19_linear_284_1959" x1="571.086" y1="101.112" x2="571.086" y2="108.057" gradientUnits="userSpaceOnUse">
<stop stop-color="#F6F6F7"/>
<stop offset="0.99" stop-color="#00E7A6"/>
<stop offset="1" stop-color="#00E7A6"/>
</linearGradient>
<linearGradient id="paint20_linear_284_1959" x1="573.923" y1="99.5064" x2="573.923" y2="106.451" gradientUnits="userSpaceOnUse">
<stop stop-color="#F6F6F7"/>
<stop offset="0.99" stop-color="#00E7A6"/>
<stop offset="1" stop-color="#00E7A6"/>
</linearGradient>
<linearGradient id="paint21_linear_284_1959" x1="576.766" y1="97.9052" x2="576.766" y2="104.85" gradientUnits="userSpaceOnUse">
<stop stop-color="#F6F6F7"/>
<stop offset="0.99" stop-color="#00E7A6"/>
<stop offset="1" stop-color="#00E7A6"/>
</linearGradient>
<linearGradient id="paint22_linear_284_1959" x1="708.018" y1="278.335" x2="757.863" y2="278.335" gradientUnits="userSpaceOnUse">
<stop stop-color="#E6E6E6"/>
<stop offset="0.07" stop-color="#E6E6E6"/>
<stop offset="0.41" stop-color="#F7F7F7"/>
<stop offset="1" stop-color="#B3B3B3"/>
</linearGradient>
<linearGradient id="paint23_linear_284_1959" x1="658.309" y1="117117" x2="708.154" y2="117117" gradientUnits="userSpaceOnUse">
<stop stop-color="#E6E6E6"/>
<stop offset="0.07" stop-color="#E6E6E6"/>
<stop offset="0.41" stop-color="#F7F7F7"/>
<stop offset="1" stop-color="#B3B3B3"/>
</linearGradient>
<linearGradient id="paint24_linear_284_1959" x1="211840" y1="270.509" x2="211890" y2="270.509" gradientUnits="userSpaceOnUse">
<stop stop-color="#E6E6E6"/>
<stop offset="0.07" stop-color="#E6E6E6"/>
<stop offset="0.41" stop-color="#F7F7F7"/>
<stop offset="1" stop-color="#B3B3B3"/>
</linearGradient>
<linearGradient id="paint25_linear_284_1959" x1="658.309" y1="270.509" x2="708.154" y2="270.509" gradientUnits="userSpaceOnUse">
<stop stop-color="#E6E6E6"/>
<stop offset="0.07" stop-color="#E6E6E6"/>
<stop offset="0.41" stop-color="#F7F7F7"/>
<stop offset="1" stop-color="#B3B3B3"/>
</linearGradient>
<linearGradient id="paint26_linear_284_1959" x1="622.263" y1="112.796" x2="751.888" y2="242.66" gradientUnits="userSpaceOnUse">
<stop stop-color="#E6E6E6"/>
<stop offset="0.07" stop-color="#E6E6E6"/>
<stop offset="0.41" stop-color="#F7F7F7"/>
<stop offset="1" stop-color="#B3B3B3"/>
</linearGradient>
<linearGradient id="paint27_linear_284_1959" x1="696.743" y1="76.249" x2="751.908" y2="131.516" gradientUnits="userSpaceOnUse">
<stop stop-color="#F7F7F7"/>
<stop offset="0.17" stop-color="#F7F7F7"/>
<stop offset="0.37" stop-color="#A5E2ED"/>
<stop offset="0.56" stop-color="#5ED1E5"/>
<stop offset="0.72" stop-color="#2BC4DF"/>
<stop offset="0.84" stop-color="#0BBCDC"/>
<stop offset="0.91" stop-color="#8fc03f"/>
<stop offset="1" stop-color="#8fc03f"/>
</linearGradient>
<linearGradient id="paint28_linear_284_1959" x1="669.706" y1="55.0738" x2="711.852" y2="97.2978" gradientUnits="userSpaceOnUse">
<stop stop-color="#E6E6E6"/>
<stop offset="0.07" stop-color="#E6E6E6"/>
<stop offset="0.41" stop-color="#F7F7F7"/>
<stop offset="1" stop-color="#B3B3B3"/>
</linearGradient>
<linearGradient id="paint29_linear_284_1959" x1="658.213" y1="47.8774" x2="759.731" y2="47.8774" gradientUnits="userSpaceOnUse">
<stop stop-color="#B3B3B3"/>
<stop offset="0.03" stop-color="#B3B3B3"/>
<stop offset="0.06" stop-color="#B7B7B7"/>
<stop offset="0.41" stop-color="#E5E5E5"/>
<stop offset="0.58" stop-color="#F7F7F7"/>
<stop offset="0.82" stop-color="#ECECEC"/>
<stop offset="0.93" stop-color="#E6E6E6"/>
<stop offset="1" stop-color="#E6E6E6"/>
</linearGradient>
<linearGradient id="paint30_linear_284_1959" x1="719.088" y1="65.1001" x2="747.124" y2="65.1001" gradientUnits="userSpaceOnUse">
<stop stop-color="#F6F6F7"/>
<stop offset="0.99" stop-color="#00E7A6"/>
<stop offset="1" stop-color="#00E7A6"/>
</linearGradient>
<linearGradient id="paint31_linear_284_1959" x1="698.931" y1="147.303" x2="715.9" y2="164.303" gradientUnits="userSpaceOnUse">
<stop stop-color="#F6F6F7"/>
<stop offset="0.99" stop-color="#00E7A6"/>
<stop offset="1" stop-color="#00E7A6"/>
</linearGradient>
<linearGradient id="paint32_linear_284_1959" x1="754.15" y1="122.996" x2="737.181" y2="105.996" gradientUnits="userSpaceOnUse">
<stop stop-color="#F6F6F7"/>
<stop offset="0.99" stop-color="#00E7A6"/>
<stop offset="1" stop-color="#00E7A6"/>
</linearGradient>
<linearGradient id="paint33_linear_284_1959" x1="728.088" y1="159.359" x2="734.256" y2="159.359" gradientUnits="userSpaceOnUse">
<stop stop-color="#F6F6F7"/>
<stop offset="0.99" stop-color="#00E7A6"/>
<stop offset="1" stop-color="#00E7A6"/>
</linearGradient>
<linearGradient id="paint34_linear_284_1959" x1="728.088" y1="164.479" x2="734.256" y2="164.479" gradientUnits="userSpaceOnUse">
<stop stop-color="#F6F6F7"/>
<stop offset="0.99" stop-color="#00E7A6"/>
<stop offset="1" stop-color="#00E7A6"/>
</linearGradient>
<linearGradient id="paint35_linear_284_1959" x1="827.811" y1="19.1438" x2="851.443" y2="42.8191" gradientUnits="userSpaceOnUse">
<stop stop-color="#3ADAF3"/>
<stop offset="0.25" stop-color="#34D0EC"/>
<stop offset="0.66" stop-color="#24B7DB"/>
<stop offset="1" stop-color="#159DC9"/>
</linearGradient>
<linearGradient id="paint36_linear_284_1959" x1="833.31" y1="32.6751" x2="856.942" y2="8.99976" gradientUnits="userSpaceOnUse">
<stop stop-color="#3ADAF3"/>
<stop offset="0.25" stop-color="#34D0EC"/>
<stop offset="0.66" stop-color="#24B7DB"/>
<stop offset="1" stop-color="#159DC9"/>
</linearGradient>
<linearGradient id="paint37_linear_284_1959" x1="819.471" y1="22.407" x2="832.642" y2="22.407" gradientUnits="userSpaceOnUse">
<stop stop-color="#3ADAF3"/>
<stop offset="0.25" stop-color="#34D0EC"/>
<stop offset="0.66" stop-color="#24B7DB"/>
<stop offset="1" stop-color="#159DC9"/>
</linearGradient>
<linearGradient id="paint38_linear_284_1959" x1="832.642" y1="22.4021" x2="846.001" y2="22.4021" gradientUnits="userSpaceOnUse">
<stop stop-color="#2BBFE1"/>
<stop offset="1" stop-color="#159DC9"/>
</linearGradient>
<linearGradient id="paint39_linear_284_1959" x1="834.251" y1="20.6906" x2="860.966" y2="20.6906" gradientUnits="userSpaceOnUse">
<stop stop-color="#8FF0F4"/>
<stop offset="0.5" stop-color="#3ADAF3"/>
<stop offset="0.62" stop-color="#34D0EC"/>
<stop offset="0.83" stop-color="#24B7DB"/>
<stop offset="1" stop-color="#159DC9"/>
</linearGradient>
<linearGradient id="paint40_linear_284_1959" x1="912.705" y1="37.0358" x2="981.574" y2="106.033" gradientUnits="userSpaceOnUse">
<stop stop-color="#3ADAF3"/>
<stop offset="0.25" stop-color="#34D0EC"/>
<stop offset="0.66" stop-color="#24B7DB"/>
<stop offset="1" stop-color="#159DC9"/>
</linearGradient>
<linearGradient id="paint41_linear_284_1959" x1="918.204" y1="95.8049" x2="987.411" y2="26.47" gradientUnits="userSpaceOnUse">
<stop stop-color="#3ADAF3"/>
<stop offset="0.25" stop-color="#34D0EC"/>
<stop offset="0.66" stop-color="#24B7DB"/>
<stop offset="1" stop-color="#159DC9"/>
</linearGradient>
<linearGradient id="paint42_linear_284_1959" x1="903.201" y1="67.2932" x2="941.773" y2="67.2932" gradientUnits="userSpaceOnUse">
<stop stop-color="#3ADAF3"/>
<stop offset="0.25" stop-color="#34D0EC"/>
<stop offset="0.66" stop-color="#24B7DB"/>
<stop offset="1" stop-color="#159DC9"/>
</linearGradient>
<linearGradient id="paint43_linear_284_1959" x1="941.773" y1="67.2883" x2="980.157" y2="67.2883" gradientUnits="userSpaceOnUse">
<stop stop-color="#2BBFE1"/>
<stop offset="1" stop-color="#159DC9"/>
</linearGradient>
<linearGradient id="paint44_linear_284_1959" x1="918.158" y1="45.8538" x2="995.292" y2="45.8538" gradientUnits="userSpaceOnUse">
<stop stop-color="#8FF0F4"/>
<stop offset="0.5" stop-color="#3ADAF3"/>
<stop offset="0.62" stop-color="#34D0EC"/>
<stop offset="0.83" stop-color="#24B7DB"/>
<stop offset="1" stop-color="#159DC9"/>
</linearGradient>
<linearGradient id="paint45_linear_284_1959" x1="65.6735" y1="24.701" x2="119.645" y2="78.7719" gradientUnits="userSpaceOnUse">
<stop stop-color="#3ADAF3"/>
<stop offset="0.25" stop-color="#34D0EC"/>
<stop offset="0.66" stop-color="#24B7DB"/>
<stop offset="1" stop-color="#159DC9"/>
</linearGradient>
<linearGradient id="paint46_linear_284_1959" x1="71.4071" y1="68.461" x2="125.649" y2="14.1184" gradientUnits="userSpaceOnUse">
<stop stop-color="#3ADAF3"/>
<stop offset="0.25" stop-color="#34D0EC"/>
<stop offset="0.66" stop-color="#24B7DB"/>
<stop offset="1" stop-color="#159DC9"/>
</linearGradient>
<linearGradient id="paint47_linear_284_1959" x1="61.7812" y1="49.0085" x2="91.8599" y2="49.0085" gradientUnits="userSpaceOnUse">
<stop stop-color="#3ADAF3"/>
<stop offset="0.25" stop-color="#34D0EC"/>
<stop offset="0.66" stop-color="#24B7DB"/>
<stop offset="1" stop-color="#159DC9"/>
</linearGradient>
<linearGradient id="paint48_linear_284_1959" x1="91.8599" y1="49.0036" x2="122.09" y2="49.0036" gradientUnits="userSpaceOnUse">
<stop stop-color="#2BBFE1"/>
<stop offset="1" stop-color="#159DC9"/>
</linearGradient>
<linearGradient id="paint49_linear_284_1959" x1="61.63" y1="25.5796" x2="122.09" y2="25.5796" gradientUnits="userSpaceOnUse">
<stop stop-color="#8FF0F4"/>
<stop offset="0.5" stop-color="#3ADAF3"/>
<stop offset="0.62" stop-color="#34D0EC"/>
<stop offset="0.83" stop-color="#24B7DB"/>
<stop offset="1" stop-color="#159DC9"/>
</linearGradient>
<linearGradient id="paint50_linear_284_1959" x1="12.4038" y1="109.649" x2="47.7613" y2="145.072" gradientUnits="userSpaceOnUse">
<stop stop-color="#3ADAF3"/>
<stop offset="0.25" stop-color="#34D0EC"/>
<stop offset="0.66" stop-color="#24B7DB"/>
<stop offset="1" stop-color="#159DC9"/>
</linearGradient>
<linearGradient id="paint51_linear_284_1959" x1="16.2169" y1="137.847" x2="51.5745" y2="102.424" gradientUnits="userSpaceOnUse">
<stop stop-color="#3ADAF3"/>
<stop offset="0.25" stop-color="#34D0EC"/>
<stop offset="0.66" stop-color="#24B7DB"/>
<stop offset="1" stop-color="#159DC9"/>
</linearGradient>
<linearGradient id="paint52_linear_284_1959" x1="7.3212" y1="123.768" x2="27.1267" y2="123.768" gradientUnits="userSpaceOnUse">
<stop stop-color="#3ADAF3"/>
<stop offset="0.25" stop-color="#34D0EC"/>
<stop offset="0.66" stop-color="#24B7DB"/>
<stop offset="1" stop-color="#159DC9"/>
</linearGradient>
<linearGradient id="paint53_linear_284_1959" x1="27.1266" y1="123.763" x2="46.833" y2="123.763" gradientUnits="userSpaceOnUse">
<stop stop-color="#2BBFE1"/>
<stop offset="1" stop-color="#159DC9"/>
</linearGradient>
<linearGradient id="paint54_linear_284_1959" x1="4.67853" y1="107.08" x2="44.2895" y2="107.08" gradientUnits="userSpaceOnUse">
<stop stop-color="#8FF0F4"/>
<stop offset="0.5" stop-color="#3ADAF3"/>
<stop offset="0.62" stop-color="#34D0EC"/>
<stop offset="0.83" stop-color="#24B7DB"/>
<stop offset="1" stop-color="#159DC9"/>
</linearGradient>
</defs>
</svg>
