<svg enable-background="new 0 0 100 100" viewBox="0 0 100 100" xmlns="http://www.w3.org/2000/svg"><path d="m0 80.2c0 6.9 5.6 12.5 12.5 12.5h75c6.9 0 12.5-5.6 12.5-12.5v-60.4c0-6.9-5.6-12.5-12.5-12.5h-75c-6.9 0-12.5 5.6-12.5 12.5zm60.4-62.5c0 .7-.2 1.5-.6 2.1-1.1 1.9-3.5 2.7-5.5 1.6-.7-.4-1.2-.9-1.6-1.6-.4-.6-.6-1.3-.6-2.1 0-.7.2-1.5.6-2.1 1.1-1.9 3.5-2.7 5.5-1.6.7.4 1.2.9 1.6 1.6s.6 1.4.6 2.1zm14.6 0c0 .7-.2 1.5-.6 2.1-1.1 1.9-3.5 2.7-5.5 1.6-.7-.4-1.2-.9-1.6-1.6-.4-.6-.6-1.3-.6-2.1 0-.7.2-1.5.6-2.1 1.1-1.9 3.5-2.7 5.5-1.6.7.4 1.2.9 1.6 1.6s.6 1.4.6 2.1zm14.6 0c0 .7-.2 1.5-.6 2.1-1.1 1.9-3.5 2.7-5.5 1.6-.7-.4-1.2-.9-1.6-1.6-.4-.6-.6-1.3-.6-2.1 0-.7.2-1.5.6-2.1.7-1.3 2.1-2.1 3.5-2.1 1.6 0 3.1 1 3.8 2.5.2.5.4 1.1.4 1.7zm-81.3 11.5c0-.6.5-1 1-1h81.2c.6 0 1 .5 1 1v51c0 2.3-1.9 4.2-4.2 4.2h-75c-2.3 0-4.2-1.9-4.2-4.2v-51z" fill="#8fc03f"/><g fill="#8fc03f"><path d="m28.3 68.6c1.6 1.6 4.3 1.6 5.9 0l10.4-10.4c1.6-1.6 1.6-4.3 0-5.9l-10.4-10.4c-1.7-1.6-4.3-1.6-5.9.1-1.6 1.6-1.6 4.2 0 5.8l6.7 6.7c.4.4.4 1.1 0 1.5l-6.7 6.7c-1.6 1.6-1.6 4.2 0 5.9z"/><path d="m54.2 69.8h16.7c2.3 0 4.2-1.9 4.2-4.2s-1.9-4.2-4.2-4.2h-16.7c-2.3 0-4.2 1.9-4.2 4.2s1.9 4.2 4.2 4.2z"/></g></svg>