<svg enable-background="new 0 0 100 100" viewBox="0 0 100 100" xmlns="http://www.w3.org/2000/svg"><g transform="scale(4.16666667)"><path d="m14.3 20.7c-.1-.1-.2-.2-.4-.2h-3.9c-.1 0-.3.1-.4.2l-2.1 2.5c-.2.2-.1.5.1.7.2.1.3.1.4.1h8c.3 0 .5-.2.5-.5 0-.1 0-.2-.1-.3z" fill="#8fc03f"/><path d="m22.5 0h-21c-.8 0-1.5.7-1.5 1.5v16c0 .8.7 1.5 1.5 1.5h21c.8 0 1.5-.7 1.5-1.5v-16c0-.8-.7-1.5-1.5-1.5zm-.5 14.5c0 .3-.2.5-.5.5h-19c-.3 0-.5-.2-.5-.5v-12c0-.3.2-.5.5-.5h19c.3 0 .5.2.5.5z" fill="#8fc03f"/><g fill="#8fc03f"><path d="m10 10.4s.1-.1.1-.1l2.7-3.7c.3-.4.2-1.1-.2-1.4s-1.1-.2-1.4.2l-2 2.8c-.1.1-.2.2-.4.1l-1.5-.9c-.4-.3-1-.2-1.3.3l-2.3 3.3c-.3.5-.2 1.1.2 1.4s1.1.2 1.4-.2l1.7-2.4c0-.1.2-.2.3-.1l1.5.9c.4.2.9.2 1.2-.2z"/><path d="m14.5 4h2v8h-2z"/><path d="m18 6h2v6h-2z"/></g></g></svg>