<svg width="120" height="39" viewBox="0 0 120 39" fill="none" xmlns="http://www.w3.org/2000/svg">
<g clip-path="url(#clip0_1114_2333)">
<g clip-path="url(#clip1_1114_2333)">
<path d="M28.6963 4.64018L30.847 12.371H26.4016L28.7047 4.64018H28.6963ZM24.7843 17.7817L22.8283 24.1916H34.2594L32.422 17.7817H24.7843ZM54.6152 0H32.676V6.88406H39.6024V24.1916H50.7456C50.0597 23.7682 45.3264 20.0171 45.3264 13.0145C45.3264 7.18889 48.8573 1.49874 54.6237 0M58.434 17.9934C61.0251 17.9934 63.0996 15.8426 63.0996 13.1246C63.0996 10.4065 61.1521 7.98483 58.5272 7.98483C55.9023 7.98483 53.8193 10.4319 53.8193 13.1246C53.8193 15.8172 55.7668 17.9934 58.434 17.9934ZM81.4486 15.2076L76.9948 0H65.5891V24.1916H72.7102V9.0348H72.761L77.1726 24.2H88.6714V0H81.4825V15.2076H81.4402H81.4486ZM13.802 24.1916L15.8596 17.4091H8.23038V15.36H16.4862L18.4422 8.85698H8.23038V6.88406H19.0179L21.1009 0H0V24.1916H13.802Z" fill="#005EB8"/>
<path d="M20.8554 29.9325H22.6844C23.2348 29.9325 24.1408 30.0087 23.8105 31.5498C23.5227 32.8876 22.9638 33.4973 21.8122 33.4973H20.686L20.0256 36.6049H19.4329L20.8554 29.9325ZM20.7961 32.9977H21.8969C22.515 32.9977 22.9807 32.7014 23.2009 31.6599C23.4464 30.5252 22.9723 30.4321 22.4388 30.4321H21.3465L20.7961 33.0062V32.9977Z" fill="black"/>
<path d="M23.7174 34.7759L23.9545 33.6667C24.0815 33.074 24.3525 31.8462 25.9528 31.8462C27.5532 31.8462 27.2991 33.074 27.1721 33.6667L26.935 34.7759C26.681 35.9868 26.1137 36.6981 24.9198 36.6981C23.7259 36.6981 23.4634 35.9868 23.7174 34.7759ZM26.0883 35.6396C26.2322 35.411 26.427 34.5643 26.4863 34.2679C26.7826 32.8877 26.7657 32.2865 25.8512 32.2865C24.9367 32.2865 24.6658 32.8877 24.3779 34.2679C24.3186 34.5643 24.1577 35.4025 24.2 35.6396C24.2255 35.7497 24.2424 36.2577 25.0129 36.2577C25.7835 36.2577 26.0206 35.7497 26.0883 35.6396Z" fill="black"/>
<path d="M28.0189 31.9308H28.6116L28.7894 36.0206H28.8064L30.6607 31.9308H31.3466L31.516 36.0206H31.5329L33.4465 31.9308H34.0054L31.7276 36.5964H31.0333L30.8555 32.5997H30.8386L29.0096 36.5964H28.3153L28.0189 31.9308Z" fill="black"/>
<path d="M34.5388 34.3864L34.4626 34.7505C34.3272 35.3941 34.3187 36.2577 35.1993 36.2577C35.8936 36.2577 36.3255 35.8174 36.4525 35.1824H37.0367C36.7319 36.3086 36.0376 36.6981 35.1062 36.6981C34.3017 36.6981 33.5651 36.3763 33.8699 34.9622L34.1155 33.8191C34.4034 32.4728 35.0977 31.8462 36.1392 31.8462C37.748 31.8462 37.5025 33.0062 37.2061 34.3864H34.5473H34.5388ZM36.7404 33.9461C36.9605 32.9131 36.9267 32.2865 36.0376 32.2865C35.1485 32.2865 34.8521 32.9046 34.632 33.9461H36.7404Z" fill="black"/>
<path d="M39.2044 32.5659H39.2213C39.5431 32.1256 40.0935 31.8462 40.6608 31.8462L40.5423 32.4135C39.7717 32.3458 39.1536 32.82 38.9843 33.6074L38.3492 36.6134H37.7903L38.781 31.9478H39.3399L39.2044 32.5744V32.5659Z" fill="black"/>
<path d="M40.2798 36.6049L41.2705 31.9393H41.8293L40.8386 36.6049H40.2798ZM41.4822 30.6353L41.6346 29.9325H42.3204L42.168 30.6353H41.4822Z" fill="black"/>
<path d="M42.6591 36.6049H42.1003L43.091 31.9393H43.6498L43.5313 32.5151H43.5482C43.8954 32.1256 44.3188 31.8462 44.8184 31.8462C45.9784 31.8462 45.9107 32.7099 45.7836 33.3195L45.0808 36.6134H44.522L45.2163 33.3534C45.3349 32.8115 45.2248 32.295 44.5813 32.295C44.0817 32.295 43.4974 32.6337 43.2773 33.6836L42.6507 36.6134L42.6591 36.6049Z" fill="black"/>
<path d="M49.7972 31.9224H50.3391C50.2291 32.3711 50.1698 32.5998 50.119 32.8369L49.2807 36.7658C49.0606 37.7903 48.6202 38.4 47.2909 38.4C46.1223 38.4 46.0715 37.5786 46.207 37.1045H46.7659C46.6135 37.6379 46.9437 37.9512 47.4602 37.9512C48.544 37.9512 48.6033 37.367 48.8997 35.9698H48.8827C48.561 36.3678 48.0783 36.5371 47.638 36.5371C46.3002 36.5371 46.4526 35.3771 46.6727 34.3441C46.9014 33.2602 46.9098 33.2518 47.1469 32.7522C47.2316 32.5574 47.7142 31.8292 48.6541 31.8292C49.1283 31.8292 49.5432 32.0663 49.6618 32.4897L49.6787 32.5066L49.8057 31.9139L49.7972 31.9224ZM47.257 34.1578C47.0538 35.1315 46.8421 36.0968 47.8497 36.0968C48.3154 36.0968 48.6711 35.792 48.8065 35.5718C49.0182 35.2077 49.1029 34.9961 49.3993 33.6328C49.6109 32.6506 49.1622 32.278 48.6372 32.278C47.6719 32.278 47.4094 33.4634 47.257 34.1578Z" fill="black"/>
<path d="M52.5068 36.6049L53.9294 29.9325H55.7837C56.8252 29.9325 57.274 30.3559 57.0284 31.5328C56.8591 32.3373 56.6135 32.8961 55.716 33.1247V33.1417C56.5543 33.328 56.6559 33.9122 56.4781 34.7505C56.224 35.9529 55.5128 36.6049 54.3951 36.6049H52.5068ZM53.2012 36.1053H54.141C55.1233 36.1053 55.6652 35.7751 55.8684 34.7928C55.9954 34.2001 55.9869 33.3957 54.9709 33.3957H53.7685L53.1927 36.1053H53.2012ZM55.0217 32.8961C55.8684 32.8961 56.2664 32.3119 56.4273 31.5582C56.6643 30.449 56.0547 30.4321 55.589 30.4321H54.412L53.887 32.8961H55.0217Z" fill="black"/>
<path d="M60.9912 31.9308L60.0005 36.5964H59.5179L59.628 36.0798H59.611C59.2046 36.4778 58.8236 36.6895 58.307 36.6895C57.3417 36.6895 57.2232 35.9867 57.3841 35.2331L58.0869 31.9308H58.6373L57.9599 35.14C57.9345 35.267 57.6974 36.2492 58.5018 36.2492C59.2469 36.2492 59.6703 35.5464 59.738 35.2246L60.4408 31.9308H60.9997H60.9912Z" fill="black"/>
<path d="M62.3206 36.6981C61.313 36.6981 61.0166 36.2069 61.2368 35.2162H61.8041C61.6686 35.8513 61.7279 36.2831 62.4392 36.2831C62.9726 36.2831 63.3028 35.9783 63.4129 35.4618C63.6754 34.2425 61.5077 34.5558 61.838 33.0147C62.0243 32.151 62.6763 31.8462 63.4891 31.8462C64.4121 31.8462 64.573 32.4813 64.4206 33.1925H63.8786C63.9802 32.5998 63.8786 32.2865 63.2605 32.2865C62.8625 32.2865 62.49 32.549 62.4053 32.9639C62.1597 34.1324 64.3274 33.8106 63.9887 35.3771C63.8024 36.2577 63.2012 36.6981 62.3291 36.6981H62.3206Z" fill="black"/>
<path d="M64.7339 36.6049L65.7246 31.9393H66.2834L65.2927 36.6049H64.7339ZM65.9362 30.6353L66.0887 29.9325H66.7745L66.6221 30.6353H65.9362Z" fill="black"/>
<path d="M67.1217 36.6049H66.5628L67.5535 31.9393H68.1124L67.9938 32.5151H68.0108C68.3579 32.1256 68.7813 31.8462 69.2809 31.8462C70.4325 31.8462 70.3732 32.7099 70.2462 33.3195L69.5434 36.6134H68.9845L69.6789 33.3534C69.7974 32.8115 69.6873 32.295 69.0438 32.295C68.5442 32.295 67.96 32.6337 67.7398 33.6836L67.1132 36.6134L67.1217 36.6049Z" fill="black"/>
<path d="M71.6772 34.3864L71.601 34.7505C71.4655 35.3941 71.457 36.2577 72.3377 36.2577C73.032 36.2577 73.4638 35.8174 73.5908 35.1824H74.1751C73.8703 36.3086 73.1759 36.6981 72.2445 36.6981C71.4401 36.6981 70.7034 36.3763 71.0083 34.9622L71.2538 33.8191C71.5417 32.4728 72.236 31.8462 73.2775 31.8462C74.8864 31.8462 74.6408 33.0062 74.3444 34.3864H71.6857H71.6772ZM73.8787 33.9461C74.0989 32.9131 74.065 32.2865 73.1759 32.2865C72.2868 32.2865 71.9905 32.9046 71.7703 33.9461H73.8787Z" fill="black"/>
<path d="M76.0633 36.6981C75.0557 36.6981 74.7593 36.2069 74.9795 35.2162H75.5468C75.4113 35.8513 75.4706 36.2831 76.1819 36.2831C76.7153 36.2831 77.0456 35.9783 77.1556 35.4618C77.4181 34.2425 75.2505 34.5558 75.5807 33.0147C75.767 32.151 76.419 31.8462 77.2318 31.8462C78.1548 31.8462 78.3157 32.4813 78.1633 33.1925H77.6213C77.723 32.5998 77.6214 32.2865 77.0032 32.2865C76.6053 32.2865 76.2327 32.549 76.148 32.9639C75.9025 34.1324 78.0701 33.8106 77.7314 35.3771C77.5451 36.2577 76.9439 36.6981 76.0718 36.6981H76.0633Z" fill="black"/>
<path d="M79.5943 36.6981C78.5866 36.6981 78.2903 36.2069 78.5104 35.2162H79.0778C78.9423 35.8513 79.0015 36.2831 79.7128 36.2831C80.2463 36.2831 80.5765 35.9783 80.6866 35.4618C80.9491 34.2425 78.7814 34.5558 79.1116 33.0147C79.2979 32.151 79.9499 31.8462 80.7628 31.8462C81.6857 31.8462 81.8466 32.4813 81.6942 33.1925H81.1523C81.2539 32.5998 81.1523 32.2865 80.5342 32.2865C80.1362 32.2865 79.7636 32.549 79.6789 32.9639C79.4334 34.1324 81.5926 33.8106 81.2624 35.3771C81.0761 36.2577 80.4749 36.6981 79.6027 36.6981H79.5943Z" fill="black"/>
<path d="M87.7654 29.9325H88.5613L88.6545 35.7835H88.6714L91.3387 29.9325H91.9229L88.8492 36.6049H88.0702L87.994 30.6692H87.9771L85.3352 36.6049H84.5986L84.4123 29.9325H85.0389L85.132 35.8343H85.1489L87.7654 29.9325Z" fill="black"/>
<path d="M91.2032 34.7759L91.4403 33.6667C91.5673 33.074 91.8383 31.8462 93.4386 31.8462C95.039 31.8462 94.7849 33.074 94.6579 33.6667L94.4208 34.7759C94.1668 35.9868 93.5995 36.6981 92.4056 36.6981C91.2117 36.6981 90.9492 35.9868 91.2032 34.7759ZM93.5741 35.6396C93.718 35.411 93.9128 34.5643 93.9721 34.2679C94.2684 32.8877 94.2515 32.2865 93.337 32.2865C92.4225 32.2865 92.1515 32.8877 91.8637 34.2679C91.8044 34.5643 91.6435 35.4025 91.6858 35.6396C91.7112 35.7497 91.7282 36.2577 92.4987 36.2577C93.2693 36.2577 93.5063 35.7497 93.5741 35.6396Z" fill="black"/>
<path d="M96.5885 32.5659H96.6054C96.9272 32.1256 97.4776 31.8462 98.0449 31.8462L97.9264 32.4135C97.1558 32.3458 96.5377 32.82 96.3684 33.6074L95.7333 36.6134H95.1744L96.1651 31.9478H96.724L96.5885 32.5744V32.5659Z" fill="black"/>
<path d="M97.7062 36.6049L99.1287 29.9325H99.6876L98.2651 36.6049H97.7062Z" fill="black"/>
<path d="M102.143 36.0121H102.126C101.745 36.4609 101.347 36.698 100.797 36.698C99.4505 36.698 99.6622 35.3601 99.8908 34.2678C100.086 33.3703 100.407 31.8461 101.838 31.8461C102.262 31.8461 102.643 32.0409 102.846 32.405H102.863L103.388 29.9325H103.947L102.727 35.6819C102.626 36.1476 102.592 36.4525 102.583 36.6049H102.05L102.152 36.0121H102.143ZM102.397 34.6912L102.575 33.8614C102.634 33.582 102.905 32.2865 101.864 32.2865C100.822 32.2865 100.67 33.1925 100.441 34.2848C100.069 36.0206 100.441 36.2577 101.042 36.2577C101.567 36.2577 102.16 35.8343 102.397 34.6912Z" fill="black"/>
<path d="M104.184 31.9308H104.777L104.954 36.0206H104.971L106.826 31.9308H107.512L107.681 36.0206H107.698L109.611 31.9308H110.17L107.893 36.5964H107.198L107.02 32.5997H107.003L105.175 36.5964H104.48L104.184 31.9308Z" fill="black"/>
<path d="M109.866 36.6049L110.856 31.9393H111.415L110.424 36.6049H109.874H109.866ZM111.068 30.6353L111.22 29.9325H111.906L111.754 30.6353H111.068Z" fill="black"/>
<path d="M114.277 36.0121H114.26C113.879 36.4609 113.481 36.698 112.931 36.698C111.584 36.698 111.796 35.3601 112.025 34.2678C112.219 33.3703 112.541 31.8461 113.972 31.8461C114.396 31.8461 114.777 32.0409 114.98 32.405H114.997L115.522 29.9325H116.081L114.861 35.6819C114.76 36.1476 114.726 36.4525 114.717 36.6049H114.184L114.286 36.0121H114.277ZM114.531 34.6912L114.709 33.8614C114.768 33.582 115.039 32.2865 113.998 32.2865C112.956 32.2865 112.804 33.1925 112.575 34.2848C112.203 36.0206 112.575 36.2577 113.176 36.2577C113.701 36.2577 114.294 35.8343 114.531 34.6912Z" fill="black"/>
<path d="M116.758 34.3864L116.682 34.7505C116.546 35.3941 116.538 36.2577 117.418 36.2577C118.113 36.2577 118.545 35.8174 118.672 35.1824H119.256C118.951 36.3086 118.257 36.6981 117.325 36.6981C116.521 36.6981 115.784 36.3763 116.089 34.9622L116.335 33.8191C116.623 32.4728 117.317 31.8462 118.358 31.8462C119.967 31.8462 119.722 33.0062 119.425 34.3864H116.758ZM118.96 33.9461C119.18 32.9131 119.146 32.2865 118.257 32.2865C117.368 32.2865 117.071 32.9046 116.851 33.9461H118.96Z" fill="black"/>
</g>
</g>
<defs>
<clipPath id="clip0_1114_2333">
<rect width="120" height="38.4" fill="white"/>
</clipPath>
<clipPath id="clip1_1114_2333">
<rect width="120" height="38.4" fill="white"/>
</clipPath>
</defs>
</svg>
