<svg viewBox="0 0 40.03 40" xmlns="http://www.w3.org/2000/svg"><g transform="translate(.01)"><g fill="#8fc03f"><path d="m35.24 31.32-6.48-2.16a1.24 1.24 0 0 0 -1.58.78.27.27 0 0 0 0 .12.42.42 0 0 1 -.18.3l-5.54 3.88a.42.42 0 0 0 -.18.34v4.59a.41.41 0 0 0 .42.41h10.8a.83.83 0 0 0 .83-.83v-4.85a.42.42 0 0 1 .42-.42h.13l.51.17a5.08 5.08 0 0 1 3.09 5.08 1.25 1.25 0 0 0 2.5 0 7.6 7.6 0 0 0 -4.74-7.41z"/><path d="m18.75 34.57a.41.41 0 0 0 -.18-.33l-5.57-3.89a.44.44 0 0 1 -.17-.3.27.27 0 0 0 0-.12 1.23 1.23 0 0 0 -1.57-.78l-6.54 2.18a7.58 7.58 0 0 0 -4.72 7.42 1.25 1.25 0 0 0 2.5 0 5.07 5.07 0 0 1 3.05-5l.56-.2a.41.41 0 0 1 .52.26.35.35 0 0 1 0 .14v4.85a.83.83 0 0 0 .83.83h10.87a.41.41 0 0 0 .42-.41z"/><path d="m21.32 21.38a2.43 2.43 0 0 1 -.37.16 3.43 3.43 0 0 1 -.9.13 3.21 3.21 0 0 1 -.92-.14 2.39 2.39 0 0 1 -.37-.15 1.25 1.25 0 0 0 -1.22 2.18 4.63 4.63 0 0 0 .83.36 5.93 5.93 0 0 0 1.67.25 5.86 5.86 0 0 0 1.66-.25 4.09 4.09 0 0 0 .83-.36 1.25 1.25 0 1 0 -1.14-2.22h-.08z"/><path d="m18.55 17.56a1.25 1.25 0 0 0 -.07-1.77 3.37 3.37 0 0 0 -4.33 0 1.25 1.25 0 0 0 1.7 1.84.91.91 0 0 1 .93 0 1.26 1.26 0 0 0 1.77-.07z"/><path d="m21.52 15.79a1.25 1.25 0 1 0 1.7 1.84.91.91 0 0 1 .93 0 1.25 1.25 0 1 0 1.7-1.84 3.37 3.37 0 0 0 -4.33 0z"/><path d="m31.88 13.75h.65a1.22 1.22 0 0 0 .77-.29 7.48 7.48 0 0 1 -6.12-10.56c-.26-.15-.53-.29-.8-.42a.43.43 0 0 0 -.35 0 .44.44 0 0 0 -.23.27l-2.09 7.58a1.27 1.27 0 0 1 -1.21.92 1.86 1.86 0 0 1 -.33 0 1.26 1.26 0 0 1 -.88-1.54l2.34-8.45a.42.42 0 0 0 -.25-.5 9.15 9.15 0 0 0 -3.38-.76 9.2 9.2 0 0 0 -3.35.73.41.41 0 0 0 -.25.5l2.28 8.45a1.25 1.25 0 0 1 -.88 1.53 1.33 1.33 0 0 1 -.34 0 1.27 1.27 0 0 1 -1.2-.93l-2-7.57a.43.43 0 0 0 -.52-.29h-.06a8.71 8.71 0 0 0 -3 2.21 10.17 10.17 0 0 0 -2.2 6.15.42.42 0 0 1 -.42.39h-.56a1.25 1.25 0 0 0 0 2.5h.69a.41.41 0 0 1 .41.38c0 .2 0 .4.07.6a.48.48 0 0 1 -.08.31 3.55 3.55 0 0 0 -.67 2.27 4.53 4.53 0 0 0 2.4 4.06.45.45 0 0 1 .24.31c.85 5.16 6.7 8.4 9.44 8.4s8.63-3.24 9.48-8.32a.45.45 0 0 1 .24-.31 4.54 4.54 0 0 0 2.4-4.05 3.56 3.56 0 0 0 -.64-2.32.48.48 0 0 1 -.08-.31c0-.2.05-.4.07-.6a.41.41 0 0 1 .41-.34zm-3.17 5.35a2.93 2.93 0 0 0 -1.71 2.17c-.63 3.75-5.29 6.23-7 6.23s-6.35-2.5-7-6.23a2.91 2.91 0 0 0 -1.67-2.17 2.14 2.14 0 0 1 -.93-1.83 1.08 1.08 0 0 1 .18-.74 1.24 1.24 0 0 0 .67-1.32c0-.33-.1-.67-.14-1a.4.4 0 0 1 .1-.33.46.46 0 0 1 .31-.15h17a.43.43 0 0 1 .42.43c-.05.33-.1.66-.16 1a1.25 1.25 0 0 0 .68 1.32 1.07 1.07 0 0 1 .16.74 2.1 2.1 0 0 1 -.91 1.88z"/></g><path d="m34 0a6 6 0 1 0 6 6 6 6 0 0 0 -6-6zm-1.19 8.85a.82.82 0 0 1 -.58-.23l-1.63-1.62a.82.82 0 0 1 0-1.16.81.81 0 0 1 1.15 0l1.06 1.06 3.52-3.51a.82.82 0 0 1 1.16 0 .83.83 0 0 1 0 1.12l-4.09 4.12a.81.81 0 0 1 -.59.22z" fill="#8fc03f"/></g></svg>