<?xml version="1.0" encoding="UTF-8"?>
<svg id="Layer_2" data-name="Layer 2" xmlns="http://www.w3.org/2000/svg" xmlns:xlink="http://www.w3.org/1999/xlink" viewBox="0 0 3772.76 853.87">
  <defs>
    <style>
      .cls-1 {
        clip-path: url(#clippath);
      }

      .cls-2 {
        fill: none;
      }

      .cls-2, .cls-3 {
        stroke-width: 0px;
      }

      .cls-4 {
        clip-path: url(#clippath-1);
      }

      .cls-3 {
        fill: #425881;
      }
    </style>
    <clipPath id="clippath">
      <rect class="cls-2" width="3772.76" height="853.87"/>
    </clipPath>
    <clipPath id="clippath-1">
      <rect class="cls-2" width="3772.76" height="853.87"/>
    </clipPath>
  </defs>
  <g id="Layer_1-2" data-name="Layer 1">
    <g id="Artwork_44" data-name="Artwork 44">
      <g class="cls-1">
        <g class="cls-4">
          <path class="cls-3" d="m485.74,0c17.2,9.92,37.22,8.88,55.7,14.04,115.91,32.41,204,100.1,265.15,203.19,9.55,16.1,7.46,19.64-11.58,20.47-221.91,9.62-443.78,20.02-665.66,30.25-27.44,1.26-54.91,2.24-82.29,4.33-15.85,1.21-17.13-3.76-10.95-16.86C97.81,124.67,198.99,42.54,340.43,9.47c9.42-2.2,20.38-.33,27.42-9.46h117.9Z"/>
          <path class="cls-3" d="m0,412.74c53.35-3.5,105.28-16.15,157.74-25.13,218.83-37.44,437.48-75.96,656.13-114.42,12.85-2.26,21.77-1.01,24.33,13.29,2.79,15.58-12.9,16.47-19.37,17.37-166.32,23.13-329.92,60.84-495.06,90.2-108.11,19.23-215.86,40.53-323.77,60.9v-42.21"/>
          <path class="cls-3" d="m3772.76,168.85c-2.9-2.32-8.31-4.64-8.31-6.96,0-19.64-15.63-13.1-25-14.16-13.65-1.55-1.77,13.87-10.78,17.25-7.16-1.87-3.77-8.71-3.28-12.87,1.28-11.02-6.53-28.6,4.62-31.62,13.14-3.57,10.46,15.08,14.9,23.85,2.14,4.23,4.58,6.31,8.81,4.9,4.29-1.42,5.59-5.69,4.59-9.44-3.45-13,.47-20.84,14.46-22.54v51.59Z"/>
          <path class="cls-3" d="m3613.8,321.97c0,60.16.03,120.31-.03,180.46-.01,9.37-.01,18.77-.79,28.09-2.87,34.53-8.69,67.63-47.96,80.67-40.85,13.57-85.06.64-112-33.35-59.93-75.62-110.69-157.21-157.32-241.43-16.99-30.69-33.95-61.39-51.42-91.81-3.68-6.4-7.86-16.05-16.93-13.52-9.88,2.75-5.93,13.24-5.95,20.41-.26,113.28-.59,226.57.19,339.85.12,17.32-3.94,23.38-22.01,22.36-27.41-1.55-54.98-.96-82.45-.18-12.13.35-16.63-3.24-16.51-15.67,1.35-139.04-3.55-278.16,2.5-417.1,3.58-82.06,80.07-119.03,151.74-76.23,30.55,18.25,52.31,45.2,68.34,75.86,44.19,84.51,95.59,164.88,142.11,248.02,2.29,4.09,4.62,8.17,7.2,12.09,4.22,6.39,7.83,16.29,16.52,14.37,10.66-2.36,5.09-13.15,5.12-19.93.36-106.25.75-212.51-.18-318.75-.17-19.1,4.19-26.14,24.34-24.56,24.21,1.89,48.73,1.55,73,.16,17.12-.98,22.74,3.37,22.42,21.59-1.21,69.51-.48,139.06-.48,208.6h.55"/>
          <path class="cls-3" d="m1211.66,615.11c-56.56,0-113.13.75-169.67-.2-63.7-1.08-108.72-46.99-109.06-110.82-.5-96.87-.52-193.75-.05-290.63.35-72.84,34.5-111.2,106.63-121.45,29.71-4.22,59.62-1.89,89.43-2,87.19-.31,174.4.3,261.58-.42,16.37-.13,22.41,4.16,20.74,20.91-2.53,25.29,11.14,59.35-5.29,73.71-14.37,12.56-47.79,3.93-72.8,4.03-74.63.3-149.25.19-223.88.42-39.89.13-47.64,8.06-47.74,47.97-.04,17.96.99,36-.3,53.88-1.18,16.23,4.16,21.64,20.84,21.32,54.18-1.08,108.39-.67,162.58-.84,49.49-.15,98.98.04,148.46-.72,12.85-.19,18.46,2.77,17.66,16.78-1.31,23.28,8,53.78-3.59,68.04-12.15,14.95-44.08,4.45-67.32,4.58-84.83.48-169.68.69-254.5-.53-18.66-.27-22.93,5.62-21.49,22.54,1.45,17.07.14,34.35.41,51.54.5,30.99,13.08,43.55,44.87,43.81,90.33.74,180.66,1.97,270.97,1.14,23.32-.21,34.78,3.87,30.85,29.69-2.09,13.75-1.62,28.21-.07,42.1,2.2,19.68-2.99,26.86-24.91,26.17-58.08-1.8-116.24-.61-174.37-.61v-.41"/>
          <path class="cls-3" d="m144.52,743.87c87.3-42.36,172.45-83.76,257.67-125.02,146.06-70.73,292.34-140.98,438-212.49,20.76-10.19,22.07-4.16,22.14,14.58.87,248.19-205.42,444.7-454.49,432.38-94.98-4.7-193.91-45.25-263.33-109.45"/>
          <path class="cls-3" d="m2835.5,613.24c-51.88-.02-103.75.44-155.62-.13-71.12-.78-114.3-43.84-114.65-114.76-.48-94.58-.18-189.16.04-283.74.03-11.67.55-23.54,2.68-34.97,10.51-56.23,43.22-87.36,100.76-90.45,53.3-2.86,106.83-1.46,160.26-1.64,55.8-.19,111.61.7,167.38-.47,17.23-.36,21.56,5.31,20.57,21.17-1.21,19.47-1.48,39.15.02,58.58,1.26,16.37-5.17,19.3-20.15,19.18-86.45-.65-172.91-.34-259.36-.19-9.39.01-18.93.25-28.14,1.89-13.82,2.46-22.55,10.48-22.59,25.52-.07,27.35.49,54.72-.35,82.05-.52,17.17,11.26,13.66,20.74,13.66,84.09-.07,168.19-.65,252.28-.4,18.57.06,43.29-8.34,53.98,4.34,9,10.68,2.91,34.37,2.63,52.29-.52,34.09,6.3,31.3-30.99,31.39-91.18.23-182.35.71-273.51-.4-20.15-.25-25.88,5.78-23.88,24.88,1.7,16.24.13,32.8.45,49.21.6,31.13,13.3,44.11,44.65,44.34,87.23.63,174.48,1.28,261.71.77,16.87-.1,24.24,2.77,22.52,21.36-1.79,19.38-1.42,39.12-.07,58.57,1.04,15.03-4.6,18.45-18.7,18.27-54.22-.7-108.46-.28-162.69-.3"/>
          <path class="cls-3" d="m1703.26,612.91c-61.28,0-122.56-.39-183.84.27-14.85.16-21.41-3.24-20.12-19.48,1.47-18.64,1.35-37.55.01-56.21-1.06-14.67,3.58-17.96,18.19-17.86,102.13.69,204.26.28,306.4.21,4.72,0,9.43.03,14.14-.13,10.53-.34,21.25-1.72,25.49-12.92,4.14-10.91-4.79-17.41-11.58-23.51-7.53-6.78-15.91-12.7-24.33-18.4-90.43-61.33-180.96-122.5-271.41-183.78-39.88-27.03-59.67-64.56-51.16-112.09,4.18-23.38,22.79-41.31,42.11-55.07,25.42-18.12,54.76-26.67,86.33-26.66,110.77.03,221.55.29,332.32-.26,14.71-.07,21.36,2.7,20.2,18.98-1.44,20.22-1.71,40.71-.04,60.89,1.38,16.68-5.4,19.08-20.05,19-97.42-.53-194.84-.35-292.26-.1-26.13.07-35.55,10.31-28.97,29.17,2.06,5.9,6.48,7.73,10.83,10.97,66.1,49.11,135.62,93.13,205.63,136.36,39.78,24.57,73.64,55.72,105.15,89.44,24.79,26.54,29.33,92.17,8.25,121.63-21.55,30.12-54.48,39.09-89.8,39.41-60.49.55-120.99.15-181.48.14"/>
          <path class="cls-3" d="m2070.41,347.57c0-80.44.4-160.86-.35-241.29-.15-16.02,3.84-21.3,20.73-21.22,87.14.43,174.3-.37,261.44-.9,22.87-.14,45.64,1.09,67.65,7.33,51.98,14.75,89.85,66.95,93.23,127.54,1.27,22.76-.87,45.35-6.08,67.43-15.55,65.92-58.22,98.79-126.51,98.38-54.17-.33-108.4.6-162.5-1.55-22.64-.9-26.67,6.91-26.25,27.22,1.23,60.89-.19,121.82.77,182.71.25,15.94-4.75,20.15-19.97,19.54-26.65-1.07-53.43-1.26-80.05.07-17.03.85-22.83-3.33-22.57-21.64,1.11-81.2.48-162.42.48-243.63m214.67-168.23c-27.44,0-54.9.58-82.32-.25-13.26-.4-18.1,3.9-17.68,17.27.82,25.71.94,51.47.06,77.17-.48,13.95,3.62,19.31,18.42,19.01,54.08-1.09,108.18-.79,162.27-1.56,27.51-.4,44.39-21.79,44.61-54.99.23-34.24-16.95-56.03-45.39-56.54-26.64-.48-53.31-.11-79.96-.11"/>
          <path class="cls-3" d="m64.55,643.32c-13.36-5.68-16.19-19.81-20.88-31.23-4.24-10.31,8.08-9.44,13.53-11.27,37.39-12.53,76.69-20.82,112.83-35.14,80.67-31.97,163.61-56.72,245.49-84.72,138.66-47.43,277.81-93.44,416.83-139.85,6.99-2.33,16.17-10.92,21.05,2.34,4.41,11.98-3.75,15.67-13.75,19.26-140.89,50.71-281.66,101.76-422.44,152.8-112.04,40.62-224.05,81.33-336.08,121.99-5.15,1.87-10.34,3.63-16.58,5.82"/>
          <path class="cls-3" d="m2190.08,779.1c0-21.2.48-35.88-.16-50.5-.45-10.48,1.98-15.32,14.09-15.42,13.4-.12,13.11,7.17,12.94,16.35-.28,14.8.43,29.62-.35,44.39-.42,7.77,5.09,19.08-5.68,22.43-10.12,3.14-21.11,2.56-30.92-5.44-20.56-16.78-41.97-32.55-63.11-48.64-2.98-2.28-6.34-4.06-13.96-8.87,0,18.34-.34,33.35.12,48.34.3,9.71-.58,16-13.34,16.07-13.74.08-12.63-8.01-12.57-16.74.1-14.8-.5-29.64.43-44.38.49-7.74-4.74-19.06,6.61-22.26,9.51-2.68,19.6-1.88,28.71,5.43,23.56,18.89,47.86,36.87,77.18,59.26"/>
          <path class="cls-3" d="m2449.28,798.99c-22.83-.86-42.49-2.11-60.06-12.32-12.04-6.99-21.59-16.37-21.3-31.36.3-14.71,8.7-25.37,21.74-30.9,41.17-17.46,82.7-17.9,122.51,3.2,24.5,12.98,23.79,41.69-.28,56.53-20.05,12.37-42.83,14.29-62.62,14.85m.24-9.17c9.21-1.43,18.71-1.91,27.57-4.5,13.9-4.06,26.55-10.48,27.24-27.67.72-18.01-10.88-26.3-26.03-31.27-22.45-7.37-44.79-5.54-66.51,2.65-12,4.52-18.61,14.46-18.81,27.08-.19,12,7.19,20.38,17.67,25.36,12.14,5.77,25.19,8.16,38.87,8.35"/>
          <path class="cls-3" d="m3007.28,712.54c18.77-.44,39.56,2.92,58.52,13.35,25.95,14.25,27.15,41.04,3.04,58.19-28.17,20.03-99.98,19.69-128.27-.62-21.64-15.53-21.52-41.15.94-56.09,18.97-12.63,40.83-14.91,65.78-14.83m-3.2,76.15c11.82.52,23.44-.47,34.5-4.99,12.15-4.96,21.92-12.02,22.69-26.59.78-14.71-7.92-23.37-20.24-28.2-24.98-9.78-50.44-10.8-74.74,1.74-22.52,11.62-22.57,37.34-.63,49.98,11.81,6.8,24.98,8.41,38.43,8.05"/>
          <path class="cls-3" d="m3307.11,756.14c16.13,0,32.26-.04,48.39.02,8.31.03,16.37,1.05,16.76,11.77.34,9.25,1.55,19.07-10.6,23.13-39.99,13.37-79.84,14.28-119.14-1.96-13.79-5.7-23.48-15.74-23.2-32.09.26-15.05,8.89-25.53,21.56-31.13,36.76-16.24,74.5-16.93,112.17-2.91,4.79,1.78,14.28,3.95,8.6,12.62-4.09,6.22-10,4.84-16.09.17-22.2-17.05-47.5-14.03-72.16-8.22-15.73,3.7-30.52,11.85-28.75,31.53,1.64,18.3,15.34,29.64,31.52,31.69,21.49,2.74,43.77,1.3,65.01-5.61,5.46-1.77,10.66-3.62,9.71-10.92-1.01-7.88-5.84-10.37-13.29-9.41-10.7,1.37-21.3,1.72-31.3-2.57.27-2.03.54-4.07.81-6.1"/>
          <path class="cls-3" d="m1919.58,755.62c.03,9.34-.4,18.72.14,28.03.57,9.63-2.34,14.34-13.03,14.03-9.73-.27-12.71-4.97-11.1-13.23,4.95-25.29-9.07-28.66-29.3-26.23-7.72.93-15.72.89-23.46.04-20.95-2.29-35.73,1.07-30.45,27.57,1.81,9.1-3.62,11.88-12.44,11.8-8.6-.08-13.04-2.21-12.85-11.75.41-20.24.38-40.5-.03-60.74-.19-9.29,3.7-12,12.61-11.87,8.4.13,14.42,1.84,12.77,11.43-3.94,22.87,8.74,26.09,27.15,24.18,8.52-.89,17.25-.67,25.82-.09,18.4,1.25,35.2,1.57,30.23-25.18-1.53-8.21,4.11-9.88,11.56-10.22,9.18-.42,12.81,2.77,12.43,11.86-.43,10.1-.1,20.25-.08,30.37"/>
          <path class="cls-3" d="m1333.63,723.12c-25.61,0-51.22.19-76.83-.09-10.44-.12-18.1.5-18.03,14.56.07,14.05,8.8,12.1,17.28,12.12,23.64.06,47.27.02,70.97,3.77-23.8,8.22-48.3,4.49-72.41,5.81-14.34.78-20.61,11.43-13.67,22.78,4.7,7.68,12.26,5.69,19.01,5.74,25.75.2,51.5.08,77.18.08.41,11.76-6.83,9.41-11.48,9.45-32.21.28-64.43-.26-96.62.4-12.87.26-18.56-5.89-21.03-17.1-.17-.76-.2-1.55-.33-2.32-9.65-59.11-4.73-64.9,54.77-64.81,23.7.04,47.4,0,71.1,0,.04,3.2.07,6.4.11,9.6"/>
          <path class="cls-3" d="m1628.19,772.96c-27.7,30.57-101.14,34.85-129.45,9.24-16.55-14.97-17.3-36.88-1.77-51.5,26.85-25.26,99.37-23.68,128.08,3.8-8.11,5.36-15.58,6.92-22.83-.25-21.94-21.72-46.41-12.81-70.17-5.17-12.13,3.9-18.78,14.14-18.43,27.19.34,12.88,6.86,22.38,19.26,26.74,24.79,8.72,49.39,11,70.73-7.94,7.72-6.84,14.33-7.41,24.59-2.11"/>
          <path class="cls-3" d="m3475.83,715.79c25.32-8,36.5,9.17,50.23,19.56,23.71,17.95,29.46,19.05,46.66-3.82,11.99-15.94,26.45-18.07,49.34-17.75-15.81,12.37-27.42,22.35-39.96,31.01-14.19,9.81-25.93,20.05-21.85,39.7,2.21,10.63-3.77,13.32-13.49,13.05-8.1-.23-15.46-1.54-13.35-11.14,5.1-23.23-10.96-33.5-25.76-45.01-9.81-7.63-19.37-15.57-31.82-25.6"/>
          <path class="cls-3" d="m929.61,715.72h143.5c.13,2.2.26,4.4.39,6.6-8.55,0-17.11-.16-25.66.03-36.95.82-32.72-5.85-33.07,34.11-.08,9.34-.57,18.74.18,28.03.87,10.72-4.28,13.22-13.85,13.22-9.83-.01-16.29-1.08-15.97-13.66.5-19.34,5.79-42.83-3.14-56.92-8.97-14.15-34.94-.66-52.38-11.39"/>
          <path class="cls-3" d="m2786.07,797.28c-31.85,0-63.7.09-95.54-.06-8.46-.04-9.81-6.19-9.82-12.95-.04-19.51.36-39.02-.23-58.5-.35-11.37,5.89-12.17,14.85-12.39,9.87-.25,11.83,4.51,11.61,12.86-.37,14.03.8,28.16-.4,42.1-1.3,15.05,5.26,18.18,19,18.22,20.22.05,40.99-3.51,60.75,2.8-.08,2.64-.15,5.29-.23,7.93"/>
        </g>
      </g>
    </g>
  </g>
</svg>