<svg width="40" height="40" viewBox="0 0 40 40" fill="none" xmlns="http://www.w3.org/2000/svg">
<g clip-path="url(#clip0_414_35)">
<path d="M9.16666 27.0167C9.16962 26.6072 9.02173 26.211 8.75122 25.9036C8.48071 25.5962 8.10651 25.3991 7.69999 25.35C6.46563 25.382 5.26824 24.927 4.36666 24.0833C3.99074 23.6754 3.70454 23.1933 3.52655 22.6679C3.34857 22.1426 3.28274 21.5857 3.33332 21.0333C3.34329 20.3883 3.49827 19.7537 3.78677 19.1767C4.07528 18.5997 4.48993 18.095 4.99999 17.7C5.74257 17.0683 6.67582 16.7044 7.64999 16.6667C7.94621 16.6704 8.24163 16.6983 8.53332 16.75C8.76671 16.7995 9.00801 16.7984 9.24091 16.7466C9.47381 16.6949 9.69288 16.5937 9.88332 16.45C10.0828 16.2965 10.2449 16.0997 10.3575 15.8746C10.4701 15.6494 10.5302 15.4017 10.5333 15.15C10.6667 5.54999 24.3667 2.86666 28.5667 11.7333C28.7064 12.0274 28.9293 12.2741 29.2077 12.4429C29.4862 12.6117 29.8079 12.6953 30.1333 12.6833C31.0743 12.6332 32.0143 12.7995 32.8811 13.1693C33.7478 13.5391 34.5183 14.1027 35.1333 14.8167C36.2028 16.071 36.7515 17.6872 36.6667 19.3333C36.6334 20.6758 36.1605 21.9703 35.3205 23.0181C34.4805 24.0658 33.3198 24.809 32.0167 25.1333C31.679 25.2356 31.3825 25.4424 31.1698 25.7239C30.9572 26.0055 30.8393 26.3472 30.8333 26.7V26.7C30.8379 26.9518 30.8995 27.1993 31.0134 27.4238C31.1274 27.6484 31.2907 27.8442 31.4912 27.9966C31.6917 28.149 31.9242 28.2539 32.171 28.3036C32.4179 28.3533 32.6728 28.3463 32.9167 28.2833C34.9158 27.7988 36.697 26.6629 37.9795 25.0546C39.2619 23.4462 39.9728 21.4569 40 19.4C40.066 17.345 39.4828 15.3214 38.3333 13.6167C37.5399 12.4488 36.4977 11.471 35.2817 10.7535C34.0657 10.036 32.7059 9.59651 31.3 9.46666C31.2363 9.457 31.1752 9.43424 31.1207 9.39982C31.0662 9.3654 31.0194 9.32006 30.9833 9.26666C29.6639 7.06894 27.7158 5.31734 25.3907 4.23815C23.0656 3.15895 20.4704 2.80175 17.9402 3.21268C15.41 3.62361 13.0611 4.7838 11.1971 6.54336C9.33299 8.30292 8.03938 10.581 7.48332 13.0833C7.46856 13.172 7.42435 13.2531 7.35782 13.3136C7.2913 13.3741 7.20634 13.4104 7.11666 13.4167C5.87545 13.5049 4.67399 13.892 3.61473 14.545C2.55547 15.198 1.66983 16.0974 1.03332 17.1667C0.301952 18.3934 -0.0570571 19.8063 -9.10017e-06 21.2333C-0.0170529 22.1863 0.157048 23.133 0.512009 24.0175C0.866971 24.9021 1.39559 25.7065 2.06666 26.3833C3.51189 27.7259 5.38054 28.5217 7.34999 28.6333C7.57698 28.6539 7.80579 28.6277 8.02226 28.5564C8.23873 28.485 8.43827 28.37 8.60853 28.2185C8.7788 28.067 8.91618 27.8822 9.01218 27.6754C9.10817 27.4687 9.16075 27.2445 9.16666 27.0167Z" fill="#8fc03f"/>
<path d="M28.3333 25.3C28.3312 24.683 28.0995 24.0888 27.6833 23.6333C27.2929 23.1957 26.7628 22.907 26.1833 22.8167C26.0861 22.8044 25.9968 22.7569 25.9323 22.6832C25.8678 22.6095 25.8326 22.5146 25.8333 22.4167V20.75C25.8333 19.2029 25.2187 17.7192 24.1248 16.6252C23.0308 15.5312 21.5471 14.9167 20 14.9167C18.4529 14.9167 16.9692 15.5312 15.8752 16.6252C14.7812 17.7192 14.1667 19.2029 14.1667 20.75V22.4167C14.1674 22.5146 14.1322 22.6095 14.0677 22.6832C14.0032 22.7569 13.9139 22.8044 13.8167 22.8167C13.2372 22.907 12.7071 23.1957 12.3167 23.6333C11.9005 24.0888 11.6687 24.683 11.6667 25.3V34.4667C11.6667 35.1297 11.93 35.7656 12.3989 36.2344C12.8677 36.7033 13.5036 36.9667 14.1667 36.9667H25.8333C26.4964 36.9667 27.1322 36.7033 27.6011 36.2344C28.0699 35.7656 28.3333 35.1297 28.3333 34.4667V25.3ZM20 32.3833C19.6704 32.3833 19.3481 32.2856 19.074 32.1024C18.8 31.9193 18.5863 31.659 18.4602 31.3545C18.334 31.0499 18.301 30.7148 18.3653 30.3915C18.4297 30.0682 18.5884 29.7712 18.8215 29.5381C19.0546 29.3051 19.3515 29.1463 19.6748 29.082C19.9981 29.0177 20.3333 29.0507 20.6378 29.1769C20.9423 29.303 21.2026 29.5166 21.3858 29.7907C21.5689 30.0648 21.6667 30.387 21.6667 30.7167C21.6667 31.1587 21.4911 31.5826 21.1785 31.8952C20.8659 32.2077 20.442 32.3833 20 32.3833ZM17.5 20.7167C17.5 20.0536 17.7634 19.4177 18.2322 18.9489C18.7011 18.48 19.3369 18.2167 20 18.2167C20.663 18.2167 21.2989 18.48 21.7678 18.9489C22.2366 19.4177 22.5 20.0536 22.5 20.7167V22.3833C22.5 22.4938 22.4561 22.5998 22.378 22.678C22.2998 22.7561 22.1938 22.8 22.0833 22.8H17.9167C17.8061 22.8 17.7002 22.7561 17.622 22.678C17.5439 22.5998 17.5 22.4938 17.5 22.3833V20.7167Z" fill="#8fc03f"/>
</g>
<defs>
<clipPath id="clip0_414_35">
<rect width="40" height="40" fill="white"/>
</clipPath>
</defs>
</svg>
