<svg width="40" height="40" viewBox="0 0 40 40" fill="none" xmlns="http://www.w3.org/2000/svg">
<path d="M28.6667 15.6666H24.6667C24 15.6666 23.3334 16.1666 23.3334 17C23.3334 17.8333 23.8334 18.1666 24.6667 18.1666H25.6667C25.8334 18.1666 26 18.3333 26 18.5V18.8333C26 19.5 26.5 20.1666 27.3334 20.1666C28.1667 20.1666 28.6667 19.6666 28.6667 18.8333V18.3333C28.6667 18.3333 28.6667 18.1666 28.8334 18.1666C30.1667 18.3333 31.3334 17.3333 31.5 16C31.5 15.8333 31.5 15.6666 31.5 15.6666C31.5 14.1666 29.8334 13 28.1667 12C27.5 11.5 26.6667 11 26.1667 10.5L26 10.3333H30C30.6667 10.3333 31.3334 9.83329 31.3334 9.16663C31.3334 8.49996 30.8334 7.83329 30 7.83329H29C28.8334 7.83329 28.6667 7.66663 28.6667 7.49996V6.83329C28.6667 6.16663 28.1667 5.66663 27.3334 5.66663C26.5 5.66663 26 6.16663 26 6.83329V7.49996C26 7.49996 26 7.66663 25.8334 7.66663C24.6667 7.49996 23.5 8.33329 23.3334 9.66663V10.1666C23.3334 11.6666 24.8334 12.8333 26.6667 13.8333C27.3334 14.3333 28.1667 14.8333 28.6667 15.3333C28.6667 15.5 28.8334 15.6666 28.6667 15.6666Z" fill="#8fc03f"/>
<path d="M27.3333 25.6666C34.3333 25.6666 40 20 40 13C40 5.99998 34.3333 0.333313 27.3333 0.333313C20.3333 0.333313 14.6666 5.99998 14.6666 13C14.8333 20 20.3333 25.5 27.3333 25.6666ZM27.3333 3.66665C32.5 3.66665 36.6666 7.83331 36.6666 13C36.6666 18.1666 32.5 22.3333 27.3333 22.3333C22.1666 22.3333 18 18.1666 18 13C18.1666 7.83331 22.1666 3.66665 27.3333 3.66665Z" fill="#8fc03f"/>
<path d="M33.3333 29.8333L27.5 31.6666C27.3333 31.6666 27.3333 31.8333 27.1667 31.8333C26.6667 33 25.5 33.8333 24.1667 33.8333H17.5C17 33.8333 16.6667 33.5 16.6667 33C16.6667 32.5 17 32.1666 17.5 32.1666H24.1667C25.1667 32.1666 25.8333 31.5 25.8333 30.5C25.8333 29.5 25.1667 28.8333 24.1667 28.8333H18.3333C16.5 27.3333 14.1667 26.5 11.6667 26.3333H8.16667C7.16667 26.3333 6.16667 26.5 5.16667 27L0.166667 29.5C0.166667 29.6666 0 29.8333 0 30V39C0 39.1666 0 39.3333 0.166667 39.3333H0.666667L6 36C6.5 35.6666 7 35.6666 7.5 35.8333C24.1667 41.5 18.5 41.5 37.3333 32C37.8333 31.8333 38 31.3333 37.6667 30.8333C37.6667 30.6666 37.5 30.6666 37.5 30.5C36.1667 29.6666 34.6667 29.3333 33.3333 29.8333Z" fill="#8fc03f"/>
</svg>
