<svg enable-background="new 0 0 40 40" viewBox="0 0 40 40" xmlns="http://www.w3.org/2000/svg"><path d="m21.2 16v-5c0-1.7-1.4-3.1-3-3.1h-13.3c-1.7 0-3 1.4-3 3.1v.8 3.9.3c-1 0-1.8.8-1.8 1.9v6.3c0 1 .8 1.9 1.8 1.9v1.4 4.8c0 .9.7 1.7 1.6 1.9.1 0 .3.2.3.3v2.2c0 .7.5 1.3 1.2 1.3h2.4c.7 0 1.2-.6 1.2-1.3v-2.2c0-.2.1-.3.3-.3h5.5c.2 0 .3.1.3.3v2.2c0 .7.5 1.3 1.2 1.3h2.4c.7 0 1.2-.6 1.2-1.3v-2.2c0-.2.1-.3.3-.3.9-.1 1.6-.9 1.6-1.9v-6.3c1 0 1.8-.8 1.8-1.9v-6.3c-.2-.9-1-1.8-2-1.8zm-12.7-4.3c0-.3.3-.6.6-.6h4.9c.3 0 .6.3.6.6v1.3c0 .3-.3.6-.6.6h-4.9c-.3 0-.6-.3-.6-.6zm-4.3 6.2c0-.3.3-.6.6-.6h13.3c.3 0 .6.3.6.6v7.5c0 .3-.3.6-.6.6h-13.2c-.3 0-.6-.3-.6-.6v-7.5zm4.3 13.5h-3.6c-.5 0-.9-.4-.9-.9s.4-.9.9-.9h3.6c.5 0 .9.4.9.9s-.4.9-.9.9zm9.7 0h-3.6c-.5 0-.9-.4-.9-.9s.4-.9.9-.9h3.6c.5 0 .9.4.9.9s-.4.9-.9.9z" fill="#8fc03f"/><path d="m39.7 32.1c0-.1-.1-.2-.2-.3l-1.1-1.3c0-.1-.1-.1-.1-.2l-.5-4.4c-.2-1.4-1.4-2.4-2.7-2.4h-8.3c-1.4 0-2.5 1-2.7 2.5l-.5 4.3c0 .1 0 .2-.1.2l-1.1 1.3c-.1.1-.1.2-.2.3-.2.4-.3.8-.3 1.3v.8c0 1 .5 2 1.4 2.5.1.1.2.2.2.4v1.7c0 .7.5 1.2 1.2 1.2s1.2-.6 1.2-1.2v-1.2c0-.2.2-.4.4-.4h9.4c.2 0 .4.2.4.4v1.2c0 .7.5 1.2 1.2 1.2s1.2-.6 1.2-1.2v-1.7c0-.1.1-.3.2-.4.8-.5 1.4-1.5 1.4-2.5v-.8c-.1-.5-.2-.9-.4-1.3zm-13.6-2.9.3-2.9c0-.2.2-.4.4-.4h8.3c.2 0 .4.2.4.4l.3 2.9c0 .1 0 .2-.1.3s-.2.1-.3.1h-9c-.1 0-.2-.1-.3-.1 0 0 0-.1 0-.3zm0 5.7c-.6 0-1.2-.6-1.2-1.2s.5-1.2 1.2-1.2c.6 0 1.2.6 1.2 1.2 0 .7-.6 1.2-1.2 1.2zm9.8 0c-.6 0-1.2-.6-1.2-1.2s.5-1.2 1.2-1.2 1.1.5 1.1 1.2-.5 1.2-1.1 1.2z" fill="#8fc03f"/><path d="m70.9 29.9c0-.1-.1-.2-.2-.3l-1.2-1.4c-.1-.1-.1-.1-.1-.2l-.6-4.5c-.2-1.4-1.5-2.5-3-2.5h-9.1c-1.5 0-2.7 1.1-3 2.6l-.6 4.5c0 .1 0 .2-.1.2l-1 1.4c-.1.1-.1.2-.2.3-.2.4-.3.9-.3 1.3v.9c0 1.1.6 2.1 1.5 2.6.1.1.2.2.2.4v1.8c0 .7.6 1.3 1.3 1.3s1.3-.6 1.3-1.3v-1.3c0-.2.2-.4.4-.4h10.3c.2 0 .4.2.4.4v1.3c0 .7.6 1.3 1.3 1.3s1.3-.6 1.3-1.3v-1.8c0-.2.1-.3.2-.4.9-.5 1.5-1.5 1.5-2.6v-.9c0-.5-.1-1-.3-1.4zm-14.9-2.9.4-3c0-.2.2-.4.4-.4h9.1c.2 0 .4.2.4.4l.4 3c0 .1 0 .2-.1.3s-.2.1-.3.1h-9.8c-.1 0-.2-.1-.3-.1-.1-.1-.2-.2-.2-.3zm0 5.9c-.7 0-1.3-.6-1.3-1.3s.6-1.3 1.3-1.3 1.3.6 1.3 1.3-.6 1.3-1.3 1.3zm10.7 0c-.7 0-1.3-.6-1.3-1.3s.6-1.3 1.3-1.3 1.3.6 1.3 1.3-.6 1.3-1.3 1.3z"/><path d="m37.6 9.2c-1.3 0-2.6 0-3.8 0 .2-1 .4-2 .5-3 .2-1.2.4-2.4.6-3.6.1-.4-.5-.7-.8-.3-.5.7-1 1.4-1.4 2.1-1 1.4-2 2.8-3 4.2-.6.8-1.2 1.7-1.8 2.6-.2.3-.4.5-.6.8-.1.1-.2.3-.3.4-.2.3 0 .6.4.6h3.8c-.2 1-.4 2-.5 3-.2 1.2-.4 2.4-.6 3.6-.1.4.5.7.8.3.5-.7 1-1.4 1.4-2.1 1-1.4 2-2.8 3-4.2.6-.8 1.2-1.7 1.8-2.6.2-.3.4-.5.6-.8.1-.1.2-.3.3-.4.1-.3-.1-.6-.4-.6z" fill="#8fc03f"/></svg>