<svg viewBox="0 0 40 39.99" xmlns="http://www.w3.org/2000/svg"><g transform="translate(0 -.01)"><path d="m24.16 5.88h-3.16c.16-.82.31-1.64.46-2.47.18-1 .36-2 .55-3a.35.35 0 0 0 -.27-.4.35.35 0 0 0 -.34.14l-1.21 1.7-2.43 3.45-1.49 2.09-.47.66-.25.35a.33.33 0 0 0 .14.46.42.42 0 0 0 .15 0h3.16c-.15.83-.31 1.65-.46 2.47-.18 1-.36 2-.55 3a.35.35 0 0 0 .27.4.35.35 0 0 0 .34-.14l1.21-1.7 2.46-3.45 1.46-2.04.47-.67.25-.35a.33.33 0 0 0 -.14-.46.42.42 0 0 0 -.15-.04z" fill="#8fc03f"/><path d="m33.33 18h-11.25a.41.41 0 0 1 -.41-.41v-.41a1.67 1.67 0 0 0 -3.34 0v.41a.41.41 0 0 1 -.4.42h-11.26a1.67 1.67 0 0 0 -1.67 1.66v2.5a1.67 1.67 0 0 0 3.33 0v-.42a.42.42 0 0 1 .42-.42h9.17a.41.41 0 0 1 .41.41v.42a1.67 1.67 0 1 0 3.34 0v-.42a.41.41 0 0 1 .4-.42h9.18a.42.42 0 0 1 .42.42v.42a1.67 1.67 0 0 0 3.33 0v-2.5a1.67 1.67 0 0 0 -1.67-1.66z" fill="#8fc03f"/><path d="m24.41 40h-8.82a1.54 1.54 0 0 1 -1.59-1.49v-12a1.54 1.54 0 0 1 1.58-1.51h8.83a1.54 1.54 0 0 1 1.59 1.49v12a1.54 1.54 0 0 1 -1.58 1.51zm-6.23-3h3.64a1 1 0 0 0 1-1v-7a1 1 0 0 0 -1-1h-3.64a1 1 0 0 0 -1 1v7a1 1 0 0 0 1 1z" fill="#8fc03f"/><path d="m18.8 34.22h2.4c.55 0 1 .33 1 .74v.73c0 .41-.45.74-1 .74h-2.4c-.55 0-1-.33-1-.74v-.69c0-.45.45-.78 1-.78z" fill="#8fc03f"/><path d="m10.41 40h-8.82a1.54 1.54 0 0 1 -1.59-1.49v-12a1.54 1.54 0 0 1 1.58-1.51h8.83a1.54 1.54 0 0 1 1.59 1.49v12a1.54 1.54 0 0 1 -1.58 1.51zm-6.23-3h3.64a1 1 0 0 0 1-1v-7a1 1 0 0 0 -1-1h-3.64a1 1 0 0 0 -1 1v7a1 1 0 0 0 1 1z" fill="#8fc03f"/></g><rect fill="#8fc03f" height="4.4" rx="1" width="4.4" x="3.8" y="32.01"/><path d="m38.41 40h-8.82a1.54 1.54 0 0 1 -1.59-1.49v-12a1.54 1.54 0 0 1 1.58-1.51h8.83a1.54 1.54 0 0 1 1.59 1.49v12a1.54 1.54 0 0 1 -1.58 1.51zm-6.23-3h3.64a1 1 0 0 0 1-1v-7a1 1 0 0 0 -1-1h-3.64a1 1 0 0 0 -1 1v7a1 1 0 0 0 1 1z" fill="#8fc03f" transform="translate(0 -.01)"/><path d="m32.8 29.53h2.4a1.07 1.07 0 0 1 1 1.12v4.66a1.07 1.07 0 0 1 -1 1.12h-2.4a1.07 1.07 0 0 1 -1-1.12v-4.66a1.07 1.07 0 0 1 1-1.12z" fill="#8fc03f" transform="translate(0 -.01)"/></svg>