<svg viewBox="0 0 40 40" xmlns="http://www.w3.org/2000/svg"><path d="m40 7.92a5 5 0 0 0 -5-5h-30a5 5 0 0 0 -5 5v24.16a5 5 0 0 0 5 5h30a5 5 0 0 0 5-5zm-23.91-1.67a1.61 1.61 0 0 1 2.19-.63 1.59 1.59 0 0 1 .63.63 1.65 1.65 0 0 1 .26.83 1.66 1.66 0 0 1 -.26.84 1.61 1.61 0 0 1 -2.19.63 1.73 1.73 0 0 1 -.63-.63 1.66 1.66 0 0 1 -.26-.84 1.65 1.65 0 0 1 .26-.83zm-5.83 0a1.6 1.6 0 0 1 2.18-.63 1.55 1.55 0 0 1 .64.63 1.52 1.52 0 0 1 0 1.67 1.61 1.61 0 0 1 -2.19.63 1.59 1.59 0 0 1 -.63-.63 1.66 1.66 0 0 1 -.26-.84 1.65 1.65 0 0 1 .26-.83zm-5.94.15a1.67 1.67 0 0 1 1.51-1 1.61 1.61 0 0 1 1.41.83 1.65 1.65 0 0 1 .26.83 1.66 1.66 0 0 1 -.26.84 1.6 1.6 0 0 1 -2.18.63 1.68 1.68 0 0 1 -.64-.63 1.56 1.56 0 0 1 -.25-.84 1.64 1.64 0 0 1 .15-.66zm32.35 25.68a1.67 1.67 0 0 1 -1.67 1.67h-30a1.67 1.67 0 0 1 -1.67-1.67v-20.41a.42.42 0 0 1 .42-.42h32.5a.42.42 0 0 1 .42.42z" fill="#8fc03f"/><g fill="#8fc03f"><path d="m16.7 26.41.17-.21 4.48-6.2a1.66 1.66 0 1 0 -2.66-2 .1.1 0 0 0 0 .05l-3.4 4.65a.42.42 0 0 1 -.55.11l-2.53-1.51a1.67 1.67 0 0 0 -2.21.47l-3.86 5.44a1.67 1.67 0 0 0 2.72 1.93l2.74-3.88a.42.42 0 0 1 .55-.11l2.51 1.5a1.69 1.69 0 0 0 2.04-.24z"/><path d="m24.17 15.67h3.33v13.33h-3.33z"/><path d="m30 19h3.33v10h-3.33z"/></g></svg>