<svg width="40" height="40" viewBox="0 0 40 40" fill="none" xmlns="http://www.w3.org/2000/svg">
<g clip-path="url(#clip0_2_1121)">
<path d="M37.5 0H2.5C1.83696 0 1.20107 0.263392 0.732233 0.732233C0.263392 1.20107 0 1.83696 0 2.5V27.5C0 28.163 0.263392 28.7989 0.732233 29.2678C1.20107 29.7366 1.83696 30 2.5 30H16.25C16.3605 30 16.4665 30.0439 16.5446 30.122C16.6228 30.2002 16.6667 30.3062 16.6667 30.4167V34.89C16.667 34.9919 16.6297 35.0903 16.5621 35.1666C16.4945 35.2428 16.4012 35.2915 16.3 35.3033C14.2104 35.5288 12.1595 36.0281 10.2 36.7883C9.84079 36.9337 9.54345 37.1996 9.3591 37.5404C9.17474 37.8812 9.11491 38.2756 9.18987 38.6558C9.26484 39.036 9.46993 39.3781 9.76987 39.6235C10.0698 39.8688 10.4459 40.0019 10.8333 40H29.1667C29.553 39.9998 29.9272 39.8654 30.2254 39.6198C30.5236 39.3742 30.7272 39.0326 30.8014 38.6535C30.8756 38.2744 30.8158 37.8812 30.6323 37.5413C30.4487 37.2014 30.1527 36.9358 29.795 36.79C27.835 36.0293 25.7836 35.5295 23.6933 35.3033C23.5923 35.2911 23.4992 35.2423 23.4316 35.1662C23.3641 35.09 23.3267 34.9918 23.3267 34.89V30.4167C23.3267 30.3062 23.3706 30.2002 23.4487 30.122C23.5268 30.0439 23.6328 30 23.7433 30H37.5C38.163 30 38.7989 29.7366 39.2678 29.2678C39.7366 28.7989 40 28.163 40 27.5V2.5C40 1.83696 39.7366 1.20107 39.2678 0.732233C38.7989 0.263392 38.163 0 37.5 0ZM36.6667 22.5C36.6667 22.721 36.5789 22.933 36.4226 23.0893C36.2663 23.2455 36.0543 23.3333 35.8333 23.3333H4.16667C3.94565 23.3333 3.73369 23.2455 3.57741 23.0893C3.42113 22.933 3.33333 22.721 3.33333 22.5V4.16667C3.33333 3.94565 3.42113 3.73369 3.57741 3.57741C3.73369 3.42113 3.94565 3.33333 4.16667 3.33333H35.8333C36.0543 3.33333 36.2663 3.42113 36.4226 3.57741C36.5789 3.73369 36.6667 3.94565 36.6667 4.16667V22.5Z" fill="#8fc03f"/>
<path fill-rule="evenodd" clip-rule="evenodd" d="M24.8729 4.40276C25.5402 4.36295 26.162 4.7423 26.4319 5.35396L30.1194 13.7103H34.0004C34.884 13.7103 35.6004 14.4266 35.6004 15.3103C35.6004 16.1939 34.884 16.9103 34.0004 16.9103H29.0766C28.4428 16.9103 27.8687 16.5361 27.6128 15.9562L25.2415 10.5825L21.9172 21.4673C21.7237 22.1008 21.1598 22.5496 20.4991 22.596C19.8383 22.6424 19.2172 22.2768 18.9371 21.6765L14.9067 13.04L13.073 16.1273C12.7847 16.6127 12.2619 16.9103 11.6973 16.9103H6.00039C5.11674 16.9103 4.40039 16.1939 4.40039 15.3103C4.40039 14.4266 5.11674 13.7103 6.00039 13.7103H10.7867L13.701 8.80355C14.0038 8.2937 14.5638 7.99314 15.1561 8.02258C15.7483 8.05202 16.2757 8.40662 16.5265 8.94399L20.0742 16.5462L23.4379 5.53257C23.6332 4.89315 24.2055 4.44257 24.8729 4.40276Z" fill="#8fc03f"/>
</g>
<defs>
<clipPath id="clip0_2_1121">
<rect width="40" height="40" fill="white"/>
</clipPath>
</defs>
</svg>
