<svg width="41" height="40" viewBox="0 0 41 40" fill="none" xmlns="http://www.w3.org/2000/svg">
<g clip-path="url(#clip0_2_567)">
<path d="M0.169983 32.08C0.169983 34.84 2.40998 37.08 5.16998 37.08H35.17C37.93 37.08 40.17 34.84 40.17 32.08V7.92C40.17 5.16 37.93 2.92 35.17 2.92H5.16998C2.40998 2.92 0.169983 5.16 0.169983 7.92V32.08ZM24.33 7.08C24.33 7.36 24.25 7.68 24.09 7.92C23.65 8.68 22.69 9 21.89 8.56C21.61 8.4 21.41 8.2 21.25 7.92C21.09 7.68 21.01 7.4 21.01 7.08C21.01 6.8 21.09 6.48 21.25 6.24C21.69 5.48 22.65 5.16 23.45 5.6C23.73 5.76 23.93 5.96 24.09 6.24C24.25 6.52 24.33 6.8 24.33 7.08ZM30.17 7.08C30.17 7.36 30.09 7.68 29.93 7.92C29.49 8.68 28.53 9 27.73 8.56C27.45 8.4 27.25 8.2 27.09 7.92C26.93 7.68 26.85 7.4 26.85 7.08C26.85 6.8 26.93 6.48 27.09 6.24C27.53 5.48 28.49 5.16 29.29 5.6C29.57 5.76 29.77 5.96 29.93 6.24C30.09 6.52 30.17 6.8 30.17 7.08ZM36.01 7.08C36.01 7.36 35.93 7.68 35.77 7.92C35.33 8.68 34.37 9 33.57 8.56C33.29 8.4 33.09 8.2 32.93 7.92C32.77 7.68 32.69 7.4 32.69 7.08C32.69 6.8 32.77 6.48 32.93 6.24C33.21 5.72 33.77 5.4 34.33 5.4C34.97 5.4 35.57 5.8 35.85 6.4C35.93 6.6 36.01 6.84 36.01 7.08V7.08ZM3.48998 11.68C3.48998 11.44 3.68998 11.28 3.88998 11.28H36.37C36.61 11.28 36.77 11.48 36.77 11.68V32.08C36.77 33 36.01 33.76 35.09 33.76H5.08998C4.16998 33.76 3.40998 33 3.40998 32.08V11.68H3.48998Z" fill="#8fc03f"/>
<path d="M11.49 27.44C12.13 28.08 13.21 28.08 13.85 27.44L18.01 23.28C18.65 22.64 18.65 21.56 18.01 20.92L13.85 16.76C13.17 16.12 12.13 16.12 11.49 16.8C10.85 17.44 10.85 18.48 11.49 19.12L14.17 21.8C14.33 21.96 14.33 22.24 14.17 22.4L11.49 25.08C10.85 25.72 10.85 26.76 11.49 27.44V27.44Z" fill="#8fc03f"/>
<path d="M21.85 27.92H28.53C29.45 27.92 30.21 27.16 30.21 26.24C30.21 25.32 29.45 24.56 28.53 24.56H21.85C20.93 24.56 20.17 25.32 20.17 26.24C20.17 27.16 20.93 27.92 21.85 27.92Z" fill="#8fc03f"/>
</g>
<defs>
<clipPath id="clip0_2_567">
<rect width="40" height="40" fill="white" transform="translate(0.169983)"/>
</clipPath>
</defs>
</svg>
