<svg viewBox="0 0 40 40" xmlns="http://www.w3.org/2000/svg"><path d="m35.35 8-7.5-7.51a1.7 1.7 0 0 0 -1.18-.49h-19.17a3.33 3.33 0 0 0 -3.33 3.33v33.34a3.33 3.33 0 0 0 3.33 3.33h25a3.33 3.33 0 0 0 3.33-3.33v-27.5a1.66 1.66 0 0 0 -.48-1.17zm-4.52 28.67h-21.66a1.67 1.67 0 0 1 -1.67-1.67v-30a1.67 1.67 0 0 1 1.67-1.67h16.12a1.66 1.66 0 0 1 1.17.49l5.54 5.55a1.66 1.66 0 0 1 .49 1.18v24.45a1.67 1.67 0 0 1 -1.66 1.67z" fill="#8fc03f"/><g fill="#8fc03f"><path d="m20.57 16.51a3.89 3.89 0 0 0 -2.45-3.62l-3.44-1.38a.56.56 0 0 1 -.31-.74.56.56 0 0 1 .52-.35h3.39a1.67 1.67 0 0 0 0-3.34h-.42a.41.41 0 0 1 -.41-.41 1.67 1.67 0 0 0 -3.34 0v.16a.41.41 0 0 1 -.3.4 3.91 3.91 0 0 0 -.37 7.38l3.44 1.39a.57.57 0 0 1 .32.74.55.55 0 0 1 -.53.36h-3.39a1.67 1.67 0 1 0 0 3.34h.42a.41.41 0 0 1 .41.41 1.67 1.67 0 0 0 3.34 0v-.16a.43.43 0 0 1 .3-.41 3.9 3.9 0 0 0 2.82-3.77z"/><path d="m10 25.83v1.67a.83.83 0 0 0 .83.83h5.42a.41.41 0 0 0 .42-.41v-2.5a.42.42 0 0 0 -.42-.42h-5.42a.83.83 0 0 0 -.83.83z"/><path d="m10 30.83v1.67a.83.83 0 0 0 .83.83h5.42a.41.41 0 0 0 .42-.41v-2.5a.42.42 0 0 0 -.42-.42h-5.42a.83.83 0 0 0 -.83.83z"/><path d="m18.33 27.92a.41.41 0 0 0 .42.41h9.58a.84.84 0 0 0 .84-.83v-1.67a.84.84 0 0 0 -.84-.83h-9.58a.42.42 0 0 0 -.42.42z"/><path d="m28.33 30h-9.58a.42.42 0 0 0 -.42.42v2.5a.41.41 0 0 0 .42.41h9.58a.84.84 0 0 0 .84-.83v-1.67a.84.84 0 0 0 -.84-.83z"/></g></svg>