<svg viewBox="0 0 40 40" xmlns="http://www.w3.org/2000/svg"><path d="m15.83 35.83h-5a.84.84 0 0 0 -.83.84 3.34 3.34 0 0 0 6.67 0 .85.85 0 0 0 -.84-.84z" fill="#8fc03f"/><path d="m19.37 11.31a10.31 10.31 0 0 0 -3.54-1.76v-2.05a2.5 2.5 0 1 0 -5 0v2.05c-4.83 1.32-8.33 6.29-8.33 12.12v1.07a22.92 22.92 0 0 1 -2.41 10.26.83.83 0 0 0 .37 1.12.81.81 0 0 0 .37.09h25a.85.85 0 0 0 .84-.84.81.81 0 0 0 -.09-.37 22.92 22.92 0 0 1 -2.41-10.22v-1.11a14.34 14.34 0 0 0 -.36-3.2 11.63 11.63 0 0 1 -4.44-7.16z" fill="#8fc03f"/><path d="m30.83 0a9.17 9.17 0 1 0 9.17 9.17 9.16 9.16 0 0 0 -9.17-9.17zm-1.83 13.54a1.29 1.29 0 0 1 -.89-.36l-2.5-2.5a1.25 1.25 0 1 1 1.71-1.83l.06.06 1.62 1.62 5.37-5.36a1.25 1.25 0 0 1 1.73 1.76l-6.25 6.25a1.21 1.21 0 0 1 -.85.36z" fill="#8fc03f"/></svg>