<svg viewBox="0 0 40 40" xmlns="http://www.w3.org/2000/svg"><path d="m35.8 20.8a1 1 0 0 0 -1.6-.1l-5.3 4.5a1 1 0 0 0 -.1 1.6l.4.5a9.62 9.62 0 0 0 -3.6 6 7.25 7.25 0 0 0 .4 3.4 6.34 6.34 0 0 1 .3 2.4 4.4 4.4 0 0 1 -.2 1h3.3c0-.2.1-.4.1-.6a8 8 0 0 0 -.4-3.6 5.58 5.58 0 0 1 -.3-2.2 6.66 6.66 0 0 1 2.5-3.9l.4.5a1 1 0 0 0 1.6.1l5.3-4.5a1 1 0 0 0 .1-1.6l-.2-.3 1.5-1.2-2.5-3-1.5 1.2" fill="#8fc03f"/><path d="m19 4.4h-13.9a4.74 4.74 0 0 0 -5 4.5v23.4a4.74 4.74 0 0 0 5 4.5h.8v3.2h3.5v-3.2h5.5v3.2h3.5v-3.2h.6a4.74 4.74 0 0 0 5-4.5v-23.4a4.74 4.74 0 0 0 -5-4.5zm-11.4 24.9a4.4 4.4 0 1 1 4.4 4.4 4.44 4.44 0 0 1 -4.4-4.4zm11.6-12.8a2 2 0 0 1 -2 2h-10.4a2 2 0 0 1 -2-2v-5.7a2 2 0 0 1 2-2h10.4a2 2 0 0 1 2 2z" fill="#8fc03f"/><g fill="#8fc03f"><path d="m24.5 4.4a1.39 1.39 0 0 1 .2-1.8 11.74 11.74 0 0 1 14.8 0 1.36 1.36 0 0 1 .2 1.8 1.25 1.25 0 0 1 -1.7.2 9.2 9.2 0 0 0 -11.7 0 1.36 1.36 0 0 1 -1.8-.2z"/><circle cx="32.1" cy="11.5" r="1.7"/><path d="m35.2 8.6a4.83 4.83 0 0 0 -6.2 0 1.24 1.24 0 0 1 -1.7-.1 1.27 1.27 0 0 1 .1-1.8l.1-.1a7.38 7.38 0 0 1 9.3 0 1.36 1.36 0 0 1 .2 1.8 1.35 1.35 0 0 1 -1.8.2z"/></g></svg>