<svg viewBox="0 0 40 40" xmlns="http://www.w3.org/2000/svg"><path d="m3.64 26.14a1.58 1.58 0 0 0 2.14-.63 1.78 1.78 0 0 0 .22-.51v-.14a1.53 1.53 0 0 0 -.72-1.6 3.85 3.85 0 0 1 -.86-.62 4 4 0 0 1 -1.07-3 4.31 4.31 0 0 1 4.31-4.31 4.41 4.41 0 0 1 .89.09 1.66 1.66 0 0 0 1.36-.31 1.69 1.69 0 0 0 .65-1.3c.13-9.56 13.82-12.28 18-3.4a1.7 1.7 0 0 0 1.63.94 6.14 6.14 0 0 1 4.89 2.13 6.32 6.32 0 0 1 1.56 4.67 5.7 5.7 0 0 1 -2.21 4.34 1.59 1.59 0 0 0 -.56 1.58v.08a1.59 1.59 0 0 0 1.82 1.31 1.56 1.56 0 0 0 .71-.31 9 9 0 0 0 3.6-7.27 9.6 9.6 0 0 0 -8.7-9.83.39.39 0 0 1 -.31-.2 12.81 12.81 0 0 0 -23.5 3.82.41.41 0 0 1 -.38.32 7.78 7.78 0 0 0 -6.11 3.75 7.59 7.59 0 0 0 -1 4.08 7.12 7.12 0 0 0 2.06 5.18 7.27 7.27 0 0 0 1.58 1.14z" fill="#8fc03f"/><g fill="#8fc03f"><path d="m17.47 26.77a2.5 2.5 0 1 0 2.5-2.5 2.5 2.5 0 0 0 -2.5 2.5z"/><path d="m30 32.59a2.91 2.91 0 0 0 -.39-3.52l-1.64-1.78a.77.77 0 0 1 0-1l1.64-1.78a3 3 0 0 0 -2.83-4.92l-2.35.55a.76.76 0 0 1 -.89-.52l-.71-2.32a3 3 0 0 0 -5.67 0l-.7 2.32a.75.75 0 0 1 -.89.52l-2.35-.55a3 3 0 0 0 -3.56 2.24 3 3 0 0 0 .72 2.68l1.62 1.74a.77.77 0 0 1 0 1l-1.65 1.77a3 3 0 0 0 2.84 4.98l2.35-.55a.76.76 0 0 1 .89.52l.7 2.32a3 3 0 0 0 5.67 0l.71-2.29a.74.74 0 0 1 .88-.52l2.36.55a2.9 2.9 0 0 0 3.25-1.44zm-10-.82a5 5 0 1 1 5-5 5 5 0 0 1 -5 5z"/></g></svg>