<svg enable-background="new 0 0 100 100" viewBox="0 0 100 100" xmlns="http://www.w3.org/2000/svg"><g fill="#8fc03f"><path d="m13.5 24c0 5.8 4.7 10.4 10.4 10.4s10.5-4.7 10.5-10.4-4.7-10.5-10.4-10.5-10.5 4.7-10.5 10.5z"/><path d="m24 9.4c1.7 0 3.1-1.4 3.1-3.1v-3.2c0-1.7-1.4-3.1-3.1-3.1s-3.1 1.4-3.1 3.1v3.1c-.1 1.8 1.3 3.2 3.1 3.2z"/><path d="m36.5 14.6c.8 0 1.6-.3 2.2-.9l2.2-2.2c1.2-1.2 1.2-3.2 0-4.4s-3.2-1.2-4.4 0l-2.2 2.2c-1.2 1.2-1.2 3.2 0 4.4.6.6 1.4.9 2.2.9z"/><path d="m47.9 24c0-1.7-1.4-3.1-3.1-3.1h-3.1c-1.7 0-3.1 1.4-3.1 3.1s1.4 3.1 3.1 3.1h3.1c1.7 0 3.1-1.4 3.1-3.1z"/><path d="m38.7 34.3c-1.2-1.2-3.2-1.3-4.4-.1s-1.3 3.2-.1 4.4l.1.1 2.2 2.2c1.2 1.2 3.2 1.2 4.4 0s1.2-3.2 0-4.4z"/><path d="m24 38.5c-1.7 0-3.1 1.4-3.1 3.1v3.1c0 1.7 1.4 3.1 3.1 3.1s3.1-1.4 3.1-3.1v-3.1c0-1.7-1.4-3.1-3.1-3.1z"/><path d="m7 36.5c-1.2 1.2-1.2 3.2 0 4.4s3.2 1.2 4.4 0l2.2-2.2c1.2-1.2 1.3-3.2.1-4.4s-3.2-1.3-4.4-.1l-.1.1z"/><path d="m3.1 27.1h3.1c1.7 0 3.1-1.4 3.1-3.1s-1.4-3.1-3.1-3.1h-3.1c-1.7-.1-3.1 1.3-3.1 3.1 0 1.7 1.4 3.1 3.1 3.1z"/><path d="m9.2 13.6c1.2 1.2 3.2 1.3 4.4.1s1.3-3.2.1-4.4l-.1-.1-2.2-2.2c-1.2-1.2-3.2-1.2-4.4 0s-1.2 3.2 0 4.4z"/></g><g fill="#8fc03f" transform="scale(4.16666667)"><path d="m1 19.5h5v4.5h-5z"/><path d="m5.5 14.5h-3.7c-.4 0-.8.2-.9.6l-.8 2c-.2.5 0 1.1.5 1.3.1.1.3.1.4.1h4.5c.3 0 .5-.2.5-.5v-3c0-.3-.2-.5-.5-.5z"/><path d="m23.5 0h-7c-.3 0-.5.2-.5.5v23c0 .3.2.5.5.5h7c.3 0 .5-.2.5-.5v-23c0-.3-.2-.5-.5-.5zm-4.2 17.5c0 .4-.3.8-.8.8s-.8-.3-.8-.8v-1c0-.4.3-.8.8-.8s.8.3.8.8zm0-4.5c0 .4-.3.8-.8.8s-.8-.3-.8-.8v-1c0-.4.3-.8.8-.8s.8.3.8.8zm0-4.5c0 .4-.3.8-.8.8s-.8-.3-.8-.8v-1c0-.4.3-.8.8-.8s.8.3.8.8zm0-4.5c0 .4-.3.8-.8.8s-.7-.4-.7-.8v-1c0-.4.3-.8.8-.8s.8.3.8.8zm3 13.5c0 .4-.3.8-.8.8s-.8-.3-.8-.8v-1c0-.4.3-.8.8-.8s.8.3.8.8zm0-4.5c0 .4-.3.8-.8.8s-.8-.3-.8-.8v-1c0-.4.3-.8.8-.8s.8.3.8.8zm0-4.5c0 .4-.3.8-.8.8s-.8-.3-.8-.8v-1c0-.4.3-.8.8-.8s.8.3.8.8zm0-4.5c0 .4-.3.8-.8.8s-.7-.4-.7-.8v-1c0-.4.3-.8.8-.8s.8.3.8.8z"/><path d="m11.4 10.1c-.2-.2-.5-.2-.7 0l-3.5 3.5c-.1.1-.2.3-.2.4v9.5c0 .3.2.5.5.5h7c.3 0 .5-.2.5-.5v-9.5c0-.1-.1-.3-.1-.4zm-1.1 10.9c0 .4-.3.8-.8.8s-.7-.4-.7-.8v-1c0-.4.3-.8.8-.8s.8.3.8.8v1zm0-4.5c0 .4-.3.8-.8.8s-.8-.3-.8-.8v-1c0-.4.3-.8.8-.8s.8.3.8.8zm3 4.5c0 .4-.3.8-.8.8s-.7-.3-.7-.8v-1c0-.4.3-.8.7-.8s.8.3.8.8zm0-4.5c0 .4-.3.8-.8.8s-.7-.3-.7-.8v-1c0-.4.3-.8.7-.8s.8.3.8.8z"/></g></svg>