<svg viewBox="0 0 40 40" xmlns="http://www.w3.org/2000/svg"><path d="m4.9 40h30.2a4.9 4.9 0 0 0 4.9-4.9v-30.2a4.9 4.9 0 0 0 -4.9-4.9h-30.2a4.9 4.9 0 0 0 -4.9 4.9v30.2a4.9 4.9 0 0 0 4.9 4.9zm30.2-3.26h-30.2a1.65 1.65 0 0 1 -1.64-1.64v-30.1a1.67 1.67 0 0 1 1.67-1.67h30.14a1.66 1.66 0 0 1 1.66 1.67v30.1a1.64 1.64 0 0 1 -1.63 1.64z" fill="#00bada"/><g fill="#8fc03f"><path d="m31.39 26-3.39 3a.41.41 0 0 1 -.52 0l-2.28-1.68a3.12 3.12 0 0 0 -1.89-.57 3 3 0 0 0 -1.87.72l-4.24 3.78a1.67 1.67 0 0 0 2.21 2.5l3.72-3.3a.42.42 0 0 1 .53 0l2.27 1.68a3.15 3.15 0 0 0 1.9.57 3 3 0 0 0 1.86-.7l3.92-3.47a1.67 1.67 0 1 0 -2.22-2.53z"/><path d="m23.88 16.87a.32.32 0 0 0 -.25-.14l-6.78-.53a.36.36 0 0 0 -.38.32.37.37 0 0 0 0 .11l1.53 6.64a.38.38 0 0 0 .18.23.35.35 0 0 0 .3 0 9.19 9.19 0 0 0 5.51-6.35.33.33 0 0 0 -.11-.28z"/><path d="m12 6.35a.35.35 0 0 0 -.21.45l3.78 7a.35.35 0 0 0 .28.19l7.91.61a.36.36 0 0 0 .38-.33.07.07 0 0 0 0-.05 9.15 9.15 0 0 0 -9.9-8.37 8.78 8.78 0 0 0 -2.24.51z"/><path d="m9.73 7.68a.34.34 0 0 0 -.29.07 9.17 9.17 0 0 0 5.56 16.42 4.87 4.87 0 0 0 .54 0 .36.36 0 0 0 .26-.14.37.37 0 0 0 .06-.29l-1.86-8.32a.16.16 0 0 0 0-.09l-4-7.47a.35.35 0 0 0 -.27-.18z"/><path d="m29.17 9.17a1.67 1.67 0 0 0 3.33 0 1.67 1.67 0 1 0 -3.33 0z"/><path d="m29.17 14.17a1.67 1.67 0 0 0 3.33 0 1.67 1.67 0 1 0 -3.33 0z"/><path d="m29.17 19.17a1.67 1.67 0 0 0 3.33 0 1.67 1.67 0 1 0 -3.33 0z"/></g></svg>