<svg viewBox="0 0 40 40" xmlns="http://www.w3.org/2000/svg"><path d="m31.67 18.33a8.36 8.36 0 0 0 -8.34 8.34c0 5.28 7.43 12.77 7.75 13.09a.85.85 0 0 0 1.18 0c.31-.32 7.74-7.76 7.74-13.09a8.35 8.35 0 0 0 -8.33-8.34zm0 11.25a2.92 2.92 0 1 1 2.91-2.91 2.91 2.91 0 0 1 -2.91 2.91z" fill="#8fc03f"/><path d="m23.33 15a1.67 1.67 0 0 0 3.34 0v-9.48a.41.41 0 0 1 .42-.41.43.43 0 0 1 .24.08l7.33 5.23a.86.86 0 0 1 .34.68v3.9a1.67 1.67 0 1 0 3.33 0v-4.76a2.52 2.52 0 0 0 -1-2l-10.88-7.77a2.46 2.46 0 0 0 -2.9 0l-9.67 6.9a.84.84 0 0 1 -1 0l-8.88-6.83a2.49 2.49 0 0 0 -3.47.46 2.52 2.52 0 0 0 -.53 1.5v24.81a2.49 2.49 0 0 0 1 2l10.84 8.14a2.52 2.52 0 0 0 3 0l7.29-5.21a1.67 1.67 0 0 0 -1.94-2.71l-4.48 3.21a.43.43 0 0 1 -.59-.1.48.48 0 0 1 -.07-.24v-21.31a.82.82 0 0 1 .35-.67l7.33-5.24a.42.42 0 0 1 .58.1.41.41 0 0 1 .08.24zm-11.66 17.31a.42.42 0 0 1 -.42.42.38.38 0 0 1 -.25-.09l-7.33-5.5a.82.82 0 0 1 -.34-.66v-21.48a.41.41 0 0 1 .42-.41.44.44 0 0 1 .25.12l7.33 5.67a.84.84 0 0 1 .34.67z" fill="#8fc03f"/></svg>