<?xml version="1.0" encoding="utf-8"?>
<!-- Generator: Adobe Illustrator 22.0.1, SVG Export Plug-In . SVG Version: 6.00 Build 0)  -->
<svg version="1.1" id="Layer_1" xmlns="http://www.w3.org/2000/svg" xmlns:xlink="http://www.w3.org/1999/xlink" x="0px" y="0px"
	 viewBox="0 0 100 100" style="enable-background:new 0 0 100 100;" xml:space="preserve">
<style type="text/css">
	.st0{fill:#8fc03f;}
	.st1{fill:#8fc03f;}
</style>
<g transform="scale(4.16666667)">
	<path class="st0" d="M1,19.5h5V24H1V19.5z"/>
	<path class="st0" d="M5.5,14.5H1.8c-0.4,0-0.8,0.2-0.9,0.6l-0.8,2c-0.2,0.5,0,1.1,0.5,1.3c0.1,0.1,0.3,0.1,0.4,0.1h4.5
		C5.8,18.5,6,18.3,6,18v-3C6,14.7,5.8,14.5,5.5,14.5z"/>
	<path class="st0" d="M23.5,0h-7C16.2,0,16,0.2,16,0.5v23c0,0.3,0.2,0.5,0.5,0.5h7c0.3,0,0.5-0.2,0.5-0.5v-23C24,0.2,23.8,0,23.5,0z
		 M19.3,17.5c0,0.4-0.3,0.8-0.8,0.8s-0.8-0.3-0.8-0.8v-1c0-0.4,0.3-0.8,0.8-0.8s0.8,0.3,0.8,0.8V17.5z M19.3,13
		c0,0.4-0.3,0.8-0.8,0.8s-0.8-0.3-0.8-0.8v-1c0-0.4,0.3-0.8,0.8-0.8s0.8,0.3,0.8,0.8V13z M19.3,8.5c0,0.4-0.3,0.8-0.8,0.8
		S17.7,9,17.7,8.5v-1c0-0.4,0.3-0.8,0.8-0.8s0.8,0.3,0.8,0.8V8.5z M19.3,4c0,0.4-0.3,0.8-0.8,0.8S17.8,4.4,17.8,4V3
		c0-0.4,0.3-0.8,0.8-0.8s0.8,0.3,0.8,0.8L19.3,4z M22.3,17.5c0,0.4-0.3,0.8-0.8,0.8s-0.8-0.3-0.8-0.8v-1c0-0.4,0.3-0.8,0.8-0.8
		s0.8,0.3,0.8,0.8V17.5z M22.3,13c0,0.4-0.3,0.8-0.8,0.8s-0.8-0.3-0.8-0.8v-1c0-0.4,0.3-0.8,0.8-0.8s0.8,0.3,0.8,0.8V13z M22.3,8.5
		c0,0.4-0.3,0.8-0.8,0.8S20.7,9,20.7,8.5v-1c0-0.4,0.3-0.8,0.8-0.8s0.8,0.3,0.8,0.8V8.5z M22.3,4c0,0.4-0.3,0.8-0.8,0.8
		S20.8,4.4,20.8,4V3c0-0.4,0.3-0.8,0.8-0.8s0.8,0.3,0.8,0.8L22.3,4z"/>
	<path class="st0" d="M11.4,10.1c-0.2-0.2-0.5-0.2-0.7,0l-3.5,3.5C7.1,13.7,7,13.9,7,14v9.5C7,23.8,7.2,24,7.5,24h7
		c0.3,0,0.5-0.2,0.5-0.5V14c0-0.1-0.1-0.3-0.1-0.4L11.4,10.1z M10.3,21c0,0.4-0.3,0.8-0.8,0.8S8.8,21.4,8.8,21v-1
		c0-0.4,0.3-0.8,0.8-0.8s0.8,0.3,0.8,0.8v1H10.3z M10.3,16.5c0,0.4-0.3,0.8-0.8,0.8S8.7,17,8.7,16.5v-1c0-0.4,0.3-0.8,0.8-0.8
		s0.8,0.3,0.8,0.8V16.5z M13.3,21c0,0.4-0.3,0.8-0.8,0.8c-0.5,0-0.7-0.3-0.7-0.8v-1c0-0.4,0.3-0.8,0.7-0.8c0.4,0,0.8,0.3,0.8,0.8V21
		z M13.3,16.5c0,0.4-0.3,0.8-0.8,0.8c-0.5,0-0.7-0.3-0.7-0.8v-1c0-0.4,0.3-0.8,0.7-0.8c0.4,0,0.8,0.3,0.8,0.8V16.5z"/>
</g>
<g>
	<path class="st1" d="M0.8,13.3c-1.3-1.6-1-4,0.6-5.3c13-10.6,31.7-10.6,44.8,0c1.6,1.3,1.9,3.7,0.6,5.3c-1.3,1.6-3.7,1.9-5.3,0.6
		l0,0c-10.3-8.4-25.1-8.4-35.3,0C4.5,15.1,2.1,14.9,0.8,13.3z"/>
	<circle class="st1" cx="23.8" cy="34.9" r="5"/>
	<path class="st1" d="M33.1,25.9c-5.4-4.4-13.2-4.4-18.6,0c-1.5,1.4-3.9,1.3-5.3-0.3c-1.4-1.5-1.3-3.9,0.3-5.3
		c0.1-0.1,0.2-0.2,0.4-0.3c8.2-6.7,19.9-6.7,28.1,0c1.6,1.3,1.9,3.6,0.7,5.3c-1.3,1.6-3.6,1.9-5.3,0.7
		C33.2,25.9,33.2,25.9,33.1,25.9L33.1,25.9z"/>
</g>
</svg>
