<svg viewBox="0 0 39.58 40" xmlns="http://www.w3.org/2000/svg"><g transform="translate(-.21)"><g fill="#8fc03f"><path d="m18.71 33.75h6.67v6.25h-6.67z"/><path d="m22.88 22.08v2.5a.84.84 0 0 0 .83.84h12.83a.42.42 0 0 0 .46-.42.36.36 0 0 0 -.06-.2l-1.73-3.12a.81.81 0 0 0 -.73-.43h-10.77a.83.83 0 0 0 -.83.83z"/><path d="m20.38 21.25h-10.75a.81.81 0 0 0 -.72.43l-1.74 3.12a.41.41 0 0 0 .16.56.36.36 0 0 0 .2.06h12.83a.84.84 0 0 0 .84-.84v-2.5a.84.84 0 0 0 -.82-.83z"/><path d="m22.88 16.25v2.5a.83.83 0 0 0 .83.83h9.59a.41.41 0 0 0 .42-.41.54.54 0 0 0 0-.21l-1.5-2.69a1.65 1.65 0 0 0 -1.46-.85h-7a.83.83 0 0 0 -.88.83z"/><path d="m21.21 16.25a.83.83 0 0 0 -.83-.83h-7a1.66 1.66 0 0 0 -1.45.86l-1.52 2.72a.41.41 0 0 0 .16.56.35.35 0 0 0 .2 0h9.6a.83.83 0 0 0 .83-.83z"/><path d="m39.58 29.61-1.17-2.1a.83.83 0 0 0 -.72-.43h-14a.84.84 0 0 0 -.83.84v3.33a.83.83 0 0 0 .83.83h14.43a1.66 1.66 0 0 0 1.67-1.66 1.63 1.63 0 0 0 -.21-.81z"/><path d="m21.21 31.25v-3.33a.84.84 0 0 0 -.83-.84h-14a.85.85 0 0 0 -.73.43l-1.15 2.1a1.65 1.65 0 0 0 .65 2.26 1.63 1.63 0 0 0 .81.21h14.41a.84.84 0 0 0 .84-.83z"/></g><path d="m7.63 16.25a1.25 1.25 0 0 0 1.92-1.61l-.05-.06a3.75 3.75 0 1 1 6.5-2.5 1.25 1.25 0 0 0 2.5 0 6.25 6.25 0 1 0 -10.87 4.17z" fill="#8fc03f"/><path d="m12.29 4.17a1.25 1.25 0 0 0 1.25-1.25v-1.67a1.25 1.25 0 0 0 -2.5 0v1.67a1.25 1.25 0 0 0 1.25 1.25z" fill="#8fc03f"/><path d="m19.67 6.48 1.17-1.17a1.25 1.25 0 0 0 -1.73-1.8l-1.21 1.21a1.25 1.25 0 0 0 1.77 1.76z" fill="#8fc03f"/><path d="m20.21 12.08a1.25 1.25 0 0 0 1.25 1.25h1.66a1.25 1.25 0 0 0 0-2.5h-1.66a1.25 1.25 0 0 0 -1.25 1.25z" fill="#8fc03f"/><path d="m4.93 6.48a1.25 1.25 0 0 0 1.76-1.76l-1.18-1.18a1.25 1.25 0 0 0 -1.82 1.7l.06.07z" fill="#8fc03f"/><path d="m5.51 20.63 1.18-1.18a1.25 1.25 0 1 0 -1.69-1.83l-.06.06-1.19 1.18a1.25 1.25 0 0 0 1.7 1.83z" fill="#8fc03f"/><path d="m4.37 12.08a1.24 1.24 0 0 0 -1.25-1.25h-1.66a1.25 1.25 0 1 0 0 2.5h1.66a1.24 1.24 0 0 0 1.25-1.25z" fill="#8fc03f"/></g></svg>