<svg viewBox="0 0 40 40" xmlns="http://www.w3.org/2000/svg"><path d="m29.76.46a.83.83 0 0 0 -1.18 0 .82.82 0 0 0 -.25.59v2.95a.41.41 0 0 1 -.41.42h-14.79a9.81 9.81 0 0 0 -9.8 9.79 9.63 9.63 0 0 0 1.54 5.19.81.81 0 0 0 .7.38h.11a.82.82 0 0 0 .68-.58 6.93 6.93 0 0 1 6.57-4.82h15a.41.41 0 0 1 .41.42v2.91a.83.83 0 0 0 1.43.59l8.32-8.3a.83.83 0 0 0 0-1.18z" fill="#8fc03f"/><path d="m27.07 25.62h-15a.41.41 0 0 1 -.41-.42v-2.92a.83.83 0 0 0 -.84-.83.87.87 0 0 0 -.59.24l-8.32 8.31a.82.82 0 0 0 0 1.17l8.33 8.34a.82.82 0 0 0 .59.24.87.87 0 0 0 .32-.06.84.84 0 0 0 .52-.77v-2.92a.41.41 0 0 1 .41-.41h14.79a9.81 9.81 0 0 0 9.8-9.79 9.63 9.63 0 0 0 -1.54-5.23.85.85 0 0 0 -.81-.38.83.83 0 0 0 -.68.58 6.93 6.93 0 0 1 -6.57 4.85z" fill="#8fc03f"/></svg>