<svg fill="none" height="808" viewBox="0 0 798 808" width="798" xmlns="http://www.w3.org/2000/svg" xmlns:xlink="http://www.w3.org/1999/xlink"><clipPath id="a"><path d="m0 0h797.9v807.6h-797.9z"/></clipPath><g clip-path="url(#a)"><g fill="#ecfaff"><path d="m634.9 335.3-5.8-8-4.2-.2-10.1 9.8z"/><path d="m646.6 369.7 13.4.8-6.3-8.8z"/><path d="m329.2 426.8-3.1 3.2 2.4 16.1 6.6 11.5 33.3.2-6.1-55.4-9.2 2.1c-2.6 10.9-13.7 21-23.9 22.3z"/><path d="m670.7 332.5 2.7-3.1-24.9-1.2-4 6.4z"/><path d="m510.7 465.6-7 14 67.9 11.2 1.6-13.6-3.8-10.9z"/><path d="m638.3 369.2 11.5-13-2.8-3.9-13.5-.6-10.7 16.6z"/><path d="m349.9 405.4-.4.1-16.4 17.3c7.2-2.8 14.2-9.9 16.8-17.4z"/><path d="m711.9 373.5 3.6.2-.1-4.1z"/><path d="m498.4 490.3 72.6 6.6v-.4l-69.3-12.8z"/><path d="m667.7 370.9 18.4 1.1-9.8-18.3-14.9-.7-3.8 4.3z"/><path d="m642.4 327.9-6.8-.3 3.7 4.9z"/><path d="m617.9 326.7-27.2-1.3-.3.3 3.6 12.9 12.1-1z"/><path d="m629.9 346.5-3.4.2 3.2.2z"/><path d="m714.9 356.7v-1.3l-6.1-.3.2 8.4z"/><path d="m321.6 423.9.5-.4-1.7-11.4-10.1 2.3 5.1 8.9c2.1.4 4.2.5 6.2.6z"/><path d="m721.8 362.5-3 3.3.2 8.1 9.3.5-.1-1.7z"/><path d="m481.5 488.7-.8-8.9-14-2.6 12 11.3z"/><path d="m708.6 350 5.5.2-5.7-9z"/><path d="m488.2 489.3 4-7.4-5.4-1 .7 8.4z"/><path d="m643.5 347.4-1.3-1.8-5 .4-.8 1.1z"/><path d="m441.8 464.7-29.6-.3 35.5 5.9z"/><path d="m494.4 478 6.9-12.5-15.8-.2 1 11.4z"/><path d="m480.4 475.7-1-10.5-25.8-.3 8.2 7.7z"/><path d="m705.1 349.9-.3-8.9-7 .5.2 8.1z"/><path d="m694.8 349.4-.3-7.7-24.6 1.8-4.3 4.8z"/><path d="m388.7 480.3 7.7-16.1-21-.3 1.9 15.3z"/><path d="m370.7 478.7-1.6-14.8-30.6-.4 7.4 12.9z"/><path d="m465.7 487.3-13.6-12.8-51.8-9.6v-.7h-.1l-7.6 16.4z"/><path d="m702.5 368.5.9 1.3 2.4-2.7-.5-12.1-7.1-.4.3 15.1z"/><path d="m695 354.5-7.5-.3 8.1 14.7z"/><path d="m657.1 348 3.2-3.8-11.7.9 1.9 2.6z"/><path d="m337.9 408.1-14.6 3.3 1.4 9.5z"/><path d="m655.9 296.6-7.6 7.4 9.6.6 5.8-8.6z"/><path d="m337.4 357.1 3.2 7.6-6.2 20.5 15.9-4.8c-.7-8.3-1.7-16.7-2.4-21.7z"/><path d="m669.5 295.5-5.5 8.6 18.3-4.4-3.1-5z"/><path d="m341.9 345.7c-.1-.2-1.6-2.1-4.7-4.1l-.2.1-.3 10.5 10.3 1.5z"/><path d="m616.7 366.3 9.9-14.9-25.4-1.1-1.3 1.3z"/><path d="m584.4 304.2 3.7 13.4 13.1-12.3z"/><path d="m615.1 299.8 1.7 2.3 26.1 1.6 7.2-6.7z"/><path d="m650.2 290.7-26.8-1.2-3.6 3.9z"/><path d="m601.4 288.4-21.7-.9 2.6 9.2 23.5-2.1z"/><path d="m423.1 354.7 39.8-48.5-.4-4.9-53.4 17.2 4.3 36.3z"/><path d="m468.4 299.4-1.5.5.1 1.3z"/><path d="m344.3 344.1 5.9 9.1v.3c0 .1 0 .3.1.7l8.8 1.2 50.7-.5-4.3-35.2-64.8 20.8c2.4 1.8 3.5 3.4 3.6 3.6z"/><path d="m382.5 358.7 27.1 3.8 1.1-.3-.4-3.3z"/><path d="m613.3 294 5.1-4.8-11.5-.5 4.1 5.5z"/><path d="m353.2 379.5 44.9-13.5-47.1-6.9c.7 5 1.6 12.6 2.2 20.4z"/><path d="m594.9 279.4-6-8.5-14-.6 3.3 12 3.1.1z"/><path d="m662.2 267.7-4.3.9 5.1.3z"/><path d="m567.8 267.5-74.4 23.9 29 37.2 45.9-13.9v-45.2z"/><path d="m660.7 265.3-1.7-2.8-39.7 1.9-1.6.2v-.1l-26.3 1.2 56 2.5z"/><path d="m694.1 330.6v-.2l-12-.6-1.7 1.9z"/><path d="m658.8 273.9-21.5-.9-23.5 5z"/><path d="m685.2 304.2-7.4 1.6 8.7.6z"/><path d="m413.9 358.9.3 2.3 4.9-1.5.6-.8z"/><path d="m599.1 301.1 6.3.3 1-.9z"/><path d="m486 293.8 4.1 44.5 26.6-8-28.4-37.3z"/><path d="m476.5 296.8-9.1 11.7 2.1 36 16.2-4.9-3.6-44.6z"/><path d="m430.1 356.1.5.1 34.9-10.5-2.1-32.1z"/><path d="m626.9 272.6-33-1.5 5.5 7.4z"/><path d="m523.4 339-4-5.1-28.9 8.5.8 8.4z"/><path d="m697.5 325.5 1.1.1-1.2-1.9z"/><path d="m568.3 322.6v-3.2l-43.1 12.8 3.7 4.8z"/><path d="m486.7 352.4-.7-8.6-16.2 4.8.6 9.8z"/><path d="m693.9 325.4-.3-7.5-1 .1-6.3 7.1z"/><path d="m452.3 365-23.1-4.4-3.4 1-.1.1-7.1 2.1 26.7 3.8z"/><path d="m466.4 359.8-.6-10-27.2 8 21.5 4.3z"/><path d="m549.5 388.1-35.4 70.8 52.9.4-2.5-7.3h11.6l.4-4.1-11.3-32.8h15.1l.5-4.5-3.5-18.5z"/><path d="m677.5 324.8 5.4-6.1-29.6 2.1-1.9 2.9z"/><path d="m316.4 400.3c-3.4 0-6.5-1.4-8.5-3.7h-.2l-5.9 3.1 2.5 4.3 13.6-3.2v-.6c-.5 0-1 .1-1.5.1z"/><path d="m645.3 323.5 1.5-2.2-15 1.1.4.6z"/><path d="m311.3 381.7c-4.4-1.3-7.5-5-7.5-9.4 0-1.3.3-2.5.7-3.6-6.9-4.1-13.4-9.9-16.5-12.7-.4 1.4-.6 2.9-.7 4.5-.2 3.8-.2 8.7.1 14l12.1 21.1 6.6-2c-.4-1-.6-2.1-.6-3.3 0-3.7 2.4-7 5.8-8.6z"/><path d="m333.2 389.1-2.6 8.7 20.4-4.8c-.1-2.8-.2-5.9-.4-9.1z"/><path d="m637.3 314.8-1.8 1.8 15.3-1.3 2.7-4.1z"/><path d="m317.4 337h-.1c-1.7.1-3.4.3-4.9.5l1.4 9.7z"/><path d="m406.9 367.3-53.4 15.8c.2 3.2.4 6.3.5 9.3l66.2-15.6 14.8-5.4z"/><path d="m657.2 314.7 31.6-2.8.7-.7-.1-.2-27-1.7-2 .4z"/><path d="m307.6 364.8-.1-.1 4.1-11.4-2.3-15.1c-10 2.2-17.1 7.5-20.2 14.8 2.3 2.1 9.6 8.8 17 13.2.5-.5 1-1 1.5-1.4z"/><path d="m627.8 316.9.2.4h.2l.6-.6z"/><path d="m533.3 342.6 5 6.4 30-7.1v-11.7z"/><path d="m646.7 308.2-2.5-.1-1.1 1z"/><path d="m620.1 314.6-6.1-8.5-5.4-.3-13.5 14.8z"/><path d="m471.6 364.5h.5l15.3-3.6-.2-2z"/><path d="m634.9 311.1 3.6-3.4-18.4-1.2 5.1 6.9z"/><path d="m491.9 357.3.2 2.5 40-9.4-4.5-5.8z"/><path d="m284.4 360.3c.7-12.6 10.1-22 24.5-25.2l-46.4-310.8c-48.8 18-92.9 45.2-130.5 79.5l152.2 265.2c0-3.3 0-6.3.2-8.7z"/><path d="m599.9 433.1-3.1-.3.2 1.2z"/><path d="m604.3 502.6-.1-.7-.2 17.7 10.2 1 47.1-13.3-36.1-6.7z"/><path d="m615.2 537.9 15.3-6.1-26.5-2.4-.1 6.6z"/><path d="m609.3 476.8-6.1-.5.9 6.4z"/><path d="m602 468.3 13.8 1.1 28.7-32.6-25.3-2.1-21.1 6.8z"/><path d="m728.9 486.6-111.2-9.1-12.5 13.8z"/><path d="m742.9 445-6.1-.5 6.4 11.8z"/><path d="m756.6 480.9 18.7 1.5-6.5-35.2-22.8-1.9.3 16.6z"/><path d="m661.4 473.1 32.3-30.9-1.7-1.4-38.2-3.2-29.4 32.5z"/><path d="m724.3 443.5-21.2-1.8 37.9 33.1z"/><path d="m782.5 483 7.7.6c.6-3.2 1.2-6.4 1.8-9.5l-15.5-24.6z"/><path d="m635.5 429.4 14.5 1 7.1-8z"/><path d="m601.6 408-10.1 3.2-1 12.2 13.4-15.2z"/><path d="m611.4 409.1-15.6 17.5 20.1 1.4 42.5-13.3z"/><path d="m603.7 586.8 54.1-34.3-53.9-9.5-.4 43.9z"/><path d="m659.7 431.1 23 1.7-13.8-11.9z"/><path d="m669.1 473.7 67.6 5.6-37.6-32.4z"/><path d="m762.1 490.9 10.7-.8-11.6-.9z"/><path d="m605.5 647.2 99.3-38.6-101.4-10.5-.3 48.7z"/><path d="m711.8 421-36.9-4.3-.4.1 19.2 16.7 26.3 1.9-8.2-15.3z"/><path d="m602.9 669.1 32.4-9.5-32.3-5.8z"/><path d="m703.4 664.7c6.2-7.4 12.1-15 17.8-22.8l-51 16.9z"/><path d="m659.6 696.3-56.8-6.7-.2 29.9z"/><path d="m610.7 678.5 70.9 8.8 2.2-.9c4.9-5 9.6-10.2 14.2-15.5l-41.9-7.5z"/><path d="m542.5 637.9h12.4l6.4-56.3-8.9-25.9h11.9l3.5-31.1-8.1-23.4-210.6-19.2 175.2 305.2c4.8-1.6 9.5-3.3 14.2-5l13.3-117.2z"/><path d="m616.3 649.1 34.1 6.1 77.2-22.6c4.5-6.7 8.9-13.5 13-20.4l-25.1-2.6z"/><path d="m619.5 538.7 47.1 8.3 8.5-5.4c-.7-1.9-1.3-3.9-1.6-6l-37.6-3.3z"/><path d="m614.4 591.3 107.1 10.8 31.6-12.3c3.2-6.2 6.2-12.5 9.1-18.8l-45.2-8z"/><path d="m625.5 580.8 70.3-19.3c-2.7-.9-5.3-2.1-7.7-3.7l-20.1-3.6z"/><path d="m745.2 604.5c1.6-2.8 3.1-5.6 4.7-8.4l-17.8 7.1z"/><path d="m625.6 521.7 24.4 2.3 26.7-10.7c.5-.9 1-1.9 1.6-2.7l-8.7-1.6z"/><path d="m609.8 184.2 10.3 75.6 35.2-3.1z"/><path d="m746 488 .5.7-10.7 4.2 14.3-1.1-2-3.7z"/><path d="m673 526.1c.2-3.3 1-6.4 2.1-9.3l-19.5 7.7z"/><path d="m767.2 438.7-1.1-5.7-14.5-23.1-6.3-.3.5 27.6z"/><path d="m720.7 494 4.7-.3 9.1-3.7z"/><path d="m682.3 505.4c.1-.1.2-.2.3-.3l-.8.2z"/><path d="m742.6 437-.9-27.6-8.9-.6.6 27.6z"/><path d="m767.4 558.8-23.6 1.8 21.3 3.7c.8-1.8 1.6-3.7 2.3-5.5z"/><path d="m644.1 498.7 29.5 5.2 17.2-4.8c3.9-2.1 8.3-3.4 13-3.8h.6l12.6-3.5z"/><path d="m446.7 458.5 32.1.2-7.2-81.1-74 16.9 1.3 19z"/><path d="m317.1 334c.5 0 .9 0 1.4-.1l.6-1.6c11-2.9 15.4-.7 17 1.9l229.3-75.5-.3-1 4-8 3.9 14 44.1-3.8-11.2-82-103.2-164.1c-42.2-11.5-87-16.1-133-12.7-36.5 2.7-71.4 10.3-104.3 22.1l46.5 311.4c1.6-.3 3.4-.4 5.2-.6z"/><path d="m672.1 283.4-3.8-6-15 .8-46.4 5 64 2z"/><path d="m615.2 374.7-20.8-1.7-1.6 20.6 22.9 1.2 9.9-11.2z"/><path d="m632.3 376.1-4.9-.4 3 2.5z"/><path d="m633.3 390.2-2.9-2.4-4.1 4.6z"/><path d="m638.6 396 1.5.1-.5-.4z"/><path d="m550.8 375.1-10.1-13.3-38.5 8.8 46 9.2z"/><path d="m641.2 387.7 25.4-7.9-.7-1-25.6-2.1-5.1 5.7z"/><path d="m492.9 372.7-4.2 1 35.9 5z"/><path d="m397.8 458.1-3.3-38-21.2-20.1-5.7 1.3 7 56.6z"/><path d="m706.7 389.3-.3-7.3-2.1-.2-1.1 1.2z"/><path d="m317.3 426.6.6 1 .9-.8c-.5-.1-1-.1-1.5-.2z"/><path d="m595.6 357.9-.7 8.8 11.8.7z"/><path d="m323.5 432.8-1.6 1.8 2.5 4.4z"/><path d="m683.5 392.4 8.4-9.5-1.1-2.1-4-.4-9.8 3.2z"/><path d="m670.8 385.6-23.3 7.6 4 3.5 26.9 1.4.8-.8z"/><path d="m402.1 458.1 33 .3-35.4-33.5z"/><path d="m679 549.2c-.3-.4-.5-.8-.8-1.2l-1.3.8z"/><path d="m392.5 395.6-10.1 2.4 11.2 10.5z"/><path d="m689 398.7 11.7.6-4.5-8.5z"/><path d="m554 379.2-.8 1.6 2.4.5z"/><path d="m478 377.6 6.9 81.1 20 .2 39.3-71.6z"/><path d="m745.1 401.7 1.4.1-1.4-2.3z"/><path d="m599.1 401-6.8-.4-.2 2.6z"/><path d="m685.8 406.1-3.3-.2-1.5 1.7z"/><path d="m560.6 357.2-13.4 3.1 6.9 8.9z"/><path d="m614.4 405.8 41.7 4.1-6.9-6-29.6-1.7-2.8.9z"/><path d="m672.2 405.3-11.7-.7 7 6z"/><path d="m735.5 384.4-3.3-.3.4 16.9 8.8.5-.2-8.1z"/><path d="m719.2 383 .4 17.3 9.6.6-.6-17.1z"/><path d="m730.4 432.7-.9-24.1-9.7-.5.1 5.4z"/><path d="m709.4 382.3.3 12.6 2.8 5.1 4 .2-.6-17.4z"/><path d="m565 383.2 11 2.2-5.9-30.3-4.6 1-8.4 16.9z"/><path d="m709.1 415.1-4.2-7.9h-.5l-17.9 5.7z"/></g><path d="m115.1 687.5-16.8-117.2c-8.2-.9-16.9-3.7-25.9-11.9-13.4-12.4-15.7-53.4-14.8-70.2.8-13.9 10.1-24.6 24.8-29.5l-18.7-131-57.40004 4.3c-5.899997 33.5-7.7 67.6-5.2 101.6 6.7 95.6 47.30004 185.6 114.00004 253.9z" fill="#e0f7fb"/><path d="m98.0002 455.7c5.5998-.3 10.2998.2 14.3998 1.1l15.7-21.6c10 .5 16.1 2.8 19.9 5.6l107.5-25.3 32.7-15.1c-2.7-10.1-3.7-22.2-3.9-31.4l-152.3-265.2c-32.8998 30.1-60.7998 65.5-82.2998 104.9l7.3 51.2 25.6-1.9c18.3998-1.3 34.3998 12.6 35.5998 31v.1l.1.7c1.4 18.4-12.3 34.6-30.7998 36.1l-20.9 1.6 18.6 130.3c4-1.1 8.3-1.8 12.8-2.1z" fill="#e0f7fb"/><path d="m85.9997 529.9c0-4.6 1.4-8.7 3.6-11.7-4.7-2.3-8.1-8.4-8.1-15.5 0-.9.1-1.7.2-2.5-8.8-5.6-16.2-15.4-19.4-20-.9 2.5-1.5 5.2-1.6 8.1-.9 15.4 1.1 45.3 8.9 60.9 6.8-2.5 13.5-7.2 18.1-10.8-1.1-2.5-1.7-5.4-1.7-8.5z" fill="#e0f7fb"/><path d="m115.3 543c-1.3-1.4-2.4-2.9-3.4-4.2-2.7 3.6-4.4 5.8-4.4 5.8l-1.6-2c-2.1 2.4-4.8 3.8-7.7996 3.8-.1 0-.1 0-.2 0l2.9996 21.1c3.1.2 6.2.2 9.3.2 8.2 0 17.6-6 23.7-13.9-6.2-.2-12.6-3.9-18.6-10.8z" fill="#e0f7fb"/><path d="m136.1 550.7c1.8-2.8 3.1-5.8 3.7-8.8 1.7-7.4.4-25.1-1.1-39.6-8.2 11.6-18.4 25.4-24.9 33.9 4.7 6.7 12.8 15.6 22.3 14.5z" fill="#e0f7fb"/><path d="m90.7002 486.7 19.7998-27.2c-2.7-.5-5.7-.9-9.1-.9-1 0-2.0998 0-3.1998.1-4.5.3-8.7.9-12.5 2l3.8 26.5c.4-.2.8-.3 1.2-.5z" fill="#e0f7fb"/><path d="m158.3 456.4 103.2.7-3.1-30.9-104.5 23.9c.1.8.1 1.3.1 1.3l-6.1 7 8 .7z" fill="#e0f7fb"/><path d="m82.2002 497c.9-3.2 2.5-6 4.5-7.9l-3.9-27.5c-8.9 3.1-15.5 8.3-19.1 15.3 1.9 2.9 9.5 14 18.5 20.1z" fill="#e0f7fb"/><path d="m89.1996 541c-4.7 3.7-11.3 8.2-18.1 10.8 1.1 1.7 2.2 3.2 3.4 4.3 8.1 7.5 15.9 10.1 23.4 11.1l-3.1-21.4c-2.2-.9-4.1-2.5-5.6-4.8z" fill="#e0f7fb"/><path d="m287.3 457.3 30.6-29.7-.6-1c-6.4-.7-13.3-2.9-20.3-9.1l-33.3 7.6 3.2 32.1z" fill="#e0f7fb"/><path d="m330.2 457.6 4.9.1-6.6-11.6z" fill="#e0f7fb"/><path d="m345.9 476.4-7.4-12.9-7.4-.1 1.7 11.8z" fill="#e0f7fb"/><path d="m321.9 434.6-21.7 22.8 27 .2-2.8-18.6z" fill="#e0f7fb"/><path d="m310.3 414.4-9.7 2.2c5.1 4 10 5.9 14.8 6.7z" fill="#e0f7fb"/><path d="m329.8 474.9-1.8-11.5-33-.5-7.7 8.2z" fill="#e0f7fb"/><path d="m25.2998 262.2 28.7-2.1-6.7-47c-8.4 15.8-15.8 32.2-22 49.1z" fill="#e0f7fb"/><path d="m290.9 399.2 5.4-2.5 3.3-1-12.1-21.1c.4 8 1.4 16.9 3.4 24.6z" fill="#e0f7fb"/><path d="m292.5 404.6c.2.7.5 1.4.8 2l11-2.6-2.5-4.3z" fill="#e0f7fb"/><path d="m284.7 408.6 5.7-1.3c-.2-.4-.3-.9-.5-1.3z" fill="#e0f7fb"/><path d="m262.1 462.6-79.1-1 79.7 7.2z" fill="#e0f7fb"/><path d="m274.4 469.9 7.3-7.1-14.3-.2.7 6.7z" fill="#e0f7fb"/><path d="m333.7 480.6 48.8 326.6c15.2.6 30.5.4 45.8-.8 33.4-2.5 65.6-9.1 96-19.3l-175.2-305.1z" fill="#e0f7fb"/><path d="m143.5 463.3-1.9 2.2c5.6 4.1 12.4 10.8 9.5 17.4-1.3 2.9-5 8.7-9.8 15.6 1.7 15.3 3.3 35.6 1.4 44-3.3 14.5-19 28.2-32.5 28.2-2.9 0-5.8 0-8.9-.2l17.2 120.6c4.2 4.2 8.4 8.3 12.8 12.3l81.7-6.1c18.4-1.3 34.4 12.6 35.6 31v.1.7c1.4 17.6-11.1 33.2-28.5 35.8 49.6 25.2 103.8 39.5 159 42.2l-48.8-326.8z" fill="#e0f7fb"/><path d="m757.3 386.1-12.5-1 .3 14.4 1.4 2.3 13.9.7z" fill="#e0f7fb"/><path d="m745.2 351.4-1.1-1v1z" fill="#e0f7fb"/><path d="m744.6 375.4 10.8.6-3.4-18.6-.5-.4-7.3-.3z" fill="#e0f7fb"/><path d="m765.1 386.7 2.9 16.2 17.9 1-2.9-15.7z" fill="#e0f7fb"/><path d="m774.2 377.1-12.9-11.4 1.9 10.8z" fill="#e0f7fb"/><path d="m776.1 447.8.3 1.6 15.5 24.6c1.2-7.1 2.3-14.2 3.1-21.3l-.6-3.4z" fill="#e0f7fb"/><path d="m795 355.5c-2.2-18.7-5.7-37.2-10.4-55.4l-44.5-5.6z" fill="#e0f7fb"/><path d="m717.3 291.7-7.7.6 14.8 22.9 72.7 69.4c-.2-4.8-.4-9.4-.6-13.1l-65.8-78.1z" fill="#e0f7fb"/><path d="m796.5 437.4c.7-8.2 1.1-16.5 1.3-24.8l-5.8-.3z" fill="#e0f7fb"/><path d="m700.5 278.2 4.1 6.4 11.4-1.4 65.9 7.2c-.2-.6-.3-1.1-.5-1.7l-68.4-10.5z" fill="#e0f7fb"/><path d="m718 326.3 6.5.3-6.7-10.4h-.1z" fill="#e0f7fb"/><path d="m790.6 404.1 7.2.4c-.1-1.7-.1-4.1-.2-6.7l-9.7-8.6z" fill="#e0f7fb"/><path d="m676 285.4 16.3.5-.4-9.6-.1-.1-10.3.5z" fill="#e0f7fb"/><path d="m707.6 307.6 4.8.3-4.5-7-.4.4z" fill="#e0f7fb"/><path d="m696.7 293.4v2.8l6.2-1.4v-1.6l-.1-.1-1.7-.1z" fill="#e0f7fb"/><path d="m697.8 285.4-1.4-2.1.1 2.2z" fill="#e0f7fb"/><path d="m740.6 375.1-.6-18.6-8.4-.4.4 18.5z" fill="#e0f7fb"/><path d="m732.3 350.9 7.5.3-.1-4.7-1.9-1.6z" fill="#e0f7fb"/><path d="m714.1 350.2h.6l-.4-10-5.9.5v.5z" fill="#e0f7fb"/><path d="m720.4 350.5 6.7-7.7-.1-3.5-8.7.7.2 10.4z" fill="#e0f7fb"/><path d="m698.6 325.6 5.6.2-.4-8.6-6.5.4.1 6.1z" fill="#e0f7fb"/><path d="m740.9 384.8-5.4-.4 5.7 9z" fill="#e0f7fb"/><path d="m713.8 326.2-.3-9.7-5.7.4.3 9.1z" fill="#e0f7fb"/><path d="m727.6 356.1-5.8 6.4 6.4 10.2z" fill="#e0f7fb"/><path d="m676.4 277-8.1.4 3.8 6z" fill="#e0f7fb"/><path d="m698.2 301.3-1.3.3v1.2z" fill="#e0f7fb"/><path d="m609.8 184.2 45.6 72.5 22.6-2-7.5-11.5h7.3l18.6 28.7 16.6-1.1 66.3 11c-12.3-39.5-30.7-77-54.6-111.2l-44.5 3.3c-18.4 1.3-34.4-12.6-35.6-31v-.1l-.1-.7c-1.2-16.2 9.2-30.9 24.9-35.1-23.6-22-49.8-41.2-78-57z" fill="#e0f7fb"/><path d="m703.4 305.9-1.3 1.4 1.3.1z" fill="#e0f7fb"/><path d="m678 261.6-19 .9 1.7 2.8z" fill="#e0f7fb"/><path d="m693.1 306.8-.1-4.3-7.8 1.7 1.3 2.2z" fill="#e0f7fb"/><path d="m679.2 294.7 3.1 5 10.4-2.5-.1-3.5z" fill="#e0f7fb"/><path d="m774.6 439.3 18.1 1.3-5.3-28.5-17.9-1.1z" fill="#e0f7fb"/><path d="m663 268.9 18.3.8 3.2-4.8-1.1-1.7-21.2 4.5z" fill="#e0f7fb"/><path d="m588.2 48.3c-26.9-14.7-55.5-26.3-85.5-34.5l103.2 164.2z" fill="#e0f7fb"/><path d="m687.8 269.9-1-1.5-.9 1.5z" fill="#e0f7fb"/><path d="m761.9 410.6-10.3-.7 14.5 23.1z" fill="#e0f7fb"/><path d="m689.7 311h-.3l.1.2z" fill="#e0f7fb"/><path d="m98.2998 570.3 16.8002 117.2c1.2 1.2 2.4 2.4 3.5 3.6l-17.2-120.6c-1 0-2.0002-.1-3.1002-.2z" fill="#323846"/><path d="m89.4998 487.2-3.8-26.5c-1 .3-2 .6-2.9.9l3.9 27.5c.9-.8 1.8-1.4 2.8-1.9z" fill="#323846"/><path d="m85.3002 457.8-18.6-130.4-3 .2 18.7 131c.9-.3 1.9-.6 2.9-.8z" fill="#323846"/><path d="m98.0004 546.4c-1.1 0-2.1-.2-3.1-.6l3.1 21.4c1 .1 2.0996.2 3.0996.3z" fill="#323846"/><path d="m47.2998 213.1 6.7 47 3-.2-7.3-51.2c-.8 1.4-1.6 2.9-2.4 4.4z" fill="#323846"/><path d="m311.9 334.6-46.5-311.4c-1 .3-1.9.7-2.9 1l46.4 310.9c1-.2 2-.3 3-.5z" fill="#323846"/><path d="m326.1 430.1-2.6 2.7.9 6.2 2.8 18.6h3l-1.7-11.5z" fill="#323846"/><path d="m313.7 347.2-1.4-9.7c-1 .2-2 .3-3 .5l2.3 15.1z" fill="#323846"/><path d="m324.7 420.9-1.4-9.5-2.9.7 1.7 11.4z" fill="#323846"/><path d="m330.6 480.3 48.8 326.8c1 0 2 .1 3.1.1l-48.8-326.6z" fill="#323846"/><path d="m332.8 475.2-1.7-11.8h-3.1l1.8 11.5z" fill="#323846"/><path d="m619.3 264.4-1.6.1v.1z" fill="#323846"/><path d="m605.9 178.1 11.2 82 3-.3-10.3-75.6-18.3-134.1c-1.1-.6-2.2-1.2-3.3-1.8z" fill="#323846"/><path d="m350.6 384c.2 3.2.4 6.3.4 9.1l3-.7c-.1-2.9-.2-6.1-.5-9.3z" fill="#323846"/><path d="m347.9 358.6c.7 5 1.7 13.4 2.4 21.7l2.9-.9c-.6-7.8-1.6-15.4-2.2-20.4z" fill="#323846"/><path d="m341.9 345.7 5.1 7.9 3.4.5c0-.3-.1-.6-.1-.7v-.3l-5.8-9.1c-.1-.2-1.2-1.7-3.6-3.6l-3.6 1.2c2.9 2 4.4 4 4.6 4.1z" fill="#323846"/><path d="m333.1 422.7-3.9 4.1c10.2-1.3 21.3-11.4 24-22.2l-3.3.8c-2.6 7.5-9.6 14.6-16.8 17.3z" fill="#323846"/><path d="m318.7 426.7 2.9-2.8c-2.1-.1-4.1-.3-6.2-.6-4.8-.8-9.7-2.6-14.8-6.7l-3.7.8c7.1 6.3 13.9 8.4 20.3 9.1.6.2 1.1.2 1.5.2z" fill="#323846"/><path d="m287.4 374.6c-.3-5.3-.3-10.2-.1-14 .1-1.6.3-3 .7-4.5-1-.9-1.6-1.5-1.8-1.7l2.1-2.1s.3.3.7.7c3.1-7.4 10.3-12.6 20.2-14.8 1-.2 1.9-.4 3-.5 1.6-.2 3.2-.4 4.9-.5h.1l1.1-3c-.5 0-.9 0-1.4.1-1.8.1-3.5.3-5.2.6-1 .2-2 .3-2.9.6-14.4 3.2-23.8 12.5-24.5 25.2-.1 2.4-.2 5.3-.1 8.7.2 9.3 1.2 21.3 3.9 31.4l2.7-1.3c-1.9-8-2.9-16.9-3.4-24.9z" fill="#323846"/><path d="m289.9 406c.2.5.3.9.5 1.3l2.9-.7c-.3-.7-.5-1.3-.8-2z" fill="#323846"/><path d="m303.8 372.3c0 4.4 3.2 8.1 7.5 9.4 1.5-.7 3.3-1.2 5.1-1.2h.5l-.1-1.9-4-6c-2.7-.8-5.5-2.3-8.3-3.9-.4 1.1-.7 2.3-.7 3.6z" fill="#323846"/><path d="m306.1 366.2c1.3.8 2.5 1.5 3.8 2.1l-2.3-3.5c-.5.4-1 .9-1.5 1.4z" fill="#323846"/><path d="m316.4 400.3c.5 0 1 0 1.5-.1l-.3-6.4-9.6 2.9c1.9 2.1 5 3.6 8.4 3.6z" fill="#323846"/><path d="m316.9 380.5c-.2 0-.3 0-.5 0-1.8 0-3.6.4-5.1 1.2-3.4 1.7-5.8 4.9-5.8 8.7 0 1.2.2 2.2.6 3.3l11.2-3.4z" fill="#323846"/><path d="m313.7 347.2-2.1 6-4.1 11.4.1.1 2.3 3.5c2.4 1.1 4.6 1.9 6.7 2.2l-.3 3c-1.1-.1-2.3-.4-3.4-.8l4 6 .1 1.9.5 9.8 17-5.1 6.2-20.5-3.2-7.6-3.1-.4v-4.8l2.3.3.3-10.5-.7.2-5-6 4.8-1.6c-1.7-2.6-6-4.8-17-1.9l-.6 1.6-1.1 3z" fill="#323846"/><path d="m317.6 393.7.3 6.5.1.6 12.6-2.9 2.6-8.8z" fill="#323846"/><path d="m491.9 357.3 35.7-12.7-4.2-5.6-32.1 11.8z" fill="#323846"/><path d="m470.7 364.3.9.2 15.6-5.6-.5-6.5-16.3 6z" fill="#323846"/><path d="m466.7 363.5-.3-3.7-6.3 2.3z" fill="#323846"/><path d="m533.3 342.6 35-12.4v-7.6l-39.4 14.4z" fill="#323846"/><path d="m445.3 367.6 8.7 1.2 8.2-1.9-9.9-1.9z" fill="#323846"/><path d="m420.1 376.8 19.9-4.7-5-.7z" fill="#323846"/><path d="m568.3 322.6v7.6 11.7h19.8l-7.2-26.3-12.6 3.8z" fill="#323846"/><path d="m573.1 287.1-4.8-17.6v45.2l11.4-3.4-6.6-24.1z" fill="#323846"/><path d="m580.8 410.6 2-17.7-5.5-.8z" fill="#323846"/><path d="m576 385.4 7.5 1.5 4.1-35.8-17.5 4z" fill="#323846"/><path d="m551.8 665 3.1-27.1h-12.4z" fill="#323846"/><path d="m561.3 581.6 3-25.9h-11.9z" fill="#323846"/><path d="m567.8 524.6 2.6-22.5-10.7-.9z" fill="#323846"/><path d="m573.2 477.2 1.2-10.9h-5z" fill="#323846"/><path d="m567 459.3 8.2.1.9-7.4h-11.6z" fill="#323846"/><path d="m576.5 447.9 3.8-32.8h-15.1z" fill="#323846"/><path d="m696.4 272 4.1 6.3h12.5l68.4 10.5c-.7-2.3-1.4-4.5-2.1-6.8l-66.3-11z" fill="#433e49"/><path d="m693.7 442.2-32.3 30.9 7.7.6 30-26.8z" fill="#433e49"/><path d="m625.5 580.8 42.6-26.5-10.3-1.8-54.1 34.3z" fill="#433e49"/><path d="m677 548.8 1.3-.8c-1.3-2-2.4-4.1-3.2-6.4l-8.5 5.4z" fill="#433e49"/><path d="m663.7 296-5.8 8.6 3.1.2 3-.7 5.5-8.6z" fill="#433e49"/><path d="m641 334.9 3.5-.3 4-6.4-6.1-.3-3.1 4.6z" fill="#433e49"/><path d="m618.7 368.1 4.1.2 10.7-16.6-6.9-.3-9.9 14.9z" fill="#433e49"/><path d="m653.5 311.2-2.7 4.1 6.4-.6 3.2-5z" fill="#433e49"/><path d="m651.4 323.7 1.9-2.9-6.5.5-1.5 2.2z" fill="#433e49"/><path d="m670.9 285.2 5.1.2 5.5-8.7-5.1.3-4.3 6.4z" fill="#433e49"/><path d="m636.4 347.1.8-1.1-7.3.5-.2.4z" fill="#433e49"/><path d="m685.9 269.9.9-1.5-2.3-3.5-3.2 4.8z" fill="#433e49"/><path d="m653.7 361.7 6.3 8.8 7.7.4-10.1-13.6z" fill="#433e49"/><path d="m625 317.6 3-.3-.2-.4z" fill="#433e49"/><path d="m599.4 278.5-5.5-7.4-5-.2 6 8.5z" fill="#433e49"/><path d="m611 294.2-4.1-5.5-5.5-.3 4.4 6.2z" fill="#433e49"/><path d="m669 379-3.1-.2.7 1z" fill="#433e49"/><path d="m670.8 385.6 8.4 11.7 4.3-4.9-6.5-8.8z" fill="#433e49"/><path d="m613.9 299.9-1.8 2 4.7.2-1.7-2.3z" fill="#433e49"/><path d="m641 334.9-1.7-2.4-3.7-4.9-6.5-.3 5.8 8z" fill="#433e49"/><path d="m632.2 323-.4-.6-2.3.1-.4.4z" fill="#433e49"/><path d="m625.2 313.4-5.1-6.9-6.1-.4 6.1 8.5z" fill="#433e49"/><path d="m653 352.6-6-.3 2.8 3.9z" fill="#433e49"/><path d="m650.5 347.7-1.9-2.6-6.4.5 1.3 1.8z" fill="#433e49"/><path d="m595.1 320.6 13.5-14.8-7.4-.5-13.1 12.3 1.1 3.7 2.7.1z" fill="#433e49"/><path d="m590.3 325.4.1.3.3-.3z" fill="#433e49"/><path d="m619.8 293.4 3.6-3.9-5-.3-5.1 4.8z" fill="#433e49"/><path d="m606.4 300.5-1 .9 6.7.5 1.8-2z" fill="#433e49"/><path d="m628.8 316.7-.6.6 7.3-.7 1.8-1.8z" fill="#433e49"/><path d="m643.1 309.1 1.1-1-5.7-.4-3.6 3.4z" fill="#433e49"/><path d="m614.8 336.9 10.1-9.8-7-.4-11.8 10.9z" fill="#433e49"/><path d="m650.1 297-7.2 6.7 5.4.3 7.6-7.4z" fill="#433e49"/><path d="m601.2 350.3-3-.2 1.7 1.5z" fill="#433e49"/><path d="m629.5 322.5-2.9.3 2.5.1z" fill="#433e49"/><path d="m677 412 9.5.9 17.9-5.7-18.6-1.1-4.8 1.5z" fill="#433e49"/><path d="m674.3 416.6.2.2.4-.1z" fill="#433e49"/><path d="m662.9 415.8-.7-.7-3.8-.4-42.5 13.3 19.6 1.4 21.6-7z" fill="#433e49"/><path d="m598.1 441.5 21.1-6.8-19.3-1.6-2.9.9z" fill="#433e49"/><path d="m619.6 402.2-1.9-.1-.9 1z" fill="#433e49"/><path d="m702.5 368.5-4 1.2.1 3 2.1.1 2.7-3z" fill="#433e49"/><path d="m641.2 387.7 6.3 5.5 23.3-7.6 6.2-2 9.8-3.2-17.8-1.4-2.4.8z" fill="#433e49"/><path d="m633.3 390.2-7 2.2-2.5 2.8 14.8.8 1-.3z" fill="#433e49"/><path d="m591.5 411.2 10.1-3.2-8.8-1.1v-3.2l13.9 1.3 3-3.4-10.6-.6-7 2.2z" fill="#433e49"/><path d="m698 349.6-.2-8.1-3.3.2.3 7.7z" fill="#433e49"/><path d="m697.6 372.6 1 .1-.1-3-.3-15.1-3.2-.1.6 14.4z" fill="#433e49"/><path d="m697.5 325.5-.1-1.8-.1-6.1-3.7.3.3 7.5z" fill="#433e49"/><path d="m695.4 330.5-1.3-.1v.2z" fill="#433e49"/><path d="m692.7 297.2 4-1v-2.8l-4.1.3z" fill="#433e49"/><path d="m693.5 285.9 3-.4-.1-2.2-4.5-7 .4 9.6z" fill="#433e49"/><path d="m693.4 306.8 3.5-4v-1.2l-3.9.9.1 4.3z" fill="#433e49"/><path d="m709 363.5-.2-8.4-3.5-.1.5 12.1z" fill="#433e49"/><path d="m709.7 394.9-.3-12.6-3-.3.3 7.3z" fill="#433e49"/><path d="m708.6 350-.2-8.8v-.5l-3.6.3.3 8.9z" fill="#433e49"/><path d="m707.6 307.6-.1-6.3-4.1 4.6v1.5z" fill="#433e49"/><path d="m708.1 326-.3-9.1-4 .3.4 8.6z" fill="#433e49"/><path d="m703.7 294.6-.8-1.4v1.6z" fill="#433e49"/><path d="m715.4 369.6.1 4.1 3.5.2-.2-8.1z" fill="#433e49"/><path d="m716 355.4h-1.1v1.3z" fill="#433e49"/><path d="m715.9 382.8.6 17.4 3.1.1-.4-17.3z" fill="#433e49"/><path d="m719.8 408.1-3-.2 3.1 5.6z" fill="#433e49"/><path d="m718 326.3-.3-10.1-4.2.3.3 9.7z" fill="#433e49"/><path d="m718.5 350.4-.2-10.4-4 .2.4 10z" fill="#433e49"/><path d="m732.3 436.3 1.1.1-.6-27.6-3.3-.2.9 24.1z" fill="#433e49"/><path d="m728.6 383.8.6 17.1 3.4.1-.4-16.9z" fill="#433e49"/><path d="m728.2 372.7.1 1.7 3.7.2-.4-18.5-3.9-.1-.1.1z" fill="#433e49"/><path d="m730.4 339.1-3.4.2.1 3.5z" fill="#433e49"/><path d="m745.8 437.2-.5-27.6-3.6-.2.9 27.6z" fill="#433e49"/><path d="m746.3 461.9-.3-16.6-3.1-.3.3 11.3z" fill="#433e49"/><path d="m744.1 351.4v-1l-4.4-3.9.1 4.7z" fill="#433e49"/><path d="m740.6 375.1 4 .3-.4-18.7-4.2-.2z" fill="#433e49"/><path d="m744.8 385.1-3.9-.3.3 8.6.2 8.1 3.7.2v-2.2z" fill="#433e49"/><path d="m782.5 483-6.1-33.6-.3-1.6-7.3-.6 6.5 35.2z" fill="#433e49"/><path d="m767.2 438.7 7.4.6-5.1-28.3-7.6-.4 4.2 22.4z" fill="#433e49"/><path d="m757.3 386.1 3.1 16.4 7.6.4-2.9-16.2z" fill="#433e49"/><path d="m763.2 376.5-1.9-10.8-9.3-8.3 3.4 18.6z" fill="#433e49"/><path d="m795 452.8c.1-1.1.3-2.2.4-3.3l-1-.1z" fill="#433e49"/><path d="m787.4 412.1 5.3 28.5 3.5.3c.1-1.1.2-2.2.3-3.4l-4.5-25.1z" fill="#433e49"/><path d="m785.9 403.9 4.7.2-2.7-14.9-.8-.7-4.1-.3z" fill="#433e49"/><path d="m748.1 488.1 2 3.7 12-.9-.9-1.7z" fill="#433e49"/><path d="m747.1 480.1 9.5.8-10.3-19-3.1-5.6-6.4-11.8-12.5-1 16.7 31.3z" fill="#433e49"/><path d="m693.5 381-2.7-.2 1.1 2.1z" fill="#433e49"/><path d="m711.8 415.4v4.7l8.2 15.3 12.3.9-1.9-3.6-10.5-19.2-3.1-5.6-11.9-.7 4.2 7.9z" fill="#433e49"/><path d="m697.6 372.6-2-3.7-8.1-14.7-11.2-.5 9.8 18.3z" fill="#433e49"/><path d="m706.7 389.3-3.5-6.3-7 7.8 4.5 8.5 11.8.7-2.8-5.1z" fill="#433e49"/><path d="m604 519.6.2-17.7-1.1-5.5-2.2-.4-1.1 1.2v-9.6l4.3-4.9-.9-6.4-16.7-1.4-3.3 42.8z" fill="#433e49"/><path d="m594.7 589.3 8.8-2.4.4-43.9-4.1-.8v-7l4.1.8.1-6.6-21.6-1.9-4.7 60.1z" fill="#433e49"/><path d="m602 468.3-3.9-26.8-1.1-7.5-.2-1.2-7-.6-2.7 34.8z" fill="#433e49"/><path d="m582.9 675 20-5.9.1-15.3-6.5-1.1 1.8-6.8 4.8.9.3-48.7-26.3-2.8-6.1 78.2z" fill="#433e49"/><path d="m602.6 719.5.2-29.9-32.8-3.8-6.7 86c13-5.9 25.5-12.5 37.7-19.8l-4.6-30z" fill="#433e49"/><path d="m606.7 405-13.9-1.3v3.2l8.8 1.1 2.3.2z" fill="#433e49"/><path d="m711.8 421v-.9-4.7l-2.7-.3-22.6-2.2-9.5-.9-3.5 3.9.8.7.6.1z" fill="#433e49"/><path d="m662.2 415.1-6.1-5.2-41.7-4.1-3 3.3 47 5.6z" fill="#433e49"/><path d="m686.3 325.1 6.3-7.1-9.7.7-5.4 6.1z" fill="#433e49"/><path d="m688.8 311.9 6.5-.5-5.6-.4-.2.2z" fill="#433e49"/><path d="m630.4 387.8-4.8-4.2-9.9 11.2 8.1.4 2.5-2.8z" fill="#433e49"/><path d="m665.6 348.3 4.3-4.8-9.6.7-3.2 3.8z" fill="#433e49"/><path d="m638.3 369.2 8.3.5 7.1-8 3.9-4.4 3.8-4.3-8.4-.4-3.2 3.6z" fill="#433e49"/><path d="m680.4 331.7 1.7-1.9-8.7-.4-2.7 3.1z" fill="#433e49"/><path d="m635.2 382.4 5.1-5.7-8-.6-1.9 2.1z" fill="#433e49"/><path d="m698.2 301.3-1.3 1.5-3.5 4 8.7.5 1.3-1.4 4.1-4.6.4-.4-1-1.5z" fill="#433e49"/><path d="m603.9 408.2-13.4 15.2-.2 2.8 5.5.4 15.6-17.5 3-3.3 2.4-2.7.9-1-8-.5-3 3.4z" fill="#433e49"/><path d="m625.2 500.6-22.1-4.2 1.1 5.5.1.7z" fill="#433e49"/><path d="m655.5 524.5 19.5-7.7c.5-1.2 1-2.4 1.6-3.5l-26.6 10.7z" fill="#433e49"/><path d="m604.7 491.8 39.4 6.9 72.8-7 16.9-4.7-4.9-.4-123.7 4.7z" fill="#433e49"/><path d="m746 488-3.4-.3-8.1 2.3-9.1 3.7 10.4-.8 10.7-4.2z" fill="#433e49"/><path d="m619.5 538.7 16.3-6.4-5.3-.5-15.3 6.1z" fill="#433e49"/><path d="m669.6 508.9 8.7 1.6c1.2-1.8 2.5-3.5 4.1-5.1l-.5-.1z" fill="#433e49"/><path d="m600.9 496 2.2.4 22.1 4.2 36.1 6.7 12.3-3.4-29.5-5.2-39.4-6.9z" fill="#433e49"/><path d="m742.6 487.7-8.8-.7-16.9 4.7-12.6 3.5 16.4-1.2 13.8-4z" fill="#433e49"/><path d="m661.3 507.3-47.1 13.3 11.4 1.1 44-12.8 12.3-3.6.8-.2c2.4-2.4 5.1-4.4 8.1-6l-17.2 4.8z" fill="#433e49"/><path d="m762.2 571c1-2.2 2-4.5 3-6.7l-21.3-3.7-24.6 1.8-2.3.6z" fill="#433e49"/><path d="m666.6 547-47.1-8.3-4.3-.8-11.3-2-4.1-.7v7l4.1.7 53.9 9.6 10.3 1.8 20.1 3.6c-3.6-2.3-6.7-5.3-9.1-8.7l-2.1-.4z" fill="#433e49"/><path d="m616.3 649.1 99.2-39.4-10.7-1.1-99.3 38.6z" fill="#433e49"/><path d="m732 603.1 17.8-7.1c1.1-2.1 2.2-4.2 3.3-6.3l-31.6 12.3z" fill="#433e49"/><path d="m709 363.5-3.2 3.6-2.4 2.7-2.7 3 11.2.7 3.5-3.9 3.4-3.8 3-3.3 5.8-6.4.1-.1-11.7-.6-1.1 1.3z" fill="#433e49"/><path d="m624.4 470.1 29.4-32.5-9.3-.8-28.7 32.6z" fill="#433e49"/><path d="m673.5 415.9 3.5-3.9 4-4.4 1.5-1.7-10.3-.6-4.7 5.3z" fill="#433e49"/><path d="m662.9 415.8-5.8 6.6-7.1 8 9.7.7 9.2-10.2z" fill="#433e49"/><path d="m730.4 339.1-3.3 3.7-6.7 7.7 11.9.4 5.5-6-3.3-3-2-3z" fill="#433e49"/><path d="m703.2 383 1.1-1.2-10.8-.8-1.6 1.9-8.4 9.5-4.3 4.9-.8.8 10.6.6 7.2-7.9z" fill="#433e49"/><path d="m599.8 487.6v9.6l1.1-1.2 3.8-4.2.5-.5 12.5-13.8-8.4-.7-5.2 5.9z" fill="#433e49"/><path d="m618.7 368.1-2-1.8-16.8-14.7-1.7-1.5h-2l-.6 7.8 11.1 9.5z" fill="#433e49"/><path d="m699.1 446.9 37.6 32.4 10.4.8-6.1-5.3-37.9-33.1-11.1-.9 1.7 1.4z" fill="#433e49"/><path d="m641.2 387.7-6-5.3-4.8-4.2-3-2.5-12.2-1 10.4 8.9 4.8 4.2 2.9 2.4 6.3 5.5.5.4 11.4.6-4-3.5z" fill="#433e49"/><path d="m662.2 415.1.7.7 6 5.1 13.8 11.9 11 .7-19.2-16.7-.2-.2-.8-.7-6-5.3-7-6-11.3-.7 6.9 6z" fill="#433e49"/><path d="m695.4 330.5-1.3.1-13.7 1.1-9.7.8-26.2 2.1-3.5.3-6.1.4-20.1 1.6-8.7.7-12.1 1 2 6.9 30.5 1.2 3.4-.2 7.3-.5 5-.4 6.4-.5 11.7-.9 9.6-.7 24.6-1.8 3.3-.2 7-.5 3.6-.3 5.9-.5 4-.2 8.7-.7 3.4-.2 2.1-.2-4.4-6.8z" fill="#433e49"/><path d="m696.7 296.2-4 1-10.4 2.5-18.3 4.4-3 .7 16.8 1 7.4-1.6 7.8-1.7 3.9-.9 1.3-.3 8.7-1.9-3.2-4.8-.8.2z" fill="#433e49"/><path d="m695.3 311.4-6.5.5-31.6 2.8-6.4.6-15.3 1.3-7.3.7h-.2l-3 .3 2.8-.7 1-.2 8.5-1.9 16.2-3.6 6.9-1.5 2-.4-15.7-1.1-3.6.9-8.2 2-9.7 2.3-5.1 1.2-25 6-3.2.8 34.7 1.4 2.9-.3 2.3-.1 15-1.1 6.5-.5 29.6-2.1 9.7-.7 1-.1 3.7-.3 6.5-.4 4-.3 5.7-.4 4.2-.3h.1l-2.3-3.5z" fill="#433e49"/><path d="m606.4 300.5 7.5-.6 1.2-.1 35-2.8 5.8-.4 7.8-.6 5.8-.5 9.7-.8 13.4-1 4.1-.3 4.4-.4-50.9-2.3-30.4 2.7-6.5.6-2.3.2-5.2.4-23.5 2.1.9 3.4 15.9 1z" fill="#433e49"/><path d="m704.6 284.6 5 7.8 7.7-.6 13.5 1.7-4.2-5h8l5.6 6.2 44.5 5.6c-.9-3.3-1.7-6.5-2.7-9.7l-65.9-7.2z" fill="#433e49"/><path d="m693.5 285.9 4.7.2-.4-.7-1.3.1z" fill="#433e49"/><path d="m658.8 273.9-45 4.1-21.9 4.7 15 .5 46.4-5 15-.8 8.1-.4 5.1-.3 10.3-.5-.5-.8z" fill="#433e49"/><path d="m660.7 265.3-13.3 2.9 10.5.4 4.3-.9 21.2-4.5-1.1-1.8-4.3.2z" fill="#433e49"/><path d="m594.9 279.4-13.6 3 10.6.3 21.9-4.7 23.5-5-10.4-.4-27.5 5.9z" fill="#433e49"/><path d="m591.4 265.7 26.3-1.2 1.6-.1 39.7-1.9 19-.9 4.3-.2-4.4-6.6-22.6 1.9-35.2 3.1-3 .2-44.1 3.9.3 1z" fill="#433e49"/><path d="m603.1 646.8-4.8-.9-1.8 6.8 6.5 1.1 32.3 5.8 15.1-4.4-34.1-6.1-10.8-1.9z" fill="#433e49"/><path d="m656.2 663.4 41.9 7.5c1.8-2.1 3.6-4.1 5.3-6.2l-33.2-5.9z" fill="#433e49"/><path d="m682.9 687.4c.3-.4.7-.7 1-1.1l-2.2.9z" fill="#433e49"/><path d="m602.6 719.5-6.1 2.5 4.6 30c25.9-15.4 49.8-33.6 71.4-54.3l-12.8-1.5z" fill="#433e49"/><path d="m565 383.2 1.1 1.4 17.4 2.4v-.1l-7.5-1.5z" fill="#323846"/><path d="m547.1 381.9 1.1-2.1-46-9.2-9.3 2.1 31.7 6z" fill="#323846"/><path d="m553.2 380.8-.9 1.8 4.8.7-1.5-2z" fill="#323846"/><path d="m413.9 358.9h5.8l3.4-4.2-9.7.1z" fill="#323846"/><path d="m382.5 358.7 27.8.2-.5-4-50.7.5z" fill="#323846"/><path d="m429.9 356.4.7-.2-.5-.1z" fill="#323846"/><path d="m460.1 362.1-21.5-4.3-9.4 2.8 23.1 4.4 9.9 1.9 4.6-1.1-.1-2.3z" fill="#323846"/><path d="m470.7 364.3v.6l1.4-.4h-.5z" fill="#323846"/><path d="m392.6 480.6 7.6-16.4h-3.8l-7.7 16.1z" fill="#323846"/><path d="m467 301.2-.1-1.3-4.4 1.4.4 4.9z" fill="#323846"/><path d="m463.4 313.6 2.1 32.1 4-1.2-2.1-36z" fill="#323846"/><path d="m470.7 364.3-.3-5.9-.6-9.8-4 1.2.6 10 .3 3.7.1 2.3 3.9-.9z" fill="#323846"/><path d="m418.6 363.8-11.7 3.5 28.1 4.1 5 .7 14-3.3-8.7-1.2z" fill="#323846"/><path d="m544.2 387.3 2.9-5.4-22.5-3.2-35.9-5-10.8 2.4.1 1.5z" fill="#323846"/><path d="m566.1 384.6 2.2 2.8-6.8 1.8-4.4-5.9-4.8-.7-2.8 5.5 27.8 4 5.5.8.7-5.9z" fill="#323846"/><path d="m359.1 355.4-8.8-1.2-3.3-.5-10.4-1.5-2.3-.3v4.8l3.1.4 10.5 1.5 3.1.5 47.2 6.9 11.4-3.5-27.1-3.8z" fill="#323846"/><path d="m398.9 413.5-1.3-19-5.1 1.1 1.1 12.9z" fill="#323846"/><path d="m394.5 420.1 3.3 38h4.3l-2.4-33.2z" fill="#323846"/><path d="m482.1 295 3.6 44.6 4.4-1.3-4.1-44.5z" fill="#323846"/><path d="m491.3 350.8-.8-8.4-4.5 1.4.7 8.6.5 6.5.2 2 4.7-1.1-.2-2.5z" fill="#323846"/><path d="m488.3 293 28.4 37.3 5.7-1.7-29-37.2z" fill="#323846"/><path d="m554 379.2 1.6 2.1 1.5 2 4.4 5.9 6.8-1.8-2.2-2.8-1.1-1.4-7.9-10.2z" fill="#323846"/><path d="m554.1 369.2-6.9-8.9-6.5 1.5 10.1 13.3z" fill="#323846"/><path d="m528.9 337-3.7-4.8-5.8 1.7 4 5.1 4.2 5.6 4.5 5.8 6.2-1.4-5-6.4z" fill="#323846"/><path d="m463.4 313.6 4-5.1 9.1-11.7-8.1 2.6-1.4 1.8-4.1 5-39.8 48.5-3.4 4.2-.6.8 10.8-3.3.2-.3z" fill="#323846"/><path d="m425.8 361.6-.1.1z" fill="#323846"/><path d="m413.4 354.8-4.3-36.3-3.5 1.1 4.2 35.3.5 4 .4 3.3 3.5-1-.3-2.3z" fill="#323846"/><path d="m503.7 479.6 7-14-9.4-.1-6.9 12.5z" fill="#323846"/><path d="m498.4 490.3 3.3-6.6-9.5-1.8-4 7.4z" fill="#323846"/><path d="m550.8 375.1-2.6 4.7-1.1 2.1-2.9 5.4-39.3 71.6h9.2l35.4-70.8 2.8-5.5.9-1.8.8-1.6 3.1-6.2 8.4-16.9-4.9 1.1-6.5 12z" fill="#323846"/><path d="m486.5 476.7-1-11.4-6.1-.1 1 10.5z" fill="#323846"/><path d="m484.9 458.7-6.9-81.1-.1-1.5-6.3 1.5 7.2 81.1z" fill="#323846"/><path d="m487.5 489.3-.7-8.4-6.1-1.1.8 8.9z" fill="#323846"/><path d="m461.8 472.6-8.2-7.7-11.8-.2 5.9 5.6z" fill="#323846"/><path d="m478.7 488.5-12-11.3-14.6-2.7 13.6 12.8z" fill="#323846"/><path d="m399.7 424.9 35.4 33.5 11.6.1-47.8-45-5.3-5-11.2-10.5-9.1 2 21.2 20.1z" fill="#323846"/><path d="m377.3 479.2-1.9-15.3h-6.3l1.6 14.8z" fill="#323846"/><path d="m374.6 457.9-7-56.6-5.2 1.2 6.1 55.4z" fill="#323846"/><path d="m287.3 471.1 7.7-8.2-13.3-.1-7.3 7.1z" fill="#323846"/><path d="m322.1 423.5-.5.4-2.9 2.8-.8.9-30.6 29.7 12.9.1 21.7-22.8 1.6-1.8 2.6-2.7 3.1-3.3 3.9-4.1 16.3-17.2-11.5 2.6-13.2 12.8z" fill="#323846"/><path d="m268.1 469.3-.7-6.7h-5.3l.6 6.2z" fill="#323846"/><path d="m266.9 457.2-3.2-32.1-5.3 1.2 3.1 30.8z" fill="#323846"/><path d="m488.2 489.3h-.7l-6-.6-2.8-.2-13-1.2-73.1-6.7-3.9-.3-11.4-1.1-6.6-.5-24.8-2.3-13.1-1.2-3-.3-42.5-3.8-12.9-1.2-6.3-.6-5.4-.5-79.7-7.2-29-.4 1.9-2.1-8.1-.7-4.3 4.9 187.1 17 3.1.3 15.4 1.4 210.6 19.2 10.7.9.6-5.2-72.6-6.6z" fill="#bcbcbb"/><path d="m494.4 478-7.9-1.3-6.1-1-18.6-3.1-14.1-2.3-35.5-5.9-11.9-.2v.7l51.8 9.6 14.6 2.7 14 2.6 6.1 1.1 5.4 1 9.5 1.8 69.3 12.8.6-5.7-67.9-11.2z" fill="#bcbcbb"/><path d="m514.1 458.9h-9.2l-20-.2h-6.1l-32.1-.2-11.6-.1-33-.3h-4.3l-23.2-.2h-6.1l-33.4-.2-4.9-.1h-3l-27-.2-12.9-.1-20.4-.1-5.4-.1-103.2-.7-2.4 2.7-1.9 2.1 29 .4 79.1 1h5.3l14.3.2 13.3.1 33 .5h3.1l7.4.1 30.6.4h6.3l21 .3h3.8.1l11.9.2 29.6.3 11.8.2 25.8.3 6.1.1 15.8.2 9.4.1 58.7.7h5l.8-6.9-8.2-.1z" fill="#bcbcbb"/><path d="m153.9 450.1 104.5-23.9 5.2-1.2 33.3-7.6 3.7-.8 9.7-2.2 10.1-2.3 2.9-.7 14.5-3.3 11.6-2.6.4-.1 3.3-.8 9.2-2.1 5.2-1.2 5.7-1.3 9-2.1 10.1-2.3 5.1-1.2 74-16.9 6.3-1.4 10.8-2.5 4.2-1 9.3-2.1 38.5-8.8 6.4-1.5 13.5-3.1 4.9-1.1 4.6-1 17.4-4 .9-7.9-.4-1.3h-19.8l-30 7.1-6.2 1.5-40 9.4-4.7 1.1-15.3 3.6-1.4.3-3.9.9-4.7 1.1-8.1 1.9-14 3.3-19.9 4.7-65.8 15.6-3 .7-20.4 4.8-12.6 3-13.6 3.2-11 2.6-2.9.7-5.7 1.3-14.9 7.8-40 11 25.7-11.9-107.6 25.3c4.6 3.4 5.7 7.3 5.9 9.3z" fill="#bcbcbb"/><path d="m331.3 335.9 5 6 .7-.2.2-.1 3.6-1.1 64.8-20.9 3.5-1.1 53.4-17.2 4.4-1.4 1.5-.5 8.1-2.6 5.6-1.8 3.9-1.2 2.3-.8 5.1-1.6 74.4-23.9-2.4-8.6-229.3 75.4z" fill="#bcbcbb"/><path d="m269.8 416.4 14.9-7.8 5.2-2.6 2.6-1.4 9.4-4.9 5.9-3 .2-.1 9.6-2.9 15.6-4.6 17.4-5.1 2.9-.9 53.4-15.8 11.7-3.5 7.1-2.1.1-.1 3.4-1 9.4-2.8 27.2-8 4-1.2 16.2-4.8 4.5-1.4 28.9-8.5 5.8-1.7 43.1-12.8 12.6-3.8-1.2-4.3-11.4 3.4-45.9 13.9-5.7 1.7-26.6 8-4.4 1.3-16.2 4.9-4 1.2-34.9 10.5-.7.2-10.8 3.3-4.9 1.5-3.5 1-1.1.3-11.4 3.5-45 13.5-2.9.9-15.9 4.8-17 5.1-11.2 3.4-6.7 2-3.2 1-5.4 2.5-2.8 1.2-32.6 15.1-25.7 11.9z" fill="#bcbcbb"/><path d="m568.3 269.5 4.8 17.6 1.9-4.9 3.2.1-3.3-12-3.8-.1-.5-5.4 2.7.1-.3-1-3.9-14-4 8 .3 1 2.4 8.6z" fill="#bcbcbb"/><path d="m562.3 684.9v-12.5l8.7 1.1 6.1-78.2-8.8-.9 2.8-7.5 6.6.7 4.7-60-7.3-.6v-10l8 .8 3.3-42.7-8.7-.7 1.5-7.8 7.8.6 2.7-34.8-6.5-.5 2.8-5.8 4.3.3.2-2.8.9-12.1.6-8.1.2-2.6-2.5-.1v-3.8-3.2l3.1.2 1.6-20.5-4.7-.4v-6.2l5.1.3.7-8.9.6-7.8-3.4-.2v-4.5l3.2.1-1.9-6.9-3.6-12.9-.1-.4-4.3-.2v-4l3.1.1-1-3.7-3.7-13.3-1.1-.1-3.2-4.2 3.2.2-.9-3.4-2.6-9.3-6.5-.3 6.6 24.1 1.2 4.3 7.2 26.3.4 1.3-.9 7.9-4.1 35.8v.1l-.7 5.9-2 17.6-.5 4.5-3.7 32.9-.5 4-.8 7.4-.8 7-1.2 10.9-1.5 13.6-.6 5.6v.4l-.6 5.3-2.6 22.5-3.5 31.1-3 25.9-6.4 56.3-3.1 27.1-13.3 117.2c8.4-3.2 16.7-6.6 24.9-10.4l6.7-86z" fill="#bcbcbb"/><path d="m709.6 292.3-5-7.8-4.1-6.4-4.1-6.3-18.6-28.7h-7.3l7.5 11.5 4.3 6.6 1.2 1.8 1.1 1.7 2.3 3.5 1 1.5 3.8.2 1 5.3-1.2-.1.5.8.1.2 4.5 7 1.4 2.1.4.7 3.1.1 3 7-1.5-.1.1.1.9 1.4 3.1 4.8 1 1.5 4.6 7 3.6.2 3 4.8-3.5-.2 2.3 3.5 6.8 10.4 4.5.2 5.5 5.6-6.4-.3 4.4 6.8 1.9 3 3.3 2.9 1.9 1.7 4.4 3.9 1.1 1 11.6.5 3 5.5-8.2-.4.4.4 9.3 8.3 12.9 11.4 12.1.7 9 11.4-8.2-.7.8.7 9.7 8.6c-.1-3.9-.3-8.5-.5-13.1l-72.7-69.4z" fill="#bcbcbb"/><path d="m610.7 678.5-12 4-27.7-4 11.7-3.4-11.9-1.5-8.7-1.1v12.5l7.7.9 32.8 3.8 56.8 6.6 12.8 1.5c3.5-3.4 7-6.8 10.4-10.3l-1.2-.2z" fill="#bcbcbb"/><path d="m721.5 602.1-107.1-10.8-13.2 3.6-18-2.5 11.4-3.1-17-1.7-6.6-.7-2.8 7.5 8.8.9 26.4 2.7 101.4 10.5 10.7 1.1 25.1 2.6c1.5-2.6 3.1-5.2 4.5-7.8l-13.2-1.3z" fill="#bcbcbb"/><path d="m650 524-24.4-2.3-11.4-1.1-10.2-1-20.9-2-8-.8v10l7.3.6 21.6 1.9 26.5 2.3 5.3.5 37.6 3.3c-.2-1.1-.3-2.2-.4-3.4v-.1-.7c-.1-1.8-.1-3.5 0-5.2l-17.4-1.6z" fill="#bcbcbb"/><path d="m785.9 403.9-17.9-1-7.6-.4-13.9-.7-1.4-.1-3.7-.2-8.8-.5-3.4-.2-9.6-.5-3.1-.2-4-.2-11.8-.6-11.7-.6-10.6-.6-26.9-1.4-11.5-.6-1.5-.1-14.8-.8-8.1-.4-22.9-1.2-3.1-.2v3.2 3.8l2.5.1 6.8.4 10.6.6 8 .5 1.9.1 29.6 1.7 11.4.7 11.6.7 10.3.6 3.3.2 18.5 1.1h.5l11.9.7 2.9.2 9.7.6 3.3.2 8.9.5 3.6.2 6.3.4 10.3.6 7.6.4 17.9 1.1 4.6.3 5.8.3c0-1.7.1-3.4.1-5.1 0 0 0-1.1-.1-3.1l-7.2-.4z" fill="#bcbcbb"/><path d="m755.4 376-10.8-.6-4-.3-8.6-.5-3.7-.2-9.3-.5-3.5-.2-3.6-.2-11.2-.7-2.1-.1-1-.1-11.5-.6-18.4-1.1-7.7-.4-13.4-.8-8.3-.5-15.5-.9-4.1-.2-12-.7-11.8-.7-5.1-.3v6.3l4.6.3 20.8 1.7 12.2 1 4.9.4 8 .6 25.6 2.1 3.1.2 17.8 1.4 4 .4 2.7.2 10.8.8 2.1.2 3 .3 6.5.5 3.3.2 9.4.8 3.6.3 3.3.3 5.4.4 3.9.3 12.5 1 7.8.6 17.9 1.5 4.1.3 8.2.7-9-11.4-12.1-.7-11-.6z" fill="#bcbcbb"/><path d="m739.8 351.2-7.5-.3-11.9-.4-1.9-.1-3.8-.2h-.6l-5.5-.2-3.5-.1-7.1-.3-3.2-.2-29.2-1.1-8.5-.3-6.6-.3-7-.3-7.1-.3-6.7-.2-3.2-.2-30.5-1.2-3.2-.1v4.5l3.4.2h2l3 .2 25.4 1.1 6.9.3 13.5.6 6 .3 8.4.4 14.9.7 11.2.5 7.5.3 3.2.1 7.1.4 3.5.1 6.1.3h1.1l11.7.6 3.9.1 8.4.4 4.2.2 7.3.3 8.3.4-3-5.5-11.6-.5h-1.1z" fill="#bcbcbb"/><path d="m635.3 659.6-32.4 9.5-20.1 5.9-11.7 3.4 27.7 4 12-4 45.5-15 14-4.6 51-16.9c2.2-3 4.4-6.1 6.5-9.2l-77.2 22.6z" fill="#bcbcbb"/><path d="m603.7 586.8h-.2l-8.8 2.4-11.4 3.1 18 2.5 13.2-3.6 102.5-28.2 2.2-.6-10.6.8c-4.5.3-8.8-.3-12.8-1.6l-70.3 19.3z" fill="#bcbcbb"/><path d="m775.3 482.4-18.7-1.5-9.5-.8-10.4-.8-67.7-5.5-7.6-.6-37.1-3-8.6-.7-13.8-1.1-14.9-1.2-7.8-.6-1.5 7.8 8.7.7 16.7 1.4 6.1.5 8.4.7 111.3 9.1 4.8.4 8.8.7 3.4.3 2.2.2 13 1.1 11.6.9 16.3-1.2c.4-1.8.7-3.5 1.1-5.3l-7.7-.6z" fill="#bcbcbb"/><path d="m774.6 439.3-7.4-.5-21.4-1.5-3.2-.2-9.2-.7-1.1-.1-12.3-.9-26.2-1.9-11.1-.8-23-1.6-9.6-.7-14.6-1-19.5-1.4-20.1-1.4-5.5-.4-4.3-.3-2.8 5.8 6.5.5 7 .6 3.1.3 19.2 1.6 25.3 2.1 9.4.8 38.2 3.2 11.1.9 21.2 1.8 12.5 1 6.1.5 3.1.3 22.8 1.9 7.4.6 18.2 1.5 1 .1c.3-2.9.6-5.8.9-8.6l-3.5-.3z" fill="#bcbcbb"/><path d="m718 326.3-4.2-.1-5.7-.2-3.9-.2-5.6-.2-1.1-.1-3.6-.1-7.6-.3-8.8-.3-26.1-1.1-6.1-.2-13.1-.5-3.1-.1-2.5-.1-34.7-1.4-2.7-.1-3.2-.1v4l4.3.2h.4l27.2 1.3 7 .4 4.2.2 6.5.3 6.8.3 6.1.3 24.9 1.2 8.7.4 12 .6 1.3.1 32.7 1.6 6.4.3-5.5-5.6-4.5-.2z" fill="#bcbcbb"/><path d="m707.6 307.6-4.2-.2-1.3-.1-8.7-.5h-.3l-6.6-.4-8.7-.6-16.8-1-3.1-.2-9.6-.6-5.4-.3-26.1-1.6-4.7-.2-6.7-.5-6.3-.3-15.9-1-3.2-.2 3.3 4.3h1.1l16.8 1.1 7.4.5 5.4.3 6.1.4 18.4 1.2 5.7.4 2.5.1 15.7 1.1 27 1.7h.3l5.6.4 20.2 1.3 3.5.2-3-4.7-3.6-.3z" fill="#bcbcbb"/><path d="m693.5 285.9h-1.2l-16.3-.5-5.1-.2-64-2-15-.5-10.6-.3-3.1-.1-3.2-.1-1.9 4.9v.1l6.6.3 21.7.9 5.5.3 11.5.5 5 .3 26.8 1.2 50.9 2.3 1.7.1 1.5.1-3-7-3.1-.1z" fill="#bcbcbb"/><path d="m681.3 269.7-18.3-.8-5.1-.3-10.5-.4-56-2.5-18.1-.8-2.7-.1.5 5.4 3.8.1 14 .6 5 .2 33 1.5 10.4.4 21.5.9 32.5 1.5h1.2l-1-5.3-3.7-.2h-1.9z" fill="#bcbcbb"/><path d="m734.5 288.4h-8l4.2 5 65.8 78.1c-.1-2.4-.3-4.3-.4-5.6-.3-3.5-.7-7-1.1-10.4l-54.9-60.9z" fill="#433e49"/><path d="m130.3 466.4 4.9-4.9s3 1.6 6.5 4.1l1.9-2.2 4.3-4.9 6.1-7s0-.5-.1-1.3c-.2-2-1.3-5.9-5.9-9.3-3.8-2.8-9.9-5.1-19.9-5.6l-15.7 21.6c9.8 2.1 15.5 6.9 17.9 9.5z" fill="#323846"/><path d="m93.6002 486.2c5.2 0 9.6998 4.5 11.3998 10.8l2.4-7.5 20.7-21.1c-1.1-1.2-3.1-3-6-4.7-2.7-1.6-6.5-3.3-11.6-4.3l-19.7998 27.2c.9-.2 1.9-.4 2.9-.4z" fill="#323846"/><path d="m107.5 544.6s1.7-2.2 4.4-5.8c-.9-1.2-1.6-2.3-2.3-3.3-.7 2.8-2 5.3-3.7 7.2z" fill="#323846"/><path d="m105 497c.5 1.8.8 3.7.8 5.7 0 4.5-1.3 8.5-3.5 11.5v.2c4.7 2.3 8 8.4 8 15.5v.8c.7 1.3 1.9 3.3 3.5 5.5 6.5-8.6 16.7-22.3 24.9-33.9-1.1-10.9-2.4-20.1-2.7-21.9l-6.8-10.6c-.1-.1-.4-.6-1.1-1.2l-20.7 21.1z" fill="#323846"/><path d="m135.1 461.4-4.9 4.9c.9.9 1.3 1.6 1.4 1.7l7.2 11.2v.3c.1.8 1.3 8.7 2.4 18.9 4.8-6.9 8.6-12.7 9.8-15.6 2.9-6.6-3.9-13.3-9.5-17.4-3.4-2.4-6.4-4-6.4-4z" fill="#323846"/><path d="m89.4998 518.2c2.2-3 5.2-4.8 8.6-4.8.4 0 .8 0 1.2.1.2-2.8 0-5.3-1.1-7-.9-1.5-2.5-2.2-4.7-2.2-4.1 0-8.2-1.6-12-4-.1.8-.2 1.7-.2 2.5.2 7.1 3.5 13.2 8.2 15.4z" fill="#323846"/><path d="m105.8 502.7c0-2-.3-3.9-.8-5.7-1.7-6.3-6.1998-10.8-11.3998-10.8-1 0-2 .2-2.9.5-.4.1-.8.3-1.2.5-1 .5-1.9 1.1-2.8 1.9-2.1 1.9-3.6 4.7-4.5 7.9 3.7 2.5 7.5 4.2 11.4 4.2 3.3 0 5.7 1.3 7.1998 3.6 1.5 2.4 1.8 5.8 1.5 9.4 2.2-2.9 3.5-7 3.5-11.5z" fill="#323846"/><path d="m105.9 542.6c1.7-1.9 3-4.4 3.7-7.2-1.7-2.7-2.7-4.7-2.8-4.8l2.7-1.3s.3.6.8 1.5c0-.3 0-.5 0-.8 0-7.1-3.3-13.2-8-15.5-.9 8.8-5.4998 18.9-6.1998 20.4l-.1.2-.2.2c-.2.2-2.8 2.7-6.6 5.7 1.5 2.2 3.5 3.9 5.7 4.7 1 .4 2 .6 3.1.6h.2c2.8998.1 5.5998-1.3 7.6998-3.7z" fill="#323846"/><path d="m89.5004 518.2c-2.2 3-3.6 7.1-3.6 11.7 0 3.1.6 6 1.7 8.4 3.1-2.4 5.2-4.4 5.8-5 1.9-4.1 5.3-13 5.8-19.9-.4-.1-.8-.1-1.2-.1-3.2.1-6.3 2-8.5 4.9z" fill="#323846"/><path d="m110.3 570.7c13.4 0 29.2-13.7 32.5-28.2 1.9-8.5.3-28.8-1.4-44-1.1-10.2-2.3-18.1-2.4-18.9v-.3l-7.2-11.2c-.1-.1-.5-.8-1.4-1.7-2.4-2.6-8-7.3-17.8-9.5-4.1-.9-8.8-1.4-14.4004-1.1-4.6.3-8.8 1-12.7 2-1 .3-2 .6-2.9.9-14.7 4.9-24 15.6-24.8 29.5-1 16.8 1.4 57.9 14.8 70.2 9 8.2 17.7 11 25.9 11.9 1 .1 2.1004.2 3.1004.3 2.9.1 5.8.1 8.7.1zm-35.8004-14.6c-1.2-1.1-2.4-2.6-3.4-4.3-.6.2-1.2.4-1.8.6l-.9-2.9c.4-.1.8-.3 1.2-.4-7.8-15.5-9.8-45.5-8.9-60.9.2-2.9.7-5.6 1.6-8.1-.9-1.3-1.5-2.2-1.6-2.4l2.6-1.6s.2.3.4.7c3.6-7 10.2-12.3 19.1-15.3.9-.3 1.9-.6 2.9-.9 3.8-1 8-1.7 12.5-2 1.1-.1 2.1004-.1 3.2004-.1 3.4 0 6.4.3 9.1.9 5.1 1 8.9 2.7 11.6 4.3 3 1.7 4.9 3.6 6 4.7.6.7 1 1.2 1.1 1.2l6.8 10.6c.3 1.8 1.5 11 2.7 21.9 1.5 14.6 2.8 32.2 1.1 39.6-.7 3-2 6-3.7 8.8.2 0 .5 0 .7-.1l.5 3c-.9.1-1.7.2-2.6.2-.2 0-.4 0-.7 0-6.1 7.9-15.5 13.9-23.7 13.9-3.1 0-6.2 0-9.3-.2-1.0004-.1-2.0004-.2-3.1004-.3-7.5-.7-15.3-3.4-23.4-10.9z" fill="#323846"/><path d="m95.8002 535.3.2-.2.1-.2c.7-1.5 5.2998-11.7 6.1998-20.4 0-.1 0-.1 0-.2.3-3.6 0-7-1.5-9.4-1.4998-2.4-3.8998-3.6-7.1998-3.6-3.9 0-7.7-1.7-11.4-4.2-9.1-6.2-16.7-17.2-18.5-20.1-.3-.4-.4-.7-.4-.7l-2.6 1.6c.1.2.7 1.1 1.6 2.4 3.1 4.6 10.5 14.4 19.4 20 3.8 2.4 7.9 4 12 4 2.2 0 3.8.8 4.7 2.2 1.1 1.7 1.3 4.2 1.1 7-.6 6.9-4 15.8-5.8 19.9-.6.6-2.8 2.6-5.8 5-4.6 3.7-11.3 8.4-18.1 10.8-.4.2-.8.3-1.2.4l.9 2.9 1.8-.6c6.9-2.6 13.5-7.1 18.1-10.8 3.6-3.1 6.2-5.6 6.4-5.8z" fill="#323846"/><path d="m113.8 536.2c-1.6-2.3-2.8-4.2-3.5-5.5-.5-.9-.8-1.4-.8-1.5l-2.7 1.3c.1.1 1.1 2.1 2.8 4.8.7 1 1.4 2.2 2.3 3.3 1 1.4 2.1 2.8 3.4 4.2 6 6.9 12.5 10.6 18.7 10.8h.7c.9 0 1.7-.1 2.6-.2l-.5-3c-.2 0-.5 0-.7.1-9.5 1.3-17.6-7.6-22.3-14.3z" fill="#323846"/><path d="m312.8 372.6c1.2.4 2.3.6 3.4.8l.3-3c-2-.2-4.3-1-6.7-2.2-1.2-.6-2.5-1.3-3.8-2.1-7.4-4.5-14.8-11.1-17-13.2-.4-.4-.7-.7-.7-.7l-2.1 2.1c.1.1.8.7 1.8 1.7 3 2.8 9.6 8.5 16.5 12.7 2.8 1.7 5.6 3.1 8.3 3.9z" fill="#323846"/><path d="m548 124c0 11.089-9.01 20-20 20s-20-9.01-20-20c0-11.089 9.01-20 20-20s20 9.01 20 20z" fill="#4dcfe6"/><path d="m222 563c0 8.871-7.208 16-16 16s-16-7.208-16-16c0-8.871 7.208-16 16-16s16 7.208 16 16z" fill="#4dcfe6"/><path d="m214 124c0 6.653-5.406 12-12 12s-12-5.406-12-12c0-6.653 5.406-12 12-12s12 5.406 12 12z" fill="#4dcfe6"/><path d="m737 524c0 6.653-5.406 12-12 12s-12-5.406-12-12c0-6.653 5.406-12 12-12s12 5.406 12 12z" fill="#4dcfe6"/></g></svg>