<svg viewBox="0 0 40 40" xmlns="http://www.w3.org/2000/svg"><path d="m2.58 10.08h5.42a2.4 2.4 0 0 0 2-2.68 2.36 2.36 0 0 0 -2-2.09 2.89 2.89 0 0 0 -2.61-1.49 3.26 3.26 0 0 0 -3.1 2.33 2 2 0 0 0 .17 3.93z" fill="#8fc03f"/><path d="m40 22.31v-1.54c-4.86-5.16-8.63-11-9.9-15.71v-3.92a1.14 1.14 0 0 0 -2.28 0v.67a27.74 27.74 0 0 1 -3.53.19 28.43 28.43 0 0 1 -3.58-.22v-.64a1.14 1.14 0 0 0 -2.28 0v1.25c-1.31 4.84-9.35 13.61-18.43 20.7v2.35c7.53-5.6 14.89-12.53 18.43-18.29v17.24a38.05 38.05 0 0 1 -8.2 9.23c-3.6.14-7 .36-10.23.64v4.91c1.35-.15 2.72-.3 4.15-.44 4.33-.41 9-.72 13.92-.91v2.18h3v-2.27q3.15-.09 6.41-.11v2.38h3v-2.39h3.44c2.06 0 4.08.07 6.08.14v-3.69c-1.69-.1-3.39-.2-5.11-.28l-4.41-.18v-.8a.48.48 0 0 0 -.38-.47v-9.4a52 52 0 0 0 9.9 8.12v-1.22a53.34 53.34 0 0 1 -9.9-8.44v-13.3a48.58 48.58 0 0 0 9.9 14.22zm-15.07-5.49h.07c.89 1.23 1.86 2.45 2.89 3.65v2.33a25 25 0 0 1 -3.58.26 23.61 23.61 0 0 1 -2.59-.15c1.17-2 2.28-4.06 3.21-6.09zm-.77-3.05a37.27 37.27 0 0 1 -2.05-3.61c.7 0 1.42-.08 2.18-.08h1.34c-.44 1.23-.93 2.45-1.47 3.69zm2.16 3.11c.53.05 1.06.1 1.55.18v1.78c-.54-.65-1.05-1.3-1.55-1.96zm1.55-6.61v4.1c-.6.07-1.24.11-1.9.14.63-1.46 1.2-2.89 1.69-4.25zm-7.16-6.27a33.1 33.1 0 0 1 3.58-.19c1.11 0 2.15.06 3.13.15a37.86 37.86 0 0 1 -1.15 4.27c-.64 0-1.3.06-2 .06-1.09 0-2.12-.06-3.09-.15-.18-.47-.35-.93-.49-1.38zm0 6.26h.32a39.84 39.84 0 0 0 2.39 4.29c-1 0-1.87-.08-2.71-.17zm0 6.79c.64-.1 1.32-.16 2-.21-.63 1.28-1.31 2.57-2 3.83zm-7.24 16.47a40.32 40.32 0 0 0 5-5.64v4a.48.48 0 0 0 -.36.47v1.14c-1.6-.03-3.11-.01-4.64.03zm7.6-.09v-1.12a.48.48 0 0 0 -.36-.47v-6.16a16.63 16.63 0 0 1 7.16 0v6.65a.49.49 0 0 0 -.39.47v.72q-3.25-.08-6.41-.09z" fill="#8fc03f"/><g fill="#8fc03f"><path d="m21.21 26.08v.12l.13-.14z"/><path d="m10.29 27.46h5.3c.79-1 1.57-2.07 2.34-3.22v-5.41a4.53 4.53 0 0 0 -3.07-1.17 5.1 5.1 0 0 0 -4.86 3.64 3.09 3.09 0 0 0 .28 6.16z"/></g></svg>