<svg enable-background="new 0 0 40 40" viewBox="0 0 40 40" xmlns="http://www.w3.org/2000/svg"><g transform="scale(1.66666667)"><path d="m15.7 14.2-.3.3c-.1.1-.3.1-.4 0l-2.3-2.3c-1-1-2.6-1-3.5 0-.5.5-.7 1.1-.7 1.8s.3 1.3.7 1.8l3.4 3.4c-1.2.2-2 1.4-1.8 2.6.2 1 1 1.7 2 1.8l3.9.4c.5.1 1-.3 1.1-.9.1-.5-.3-1-.9-1.1l-3.9-.4c-.1 0-.2-.1-.2-.3 0-.1.1-.2.2-.2.6 0 1.2-.1 1.9-.2.5-.1 1-.5.9-1.1 0-.2-.1-.4-.3-.6l-4.9-4.9c-.2-.2-.2-.5 0-.7s.5-.2.7 0l3.2 3.2c.4.4 1 .4 1.4 0l1.2-1.2c.9-.9 2.4-.9 3.3 0l1.9 1.9c.4.4 1 .4 1.4 0s.4-1 0-1.4l-1.9-1.9c-1.7-1.7-4.4-1.7-6.1 0z" fill="#8fc03f"/><path d="m9.4 19h-6.4c-.6 0-1-.4-1-1v-14.5c0-.6.4-1 1-1h10c.6 0 1 .4 1 1v8.8c0 .3.3.6.6.6h.8c.3 0 .6-.3.6-.6v-9.3c0-1.7-1.3-3-3-3h-10c-1.7 0-3 1.4-3 3v18c0 1.7 1.3 3 3 3h6.4c.4 0 .8-.4.8-.8v-3.4c0-.5-.3-.8-.8-.8zm-1.4 3.5c-.6 0-1-.4-1-1s.4-1 1-1 1 .4 1 1-.4 1-1 1z" fill="#8fc03f"/></g></svg>