<svg viewBox="0 0 39.67 38.67" xmlns="http://www.w3.org/2000/svg"><g transform="translate(-.33 -.67)"><path d="m33.83 14.83a5.09 5.09 0 0 0 -3.33-1.16 2.19 2.19 0 0 0 -1 .16.36.36 0 0 0 -.33.34c0 .16 0 .33.16.33l6.5 6.5a4.28 4.28 0 0 1 1.5 2.67 4.92 4.92 0 0 1 -1.33 4.5l-.67.66c-.16.17-.16.17-.16.34s0 .16.16.33l.34.17a1.11 1.11 0 0 1 .16 1.66 1.29 1.29 0 0 1 -1.66.34l-5.5-4.17-.34-.17c-.16-.16-.5-.16-.66-.33a2.56 2.56 0 0 0 -3.17 1.67 2.4 2.4 0 0 0 .67 2.5l.33.33a.5.5 0 0 1 0 .67l-1.33 1.16a.5.5 0 0 1 -.67 0l-14.33-14.33a.5.5 0 0 1 0-.67l8.5-8.33a.49.49 0 0 1 .66 0l14.34 14.33a.53.53 0 0 1 0 .67l-1 .83a1.11 1.11 0 0 0 0 1.67 1.11 1.11 0 0 0 1.66 0l1-1a2.92 2.92 0 0 0 0-4.17l-14.33-14.16a2.92 2.92 0 0 0 -4.17 0l-8.33 8.5a2.9 2.9 0 0 0 0 4.16l14.33 14.34a2.93 2.93 0 0 0 4.17 0l1.17-1.17a.55.55 0 0 1 .33-.17c.17 0 .17 0 .33.17l.67.67a2.47 2.47 0 0 0 .67.5 8.72 8.72 0 0 0 3 1.66l7.33 2.5c.17 0 .5 0 .5-.33v-19.33c0-.17 0-.34-.17-.34z" fill="#8fc03f"/><g fill="#8fc03f"><path d="m13.17 3.17a1.29 1.29 0 0 0 1.33-1.17 1.43 1.43 0 0 0 -1.33-1.33 12.84 12.84 0 0 0 -12.84 12.83 1.28 1.28 0 0 0 1.17 1.33 1.19 1.19 0 0 0 1.17-1.33 10.41 10.41 0 0 1 10.5-10.33z"/><path d="m8 13.17a5 5 0 0 1 4.5-4.5h.17c.5-.17.83-.5.83-.84v-.5a1.29 1.29 0 0 0 -1.33-1.16 7.12 7.12 0 0 0 -6.5 6.5 1.06 1.06 0 0 0 1 1.33h.5a.78.78 0 0 0 .83-.83z"/></g></g></svg>