<svg enable-background="new 0 0 100 100" viewBox="0 0 100 100" xmlns="http://www.w3.org/2000/svg"><path d="m23.3 10.6c.4 0 .7-.4.7-.7v-.7c0-.4-.4-.7-.7-.7h-1c-.4 0-.7.2-.9.4h-.1l-.3-1.7c-.3-1-1.1-1.8-2.1-1.8h-7.3c-1 0-1.9.7-2.1 1.8l-.3 1.8h-.1c-.3-.3-.5-.5-.9-.5h-1c-.4 0-.7.4-.7.7v.7c0 .5.4.8.7.8h.1c.1 0 .2.1.2.2s0 .1-.1.2c-.6.5-.9 1.3-.9 2.1v3c0 .4.3.8.7 1 .1 0 .1.1.1.2v1.1c0 .6.5 1.1 1.1 1.1h1.5c.5.1 1.1-.4 1.1-1v-.9c0-.1.1-.2.2-.2h8.4c.1 0 .2.1.2.2v.9c0 .6.5 1.1 1.1 1.1h1.5c.6 0 1.1-.5 1.1-1.1v-1.1c0-.1 0-.2.1-.2.4-.2.7-.6.7-1v-3c0-.8-.4-1.7-.9-2.2-.1-.1-.1-.2 0-.3-.2-.1-.2-.2-.1-.2zm-14.5 5.9h-1.3c-.2 0-.4-.2-.4-.4v-.4c0-.2.2-.4.4-.4h1.3c.4 0 .6.3.6.6.1.4-.2.6-.6.6zm9.4-3.1-.4 1.1c-.3.7-1 1.2-1.8 1.2h-1.6c-.8 0-1.5-.5-1.8-1.2l-.4-1.2c-.1-.2 0-.4.3-.5h.1 5.1c.2 0 .4.2.4.4.1.1.1.1.1.2zm1.8-3.5c0 .1-.1.1-.2.1h-9.1c-.1 0-.1 0-.2-.1 0-.1-.1-.1 0-.2l.5-2.2c.1-.4.4-.6.7-.6h7.2c.4 0 .7.3.7.6l.5 2.3c-.1 0-.1.1-.1.1zm.2 3.7c-.1 0-.2-.1-.2-.2 0 0 0 0 0-.1l.3-.9c.1-.2.3-.4.5-.4h1.7c.1 0 .1 0 .2.1 0 0 .1.1.1.2-.1.7-.7 1.2-1.5 1.2h-1.1zm3.1 2.3v.4c0 .2-.2.4-.4.4h-1.3c-.4 0-.6-.3-.6-.6 0-.4.3-.6.6-.6h1.3c.2 0 .4.1.4.4zm-13.9-2.3c-.8 0-1.4-.5-1.5-1.2 0-.1.1-.2.1-.2.1-.1.1-.1.2-.1h1.7c.3 0 .4.2.5.4l.3.9v.1c0 .1-.1.2-.2.2h-1.1z" fill="#8fc03f" transform="scale(4.16666667)"/><path d="m95.8 82.8h-1-16.7-29.1-16.7-1.9-6.4c-.4 0-.8-.3-1-.6-1.3-3-3.7-5.4-6.7-6.7-.4-.2-.6-.5-.6-1v-29.2c0-.6.5-1 1-1h1c2.9 0 5.2-2.3 5.2-5.2v-25c0-2.9-2.3-5.2-5.2-5.2h-12.5c-2.9 0-5.2 2.3-5.2 5.2v25c0 2.9 2.3 5.2 5.2 5.2h1c.6 0 1 .5 1 1v28.1c0 .6-.5 1-1 1h-2c-2.3 0-4.2 1.9-4.2 4.2s1.9 4.2 4.2 4.2h7.3c2.3 0 4.2 1.9 4.2 4.2s1.9 4.2 4.2 4.2h76c2.3 0 4.2-1.9 4.2-4.2-.1-2.3-2-4.2-4.3-4.2zm-84.4-44.9c-2.6 0-4.7-2.1-4.7-4.7s2.1-4.7 4.7-4.7 4.7 2.1 4.7 4.7-2.1 4.7-4.7 4.7z" fill="#8fc03f"/></svg>