<svg enable-background="new 0 0 40 40" viewBox="0 0 40 40" xmlns="http://www.w3.org/2000/svg"><path d="m39.5 7.1c-1.3 0-2.6 0-3.8 0 .2-1 .4-2 .5-3 .2-1.2.4-2.4.6-3.6.1-.4-.5-.7-.8-.3-.5.7-1 1.4-1.4 2.1-1 1.4-2 2.8-3 4.2-.6.8-1.2 1.7-1.8 2.6-.2.3-.4.5-.6.8-.1.1-.2.3-.3.4-.2.3 0 .6.4.6h3.8c-.2 1-.4 2-.5 3-.2 1.2-.4 2.4-.6 3.6-.1.4.5.7.8.3.5-.7 1-1.4 1.4-2.1 1-1.4 2-2.8 3-4.2.6-.8 1.2-1.7 1.8-2.6.2-.3.4-.5.6-.8.1-.1.2-.3.3-.4.2-.2 0-.6-.4-.6z" fill="#8fc03f"/><g fill="#8fc03f"><path d="m35.8 20.8c-.4-.5-1.2-.6-1.6-.1l-5.3 4.5c-.5.4-.6 1.2-.1 1.6l.4.5c-2.1 1.8-3.3 3.8-3.6 6-.2 1.4.1 2.4.4 3.4.2.8.4 1.5.3 2.4 0 .3-.1.6-.2 1h3.3c0-.2.1-.4.1-.6.2-1.5-.1-2.6-.4-3.6-.2-.8-.4-1.4-.3-2.2.2-1.3 1-2.6 2.5-3.9l.4.5c.4.5 1.2.6 1.6.1l5.3-4.5c.5-.4.6-1.2.1-1.6l-.2-.3 1.5-1.2-2.5-3-1.5 1.2"/><path d="m19 2.9h-13.9c-2.8 0-5 2-5 4.5v23.4c0 2.5 2.2 4.5 5 4.5h.8v4.7h3.5v-4.7h5.5v4.7h3.5v-4.7h.6c2.8 0 5-2 5-4.5v-23.4c0-2.5-2.2-4.5-5-4.5zm-11.4 24.9c0-2.4 2-4.4 4.4-4.4s4.4 2 4.4 4.4-2 4.4-4.4 4.4-4.4-2-4.4-4.4zm11.6-12.8c0 1.1-.9 2-2 2h-10.4c-1.1 0-2-.9-2-2v-5.7c0-1.1.9-2 2-2h10.4c1.1 0 2 .9 2 2z"/></g></svg>