<svg enable-background="new 0 0 40 40" viewBox="0 0 40 40" xmlns="http://www.w3.org/2000/svg"><g transform="scale(1.66666667)"><path d="m7.2 12.6c-.4-.4-1-.4-1.4 0s-.4 1 0 1.4l.4.4c.2.2.2.5 0 .7l-5.5 5.5c-.8.8-.8 2 0 2.8.3.4.8.6 1.3.6.5 0 1-.2 1.4-.6l5.5-5.5c.2-.2.5-.2.7 0l.4.4c.4.4 1 .4 1.4 0s.4-1 0-1.4z" fill="#8fc03f"/><path d="m20.4 6.2h.1c.5 0 1-.3 1.3-.7l2-2.6c.3-.4.3-1.1-.1-1.4l-1.1-1.1c-.4-.4-1-.4-1.4-.1l-2.7 1.9c-.4.3-.7.8-.7 1.3 0 .2 0 .5.1.7s0 .4-.1.5l-7.6 7.6c-.3.3-.3.8 0 1.1l.7.7c.3.3.8.3 1.1 0l7.6-7.6c.1-.1.3-.2.5-.1 0-.2.2-.2.3-.2z" fill="#8fc03f"/><g fill="#8fc03f"><path d="m18.2 15.2c-.2 0-.4 0-.5-.1l-2.2-2.2c-.2-.2-.5-.2-.7 0l-2.1 2.1c-.2.2-.2.5 0 .7l2.2 2.2c.1.1.2.3.1.5-.6 2.4.8 4.9 3.2 5.5.8.2 1.6.2 2.3 0 .3-.1.4-.3.4-.6 0-.1-.1-.2-.1-.2l-1.5-1.5c-.1-.1-.1-.2-.1-.3l-.2-1.6c0-.3.2-.5.4-.6h.1l1.6.2c.1 0 .2.1.3.1l1.5 1.5c.2.2.5.2.7 0 .1-.1.1-.1.1-.2.6-2.4-.8-4.9-3.2-5.5-.7-.3-1.5-.3-2.3 0z"/><path d="m5.7 9c.2 0 .4 0 .5.1l2.2 2.2c.2.2.5.2.7 0l2.1-2.1c.2-.2.2-.5 0-.7l-2.2-2.2c-.1-.2-.2-.3-.2-.5.6-2.4-.8-4.9-3.2-5.5-.8-.2-1.6-.2-2.3 0-.2.1-.4.3-.3.6 0 .1 0 .2.1.2l1.5 1.5c.1.1.1.2.1.3l.2 1.6c.1.3-.1.5-.4.6h-.1l-1.6-.2c-.1 0-.2-.1-.3-.1l-1.5-1.6c-.2-.2-.5-.2-.7 0-.1.1-.1.2-.1.3-.7 2.4.7 4.8 3.1 5.5.8.2 1.6.2 2.4 0z"/></g></g></svg>