<svg viewBox="0 0 40 40" xmlns="http://www.w3.org/2000/svg"><path d="m14.17 31.67h-10a.85.85 0 0 1 -.84-.84v-23.33a.84.84 0 0 1 .84-.83h15a.83.83 0 0 1 .83.83v10a1.67 1.67 0 1 0 3.33 0v-13.33a4.17 4.17 0 0 0 -4.16-4.17h-15a4.17 4.17 0 0 0 -4.17 4.17v31.66a4.17 4.17 0 0 0 4.17 4.17h10a.83.83 0 0 0 .83-.83v-6.67a.83.83 0 0 0 -.83-.83z" fill="#8fc03f"/><path d="m11.46 26.25a1.25 1.25 0 0 0 1.25-1.25v-.5a.42.42 0 0 1 .33-.41 3.48 3.48 0 0 0 .6-6.65l-3.44-1.37a1 1 0 0 1 -.54-1.29 1 1 0 0 1 .91-.61h3.43a1.25 1.25 0 0 0 0-2.5h-.84a.41.41 0 0 1 -.41-.42v-.42a1.25 1.25 0 1 0 -2.5 0v.5a.42.42 0 0 1 -.33.41 3.5 3.5 0 0 0 -2.73 4.11 3.54 3.54 0 0 0 2.08 2.55l3.44 1.37a1 1 0 0 1 .53 1.29 1 1 0 0 1 -.89.61h-3.35a1.25 1.25 0 0 0 0 2.5h.83a.41.41 0 0 1 .42.41v.42a1.25 1.25 0 0 0 1.21 1.25z" fill="#8fc03f"/><g fill="#8fc03f"><path d="m40 25.42a2.92 2.92 0 0 0 -2.92-2.92h-16.66a2.92 2.92 0 0 0 -2.92 2.92v11.66a2.92 2.92 0 0 0 2.92 2.92h16.66a2.92 2.92 0 0 0 2.92-2.92zm-2.92 12.08h-16.66a.42.42 0 0 1 -.42-.42v-5a.41.41 0 0 1 .42-.41h16.66a.41.41 0 0 1 .42.41v5a.42.42 0 0 1 -.42.42zm-16.66-12.5h16.66a.42.42 0 0 1 .42.42v1.66a.42.42 0 0 1 -.42.42h-16.66a.42.42 0 0 1 -.42-.42v-1.66a.42.42 0 0 1 .42-.42z"/><path d="m35 34.58a1.25 1.25 0 0 0 -1.25-1.25h-2.08a1.25 1.25 0 0 0 0 2.5h2.08a1.25 1.25 0 0 0 1.25-1.25z"/></g></svg>