<svg fill="none" height="64" viewBox="0 0 216 64" width="216" xmlns="http://www.w3.org/2000/svg"><g fill="#021015"><path d="m208 1.28c1.782 0 3.492.708 4.752 1.96824 1.26 1.26025 1.968 2.96951 1.968 4.75176v48c0 1.7823-.708 3.4915-1.968 4.7518-1.26 1.2602-2.97 1.9682-4.752 1.9682h-200c-1.78225 0-3.49151-.708-4.75176-1.9682-1.26024-1.2603-1.96824-2.9695-1.96824-4.7518v-48c0-1.78225.708-3.49151 1.96824-4.75176 1.26025-1.26024 2.96951-1.96824 4.75176-1.96824zm0-1.28h-200c-2.12173 0-4.15656.842855-5.65685 2.34315-1.500295 1.50029-2.34315 3.53512-2.34315 5.65685v48c0 2.1217.842855 4.1566 2.34315 5.6569 1.50029 1.5002 3.53512 2.3431 5.65685 2.3431h200c2.122 0 4.157-.8429 5.657-2.3431 1.5-1.5003 2.343-3.5352 2.343-5.6569v-48c0-2.12173-.843-4.15656-2.343-5.65685-1.5-1.500295-3.535-2.34315-5.657-2.34315z"/><path d="m109.024 34.8c-1.344.0063-2.655.4105-3.769 1.1615s-1.981 1.8153-2.491 3.0583c-.509 1.2431-.639 2.6094-.373 3.9263.266 1.317.916 2.5256 1.868 3.4734s2.164 1.5923 3.482 1.8521 2.684.1233 3.925-.3924c1.24-.5156 2.3-1.3871 3.046-2.5047.746-1.1175 1.144-2.431 1.144-3.7745.013-.8993-.155-1.792-.494-2.6251-.339-.833-.843-1.5892-1.48-2.2237s-1.396-1.1342-2.231-1.4694c-.834-.3352-1.728-.4991-2.627-.4818zm0 10.928c-.826.0578-1.651-.1343-2.366-.5514-.716-.417-1.29-1.0397-1.647-1.7871s-.481-1.5849-.356-2.4037c.126-.8187.494-1.5809 1.059-2.1873.564-.6065 1.297-1.0292 2.105-1.2133.807-.184 1.652-.1208 2.423.1813.771.3022 1.434.8294 1.901 1.513.468.6837.719 1.4922.721 2.3205.026.5248-.054 1.0495-.234 1.5431-.18.4935-.457.946-.815 1.3308-.358.3847-.79.6939-1.269.9093s-.997.3326-1.522.3448zm-14.896-10.928c-1.3442.0032-2.6573.4047-3.7735 1.1538-1.1161.7491-1.9852 1.8122-2.4974 3.055-.5123 1.2428-.6447 2.6096-.3805 3.9276s.9131 2.5281 1.8647 3.4775c.9517.9494 2.1633 1.5955 3.482 1.8566 1.3186.2611 2.685.1255 3.9266-.3897 1.2416-.5151 2.3027-1.3867 3.0492-2.5046.7469-1.1179 1.1449-2.432 1.1449-3.7762.013-.8993-.155-1.792-.494-2.6251-.339-.833-.8425-1.5892-1.48-2.2237-.6374-.6345-1.396-1.1342-2.2306-1.4694s-1.7282-.4991-2.6274-.4818zm0 10.928c-.8267.061-1.6526-.1282-2.3702-.5431s-1.2937-1.0363-1.6532-1.7832c-.3596-.7468-.4859-1.5847-.3627-2.4044.1233-.8197.4905-1.5833 1.0538-2.1914s1.2967-1.0325 2.1046-1.218 1.6529-.1235 2.4251.178c.7721.3015 1.4356.8284 1.9041 1.5123.4685.6838.7203 1.4929.7225 2.3218.0258.5248-.0538 1.0495-.234 1.5431-.1802.4935-.4575.946-.8154 1.3308-.3579.3847-.7892.6939-1.2684.9093-.4793.2154-.9969.3326-1.5222.3448zm-17.744-8.832v2.88h6.912c-.1084 1.3565-.6722 2.6365-1.6 3.632-.6915.7044-1.5228 1.2562-2.4404 1.6199-.9177.3638-1.9013.5314-2.8876.4921-2.0369 0-3.9903-.8092-5.4306-2.2494-1.4402-1.4403-2.2494-3.3937-2.2494-5.4306s.8092-3.9903 2.2494-5.4306c1.4403-1.4403 3.3937-2.2494 5.4306-2.2494 1.9485-.0318 3.83.7105 5.232 2.064l2.032-2.032c-.9464-.9584-2.0756-1.717-3.3206-2.2309-1.245-.514-2.5805-.7728-3.9274-.7611-1.4224-.0554-2.8413.177-4.1718.6831-1.3304.5062-2.545 1.2757-3.571 2.2625-1.0259.9868-1.8421 2.1705-2.3996 3.4803s-.8449 2.7186-.8449 4.1421.2874 2.8323.8449 4.1421c.5575 1.3097 1.3737 2.4935 2.3996 3.4803 1.026.9868 2.2406 1.7563 3.571 2.2624 1.3305.5062 2.7494.7385 4.1718.6832 1.3695.0619 2.7364-.1703 4.0087-.6809 1.2723-.5105 2.4205-1.2877 3.3673-2.2791 1.6763-1.8417 2.5713-4.2628 2.496-6.752.0052-.6064-.0484-1.2119-.16-1.808zm72.496 2.24c-.417-1.2276-1.198-2.2996-2.238-3.0739s-2.29-1.2144-3.586-1.2621c-.875-.0017-1.741.1761-2.545.5224-.804.3464-1.528.8539-2.128 1.4912-.6.6374-1.063 1.3909-1.36 2.2142s-.422 1.6987-.367 2.5722c-.019.8942.142 1.7833.473 2.6139.332.8306.828 1.5859 1.458 2.2206.631.6347 1.382 1.1359 2.211 1.4736.828.3377 1.716.505 2.61.4919 1.119.006 2.222-.2656 3.211-.7906.988-.5249 1.831-1.2868 2.453-2.2174l-2.32-1.6c-.346.5772-.836 1.0547-1.423 1.3857-.586.3309-1.248.504-1.921.5023-.693.0264-1.378-.1563-1.966-.5244s-1.051-.9046-1.33-1.5396l9.104-3.76zm-9.28 2.272c-.032-.4949.034-.9913.196-1.4601s.416-.9006.746-1.2702c.331-.3695.732-.6693 1.18-.8818.449-.2126.935-.3336 1.43-.3559.516-.034 1.031.0843 1.48.3403.45.256.814.6384 1.048 1.0997zm-7.392 6.592h2.992v-20h-2.992zm-4.896-11.68h-.112c-.451-.5042-1.003-.9073-1.621-1.1831-.618-.2757-1.287-.4178-1.963-.4169-1.748.0848-3.397.8391-4.605 2.1065-1.207 1.2675-1.881 2.9509-1.881 4.7015s.674 3.434 1.881 4.7015c1.208 1.2674 2.857 2.0217 4.605 2.1065.678.0114 1.35-.126 1.97-.4024.619-.2764 1.17-.6852 1.614-1.1976h.096v.976c0 2.608-1.392 4-3.632 4-.746-.0175-1.47-.2565-2.08-.6868-.61-.4302-1.077-1.0322-1.344-1.7292l-2.608 1.088c.491 1.1942 1.327 2.2145 2.402 2.93s2.339 1.0937 3.63 1.086c3.504 0 6.4-2.064 6.4-7.088v-12.112h-2.752zm-3.424 9.408c-1.032-.091-1.993-.5652-2.692-1.3293-.7-.7641-1.088-1.7626-1.088-2.7987s.388-2.0346 1.088-2.7987c.699-.7641 1.66-1.2384 2.692-1.3293.512.0262 1.013.1547 1.474.3776.462.223.874.5361 1.212.9208.339.3847.597.8332.759 1.3192.163.4859.226.9995.187 1.5104.044.5131-.017 1.0297-.179 1.5186s-.421.94-.762 1.3258c-.341.3859-.757.6986-1.222.9192-.465.2207-.97.3446-1.485.3644zm39.008-17.728h-7.152v20h2.992v-7.584h4.176c.853.0612 1.709-.0538 2.515-.338.807-.2843 1.546-.7316 2.171-1.314.626-.5825 1.125-1.2876 1.467-2.0715.341-.7838.517-1.6296.517-2.4845s-.176-1.7007-.517-2.4845c-.342-.7839-.841-1.489-1.467-2.0715-.625-.5825-1.364-1.0297-2.171-1.314-.806-.2842-1.662-.3993-2.515-.338zm0 9.6h-4.176v-6.816h4.24c.91 0 1.783.3616 2.427 1.0052.643.6436 1.005 1.5166 1.005 2.4268s-.362 1.7832-1.005 2.4268c-.644.6436-1.517 1.0052-2.427 1.0052zm18.448-2.88c-1.089-.0651-2.174.1894-3.12.7323-.947.543-1.714 1.3506-2.208 2.3237l2.656 1.104c.262-.4827.658-.8787 1.141-1.1401.483-.2613 1.032-.3767 1.579-.3319.38-.0444.765-.0127 1.132.0933.368.106.71.284 1.008.5238s.545.5365.727.8728c.182.3364.295.7056.333 1.0861v.208c-.961-.5088-2.033-.7726-3.12-.768-2.864 0-5.76 1.6-5.76 4.496.028.6175.18 1.2231.446 1.7809.267.5578.642 1.0566 1.105 1.4668.462.4102 1.002.7235 1.588.9214.585.198 1.205.2765 1.821.2309.753.0541 1.508-.0956 2.183-.4335.676-.3378 1.248-.8513 1.657-1.4865h.096v1.6h2.88v-7.696c0-3.504-2.656-5.536-6.064-5.536zm-.368 10.96c-.976 0-2.336-.496-2.336-1.696 0-1.6 1.696-2.128 3.2-2.128.95-.0235 1.89.2086 2.72.672-.1.8662-.51 1.6671-1.154 2.2552-.644.588-1.478.9235-2.35.9448zm17.008-10.48-3.424 8.672h-.096l-3.552-8.672h-3.2l5.328 12.128-3.04 6.736h3.12l8.192-18.864zm-26.896 12.8h2.992v-20h-2.992z"/><path d="m75.7722 16.484c.0272.5868-.0652 1.1731-.2715 1.7232-.2062.5501-.5222 1.0525-.9285 1.4768-.4538.4713-1.0018.8418-1.6083 1.0871-.6065.2454-1.2579.3602-1.9117.3369-.9921-.0078-1.9597-.3081-2.7818-.8635-.8221-.5553-1.462-1.3409-1.8395-2.2583-.3776-.9174-.476-1.9258-.2829-2.8989.193-.9731.669-1.8675 1.3682-2.5713.4595-.4692 1.0104-.839 1.6186-1.0867s1.2608-.3679 1.9174-.3533c.6764-.0023 1.3461.1339 1.968.4.5789.2335 1.0943.6009 1.504 1.072l-.848.848c-.3194-.3799-.7227-.6802-1.1781-.8774s-.9504-.2857-1.4459-.2586c-.4998-.0025-.9949.096-1.4557.2896-.4608.1935-.8778.4781-1.2259.8367s-.6202.7838-.8001 1.2501c-.1798.4663-.2636.9641-.2463 1.4636-.0105.7458.2001 1.478.6053 2.1043.4052.6262.9868 1.1184 1.6714 1.4145s1.4415.3828 2.1753.2492c.7339-.1337 1.4117-.4816 1.948-1 .4923-.5336.7763-1.2264.8-1.952h-3.472v-1.152h4.656c.0426.2376.0641.4786.064.72zm7.328-4h-4.32v3.04h3.936v1.152h-3.936v3.04h4.32v1.184h-5.6v-9.6h5.6zm5.248 8.416h-1.232v-8.416h-2.688v-1.184h6.672v1.184h-2.752zm7.456 0v-9.6h1.232v9.6zm6.7038 0h-1.232v-8.416h-2.6878v-1.184h6.5918v1.184h-2.672zm15.168-1.248c-.935.9301-2.201 1.4523-3.52 1.4523s-2.584-.5222-3.52-1.4523c-.909-.9624-1.416-2.2361-1.416-3.56s.507-2.5977 1.416-3.56c.461-.4644 1.01-.833 1.614-1.0845.604-.2516 1.252-.3811 1.906-.3811.655 0 1.302.1295 1.907.3811.604.2515 1.152.6201 1.613 1.0845.913.9605 1.422 2.2349 1.422 3.56 0 1.325-.509 2.5995-1.422 3.56zm-6.128-.8c.693.6898 1.631 1.0771 2.608 1.0771.978 0 1.915-.3873 2.608-1.0771.684-.7536 1.062-1.7346 1.062-2.752s-.378-1.9984-1.062-2.752c-.693-.6898-1.63-1.0771-2.608-1.0771-.977 0-1.915.3873-2.608 1.0771-.683.7536-1.062 1.7346-1.062 2.752s.379 1.9984 1.062 2.752zm9.28 2.048v-9.6h1.504l4.672 7.472v-7.472h1.232v9.6h-1.28l-4.88-7.824v7.824z"/><path clip-rule="evenodd" d="m114.156 11.2264c-.633 0-1.26.1253-1.845.3688-.584.2431-1.114.5993-1.56 1.0481-.88.9325-1.371 2.1663-1.371 3.4487 0 1.2822.491 2.5159 1.371 3.4483.905.8992 2.129 1.404 3.405 1.404s2.501-.5048 3.406-1.4042c.883-.9306 1.376-2.1649 1.376-3.4481 0-1.2834-.493-2.5179-1.377-3.4485-.445-.4489-.976-.8051-1.56-1.0483-.585-.2435-1.212-.3688-1.845-.3688zm-1.968.0733c.624-.2596 1.293-.3933 1.968-.3933.676 0 1.344.1337 1.968.3933.624.2597 1.19.6402 1.666 1.1196l.002.0024c.941.9903 1.466 2.3042 1.466 3.6703s-.525 2.6799-1.466 3.6702l-.003.0033c-.965.9599-2.271 1.4988-3.633 1.4988-1.361 0-2.667-.5389-3.633-1.4989l-.003-.0035c-.937-.9921-1.46-2.3052-1.46-3.6699 0-1.3648.523-2.6778 1.46-3.6699l.003-.0029c.475-.4794 1.042-.8598 1.665-1.1195zm-41.1394-.0638c-.6347-.0141-1.2655.1021-1.8534.3416-.588.2394-1.1205.5969-1.5647 1.0504l-.0008.0009c-.677.6814-1.1379 1.5475-1.3248 2.4897s-.0916 1.9186.2739 2.8068c.3656.8883.9852 1.649 1.7812 2.1867.7959.5376 1.7329.8285 2.6934.836h.0045c.6313.0225 1.2603-.0883 1.846-.3252.5856-.2369 1.1147-.5945 1.5528-1.0496.3914-.4086.6956-.8925.8942-1.4222.1987-.5298.2876-1.0944.2614-1.6596l.1599-.0074-.16-.0001c0-.1874-.0134-.3745-.0402-.5599h-4.3598v.832h3.4773l-.0054.1652c-.025.764-.324 1.4935-.8424 2.0553l-.0062.0067c-.559.5404-1.2657.9029-2.0306 1.0422s-1.5539.0489-2.2676-.2598c-.7136-.3086-1.3198-.8217-1.7421-1.4744-.4217-.6517-.6412-1.4135-.6311-2.1896-.0174-.5197.0701-1.0376.2572-1.5228.1875-.4864.4714-.9299.8345-1.304.3632-.374.7981-.6709 1.2787-.8728.4792-.2012.994-.3039 1.5137-.302.5187-.0276 1.0367.0654 1.5135.2718.4248.1839.8065.4534 1.1215.7909l.6202-.6203c-.3756-.3991-.8337-.7126-1.3431-.918l-.0031-.0013c-.6018-.2575-1.2499-.3893-1.9045-.3871zm4.8836 5.2444c.0276.6073-.0682 1.2139-.2817 1.7831-.2138.5704-.5414 1.0913-.9628 1.5313-.4693.4875-1.0364.8709-1.6638 1.1247-.6266.2536-1.2996.3723-1.9752.3486-1.0228-.0085-2.0203-.3183-2.8679-.8909-.8481-.5729-1.5084-1.3834-1.8979-2.33-.3895-.9465-.4911-1.9869-.2919-2.9909.1992-1.0038.6901-1.9265 1.4113-2.6526.4747-.4846 1.0439-.8666 1.6722-1.1225.6278-.2557 1.3014-.3799 1.9792-.3651.697-.0021 1.387.1382 2.0279.4122.6017.243 1.1375.625 1.5633 1.1148l.0979.1126-1.0769 1.0769-.1122-.1336c-.3034-.3608-.6865-.6462-1.1192-.8335-.4326-.1873-.9029-.2714-1.3736-.2457l-.0095.0006c-.4783-.0024-.952.0916-1.393.2768-.4409.1852-.8399.4575-1.173.8006-.3331.3432-.5935.75-.7656 1.1962-.172.4463-.2522.9226-.2357 1.4006l.0002.0077c-.01.7142.1915 1.4154.5795 2.0151s.945 1.0711 1.6006 1.3546c.6556.2836 1.3804.3666 2.0832.2387.7012-.1277 1.349-.4598 1.8621-.9545.4269-.4641.6877-1.055.7444-1.6801h-3.4619v-1.472h4.9498l.0236.1317c.0442.2458.0664.4949.0666.7446zm1.408-5.3403h5.92v1.504h-4.32v2.72h3.936v1.472h-3.936v2.72h4.32v1.504h-5.92zm.32.32v9.28h5.28v-.864h-4.32v-3.36h3.936v-.832h-3.936v-3.36h4.32v-.864zm6.608-.32h6.992v1.504h-2.752v8.416h-1.552v-8.416h-2.688zm.32.32v.864h2.688v8.416h.912v-8.416h2.752v-.864zm11.056-.32h1.552v9.92h-1.552zm.32.32v9.28h.912v-9.28zm2.464-.32h6.9118v1.504h-2.672v8.416h-1.552v-8.416h-2.6878zm.32.32v.864h2.6878v8.416h.912v-8.416h2.672v-.864zm21.9198-.32h1.753l4.423 7.0743v-7.0743h1.552v9.92h-1.529l-4.631-7.4252v7.4252h-1.568zm.32.32v9.28h.928v-8.2229l5.129 8.2229h1.031v-9.28h-.912v7.8697l-4.921-7.8697zm-9.553 1.7746c.723-.7196 1.701-1.1237 2.721-1.1237s1.998.4041 2.721 1.1237l.006.0057c.71.783 1.103 1.8025 1.103 2.8597 0 1.0571-.393 2.0765-1.103 2.8595l-.006.006c-.722.7197-1.701 1.1236-2.721 1.1236s-1.998-.4041-2.721-1.1237l.113-.1134-.118.1075c-.711-.783-1.104-1.8024-1.104-2.8595 0-1.0572.393-2.0765 1.104-2.8595zm.229 5.5069c.662.6581 1.558 1.0276 2.492 1.0276s1.83-.3695 2.492-1.0276c.656-.7238 1.018-1.6652 1.018-2.6415 0-.9764-.362-1.9178-1.018-2.6415-.662-.6582-1.558-1.0276-2.492-1.0276s-1.83.3694-2.492 1.0276c-.655.7237-1.018 1.6651-1.018 2.6415 0 .9763.363 1.9177 1.018 2.6415z" fill-rule="evenodd"/><path d="m16.7925 52.3175 19.601-20.33-19.5845-20.2936c-.5231.316-.8468 1.0475-.8468 2.0051v36.6329c.007.9575.319 1.6356.8303 1.9856z"/><path d="m37.0957 31.426 5.8385-6.0564-23.7763-13.5226c-.4004-.2413-.8551-.3687-1.3183-.3694l19.2538 19.946z"/><path d="m37.0955 32.5513-19.3147 20.0336c.4847.0083.9622-.1229 1.3793-.3792l23.8232-13.559z"/><path d="m51.5476 30.2765-7.9121-4.5083-5.998 6.2217 6.0425 6.2607 7.8653-4.4962c1.6725-.9552 1.6724-2.5276.0023-3.4779z"/></g></svg>