<?xml version="1.0" encoding="UTF-8"?>
<svg id="Layer_1" data-name="Layer 1" xmlns="http://www.w3.org/2000/svg" viewBox="0 0 1064.92 89.16">
  <defs>
    <style>
      .cls-1 {
        fill: #f8490f;
      }

      .cls-1, .cls-2 {
        stroke-width: 0px;
      }

      .cls-2 {
        fill: #033349;
      }
    </style>
  </defs>
  <path class="cls-2" d="m835.42,66.04c8.21,7.72,16.11,15.14,24.54,23.06-1.5,0-2.32,0-3.14,0-10.11,0-20.22,0-30.34,0-1.15,0-2.22.06-3.2-.92-4.24-4.23-8.46-8.49-12.92-12.49-2.59-2.32-5.11-4.7-7.58-7.14-.82-.81-1.77-.96-2.89-.96-23.53.03-47.06.05-70.59-.03-1.91,0-2.21.62-2.18,2.31.1,5.63-.02,11.27.07,16.91.03,1.73-.4,2.38-2.26,2.35-7-.1-14-.09-21-.01-1.69.02-2.13-.55-2.13-2.17.04-28.18.04-56.37-.01-84.55,0-1.9.74-2.2,2.41-2.2,39.48.04,78.95.02,118.43.02,11.41,0,21.44,3.65,28.98,12.31,6.77,7.78,9.98,17.05,7.69,27.41-2.61,11.77-9.72,20.06-20.9,24.75-.89.37-1.75.79-2.99,1.34Zm-58.94-19.94c8.06,0,16.13,0,24.19,0,7.38,0,14.77.07,22.15-.03,6.03-.08,11.43-4.81,12.51-10.08,1.53-7.45-5.9-14.43-13.31-14.41-30.8.08-61.6.06-92.4,0-2.13,0-2.55.72-2.51,2.67.11,6.41.15,12.82-.02,19.23-.06,2.23.6,2.7,2.75,2.69,15.55-.1,31.09-.05,46.64-.05Z"/>
  <path class="cls-2" d="m64.24.23c18.18,0,36.35.06,54.53-.03,7.48-.04,14.77.92,21.35,4.55,5.9,3.26,10.65,7.78,14.03,13.86,4.01,7.23,5.42,14.81,3.23,22.6-3.66,13.03-12.37,21.44-25.46,25.14-3.94,1.11-8,1.31-12.11,1.3-30.52-.06-61.04,0-91.56-.09-2.38,0-3.13.47-3.03,2.96.22,5.43,0,10.88.11,16.32.04,1.78-.43,2.33-2.26,2.3-6.9-.11-13.8-.13-20.7.01-2.1.04-2.33-.81-2.32-2.55.05-15.25.03-30.5.03-45.75,0-12.34.1-24.68-.08-37.01C-.04.96.59.11,3.59.13c20.22.14,40.43.08,60.65.08v.02Zm10.05,45.88c1.26,0,2.53,0,3.79,0,14.1,0,28.2-.1,42.3.04,6.71.07,10.96-4.3,12.75-8.73,2.99-7.39-4.67-15.87-12.88-15.84-30.92.1-61.85.05-92.77,0-1.86,0-2.26.58-2.24,2.31.09,6.51.14,13.03,0,19.53-.05,2.13.42,2.76,2.67,2.74,15.46-.11,30.92-.06,46.39-.05Z"/>
  <path class="cls-2" d="m863.83,89.09c4.65-3.82,7.81-8.01,11.54-11.68,7.29-7.17,14.07-14.85,21.27-22.1,5.3-5.33,10.48-10.78,15.71-16.17,8.18-8.42,16.5-16.72,24.5-25.32,3.99-4.28,8.26-8.29,12.33-12.51.89-.92,1.74-1.3,3-1.29,8.27.05,16.53.07,24.8,0,1.61-.01,2.61.57,3.7,1.73,6.86,7.32,13.72,14.64,20.77,21.78,5.14,5.21,10.22,10.48,15.31,15.74,5.63,5.81,11.26,11.61,16.88,17.44,5.28,5.48,10.69,10.83,15.91,16.38,4.28,4.56,8.76,8.92,13.13,13.39.65.67,1.22,1.42,2.23,2.62h-3.05c-9.33,0-18.67-.02-28,.02-1.43,0-2.52-.27-3.6-1.36-4.6-4.66-9.35-9.16-13.97-13.8-.87-.87-1.75-1.02-2.85-1.02-32.67.01-65.35.02-98.02-.02-1.4,0-2.3.53-3.23,1.49-4.44,4.58-8.97,9.05-13.4,13.64-.95.98-2.01,1.04-3.17,1.04-10.31,0-20.61,0-31.8,0Zm132.03-35.53c-1.21-.99-2-1.52-2.64-2.18-7.89-8.05-15.96-15.91-24.13-23.67-4.93-4.68-4.83-4.79-9.48.25-.07.07-.12.16-.18.22-4.7,4.56-9.42,9.08-14.08,13.68-3.81,3.76-7.54,7.6-11.6,11.69h62.12Z"/>
  <path class="cls-2" d="m695.7,89.1c-10.64,0-21.03-.01-31.42.02-1.07,0-1.81-.37-2.54-1.12-4.1-4.23-8.27-8.4-12.37-12.64-1.54-1.59-3.2-2.45-5.53-2.44-31.31.06-62.62.12-93.93-.08-3.6-.02-5.99,1.34-8.26,3.59-3.91,3.87-7.79,7.77-11.63,11.71-.76.78-1.57.99-2.59.98-10.3-.02-20.6-.01-31.33-.01,1.55-2.68,3.55-4.63,5.48-6.5,4.99-4.82,9.72-9.88,14.52-14.88,8.54-8.9,17.26-17.63,25.73-26.6,5.22-5.53,10.67-10.83,15.87-16.38,7.57-8.08,15.44-15.89,23.13-23.86.8-.83,1.64-.85,2.61-.85,8.36,0,16.73.03,25.09-.03,1.3-.01,2.25.36,3.03,1.32,1.65,2.01,3.59,3.73,5.43,5.56,4.45,4.42,8.54,9.21,12.97,13.66,8.48,8.55,16.84,17.22,25.15,25.94,5.11,5.36,10.39,10.57,15.48,15.96,7.67,8.11,15.56,16.02,23.32,24.03.64.66,1.52,1.2,1.77,2.64Zm-130.78-35.6h61.97c-1.49-2.05-3.38-3.23-4.93-4.76-7.2-7.13-14.33-14.32-21.5-21.47q-4.11-4.1-8.23-.15c-.14.13-.23.31-.37.45-8.86,8.53-17.71,17.06-26.94,25.94Z"/>
  <path class="cls-2" d="m501.6,67.59c-7.03,7.32-13.46,13.98-19.83,20.69-.8.84-1.66.83-2.64.83-41.42,0-82.83-.02-124.25.03-1.95,0-2.42-.56-2.41-2.46.06-27.99.07-55.97,0-83.96,0-2.12.69-2.58,2.64-2.55,6.71.1,13.42.16,20.12-.02,2.35-.06,2.64.81,2.64,2.84-.07,20.5.02,41.01-.12,61.51-.02,2.67.73,3.14,3.21,3.13,38.79-.08,77.58-.06,116.37-.06h4.27Z"/>
  <path class="cls-1" d="m254.47.15c18.37,0,36.74-.14,55.11.05,12.54.13,20.44,6.29,25.04,16.01,1.16,2.45,1.63,5.14,1.62,7.92-.05,12.82-.06,25.65.04,38.47.02,2.1-.41,2.89-2.68,2.83-5.54-.16-11.08-.19-16.62.01-2.32.09-2.97-.54-2.95-2.83.11-10.2.04-20.4.04-30.6,0-8.03-3.38-11.42-11.53-11.44-12.64-.03-25.27,0-37.91-.01-21.97,0-43.93-.06-65.9.03-2.57.01-3.29-.68-3.17-3.24.23-4.75.21-9.52,0-14.27-.1-2.36.7-2.94,2.91-2.94,18.66.06,37.32.04,55.98.04h0Z"/>
  <path class="cls-1" d="m254.2,88.9c-17.6,0-35.19-.06-52.79.02-9.42.04-17.14-3.38-22.93-10.8-3.09-3.96-4.27-8.7-4.31-13.64-.1-12.63,0-25.26-.11-37.89-.02-2.39.85-2.96,3.05-2.9,4.76.13,9.53.04,14.29.05,4.33,0,5.07.84,4.73,5.15-.77,9.88-.29,19.78-.27,29.67,0,5.44,4.03,9.37,9.45,9.98.96.11,1.94.13,2.91.13,34.22,0,68.44.03,102.66-.07,2.65,0,3.55.67,3.43,3.37-.2,4.66-.15,9.33-.01,13.99.06,2.23-.59,3.03-2.94,3.02-19.05-.09-38.11-.05-57.16-.05v-.02Z"/>
</svg>