<svg viewBox="0 0 877.55 736.8" xmlns="http://www.w3.org/2000/svg"><path d="m866.84 333.91a365.85 365.85 0 0 0 -65.9-178.1l-41.1 3a30.77 30.77 0 0 1 -32.9-28.4v-.7a30.74 30.74 0 0 1 23-32 367.37 367.37 0 0 0 -276.94-96.71c-148 10.9-269.1 107.8-318 238.2l53-3.9a30.77 30.77 0 0 1 32.9 28.4v.7a30.77 30.77 0 0 1 -28.4 32.9l-75 5.5a369.08 369.08 0 0 0 115.6 338.9l75.4-5.6a30.77 30.77 0 0 1 32.9 28.4v.7a30.61 30.61 0 0 1 -26.3 32.6 367.74 367.74 0 0 0 192 38c143.3-10.6 261.5-101.8 313.2-226l-54.3 4a30.77 30.77 0 0 1 -32.9-28.4v-.7a30.77 30.77 0 0 1 28.4-32.9l78.8-5.8a371.47 371.47 0 0 0 8.2-74.2c-.06.11-.86-30.49-1.66-37.89z" fill="#e0f7fb"/><path d="m856.44 378.61v1.3h3.7z" fill="#f9e8e2"/><path d="m860.94 377.31-.7 2.5h.6a21.75 21.75 0 0 1 .1-2.5z" fill="#f9e8e2"/><path d="m712.84 365.91a12.79 12.79 0 0 1 -4.7 17.6l-270.8 157.6a12.79 12.79 0 0 1 -17.6-4.7l-113.74-195.3a12.79 12.79 0 0 1 4.7-17.6l270.8-157.6a12.79 12.79 0 0 1 17.6 4.7z" fill="#dbd2d6"/><path d="m685.64 364.21a11.23 11.23 0 0 1 -4 15.3l-234.64 136.49a11.23 11.23 0 0 1 -15.3-4l-98.5-169.2a11.23 11.23 0 0 1 4-15.3l234.54-136.5a11.23 11.23 0 0 1 15.3 4z" fill="#beb9bc"/><path d="m643.64 361.71a8.39 8.39 0 0 1 -3.1 11.6l-178.6 104a8.39 8.39 0 0 1 -11.6-3.1l-75-128.9a8.39 8.39 0 0 1 3.1-11.6l178.6-104a8.39 8.39 0 0 1 11.6 3.1z" fill="#9e9c9c"/><path d="m252.14 377.21s75.5 182.5 79 190 12.2 19.8 6.3 23.1c0 0-127.8 70.4-138.3 74.9s-17.6 13.7-36.3-13-148.1-288-158.7-307 2.7-20.3 2.7-20.3 170.3 16.8 198.4 20.3 36.4 16 46.9 32z" fill="#dbd2d6"/><path d="m314.14 584.81s-83.4 48.1-108.5 51.4c-15.5 2.1-31.8-9.9-41.9-19.3-19.3-38.7-91.2-182.8-103.7-210.1-14.5-31.6 7-41.4 7-41.4s88.7 5.7 127.4 8.7c22.9 1.8 38.4 9.6 47.2 15.7 0 0 68.1 177.9 71.3 184.4s4 9.1 1.2 10.6z" fill="#543a32"/><path d="m261.14 587.21-73.2 35.7a8.42 8.42 0 0 1 -5.9.4c-13.6-5.6-26.2-33-26.2-33l-67.3-128.2s-17.7-40.5-26-58.2 3-20.4 10.3-20.4 58.7 1.7 58.7 1.7l54 1.4 36.8 61.7s41.8 101.6 45.8 110.9 8 20.7-7 28z" fill="#3f2b24"/><path d="m132.94 411.91-10.1 4.5s-15 8.7 0 43.9 36.3 52.4 36.3 52.4-11 7.2-2.8 30.7 21.2 48.2 41.2 46.8l33.2-15.8s6.5-10.8 1.8-25.5-21.8-53.4-21.8-53.4z" fill="#3d2618"/><path d="m195.94 591.81c-16 0-29.8-16.1-40.9-47.8-6.8-19.2-1-28.2 1.9-31.2-4.9-4.5-22.6-21.7-35.4-51.8-15.3-36 0-45.4.6-45.8l.1-.1 11.1-5 78.8 84.6.1.2c.2.4 17.1 38.9 21.8 53.6 4.9 15.2-1.7 26.3-1.9 26.7l-.2.4-33.94 16.1h-.3a10.87 10.87 0 0 1 -1.76.1zm-72.4-174c-.8.6-13.1 9.6.7 42 14.7 34.5 35.7 51.7 35.9 51.8l1.6 1.3-1.74 1.09c-.4.3-9.9 7-2.2 29 10.7 30.4 23.5 45.8 38.1 45.8h1.3l32.5-15.4a32 32 0 0 0 1.4-23.9c-4.5-13.9-20.2-49.8-21.6-53.1l-77-82.7z" fill="#917f79"/><path d="m194.54 579.81 30.7-14.8s5.8-10.3 1.2-21-10.9-28.2-24.8-24.3-29.7 9-29.7 9-10.8 13-1.3 32.8 23.9 18.3 23.9 18.3z" fill="#917f79"/><path d="m194.64 546.81c5.8 11 5.9 22.4.3 25.4s-14.9-3.6-20.7-14.6-5.9-22.4-.3-25.4 14.9 3.5 20.7 14.6z" fill="#352116"/><path d="m220.24 536.91c4.8 9.1 4.3 18.8-1.1 21.7s-13.7-2.3-18.4-11.4-4.3-18.8 1.1-21.7 13.6 2.2 18.4 11.4z" fill="#352116"/><path d="m296.74 472.21s-13.6 17 1.5 39.3 39.9-6.4 39.9-6.4-13.3 16.7 8.7 25.8 36-11.6 36-11.6c0 7.5 1.2 15.8 16.4 19.8s33.1-15.9 45.6-20.1 25.8-14.2 38.8-23.5 47.5-46.8 65.5-52.1 53.4-19.5 69.1-22.8 124.9-58.1 156.4-70.5 97.7-38.1 97.7-38.1l-16.1-120.7-241.6 116.2s-73.4 14.4-112.4 24.9-52-1.8-86.3-3-40 .5-45.4 5.2-12.7 10.3-41.6 21.5-15.2 27.3-20.3 45.6-25.5 44.2 11.5 37.4 38.8-48.9 38.8-48.9l3.7 9.8-20.5 35.6-44.8 14.8-60.1 34.8s-27.3 11.9-21.8 20.9l20.4-14.5s45.3-30 53.7-29.6c8.2.6 17.8-3.2 7.2 10.2z" fill="#e8bbb3"/><path d="m440.84 406.91-10.8-5.4-19.5-2.6-45.4-2.7-101-18.6s-41.4-5.6-67 0-62.7 26.8-63.7 29.2-2.3 37.1 11.3 61.3 42.3 51.5 62 43.1 51-30.3 51-30.3 17.6-29.9 105.8 8.1l52 6.6 14.4-52.8z" fill="#e7e7e8"/><path d="m309.74 383.91s-43-11.4-47.6-5-3.7 13.3 6 19.7 36.7 15 36.7 15 70.2 25.4 80.5 14.7 25.2-29.3 25.2-29.3z" fill="#917f79"/><path d="m359.24 391.31s43.7-22.3 52.5-41.7c0 0 .6 16-40.6 43.5l-11-1.6" fill="#b78a84"/><path d="m451.14 411.91s29.6-9.2 37-34.9c0 0-5.2 25.6-22.5 34.9 0 0 8.8 9.2 30.2 7.8 0 0-17.8 6.3-32.8.1z" fill="#b78a84"/><path d="m539.24 448.31s-10.5-47.4-34.2-64.4c0 0 26.5 10.3 37.9 62.1z" fill="#b78a84"/><path d="m855.64 190.21-241.2 117s-73.3 14.7-112.3 25.3a128.21 128.21 0 0 1 -17.6 3.6c28.1 19.7 92.8 56.8 109.6 39 18-19.1 99-56.9 182-88.9 43.7-16.8 67.1-55.3 79.6-87.9v-8.1z" fill="#deafa5"/><path d="m385.54 461.51s-87.2-19.8-100.9-22.1-35-18.2-42.8 15.3c-4.7 20.4 3.4 27.4 10.5 29.8 3.3-2.3 5.4-3.7 5.4-3.7s17.6-29.9 105.8 8.1l12.4 1.6z" fill="#917f79"/><path d="m230.54 478.41c.9-2.3-.6-5.3-3.7-7.4-3-.1-5.5 1-6.3 3-.9 2.3.6 5.3 3.7 7.4 3.1 0 5.5-1 6.3-3z" fill="#6f7781"/><path d="m191.24 389.21c1.9 2 .8 6.1-2.3 9.2s-7.3 4.1-9.2 2.1-.8-6.1 2.3-9.2 7.3-4 9.2-2.1z" fill="#8b91a1"/><path d="m192.94 437.11a5.47 5.47 0 0 1 -2.9 7.2l-34.8 14.9a5.49 5.49 0 0 1 -4.3-10.1l34.8-14.9a5.47 5.47 0 0 1 7.2 2.9z" fill="none" stroke="#6f7781" stroke-miterlimit="10"/><path d="m409.44 424.41a5.5 5.5 0 1 0 -5.5-5.5 5.5 5.5 0 0 0 5.5 5.5z" fill="#8b91a1"/><path d="m320.24 439.21c33.8-6.3 38.3-41.8 38.8-48l-49.3-7.6c.2 5.7.7 11.8-1.1 18.2-5 18.3-25.5 44.19 11.6 37.4z" fill="#e8bbb3"/><path d="m311.24 403.61s13.7-5.2 15.3 1-6.3 24.7-23.2 27c0 0-2.5 1.4-1.2-2.8s8.6-20.7 9.1-25.2z" fill="#f7e7e4"/><path d="m172 552.81a39.58 39.58 0 0 0 2.1 4.7 37.91 37.91 0 0 0 2 3.4 2.51 2.51 0 0 0 .7-.4 4.54 4.54 0 0 0 -4.8-7.7z" fill="#5d5a67"/><path d="m201.74 542.81a3.09 3.09 0 0 0 -2.4 1.3c.4 1 .9 2.1 1.4 3.1a30.44 30.44 0 0 0 2.5 4 4.64 4.64 0 0 0 1.9-3.9c.1-2.5-1.5-4.5-3.4-4.5z" fill="#5d5a67"/><path d="m865 345.61c-53 .7-103.1 23.4-153.9 48.7-10.8 5.4-21.8 11.2-32.3 16.8-37.5 19.8-76.2 40.4-118.2 46.3-20.7 2.9-37.3 2.8-50.7-.4a12.52 12.52 0 0 0 -6 24.3c9.3 2.3 19 2.7 28 2.9h3.7c20.8 0 42.7-3.4 65-10.1 24.8-7.4 47.8-19.4 70.1-31 2.8-1.4 5.5-2.9 8.3-4.3l4.3-2.2c23.2-12 47.1-24.4 71.2-35.3 32.8-14.9 71.7-30.1 110.7-30.6a12.38 12.38 0 0 0 12.3-12.7 12.17 12.17 0 0 0 -12.5-12.4z" fill="#6c5b58"/><path d="m421.44 457.91s14.4-53 19.4-51 32.4 17.7 38.7 20.7 22.2 10.1 27.1 13.5l-7.2 49.9s-66.1 8.2-74 9.4-4-42.5-4-42.5z" fill="#988585"/><g fill="#6c5b58"><path d="m489.24 436.21s-10.6 17.4-10 57.3c3-.4 5.9-.7 8.4-1.1-.7-9.2-1.1-30.6 8-52.4z"/><path d="m480.54 428.11c-9.5 10.1-10.4 26.4-10.4 26.4l7.1 1.1c.2-9.6 5.5-19.1 9.3-24.7-2.3-1.1-4.4-2-6-2.8z"/><path d="m462.94 461.91c2.2-14.6 10.5-33.9 10.5-33.9l-5.8-3.6s-6.8 6.1-11.8 35.1c-3 17.4-2.4 29.9-1.4 37.1 2.6-.3 5.2-.7 7.8-1a147.57 147.57 0 0 1 .7-33.7z"/><path d="m429.94 457.61s8-36.7 18-44.9l5.7 3.4s-14.5 22.1-15.7 53.4z"/><path d="m474.24 472.31h-6.6c-1.5 5.4-1.4 14.4-.7 22.7q3.75-.45 7.2-.9a183 183 0 0 1 .1-21.8z"/><path d="m464.94 419.81-6-3.3a119.88 119.88 0 0 0 -13.4 35.1l6.5 2c-.1 0 2.6-20.5 12.9-33.8z"/><path d="m449.14 467.31h-6.6c-2.1 7.2-1 21.1.1 30.8 2.3-.3 4.8-.6 7.3-.9-2-12.3-.8-29.9-.8-29.9z"/><path d="m508.34 467.11c-1.8 13.9-5.4 24.9-8 24.5s-3.1-11.9-1.3-25.8 5.4-24.9 8-24.5 3.2 11.9 1.3 25.8z"/></g><path d="m341.74 484.91-4 5.2-9.8 14.8 6.4-4.2c-.1 4.3-4.8 11-8.6 15.8a59 59 0 0 0 12.9-10.8c3.9-10.2 10.5-22.8 10.5-22.8z" fill="#b78a84"/><path d="m338.64 505.71a1.73 1.73 0 0 1 -.3.4z" fill="#875946"/><path d="m338.64 450.21c-17.3-10.2-42.4 23.3-42.4 23.3.6-.3-1 1.9-1 1.9s-11.6 14.5 3.5 36.8c10.7 15.7 26.2 5.9 34.4-1.1l3.3-12.7 5.9-13.7c6.5-11.5 13.6-24.3-3.7-34.5z" fill="#deafa5"/><path d="m320.54 454.71s17.7 2.3 21.7 15.6c0 0-12.8 22.2-25.1 13.2-10.3-7.4 3.4-28.8 3.4-28.8z" fill="#f7e7e4"/><path d="m429.84 452c-10.5-4.8-21.7 10.9-21.7 10.9l-30.6 36.6-4.2 19.2 3.5 7.9a37.35 37.35 0 0 0 6.5-6.9c0 7.5 1.2 15.8 16.5 19.8 6.7 1.8 13.9-1.1 20.9-5.3 5.7-12.8 7.6-28.2 15.1-43.7 9.3-19.29 4.5-33.79-6-38.5z" fill="#deafa5"/><path d="m409.44 457.91c1-9.8-16.3-17.8-24.8-18.5s-27.8 33.5-32.5 38.8c-4.5 5.1-13 26-13.8 27.8l.3-.3s-13.2 16.8 8.8 25.8 36-11.8 36-11.8v.9c1.9-5.2 7.1-19.9 8.4-25.3 1.3-5.2 16.6-27.6 17.6-37.4z" fill="#deafa5"/><path d="m406 468.11c-24.6 27.8-28.9 58.2-28.9 58.3a38 38 0 0 0 6.2-6.6v.9l9.1-27z" fill="#b78a84"/><path d="m379.84 447.61s13.2 3.5 19.9 12.5c0 0-8 17.5-20.6 11.9s.7-24.4.7-24.4z" fill="#f7e7e4"/><path d="m417.84 457.61s10.3-.5 16.5 8.5c0 0-4.5 16.6-17.1 12.5s.6-21 .6-21z" fill="#f7e7e4"/><path d="m132.94 418.41-8.8 4.5s1 62.8 55.3 91.2l5.7-5.1s-13.2-6.1-26.8-22.1c-12.34-14.2-25.1-36.5-25.4-68.5z" fill="#917f79"/><path d="m227.44 500.41a44.35 44.35 0 0 0 34.7-8.2c16.8-12.6 26-16.4 31.5-14.7l5.2-7.4s-19.8-1.5-30 2.8c-10 4.3-41.4 27.5-41.4 27.5z" fill="#d3a398"/><path d="m384.64 130.41a20.2 20.2 0 1 1 -20.2-20.2 20.21 20.21 0 0 1 20.2 20.2z" fill="#4dcfe6"/><path d="m519.94 620.11a11.8 11.8 0 1 1 -11.8-11.8 11.82 11.82 0 0 1 11.8 11.8z" fill="#4dcfe6"/><path d="m690.94 174.21a9.3 9.3 0 1 1 -9.3-9.3 9.35 9.35 0 0 1 9.3 9.3z" fill="#4dcfe6"/></svg>