<svg viewBox="0 0 40.02 39.97" xmlns="http://www.w3.org/2000/svg"><g transform="translate(.01)"><path d="m14.54 24.29a2 2 0 0 0 -2.83.11l-7.07 7.6a3.59 3.59 0 0 0 -.64 0 4 4 0 1 0 3.74 2.61l6.91-7.46a2 2 0 0 0 -.11-2.86z" fill="#00bada"/><path d="m27.29 15.16h-4.23c.2-1.12.41-2.23.61-3.34l.75-4.05a.46.46 0 0 0 -.83-.35l-1.59 2.29-3.33 4.66-2 2.83-.64.89-.34.48a.46.46 0 0 0 .39.68h4.23c-.2 1.11-.41 2.22-.61 3.34l-.75 4.05a.46.46 0 0 0 .83.35l1.63-2.3 3.28-4.69 2-2.82.64-.9.34-.47a.46.46 0 0 0 -.38-.65z" fill="#8fc03f"/><g fill="#00bada"><path d="m24.51 32.53v-2.21a2 2 0 0 0 -4 0v2.21a4 4 0 1 0 4 0z"/><path d="m13.55 11.65-5.55-2.96a4 4 0 1 0 -1.9 3.54l5.58 3a2 2 0 0 0 1.87-3.54z"/><path d="m36 0a4 4 0 0 0 -4 4 3.89 3.89 0 0 0 .16 1l-2.4 2.4a2 2 0 0 0 2.83 2.83l2.41-2.38a3.8 3.8 0 0 0 1 .15 4 4 0 0 0 0-8z"/><path d="m36 20.32a3.93 3.93 0 0 0 -1.84.47l-2.36-1.79a2 2 0 0 0 -2.38 3.21l2.58 1.97v.14a4 4 0 1 0 4-4z"/></g></g></svg>