<svg enable-background="new 0 0 951.5 313.7" viewBox="0 0 951.5 313.7" xmlns="http://www.w3.org/2000/svg"><g fill="#442563"><path d="m702.9 105.3c-.2-3.2-3-5.8-6.3-5.8l-63-.1c-2.7 0-4.9 2.2-4.9 4.9l-.1 21.4c0 1.3.5 2.6 1.5 3.5.9.9 2.2 1.5 3.5 1.5h30.7c-2.8 10.1-11.7 22.8-35.2 22.8-22.9 0-38.9-17.4-38.9-42.3 0-24.3 17.1-41.9 40.7-41.9 16 0 23.9 3.7 34.4 11.3 3.1 2.2 5.8 2.3 8.1.2l16.8-16.8c2.5-2.5 2.5-5.6.1-8.2-6.1-6.4-25.1-22.1-59.9-22.1-45.3 0-78.2 32.6-78.2 77.6 0 22.8 8.3 43 23.4 57 14 13 34 20.5 54.8 20.5 40 0 72.8-32.3 72.8-76.7-.1-2.3-.2-4.6-.3-6.8"/><path d="m424.8 111.2c0 24.6-14.1 39-38.6 39h-25.2v-78h25.2c24.5 0 38.6 14.3 38.6 39m-38.3-74h-57.6c-2.6 0-4.7 2.1-4.7 4.6l-.1 138.6c0 1.2.5 2.4 1.4 3.3s2 1.4 3.3 1.4h57.7c45.7 0 76.4-29.9 76.4-74 0-44-30.7-73.9-76.4-73.9"/><path d="m219 33.7c-45.6 0-73.9 29.3-73.9 76.6l-.1 70.2c0 2.6 2.1 4.6 4.6 4.7h27.5c2.6 0 4.7-2.1 4.7-4.7v-70.2c0-25.7 13.6-40.4 37.2-40.4s37.2 14.7 37.2 40.4l-.1 70.2c0 1.2.5 2.4 1.4 3.3s2 1.4 3.3 1.4h27.5c2.6 0 4.6-2.1 4.6-4.6v-70.2c0-47.4-28.3-76.7-73.9-76.7"/><path d="m521.4 185.1h-27.1c-2.7 0-5-2.2-5-5v-138c0-2.7 2.2-5 5-5h27.1c2.7 0 5 2.2 5 5v138c-.1 2.8-2.3 5-5 5"/><path d="m108.1 185.1h-27.2c-2.7 0-5-2.2-5-5v-138c0-2.7 2.2-5 5-5h27.1c2.7 0 5 2.2 5 5v138c0 2.8-2.2 5-4.9 5"/></g><path d="m802.3 155.9c-22.7 0-41-19.4-41-43.3s18.4-43.3 41-43.3c22.7 0 41 19.4 41 43.3s-18.3 43.3-41 43.3m0-122.2c-43.9 0-77 33.7-77 76.6 0 39 27.3 63 74.3 97.5 1.6 1.2 3.9 1.2 5.5.1 42.8-29.9 74.3-58.5 74.3-97.6 0-43.1-33.2-76.6-77.1-76.6" fill="#b31c82"/><path d="m686.7 254.9c0 4.3-5.2 6.4-9.6 6.4h-9.3v-14.2h9.3c4.4 0 9.6 2.1 9.6 6.4zm-9.6-15.5h-12.9c-2.4 0-4.3 1.9-4.3 4.3v37.8c0 2.8 8 2.8 8 0v-12.5h9.3c8.6 0 17.5-5.1 17.5-14v-1.6c0-8.9-9-14-17.6-14m-145.2 44.5c8.6 0 18.9-7.9 18.9-16.5v-25.5c0-3.5-8-3.5-8 0v25.2c0 4.8-5.9 9.1-10.9 9.1s-10.9-4.3-10.9-9.1v-25.2c0-3.5-8-3.5-8 0v25.5c0 8.5 10.3 16.5 18.9 16.5m-146.3-7.5c-5 0-10.6-4.2-10.6-9v-12.1c0-4.8 5.7-9 10.6-9s10.6 4.2 10.6 9v12.1c-.1 4.9-5.7 9-10.6 9m0 7.8c8.6 0 18.6-6.7 18.6-16.4v-12.7c0-9.8-10-16.4-18.6-16.4s-18.6 6.7-18.6 16.4v12.7c0 9.7 9.9 16.4 18.6 16.4m-133.1-31.5c0 1.5-.9 2.5-3 3.8-2.1 1.4-3 1.8-5.1 1.8h-12.2v-11.1h12c4.5 0 8.3 1.5 8.3 4.8zm8 .6v-1.5c0-8.9-8.2-12.4-16.3-12.4h-15.6c-2.4 0-4.3 1.9-4.3 4.3v37.8c0 2.8 8 2.7 8 0v-15.9h10.7l9.7 17.4c1.6 2.8 8.7-1.1 6.7-4.4l-8.4-14.5c.9-.4 1.8-1.1 2.8-1.7 5-3.4 6.7-6.1 6.7-9.1m-161.7 30.9c5.3 0 13.3-4.5 16.5-6.9v-14.4c0-2.8-2.6-4.7-4.8-4.7h-10.5c-3.5 0-3.5 7.7 0 7.7h7.3v7.7c-2.8 1.5-6 2.9-8.6 2.9-5 0-10.6-4.2-10.6-9v-12.1c0-4.8 5.2-9 10.1-9 3.3 0 6.4 1.6 8.6 3.6 1.9 1.8 3.8 1.9 5.5.1 1.8-1.8 1.5-3.7-.7-5.9-3-3-8.3-5.6-13.4-5.6-8.6 0-18.1 6.7-18.1 16.4v12.7c0 9.8 10 16.5 18.7 16.5" fill="#442563"/></svg>