<?xml version="1.0" encoding="utf-8"?>
<!-- Generator: Adobe Illustrator 26.0.2, SVG Export Plug-In . SVG Version: 6.00 Build 0)  -->
<svg version="1.1" id="Calque_1" xmlns="http://www.w3.org/2000/svg" xmlns:xlink="http://www.w3.org/1999/xlink" x="0px" y="0px"
	 viewBox="0 0 544.24 97.25" style="enable-background:new 0 0 544.24 97.25;" xml:space="preserve">
<style type="text/css">
	.st0{fill:#FFFFFF;}
	.st1{fill:#FF460A;}
	.st2{fill:#BEAF96;}
	.st3{fill:#000032;}
</style>
<g>
	<path class="st3" d="M533.34,44.91v10.67c0,2.85-0.95,5.19-2.9,7.14c-1.95,1.96-4.29,2.91-7.14,2.91h-46.2
		c-2.85,0-5.19-0.95-7.14-2.91c-1.95-1.95-2.91-4.29-2.91-7.14V44.91h-10.9v10.67c0,5.78,2.06,10.76,6.12,14.82
		c4.06,4.06,9.05,6.12,14.82,6.12h17.72v20.72h10.9V76.53h17.58c5.78,0,10.76-2.06,14.82-6.12c4.06-4.06,6.12-9.05,6.12-14.82V44.91
		H533.34z"/>
	<g>
		<path class="st3" d="M67.15,44.91h-46.2c-5.77,0-10.76,2.04-14.82,6.05C2.06,54.98,0,59.94,0,65.72v10.59
			c0,5.78,2.06,10.76,6.12,14.82c4.06,4.06,9.05,6.12,14.82,6.12H88.1v-10.9H20.95c-2.85,0-5.19-0.95-7.14-2.91
			c-1.9-1.9-2.85-4.16-2.9-6.91H88.1V65.72c0-5.68-2.06-10.62-6.12-14.68C77.91,46.97,72.92,44.91,67.15,44.91z M20.95,55.81h46.2
			c2.85,0,5.18,0.95,7.14,2.91c1.93,1.94,2.89,4.2,2.9,6.92H10.9c0.02-2.72,0.97-4.98,2.91-6.91C15.76,56.76,18.1,55.81,20.95,55.81
			z"/>
		<path class="st3" d="M163.55,44.91h-46.2c-5.77,0-10.76,2.06-14.82,6.12c-4.06,4.06-6.12,9-6.12,14.68v31.54h10.9V65.72
			c0-2.75,0.95-5.04,2.91-7c1.95-1.95,4.29-2.91,7.14-2.91h46.2c2.85,0,5.18,0.95,7.14,2.91c1.95,1.96,2.91,4.25,2.91,7v31.54h10.9
			V65.72c0-5.68-2.06-10.62-6.12-14.68C174.31,46.97,169.32,44.91,163.55,44.91z"/>
		<path class="st3" d="M259.92,44.91h-46.2c-5.77,0-10.76,2.04-14.82,6.05c-4.06,4.02-6.13,8.98-6.13,14.76v10.59
			c0,5.78,2.06,10.76,6.12,14.82c4.06,4.06,9.05,6.12,14.82,6.12h67.15v-10.9h-67.15c-2.85,0-5.19-0.95-7.14-2.91
			c-1.9-1.9-2.85-4.16-2.9-6.91h77.19V65.72c0-5.68-2.06-10.62-6.12-14.68C270.68,46.97,265.7,44.91,259.92,44.91z M213.72,55.81
			h46.2c2.85,0,5.18,0.95,7.14,2.91c1.93,1.94,2.89,4.2,2.9,6.92h-66.29c0.02-2.72,0.97-4.98,2.91-6.91
			C208.54,56.76,210.87,55.81,213.72,55.81z"/>
		<path class="st3" d="M296.66,51.03c-4.06,4.06-6.12,9-6.12,14.68v31.54h10.9V65.72c0-2.75,0.95-5.04,2.91-7
			c1.95-1.95,4.29-2.91,7.14-2.91h43.98v-10.9h-43.98C305.71,44.91,300.72,46.97,296.66,51.03z"/>
		<path class="st3" d="M365.88,50.96c-4.06,4.02-6.13,8.98-6.13,14.76v10.59c0,5.78,2.06,10.76,6.12,14.82
			c4.06,4.06,9.05,6.12,14.82,6.12h67.15V65.63h-49.43v10.9h38.53v9.82H380.7c-2.85,0-5.19-0.95-7.14-2.91
			c-1.95-1.95-2.91-4.29-2.91-7.14V65.72c0-2.75,0.95-5.04,2.91-7c1.95-1.95,4.29-2.91,7.14-2.91h67.15v-10.9H380.7
			C374.92,44.91,369.94,46.95,365.88,50.96z"/>
		<g>
			<g>
				<polygon class="st3" points="64.86,0 46.15,36.61 57.07,36.61 75.78,0 				"/>
				<path class="st3" d="M221.12,5.11c-2.05-3.24-5.5-5.1-9.46-5.1h-15.42l-18.75,36.6h16.16c14.58,0,21.34-4.36,27.8-17.95
					C223.67,14.01,223.54,8.94,221.12,5.11z M207.91,8.81c1.62,0,3.76,0.33,4.72,1.91c0.95,1.56,0.56,4.08-1.11,7.28
					c-2.82,5.38-9.14,9.76-14.1,9.76l-4.45-0.01l9.74-18.94H207.91z"/>
				<path class="st3" d="M177.05,21.39c2.36-0.65,5.89-2.69,8.36-8.87c1.26-3.17,1.07-6.47-0.52-8.82c-1.14-1.69-3.57-3.7-8.63-3.7
					H156.7l-18.69,36.61h10.92l6.12-11.97h11.14c0.5,0,1.14,0.08,1.36,0.45c0.14,0.23,0.36,0.99-0.64,3.01l-4.64,8.51h10.95
					l4.26-7.81l0.02-0.04C179.45,24.58,178.47,22.58,177.05,21.39z M168.73,16.11c-0.24,0-1.48,0-3.07,0c-1.95,0-4.42,0-6.26,0
					l3.73-7.31l9.77-0.02c1.49,0,2.49,0.3,2.82,0.84c0.38,0.62,0,1.65-0.39,2.4C173.53,15.57,169.85,16.05,168.73,16.11z"/>
				<path class="st3" d="M135.23,0c-10.65,0-16.65,3.33-21.39,11.91l-12.72,24.7l10.93,0l5.98-11.97h11.3l-6.14,11.97l10.92,0
					L152.8,0H135.23z M123.51,13.89c1.19-2.46,3.94-5.11,7.2-5.11l6.68,0.01l-3.73,7.32h-11.28L123.51,13.89z"/>
				<polygon class="st3" points="272.95,0 262.29,21.57 260.36,0 249.96,0 231.27,36.61 241.5,36.61 252.51,14.16 254.14,36.61 
					264.48,36.61 283.17,0 				"/>
				<polygon class="st3" points="235.11,0 216.43,36.61 227.35,36.61 246.04,0 				"/>
				<path class="st3" d="M30.75,13.78l-4.33,8.41h11.93l-2.87,5.63l-17.26-0.04c-3.5,0-6.02-1.01-7.09-2.85
					c-1.09-1.88-0.72-4.55,1.09-7.73C16.51,9.67,23.69,8.8,28.71,8.8l27.5-0.02L60.71,0L32.47,0C16.04,0,7.58,4.64,2.29,16.55
					c-2.22,4.99-2.02,9.92,0.55,13.88c2.48,3.81,6.93,6.18,11.62,6.18h27.5l11.65-22.82H30.75z"/>
			</g>
			<path class="st3" d="M101.19,28.76c1.96-4.18,0.98-6.18-0.44-7.37c2.36-0.65,5.89-2.69,8.36-8.87c1.26-3.17,1.07-6.47-0.52-8.82
				c-1.14-1.69-3.57-3.7-8.63-3.7H80.4L61.71,36.61h10.92l6.12-11.97l10.64-0.02c0.59,0,1.36,0.11,1.68,0.63
				c0.34,0.56,0.18,1.58-0.46,2.85l-4.65,8.51l10.95,0l4.26-7.81L101.19,28.76z M92.68,16.11c-0.24,0-1.51,0-3.15,0
				c-2,0-4.54,0-6.43,0l3.73-7.31l9.77-0.02c1.49,0,2.49,0.3,2.82,0.84c0.38,0.62,0,1.65-0.39,2.4
				C97.27,15.49,94.01,16.04,92.68,16.11z"/>
		</g>
	</g>
</g>
</svg>
