<?xml version="1.0" encoding="UTF-8"?>
<svg id="Layer_2" data-name="Layer 2" xmlns="http://www.w3.org/2000/svg" xmlns:xlink="http://www.w3.org/1999/xlink" viewBox="0 0 3467.67 850.3">
  <defs>
    <style>
      .cls-1 {
        clip-path: url(#clippath);
      }

      .cls-2 {
        fill: none;
      }

      .cls-2, .cls-3 {
        stroke-width: 0px;
      }

      .cls-4 {
        clip-path: url(#clippath-1);
      }

      .cls-3 {
        fill: #ed1b2f;
      }
    </style>
    <clipPath id="clippath">
      <rect class="cls-2" width="3467.67" height="850.3"/>
    </clipPath>
    <clipPath id="clippath-1">
      <rect class="cls-2" width="3467.67" height="850.3"/>
    </clipPath>
  </defs>
  <g id="Layer_1-2" data-name="Layer 1">
    <g id="Artwork_28" data-name="Artwork 28">
      <g class="cls-1">
        <g class="cls-4">
          <path class="cls-3" d="m0,0h787.29c201.16,0,254.92,100,254.92,252.6v53.76c0,113.87-26.01,180.93-145.67,209.25v2.31c77.46,13.87,142.2,47.98,142.2,187.86v144.51h-260.7v-102.31c0-89.02-26.01-118.5-106.94-118.5h-410.41v220.81H0V0Zm260.7,417.92h431.22c70.52,0,96.53-28.32,96.53-89.02v-28.32c0-75.15-37.57-89.02-119.65-89.02h-408.1v206.36M2286.16,0h750.88c208.1,0,309.25,56.07,309.25,223.12,0,145.67-53.18,173.99-126.01,194.8v3.47c113.87,13.87,156.07,75.15,156.07,203.47,0,186.71-110.41,225.44-259.54,225.44h-830.65V0m260.7,337h461.86c47.98,0,76.3-17.34,76.3-65.9s-28.32-67.05-76.3-67.05h-461.86v132.95Zm0,309.25h467.64c56.65,0,94.22-12.72,94.22-62.43,0-57.8-37.57-70.52-94.22-70.52h-467.64v132.95"/>
          <path class="cls-3" d="m1490.77,0h339.31l467.64,850.3h-290.18l-80.93-150.29h-528.91l-76.3,150.29h-291.33L1490.77,0Zm4.62,516.77h333.53l-169.37-319.66-164.16,319.66M3418.54,19.08c27.75,0,49.13,22.54,49.13,50.29s-21.97,50.29-49.71,50.29-49.71-21.97-49.71-50.29c.58-27.75,22.54-50.29,50.29-50.29m0,7.51c-21.97,0-40.46,19.08-40.46,42.78s17.92,42.78,40.46,42.78,40.46-18.5,40.46-42.2-17.92-43.35-40.46-43.35m-9.25,72.26h-9.25v-56.07c4.62-.58,9.25-1.16,15.61-1.16,8.67,0,13.87,1.73,17.34,4.05,3.47,2.31,5.2,6.36,5.2,11.56,0,7.51-4.62,12.14-10.98,13.87v.58c4.62,1.16,8.09,5.2,9.25,13.87s2.89,12.14,3.47,13.87h-9.25c-1.16-1.73-2.89-6.94-4.05-14.45-1.16-6.94-4.62-9.83-12.14-9.83h-6.36v23.7h1.16Zm0-31.21h6.36c7.51,0,13.87-2.89,13.87-9.83,0-5.2-3.47-9.83-13.87-9.83-2.89,0-5.2,0-6.36.58v19.08Z"/>
        </g>
      </g>
    </g>
  </g>
</svg>