<svg viewBox="0 0 915.75 915.75" xmlns="http://www.w3.org/2000/svg"><path d="m649.39 145.22 53.4 4.88 102.39 9.36-634.77-58.02-.01.01 478.98 43.77z" fill="none"/><path d="m764.06 117.41-532.06-57.95z" fill="none"/><path d="m770.77 123.59-560.92-50.71-.01.01z" fill="none"/><path d="m788.87 141.5-.01-.01-449.93-42.69z" fill="none"/><g transform="translate(-50.37 -32.36)"><path d="m602.49 384.6v11.64l5.18 10.88-3.54-1.82-2-3.08 2 3.08 3.54 1.82 1.14 19.08-1.84.44c.57 3 1.54 11.72-4.05 19-4.14 5.4-10.87 8.7-20 9.89a29.16 29.16 0 0 0 12 2.52c9.61 0 17.64-3.94 23.23-11.39a35.81 35.81 0 0 0 3.85-6.54c-1.6-15.88-3.16-31.81-4.46-46a28.23 28.23 0 0 0 -15.05-9.52z" fill="#43993b"/><path d="m594.86 463.06c-13.38 0-23.89-7.23-30.77-17.69a52.34 52.34 0 0 0 8.53 12.84 32.65 32.65 0 0 0 24.78 10.79c13.21 0 21.32-6.17 26.19-12.57q-.39-3.84-.79-7.73c-.23.34-.47.67-.71 1-6.56 8.73-15.98 13.36-27.23 13.36z" fill="#43993b"/><path d="m602.49 378.3v1.12a30.59 30.59 0 0 1 14.3 6.93c0-.48-.09-1-.13-1.42a34.09 34.09 0 0 0 -14.34-7.93 5.19 5.19 0 0 1 .17 1.3z" fill="#43993b"/><path d="m598.92 442.64c4.23-5.48 3.6-12.32 3.18-14.82l-2.15.52-1.95-19.77-2.47-2.91h-6.81a5.45 5.45 0 0 1 -5.45-5.45v-21.91a5.16 5.16 0 0 1 .15-1.25c-17.26 4.67-23.62 21.71-23.57 36.59 0 14.35 5.71 29 15.78 37.39 11.28-.15 19.11-2.96 23.29-8.39z" fill="#43993b"/><path d="m501.36 237.48c-.94 14.44-3 51.91-2.16 88 1.16 48.28 6.95 64.33 11.6 69.29a5.07 5.07 0 0 0 3.7 1.9c13.52 0 21.22-6.18 23.39-18.79-9.92-4-18-15.82-18.07-18.3-.13-3.68-1.07-29.07 0-43.68.76-10.42 6.74-13.13 10.11-13.83a12.52 12.52 0 0 1 8.88-3.43c14.41-.18 20 2.72 22.34 5l.28.05c8.18 1.71 10.88 4.79 11.73 7.53a8.65 8.65 0 0 1 .24.94c3.25-33.67 7.68-63.13 19.89-69.51l-11-6v-40.51l-36.18-3v1.4c-1.67.04-42.02 1.11-44.75 42.94z" fill="#43993b"/><path d="m903.22 520.58a1.8 1.8 0 0 0 -1.58 1.72l3-.21c.01-.63-.26-1.59-1.42-1.51z" fill="#43993b"/><path d="m897.36 521a1.81 1.81 0 0 0 -1.58 1.74l3-.22c.01-.66-.26-1.63-1.42-1.52z" fill="#43993b"/><path d="m902.34 532.39a.8.8 0 0 0 .73.86.82.82 0 0 0 .27 0 1.57 1.57 0 0 0 1.36-1 .85.85 0 0 0 .06-.31v-1c-1.14.06-2.42.39-2.42 1.45z" fill="#43993b"/><path d="m899.37 531.46c0-1.1-.6-2-1.69-1.89a1.81 1.81 0 0 0 -1.55 1.38 1.42 1.42 0 0 0 -.07.42v1a2.67 2.67 0 0 0 0 .4 1.42 1.42 0 0 0 1.55 1 2 2 0 0 0 1.73-2.24z" fill="#43993b"/><path d="m783.51 401.59 5.18 10.88 1.14 19.09-8.83 2.14-1.91-19.77-2.5-2.93h-6.8a5.45 5.45 0 0 1 -5.45-5.45v-21.87a5.4 5.4 0 0 1 .15-1.28c-17.27 4.67-23.63 21.72-23.58 36.6.06 21.83 13.16 44.42 35 44.42a29.64 29.64 0 0 0 12.86-2.78c1.08-20.11 2.48-41.78 3.68-60.55q.2-3 .38-5.9a27.88 27.88 0 0 0 -9.29-4.23z" fill="#43993b"/><path d="m783.51 383.66v1.12a30.34 30.34 0 0 1 9.66 3.62c0-.52.07-1 .1-1.55a33.24 33.24 0 0 0 -9.93-4.51 5.19 5.19 0 0 1 .17 1.32z" fill="#43993b"/><path d="m758.74 324.78c-1.52 16.52-2.35 24.51-4.18 27.82v12.07c0 8.48-1.42 10-4.34 12.48a2.11 2.11 0 0 1 -.22.14l-.14.1-.29.14-.21.09a1.33 1.33 0 0 1 -.21.09l-.14.05-.25.09-.33.1a22 22 0 0 1 -3 .65c-.09.07-4.1 3.34-11.65 3.81a233.23 233.23 0 0 0 1.07 27.59q.45 4.35 1.06 8.45c.16-21 12-42.11 38.13-42.26h.25a38.86 38.86 0 0 1 19.34 5c.84-13.43 1.46-24.13 1.54-29.11 0-2.55.16-5.91.3-9.8.88-24.24 2.71-74.68-9.84-87.7q-.42-.42-.84-.78v4h-4.37l-2.33-5.84c-12.94 3.04-17.09 48.17-19.35 72.82z" fill="#43993b"/><path d="m745.12 450.74a52 52 0 0 0 8.52 12.83 32.65 32.65 0 0 0 24.78 10.76 36.32 36.32 0 0 0 9.68-1.27c.11-2.26.23-4.54.34-6.85a35.42 35.42 0 0 1 -12.56 2.21c-13.38 0-23.88-7.23-30.76-17.68z" fill="#43993b"/><path d="m569 461.62c-6.61-7.1-11.2-16.6-14.39-26.81-1.42 19.29-4.14 50.71-7.8 68.08-4 18.94-6.13 65.6 12.81 89a36.88 36.88 0 0 0 22.9 13.51l27-2.47a32.31 32.31 0 0 0 12.48-8.56c14.38-16 11.21-45.69 9.32-63.44-.16-1.51-.31-3-.45-4.32-.47-4.72-1.36-13.15-2.48-23.86-1.2-11.38-2.64-25.05-4.14-39.56-6.95 7-16.21 10.78-26.89 10.78a37.48 37.48 0 0 1 -28.36-12.35z" fill="#43993b"/><path d="m750 467c-6.61-7.1-11.2-16.6-14.39-26.81-1.42 19.29-4.14 50.71-7.8 68.07l-2.5-.52 2.39.82c-.12.36-12.09 36 1.21 54 5.37 7.29 14.36 10.8 26.74 10.42 15.06-.46 25.43-4.85 30.85-13.06 9.37-14.23 1.09-35.67 1-35.88l-.12-.33v-.35c-.78-7.81-.39-24.74.54-45.09a41.44 41.44 0 0 1 -9.44 1.08 37.48 37.48 0 0 1 -28.48-12.35z" fill="#43993b"/><path d="m623.55 405.25c.65 6.88 1.34 14 2.05 21.22a50.46 50.46 0 0 0 .3-5.54 49.56 49.56 0 0 0 -2.35-15.68z" fill="#43993b"/><path d="m688.33 221.6a48.63 48.63 0 0 0 -6 21.24c-.94 14.44-3 51.91-2.16 88 1.16 48.28 6.95 64.33 11.6 69.29a5.07 5.07 0 0 0 3.7 1.9c13.52 0 21.21-6.18 23.39-18.79-9.92-4-18-15.82-18.07-18.3-.13-3.68-1.07-29.07 0-43.68.76-10.42 6.74-13.14 10.11-13.84a12.56 12.56 0 0 1 8.88-3.43c14.53-.19 20.12 2.77 22.4 5.1h.22c9.06 1.87 11.4 5.43 11.95 8.37 3.27-33.68 7.72-63.13 20-69.43l-11-6.07v-27.08l-18.78-2-15.89 10.31z" fill="#43993b"/><path d="m624.73 395.08c-.78-1.33-1.61-2.59-2.47-3.79 0 .39.07.79.1 1.19 5.65 7.86 8.54 18.18 8.54 28.45a51.93 51.93 0 0 1 -3.85 20c.28 2.79.56 5.56.84 8.33 7.41-15.87 6.25-38.02-3.16-54.18z" fill="#43993b"/><path d="m799.11 452c5-6.73 7.81-15.87 7.81-25.74 0-12.62-3.79-21.83-9.38-27.92 0 .67-.08 1.36-.13 2-1.13 17.67-2.43 37.92-3.49 57a29.38 29.38 0 0 0 5.19-5.34z" fill="#43993b"/><path d="m807.27 457.76c9.17-16 8.53-40.06-1.52-57.32a43.15 43.15 0 0 0 -7.71-9.81c0 .4 0 .8-.08 1.21 9.22 8 14 21.29 14 34.45 0 10.94-3.13 21.15-8.81 28.74a33.35 33.35 0 0 1 -9.53 8.69c-.14 2.52-.26 5-.39 7.46a32.56 32.56 0 0 0 14.04-13.42z" fill="#43993b"/><path d="m915.1 528a1.15 1.15 0 0 0 -.37 0 1.81 1.81 0 0 0 -1.58 1.7l3-.28a1.25 1.25 0 0 0 -1.05-1.42z" fill="#43993b"/><path d="m599.4 252.41-2.35-5.89c-12.91 3.13-17 48.23-19.31 72.86-1.52 16.56-2.35 24.54-4.19 27.83v12.1c0 8.48-1.42 10-4.34 12.48a8.88 8.88 0 0 1 -3.55 1.22l-.25.05h-.06l-.64.11-.33.05s-4 3.34-11.66 3.81a233.46 233.46 0 0 0 1.11 27.57q.45 4.35 1.06 8.44c.16-21 12-42.11 38.13-42.26h.25a38.64 38.64 0 0 1 22.8 7.2c-1.23-14.73-2-26.13-1.9-31.36 0-2.58.16-6 .3-9.91.88-24.21 2.69-74.59-9.84-87.59-.28-.29-.57-.55-.86-.8v4.07z" fill="#43993b"/><path d="m279 270.63a13.09 13.09 0 0 0 9.85-3 11.31 11.31 0 0 0 3.92-9 13.18 13.18 0 0 0 -3.92-9.56 15 15 0 0 0 -9.85-4.48 12.75 12.75 0 0 0 -9.84 2.92 11.4 11.4 0 0 0 -3.92 9.06 13.29 13.29 0 0 0 3.92 9.67 14.75 14.75 0 0 0 9.84 4.39z" fill="#43993b"/><path d="m374.89 534.54a11.7 11.7 0 0 0 -6.84-1.54 13.45 13.45 0 0 0 -7.49 2.51 10.57 10.57 0 0 0 -3.88 6.07l22.21-1.39a8.53 8.53 0 0 0 -4-5.65z" fill="#43993b"/><path d="m887.34 525.84a1.65 1.65 0 0 0 1.42-1.15 1.76 1.76 0 0 0 .09-.55v-1a1.76 1.76 0 0 0 -.06-.46 1.35 1.35 0 0 0 -1.44-1c-1 .06-1.69.94-1.69 2.25 0 1.07.56 2 1.68 1.91z" fill="#43993b"/><path d="m371.62 255.44a15.61 15.61 0 0 0 -9.89-4.3 13.37 13.37 0 0 0 -9.89 2.73 10.39 10.39 0 0 0 -4 8.49 12.19 12.19 0 0 0 4 9.1 15.36 15.36 0 0 0 9.89 4.21 13.63 13.63 0 0 0 9.89-2.81 10.33 10.33 0 0 0 4-8.41 12.08 12.08 0 0 0 -4-9.01z" fill="#43993b"/><path d="m789.15 238.59h-2.15l-6 3.18 3.38 5.94a14.2 14.2 0 0 1 4.87 3.38c14 14.55 12.22 64.51 11.25 91.35-.14 3.86-.26 7.2-.3 9.7-.09 5.48-.77 17.07-1.73 32.24a46.77 46.77 0 0 1 11.63 13.55c10.9 18.7 11.54 44.91 1.54 62.32a36.92 36.92 0 0 1 -18.68 16.44c-1 20.61-1.4 37.86-.67 45.83 1.16 3.09 8.62 24.58-1.6 40.11-6.35 9.66-18.09 14.82-34.88 15.33h-1.92c-13.15 0-22.9-4.2-29-12.49-14.83-20.11-2.48-56.9-1.91-58.57 5.06-24.23 8.39-77.4 8.73-83.06a218.17 218.17 0 0 1 -3-39.83 13.88 13.88 0 0 1 -4.91.39c-3.37 18.39-16.8 22.6-28.28 22.6a9.91 9.91 0 0 1 -7.35-3.48c-7.73-8.26-12-32-12.95-72.59-.87-36.24 1.23-73.89 2.17-88.4a54.45 54.45 0 0 1 5.41-21.12l-11.41-.41-1.21-16.25-49.87-5.44-25.72-2.12v35.62-34.87l12.27 1.82 1.27 33.45h-2.13l-6.07 3.2 3.32 5.85a14.34 14.34 0 0 1 5 3.41c14 14.52 12.21 64.43 11.24 91.24-.14 3.91-.26 7.28-.3 9.81-.09 5.61.85 18.93 2.32 35.91a49.19 49.19 0 0 1 7.56 9.94c10.9 18.7 11.54 44.91 1.54 62.32-.58 1-1.19 1.94-1.83 2.87 1.72 16.72 3.37 32.36 4.64 44.46 1.13 10.73 2 19.17 2.49 23.9.13 1.34.28 2.78.44 4.28 2 18.58 5.3 49.67-10.57 67.31a34.67 34.67 0 0 1 -4.33 4.07l337.55-30.91c20.9-117.37-4.21-241.31-75.3-342.87l-95.35-10.4zm105.11 282.88h-.35a1.56 1.56 0 0 0 -1.38 1.4 1.85 1.85 0 0 0 0 .47v3l-1 .08v-3.92-1.74l.9-.06v1.09a1.82 1.82 0 0 1 1.57-1.32.71.71 0 0 1 .29 0zm.54 1.93a2.92 2.92 0 0 1 2.66-3.16 2.19 2.19 0 0 1 2.35 2 2.84 2.84 0 0 1 0 .41 3.68 3.68 0 0 1 0 .47l-4 .29a1.66 1.66 0 0 0 1.5 1.79 2.2 2.2 0 0 0 .44 0 4.11 4.11 0 0 0 1.57-.41l.17.7a5.13 5.13 0 0 1 -1.88.49 2.4 2.4 0 0 1 -2.77-1.92 2.92 2.92 0 0 1 -.04-.66zm3.11 11.21a1.82 1.82 0 0 1 -1.75-.7v3l-1 .11-.06-6v-1.81l.93-.08.05 1a2.46 2.46 0 0 1 2-1.24c1.37-.12 2.4.91 2.4 2.57a3 3 0 0 1 -2.57 3.15zm2.76-11.61a2.89 2.89 0 0 1 2.65-3.12 2.18 2.18 0 0 1 2.34 2.39 3.53 3.53 0 0 1 0 .46l-4 .29a1.63 1.63 0 0 0 1.48 1.76 1.78 1.78 0 0 0 .46 0 4.28 4.28 0 0 0 1.57-.4l.18.69a5.43 5.43 0 0 1 -1.89.48 2.37 2.37 0 0 1 -2.75-1.89 2.31 2.31 0 0 1 -.04-.66zm4.23 10.69-.09-.67a2.46 2.46 0 0 1 -1.73 1 1.42 1.42 0 0 1 -1.76-1.33c0-1.32 1.22-2.15 3.41-2.34v-.11c0-.45-.13-1.24-1.29-1.14a3 3 0 0 0 -1.47.53l-.24-.63a3.84 3.84 0 0 1 1.86-.64 1.77 1.77 0 0 1 2.16 2v2a7 7 0 0 0 .09 1.29zm4.91-.34a2.33 2.33 0 0 1 -2.82-2.46 3.09 3.09 0 0 1 3-3.11 3.16 3.16 0 0 1 1.43.15l-.23.76a2.35 2.35 0 0 0 -1.2-.14 2.09 2.09 0 0 0 -2 2.19 1.68 1.68 0 0 0 1.53 1.83 1.83 1.83 0 0 0 .47 0 3.49 3.49 0 0 0 1.26-.39l.19.71a4.43 4.43 0 0 1 -1.63.45zm1.92-8.58-1 .08v-3.07c0-.86-.34-1.55-1.31-1.48a1.55 1.55 0 0 0 -1.38 1.08 1.39 1.39 0 0 0 -.07.46v3.23l-1 .08v-3.92-1.46l.92-.06v.89a2.24 2.24 0 0 1 1.87-1.13 1.87 1.87 0 0 1 2 2.13zm5.43 5.3-4 .37a1.57 1.57 0 0 0 1.45 1.68 1.63 1.63 0 0 0 .49 0 4.31 4.31 0 0 0 1.57-.42l.17.66a5.38 5.38 0 0 1 -1.88.52 2.28 2.28 0 0 1 -2.79-2.4 2.92 2.92 0 0 1 2.66-3.08 2.06 2.06 0 0 1 2.33 1.74 2.26 2.26 0 0 1 0 .52 3.38 3.38 0 0 1 0 .4zm-26.28-35.2h44.17v29.71l-14.46 1.19-4.85-2.55 15.14-1.13v-24.4l-35.83.28v15.69l-4.17 3.71zm.85 37.68c-1-.26-1.5-.77-1.5-1.45a1.93 1.93 0 0 1 2-1.81 2.68 2.68 0 0 1 1.39.23l-.26.75a2.12 2.12 0 0 0 -1.16-.22c-.61.06-1 .43-1 .85s.34.64 1.08.85c1 .28 1.49.71 1.49 1.54a2.14 2.14 0 0 1 -2.12 1.88 3 3 0 0 1 -1.59-.23l.26-.8a2.47 2.47 0 0 0 1.36.27c.75-.07 1.1-.47 1.1-.93s-.29-.73-1.05-.94zm-7.08-8.44a3 3 0 0 1 2.55-3.19 1.75 1.75 0 0 1 1.77.87v-.85l.89-.08v1.55 3.28a3.45 3.45 0 0 1 -.8 2.63 3.36 3.36 0 0 1 -2.06.85 3.71 3.71 0 0 1 -1.89-.31l.26-.81a3.07 3.07 0 0 0 1.66.31 1.88 1.88 0 0 0 1.85-1.9c0-.07 0-.15 0-.22v-.63a2.25 2.25 0 0 1 -1.8 1.08 2.32 2.32 0 0 1 -2.42-2.22 2.17 2.17 0 0 1 -.01-.37z" fill="#43993b"/><path d="m248.65 449.81a11.58 11.58 0 0 0 -4.4-7.53 13 13 0 0 0 -8.05-2.46 13.73 13.73 0 0 0 -8.72 2.85 12.48 12.48 0 0 0 -4.44 7.57z" fill="#43993b"/><path d="m424.32 258.38a14.9 14.9 0 0 0 -8.05-3 13.71 13.71 0 0 0 -8.72 1.81 10.05 10.05 0 0 0 -4.44 6.49l25.61 2a11.72 11.72 0 0 0 -4.4-7.3z" fill="#43993b"/><path d="m211.72 541.18a14.32 14.32 0 0 0 -9.85 4.41 13.78 13.78 0 0 0 -3.92 9.9 12.13 12.13 0 0 0 3.92 9.42 12.75 12.75 0 0 0 9.85 3.14 14.59 14.59 0 0 0 9.84-4.5 13.59 13.59 0 0 0 3.92-9.81 12 12 0 0 0 -3.92-9.31 12.85 12.85 0 0 0 -9.84-3.25z" fill="#43993b"/><path d="m454.86 529.75a12.25 12.25 0 0 0 -6.84-1.46 13.76 13.76 0 0 0 -7.49 2.43 10.16 10.16 0 0 0 -3.88 5.84l22.21-1.39a8.23 8.23 0 0 0 -4-5.42z" fill="#43993b"/><path d="m173.26 443.2a12.77 12.77 0 0 0 -8.06-2.55 13.36 13.36 0 0 0 -8.71 3 13 13 0 0 0 -4.45 7.81l25.62-.42a12.06 12.06 0 0 0 -4.4-7.84z" fill="#43993b"/><path d="m208.84 366.45a13.16 13.16 0 0 0 9.67-3.55 12.2 12.2 0 0 0 3.92-9.34 12.9 12.9 0 0 0 -3.92-9.56 13.87 13.87 0 0 0 -9.67-4.09 12.94 12.94 0 0 0 -9.67 3.46 12.36 12.36 0 0 0 -3.92 9.43 13.06 13.06 0 0 0 3.92 9.65 13.68 13.68 0 0 0 9.67 4z" fill="#43993b"/><path d="m555.7 595c-21.69-26.74-17.13-77.47-13.83-93.13 5.09-24.09 8.45-77.62 8.79-83.34a217.28 217.28 0 0 1 -3-39.84 13.91 13.91 0 0 1 -4.91.39c-3.35 18.36-16.76 22.55-28.26 22.55a9.91 9.91 0 0 1 -7.35-3.48c-7.73-8.26-12-32-12.95-72.59-.87-36.24 1.23-73.89 2.17-88.4 1.95-29.87 21.72-41 35.74-45.14l-344.76-28.39-2.86 2.83c-131.12 131.11-166.09 321.96-104.92 484.94l490.34-44.9a42.43 42.43 0 0 1 -14.2-11.5zm-169.89-171.48a6.65 6.65 0 0 1 -.65.65 6.24 6.24 0 0 1 -4.23 1.61 6.13 6.13 0 0 1 -4.22-1.57 4.85 4.85 0 0 1 -1.79-3.75 5 5 0 0 1 1.74-3.74 6.53 6.53 0 0 1 8.54 0 4.86 4.86 0 0 1 .61 6.8zm-.21 8v38.58l-9.41.26v-38.78zm-57.76 31.34a5.79 5.79 0 0 0 3.62 1.1q2.39.06 6-.18v7.66q-10.8 1.5-15.5-1.28t-4.71-10.61v-19.17l-8 .1v-8.33l8-.07v-8.62l9.41-2.58v11.12l10.8-.09v8.22l-10.8.13v19.07a4.44 4.44 0 0 0 1.18 3.51zm-14.71-222.7 9.41.79v6.73q3.57-7.11 13.41-6.27v9.27a14.31 14.31 0 0 0 -9.4 1.59q-4 2.34-4 8.48v20l-9.41-.62zm-.13 95.23v9.36a14.38 14.38 0 0 0 -9.41 2q-4 2.56-4 8.76v20.37l-9.42-.2v-40.41l9.41.36v6.76q3.52-7.39 13.42-7zm-50.79-94.32a19.49 19.49 0 0 1 15.33-4.93q9.93.84 15.25 8.08v-5.76l9.4.79v40.2l-9.4-.61v-5.84q-5.33 6.53-15.25 5.88a22.51 22.51 0 0 1 -15.33-7.22 22.16 22.16 0 0 1 -6.36-15.76 19 19 0 0 1 6.31-14.83zm-10.63 124.2a10.25 10.25 0 0 0 7.14 2.63 11 11 0 0 0 8-2.73c2-1.89 3-4.81 3-8.79l.07-21.88 9.41.36v40.64l-9.41-.18v-5.22q-4.28 6.21-13.51 6a16.84 16.84 0 0 1 -12.11-4.76q-4.62-4.63-4.61-12.6v-25.39l9.41.36v24.41a9.48 9.48 0 0 0 2.56 7.15zm-43-150.73 9.41.87v22.09q4.22-6.09 13.44-5.3a18 18 0 0 1 12.11 5.57c3.07 3.29 4.61 7.56 4.61 12.84v25.33l-9.41-.61v-24.53a10.07 10.07 0 0 0 -2.61-7.33 10.7 10.7 0 0 0 -7.13-3.07 10.23 10.23 0 0 0 -8 2.32c-2 1.81-3 4.76-3 8.83v22.45l-9.41-.61zm.28 116.58a23.65 23.65 0 0 1 16.34 7 21.33 21.33 0 0 1 6.66 15.78 20.19 20.19 0 0 1 -6.66 15.4 22.46 22.46 0 0 1 -16.34 6 23 23 0 0 1 -16.29-6.72 21.63 21.63 0 0 1 -6.71-16 20.4 20.4 0 0 1 6.71-15.64 21.76 21.76 0 0 1 16.27-5.82zm-4 82.56v61.44l-9.4.26v-61.7zm-53.54-196.51q9.06-8.25 22.82-6.9a34 34 0 0 1 15.29 5.23 32.17 32.17 0 0 1 10.93 11.28l-8.71 4.22a20.12 20.12 0 0 0 -7.1-7.61 22.54 22.54 0 0 0 -10.41-3.51q-9.75-.87-15.81 4.71t-6 15a22.53 22.53 0 0 0 21.81 23.14 20.59 20.59 0 0 0 10.46-1.87 15.6 15.6 0 0 0 7.05-6.49l8.71 5.44a25.34 25.34 0 0 1 -10.84 9.61 30.33 30.33 0 0 1 -15.35 2.87 33.14 33.14 0 0 1 -22.85-10.49 32.46 32.46 0 0 1 -9.06-23q0-13.38 9.06-21.63zm-1.39 112.83 13 31.64 11.15-30.72 10 .38-16.72 43.54q-6.29 16.53-21.26 15.52v-8.73a10.17 10.17 0 0 0 7.14-1.74 14.89 14.89 0 0 0 4.45-6.51l.43-.85-18.47-42.92zm27 246.41a24.33 24.33 0 0 1 -11.6 3.8q-9.85.74-16.43-5.33a20.48 20.48 0 0 1 -6.57-15.72 23.22 23.22 0 0 1 6.57-16.61 23.59 23.59 0 0 1 16.43-7.41 22.13 22.13 0 0 1 11.58 2.35 17.93 17.93 0 0 1 7.84 7.55l-8.1 5.08a10.14 10.14 0 0 0 -4.49-4.55 12.85 12.85 0 0 0 -6.92-1.34 14.17 14.17 0 0 0 -13.5 14.32 12.17 12.17 0 0 0 11.68 12.64 12.35 12.35 0 0 0 1.82-.06 14.37 14.37 0 0 0 6.92-2.28 13.08 13.08 0 0 0 4.66-5.1l8.11 4a22.81 22.81 0 0 1 -8.01 8.61zm9.87-118.11-34.67.7a11.48 11.48 0 0 0 4.79 7.43 15.39 15.39 0 0 0 9.15 2.4q7.49-.21 11.24-5.56l7.75 4.24q-6.45 9.42-19.08 9.8-10.62.3-17.16-6a21.25 21.25 0 0 1 -6.5-16.1 22.45 22.45 0 0 1 6.44-16.31q6.45-6.57 16.56-6.65a20.42 20.42 0 0 1 15.68 6.43 22.13 22.13 0 0 1 6.14 15.8 28.85 28.85 0 0 1 -.34 3.82zm48.09 115.58-9.41.7v-6q-5.31 7.49-15.24 8.23a19.3 19.3 0 0 1 -15.34-5.32 20.25 20.25 0 0 1 -6.35-15.36 23 23 0 0 1 6.35-16.22 21.94 21.94 0 0 1 15.34-7.23q9.93-.54 15.24 6.17v-6l9.41-.51zm-15.07-104.32a20.42 20.42 0 0 1 -6.5-15.64 21.34 21.34 0 0 1 6.45-15.79q6.45-6.37 16.55-6.44 9.59-.09 15.73 6.21a21 21 0 0 1 6.14 15.29 27.09 27.09 0 0 1 -.35 3.7l-34.71.69a11 11 0 0 0 4.79 7.19 15.75 15.75 0 0 0 9.15 2.32q7.49-.21 11.23-5.39l7.76 4.1q-6.45 9.13-19.08 9.5-10.64.3-17.16-5.74zm48.91 69.78a15.25 15.25 0 0 0 -9.41 3q-4 3-4 9.33v20.71l-9.41.7v-41.31l9.41-.51v6.9q3.57-7.86 13.41-8.37zm18-65.45c-6.56.18-12-1.72-16.42-5.74a19.71 19.71 0 0 1 -6.59-15.15 20.39 20.39 0 0 1 6.6-15.42 23.25 23.25 0 0 1 16.42-6.3 23.93 23.93 0 0 1 11.58 2.72 18.7 18.7 0 0 1 7.84 7.47l-8.1 4.46a10.54 10.54 0 0 0 -4.49-4.5 14 14 0 0 0 -6.92-1.57 13.6 13.6 0 0 0 -9.63 3.78 12.19 12.19 0 0 0 -3.88 9.18 11.81 11.81 0 0 0 3.88 9.05 13.18 13.18 0 0 0 9.63 3.42 14.45 14.45 0 0 0 6.92-1.86 12 12 0 0 0 4.66-4.62l8.1 4.08a20.85 20.85 0 0 1 -8 7.84 24.62 24.62 0 0 1 -11.61 3.15zm51.07 92.35-11.24.83v-23.07c0-2.65-.79-4.63-2.35-5.94a8.64 8.64 0 0 0 -6.28-1.74 10.29 10.29 0 0 0 -7 2.9c-1.73 1.76-2.6 4.29-2.6 7.61v21.64l-11.24.84v-56.47l11.24-.53v20.52q4.11-5.83 13-6.31 7.14-.39 11.8 3.71t4.66 11.77zm37.79-283.8v-4.76q-5.31 6.4-15.16 5.76a23.46 23.46 0 0 1 -15.59-7 20.42 20.42 0 0 1 -6.36-14.76 17.46 17.46 0 0 1 6.36-13.9q6.36-5.4 15.59-4.62 9.85.84 15.16 8v-5.71l9.24.78v36.82q0 8.81-6.54 13.12t-15.86 3.83q-15.07-.86-20.65-10.72l8.1-3.74q3.4 6.24 12.72 6.82 6.11.36 9.54-2.26a9 9 0 0 0 3.44-7.66zm-6.36 148.5v9.06a15.26 15.26 0 0 0 -9.41 2.42q-4 2.69-4 8.71v19.74l-9.4.26v-39.3l9.4-.08v6.58q3.57-7.33 13.4-7.39zm20.46 116.26-32.84 2.2q2.26 7.2 12.29 6.49c4.29-.3 7.55-1.82 9.75-4.55l9.06 4q-6.45 8.73-19 9.67-10.8.81-17.33-4.59a17.82 17.82 0 0 1 -6.54-14.42 20.49 20.49 0 0 1 6.45-15.21q6.45-6.3 16.55-6.83 9.59-.53 15.81 5a18 18 0 0 1 6.23 14.12 21.09 21.09 0 0 1 -.43 4.12zm10.08-294.92q6.45-5.25 16.55-4.38a24 24 0 0 1 15.73 7.1 20.23 20.23 0 0 1 6.14 14.55 22.39 22.39 0 0 1 -.35 3.36l-34.64-2.53a11.41 11.41 0 0 0 4.79 7 18 18 0 0 0 9.15 3q7.49.51 11.23-3.92l7.76 4.46q-6.45 7.77-19.08 7-10.64-.69-17.16-6.82a19.74 19.74 0 0 1 -6.57-15 17 17 0 0 1 6.45-13.82zm.85 183.88c4.39-3.9 9.86-5.86 16.43-5.92a25.21 25.21 0 0 1 11.58 2.55 18.19 18.19 0 0 1 7.84 7l-8.1 4.18a10.1 10.1 0 0 0 -4.49-4.21 14.66 14.66 0 0 0 -6.92-1.47 14.16 14.16 0 0 0 -9.63 3.56 11.12 11.12 0 0 0 -3.87 8.62 10.73 10.73 0 0 0 3.87 8.47 13.68 13.68 0 0 0 9.63 3.2 15.33 15.33 0 0 0 6.92-1.75 11.59 11.59 0 0 0 4.66-4.34l8.11 3.81a20.18 20.18 0 0 1 -8 7.36 25.91 25.91 0 0 1 -11.6 3q-9.85.29-16.43-5.35a18 18 0 0 1 -6.57-14.2 18.64 18.64 0 0 1 6.57-14.51zm21.83 96.06a15.44 15.44 0 0 0 -9.19 2.38q-4 2.61-4.05 8.11v18.22l-11.24.83v-38.34l11.24-.62v6.56a11.55 11.55 0 0 1 5.18-5.78 18.2 18.2 0 0 1 8.06-2.26zm47.21 9.7-32.84 2.15q2.26 6.9 12.29 6.2c4.29-.3 7.55-1.77 9.75-4.4l9.06 3.81q-6.44 8.37-19 9.34c-7.2.53-13-.91-17.33-4.36a16.78 16.78 0 0 1 -6.54-13.83 19.34 19.34 0 0 1 6.45-14.63q6.45-6 16.55-6.59 9.58-.54 15.81 4.78a16.9 16.9 0 0 1 6.23 13.53 20 20 0 0 1 -.43 4zm18.91 12.38a7.61 7.61 0 0 1 -4.62 2 6.56 6.56 0 0 1 -4.61-1.27 4.57 4.57 0 0 1 -1.92-3.76 5.35 5.35 0 0 1 1.87-4 7.37 7.37 0 0 1 4.66-1.94 6.54 6.54 0 0 1 4.62 1.3 4.51 4.51 0 0 1 1.92 3.74 5.28 5.28 0 0 1 -1.92 3.93z" fill="#43993b"/><path d="m102.75 671.25-14.51 1.61a454.8 454.8 0 0 0 67.23 109.3z" fill="#8ec14d"/><path d="m704 604.35 10.55-1.18-589.83 65.63 16-1.77 129.49 214.46c176.25 107.42 409.39 84.93 561.79-67.49a456.23 456.23 0 0 0 105.43-163.92zm-99.69 103.33c4.64.41 25.36 0 25.36 0l3.41 2.62s-12.53 2.33-17.72 2.87-5.88.67-11.19 1.22-9.55-2.45-14.86-2.18-44.58 6.41-44.58 6.41l-3.41-2.32 37.22-8.3-2.45-1.49-13.64 1.63-30.81 3.68v-3s26.05-3.14 31.77-7.5 30.13-7.09 30.13-7.09l7.36 4.77-8.86.81s7.63 7.46 12.27 7.87zm198.81-7.88c24.27 13.36 30.55 9.28 10.64 23.46s-28.65 17.42-31.38 17.42 3.82-1.09-5.45 0-38.45 2.72-54.82 2.72-65.71 6.28-78.79 10.4-16.91-1.09-27.82 8.45-28.37 17.43-48 17.43-41.45 2.46-53.72 3-32.46-.52-47.46 0-20.18-.54-27-6-3-10.36 3-14.18 49.09-14.45 57.81-19.36 25.53-12.81 41.4-15.81 76.69-10.33 76.69-10.33 54.54-10.9 79.35-10.09 52.9 4.09 52.9 4.09l-10.36 4.37a178.55 178.55 0 0 0 -61.11-1.93c-32.45 4.91-103.62 15-115.08 16.36s-24.81 6.88-24.81 6.88-28.09 12.44-42.27 17.9-37.63 12.27-37.63 12.27l10.91 7.67s28.36-2.73 55.63 0 48-2.73 57.26-10.36 37.42-16.36 52.52-19.63 52.47-9.82 76.19-7.09 59.72 1.36 67.9-6.28 21.27-11.72 21-19.9-10.91-11.46-26.45-12.82-96.81-2.18-104.71 0-7.91 7.91-7.91 7.91l-26 3.27-2.34-3.27 6.54-4.64s-27.81-5.14-31.9-4.62-6.28-4.1-6.28-4.1 15-1.91 22.37-2.18 18 4.9 33.26 2.45 121.65-6.82 145.92 6.54z" fill="#8ec14d"/><path d="m724.69 602 216.5 37.53a458.66 458.66 0 0 0 16.86-63.5z" fill="#8ec14d"/><path d="m140.7 667-16 1.77-22 2.45 52.72 110.91q13.62 16.43 29 31.84a458.56 458.56 0 0 0 85.73 67.49z" fill="#fff"/><path d="m764.34 405.57a5.45 5.45 0 0 0 5.45 5.45h6.8l-7-8.27 5.67-7.09 5.18-.55 3.09 6.48v-11.59a27.6 27.6 0 0 0 -6.54-.8v-5a34.4 34.4 0 0 1 6.54.62v-1.12a5.19 5.19 0 0 0 -.17-1.32 34.6 34.6 0 0 0 -9.05-1.18h-.22a37.42 37.42 0 0 0 -9.58 1.24 5.4 5.4 0 0 0 -.15 1.28z" fill="#000100"/></g><path d="m732.75 375.23-7.88-11.93z" fill="#000100"/><path d="m695.52 402a5.07 5.07 0 0 1 -3.7-1.9c-4.65-5-10.44-21-11.6-69.29-.87-36 1.22-73.51 2.16-88a48.63 48.63 0 0 1 6-21.24l-5.53-.21a54.45 54.45 0 0 0 -5.41 21.12c-.94 14.51-3 52.16-2.17 88.4 1 40.59 5.22 64.33 12.95 72.59a9.91 9.91 0 0 0 7.35 3.48c11.5 0 24.91-4.19 28.25-22.55a17.83 17.83 0 0 1 -4.86-1.24c-2.23 12.64-9.96 18.84-23.44 18.84z" fill="#000100" transform="translate(-50.37 -32.36)"/><path d="m803.11 455c5.68-7.59 8.81-17.8 8.81-28.74 0-13.16-4.74-26.41-14-34.45q-.19 3.18-.42 6.53c5.59 6.09 9.38 15.3 9.38 27.92 0 9.87-2.77 19-7.81 25.74a29.38 29.38 0 0 1 -5.19 5.36q-.18 3.19-.34 6.33a33.35 33.35 0 0 0 9.57-8.69z" fill="#000100" transform="translate(-50.37 -32.36)"/><path d="m805.75 400.44c10 17.26 10.69 41.36 1.52 57.32a32.56 32.56 0 0 1 -14.08 13.42c-.09 1.86-.18 3.7-.26 5.51a36.92 36.92 0 0 0 18.68-16.44c10-17.41 9.36-43.62-1.54-62.32a46.77 46.77 0 0 0 -11.63-13.55q-.2 3-.4 6.25a43.15 43.15 0 0 1 7.71 9.81z" fill="#000100" transform="translate(-50.37 -32.36)"/><path d="m736.71 423.67c-.05.78-.43 7.24-1.12 16.5 3.19 10.21 7.78 19.71 14.39 26.81a37.48 37.48 0 0 0 28.44 12.35 41.44 41.44 0 0 0 9.44-1.08c.07-1.71.16-3.44.24-5.19a36.32 36.32 0 0 1 -9.68 1.27 32.65 32.65 0 0 1 -24.78-10.76 52 52 0 0 1 -8.52-12.83c6.88 10.45 17.38 17.68 30.76 17.68a35.42 35.42 0 0 0 12.56-2.21c.1-1.84.2-3.7.3-5.57a29.64 29.64 0 0 1 -12.86 2.78c-21.81 0-34.91-22.59-35-44.42 0-14.88 6.31-31.93 23.58-36.6a37.42 37.42 0 0 1 9.58-1.24h.22a34.6 34.6 0 0 1 9.05 1.18 33.24 33.24 0 0 1 9.93 4.51c.12-1.94.24-3.84.36-5.68a38.86 38.86 0 0 0 -19.34-5h-.26c-26.18.15-38 21.23-38.13 42.26q-.61-4.1-1.06-8.45a233.23 233.23 0 0 1 -1.11-27.56c-.43 0-.85 0-1.3.06a14.4 14.4 0 0 1 -3.76 1.57 218.17 218.17 0 0 0 3 39.83c0-.29 0-.46 0-.49z" fill="#000100" transform="translate(-50.37 -32.36)"/><path d="m777 384.16v5a27.61 27.61 0 0 1 15.83 5c.13-2 .25-3.9.37-5.79a30.34 30.34 0 0 0 -9.66-3.62 34.4 34.4 0 0 0 -6.54-.59z" fill="#000100" transform="translate(-50.37 -32.36)"/><path d="m754.56 352.6c1.83-3.31 2.66-11.3 4.18-27.82 2.26-24.65 6.41-69.8 19.35-72.85l-1-2.37-2.74-1.56c-12.23 6.3-16.68 35.75-20 69.43a9.94 9.94 0 0 1 .16 1.9z" fill="#000100" transform="translate(-50.37 -32.36)"/><path d="m784.79 253.78q.42.36.84.78c12.55 13 10.72 63.46 9.84 87.7-.14 3.89-.26 7.25-.3 9.8-.08 5-.7 15.68-1.54 29.11-.12 1.84-.24 3.74-.36 5.68 0 .51-.06 1-.1 1.55-.12 1.89-.24 3.83-.37 5.79s-.25 3.91-.38 5.9c-1.2 18.77-2.6 40.44-3.68 60.55-.1 1.87-.2 3.73-.3 5.57-.11 2.31-.23 4.59-.34 6.85-.08 1.75-.17 3.48-.24 5.19-.93 20.35-1.32 37.28-.54 45.09v.35l.12.33c.09.21 8.37 21.65-1 35.88-5.42 8.21-15.79 12.6-30.85 13.06-12.38.38-21.37-3.13-26.74-10.42-13.3-18-1.33-53.64-1.21-54l-2.39-.82-2.4-.51.06-.28c-.57 1.67-12.92 38.46 1.91 58.57 6.1 8.29 15.85 12.49 29 12.49h1.92c16.79-.51 28.53-5.67 34.88-15.33 10.22-15.53 2.76-37 1.6-40.11-.73-8-.3-25.22.67-45.83.08-1.81.17-3.65.26-5.51.13-2.45.25-4.94.39-7.46q.17-3.14.34-6.33c1.06-19.06 2.36-39.31 3.49-57 .05-.68.09-1.37.13-2q.23-3.35.42-6.53c0-.41 0-.81.08-1.21q.21-3.22.4-6.25c1-15.17 1.64-26.76 1.73-32.24 0-2.5.16-5.84.3-9.7 1-26.84 2.78-76.8-11.25-91.35a14.2 14.2 0 0 0 -4.87-3.38l.44.78z" fill="#000100" transform="translate(-50.37 -32.36)"/><path d="m725.29 507.72 2.5.52c3.66-17.36 6.38-48.78 7.8-68.07.69-9.26 1.07-15.72 1.12-16.5l-5-.29s0 .2 0 .49c-.34 5.66-3.67 58.83-8.73 83.06l-.06.28z" fill="#000100" transform="translate(-50.37 -32.36)"/><path d="m723.98 215.66 2.79 1.54.94 2.37 2.34 5.84h4.37v-3.98-5.3l-.44-.78-3.38-5.94 6.03-3.18h-11.4v-.46-21.91l-12.27-1.34v27.07z" fill="#171c21"/><path d="m725.23 206.23h11.4 2.15l-.8-20.98-12.75-1.39v21.91z" fill="#1f222a"/><path d="m725.89 381.89c-12.71-2.39-21.06-8.1-21.06-23.5 0-12.68-4.25-41.18 6.12-51-3.37.7-9.35 3.42-10.11 13.84-1.07 14.61-.13 40 0 43.68.09 2.48 8.15 14.32 18.07 18.3a17.83 17.83 0 0 0 4.86 1.24 13.88 13.88 0 0 0 4.91-.39 14.4 14.4 0 0 0 3.76-1.57 32.67 32.67 0 0 1 -6.55-.6z" fill="#020303" transform="translate(-50.37 -32.36)"/><path d="m704.83 358.39c0 15.4 8.35 21.11 21.06 23.5a32.67 32.67 0 0 0 6.55.58c.45 0 .87 0 1.3-.06 7.55-.47 11.56-3.74 11.65-3.81a107.92 107.92 0 0 1 -15.43 1h-.48a95.58 95.58 0 0 1 -10.87-.47c-7.67-1-9-6.55-9-11.86v-50.49c0-11.06 10.71-10.62 10.71-10.62s.65 0 1.77.12h.29l.62.05.64.05 1.28.12 1.34.13h.11.24l1.19.13h.09c.92.1 1.85.22 2.77.34l.81.09.36.05c1.52.21 3 .44 4.57.69l.73.11c1.69.28 3.38.59 5.06.92-2.28-2.33-7.87-5.29-22.4-5.1a12.56 12.56 0 0 0 -8.88 3.43c-10.33 9.92-6.08 38.42-6.08 51.1z" fill="#3c3d3d" transform="translate(-50.37 -32.36)"/><path d="m749.36 377.62.21-.09z" fill="#b2b2b2" transform="translate(-50.37 -32.36)"/><path d="m748.93 377.79-.17.06.25-.09z" fill="#b2b2b2" transform="translate(-50.37 -32.36)"/><path d="m749.86 377.39.14-.1z" fill="#b2b2b2" transform="translate(-50.37 -32.36)"/><path d="m731.51 307.27-.81-.09h.27z" fill="#b2b2b2" transform="translate(-50.37 -32.36)"/><path d="m720.29 379.1c-7.67-1-9-6.55-9-11.86v-50.46c0-8.18 5.84-10.06 8.89-10.49l-.16-.13h.3s-10.71-.44-10.71 10.62v50.46c0 5.31 1.33 10.89 9 11.86a95.58 95.58 0 0 0 10.87.47 88.1 88.1 0 0 1 -9.19-.47z" fill="#b2b2b2" transform="translate(-50.37 -32.36)"/><path d="m749.15 377.71-.22.08h.08z" fill="#cfd0cf" transform="translate(-50.37 -32.36)"/><path d="m730.94 379.57a84.22 84.22 0 0 1 -8.7-.47 11.7 11.7 0 0 1 -4.4-1.39c-3.81-2.19-4.6-6.41-4.6-10.47v-50.46c0-6.93 4.19-9.34 7.33-10.18l-.39-.31c-3 .43-8.89 2.31-8.89 10.49v50.46c0 5.31 1.33 10.89 9 11.86a88.1 88.1 0 0 0 9.19.47h.52a107.92 107.92 0 0 0 15.43-1 22 22 0 0 0 3-.65c-3.49 1.08-10.72 1.57-17.49 1.65z" fill="#cfd0cf" transform="translate(-50.37 -32.36)"/><path d="m731.87 307.32-.36-.05-.54-.06z" fill="#cfd0cf" transform="translate(-50.37 -32.36)"/><path d="m737.17 308.12-.73-.11z" fill="#cfd0cf" transform="translate(-50.37 -32.36)"/><path d="m726.65 306.7 1.19.13z" fill="#f4f4f4" transform="translate(-50.37 -32.36)"/><path d="m722.11 306.28h.31z" fill="#f4f4f4" transform="translate(-50.37 -32.36)"/><path d="m736.44 308c-1.52-.25-3.05-.48-4.57-.69l-.9-.11h-.27c-.92-.12-1.85-.24-2.77-.34v49.25l-6.37 10h.22l-2.57 5v5.8l-1.37.87a11.7 11.7 0 0 0 4.4 1.39 84.22 84.22 0 0 0 8.7.47c6.77-.08 14-.59 17.49-1.62l.33-.1.17-.06.22-.08a1.33 1.33 0 0 0 .21-.09l.21-.09.29-.14.14-.1a2.11 2.11 0 0 0 .22-.14c2.92-2.48 4.34-4 4.34-12.48v-45.39a9.94 9.94 0 0 0 -.16-1.9c-.55-2.94-2.89-6.5-11.95-8.37h-.22c-1.68-.33-3.37-.64-5.06-.92zm13.18 30.11.12-.26s1.09.94.09 3.11l-.21-.16c.89-1.9 0-2.67 0-2.68zm.52-1.22.18-.2s1.72 2.71 0 5.09l-.18-.21a4.44 4.44 0 0 0 0-4.67zm-5.61 3.92v-2.94a.62.62 0 0 1 .55-.7h3.64a.62.62 0 0 1 .54.7v2.94a.63.63 0 0 1 -.54.7h-3.64a.63.63 0 0 1 -.55-.69zm-.4 0-.26.16c-1-2.17.12-3.1.13-3.11l.13.26s-.93.79 0 2.69zm-.81-4.11.18.2a4.39 4.39 0 0 0 0 4.68l-.18.21c-1.69-2.38 0-5.06 0-5.09z" fill="#f4f4f4" transform="translate(-50.37 -32.36)"/><path d="m749 337.88a.37.37 0 0 0 -.31-.4h-3.64a.37.37 0 0 0 -.31.4v.24h4.26z" fill="#f4f4f4" transform="translate(-50.37 -32.36)"/><path d="m749 340.86v-2.4h-4.26v2.4a.36.36 0 0 0 .3.39h3.65a.36.36 0 0 0 .31-.39z" fill="#f4f4f4" transform="translate(-50.37 -32.36)"/><path d="m721.56 307.4-1-.8c-3.14.84-7.33 3.25-7.33 10.18v50.46c0 4.06.79 8.28 4.6 10.47l1-1.07v-6l2.73-4.58z" fill="#f4f4f4" transform="translate(-50.37 -32.36)"/><path d="m723 306.36.64.05z" fill="#020303" transform="translate(-50.37 -32.36)"/><path d="m723 306.35-.62-.05h-.31c-1.12-.09-1.76-.12-1.77-.12s1.02.03 2.7.17z" fill="#020303" transform="translate(-50.37 -32.36)"/><path d="m725.89 307.84-.83 18h.13c.29 0 .57 0 .57.59s-.32.57-.75.57l-.16 3.38h.34c.29 0 .57 0 .57.59s-.39.59-.9.59h-.06l-.17 3.5h.51c.28 0 .57 0 .57.59s-.39.59-.9.59a.79.79 0 0 1 -.23 0l-1.25 27.14-1.77 2.79 6.37-10v-49.33h-.09l-1.19-.13h-.24-.11l-1.34-.13z" fill="#020303" transform="translate(-50.37 -32.36)"/><path d="m720.18 306.29.39.31 1 .8v58.69l1.77-2.79 1.25-27.14a.67.67 0 0 1 -.58-.69c0-.45.26-.45.26-.45h.37l.17-3.5a.7.7 0 0 1 -.75-.72c0-.45.27-.45.27-.45h.53l.14-3.35h-.15a.72.72 0 0 1 -.81-.73c0-.44.27-.44.27-.44h.74l.83-18-.93-1.31-1.28-.12-.64-.05c-1.7-.14-2.7-.19-2.7-.19h-.33z" fill="#3e3e3e" transform="translate(-50.37 -32.36)"/><path d="m725.76 326.4c0-.58-.28-.59-.57-.59h-.87s-.27 0-.27.44a.72.72 0 0 0 .81.73h.14c.44.02.76-.06.76-.58z" fill="#219e38" transform="translate(-50.37 -32.36)"/><path d="m725.76 330.94c0-.59-.28-.59-.57-.59h-.87s-.27 0-.27.45a.7.7 0 0 0 .75.72h.06c.51.01.9.01.9-.58z" fill="#219e38" transform="translate(-50.37 -32.36)"/><path d="m724.81 336.2c.51 0 .9 0 .9-.59s-.29-.59-.57-.59h-.88s-.26 0-.26.45a.67.67 0 0 0 .58.69.79.79 0 0 0 .23.04z" fill="#d01522" transform="translate(-50.37 -32.36)"/><path d="m668.46 344.28-.99 1.08 1.37-.88v-5.8l2.57-4.95h-.22l-2.73 4.58z" fill="#020303"/><path d="m749.26 340.82v-2.94a.62.62 0 0 0 -.54-.7h-3.64a.62.62 0 0 0 -.55.7v2.94a.63.63 0 0 0 .55.7h3.64a.63.63 0 0 0 .54-.7zm-4.19.43a.36.36 0 0 1 -.3-.39v-2.4h-.12v-.3h.12v-.24a.37.37 0 0 1 .31-.4h3.64a.37.37 0 0 1 .31.4v.28h.05v.3h-.08v2.4a.36.36 0 0 1 -.31.39h-3.65z" fill="#232328" transform="translate(-50.37 -32.36)"/><path d="m698.71 306.1v-.3h-.05-4.26-.12v.3h.12 4.26z" fill="#232328"/><path d="m749.83 341c1-2.17-.09-3.11-.09-3.11l-.12.26s.89.78 0 2.69z" fill="#232328" transform="translate(-50.37 -32.36)"/><path d="m750.32 336.7-.18.2a4.44 4.44 0 0 1 0 4.68l.18.21c1.68-2.38 0-5.09 0-5.09z" fill="#232328" transform="translate(-50.37 -32.36)"/><path d="m744.13 338.12-.13-.26s-1.13.94-.13 3.11l.26-.16c-.93-1.9 0-2.69 0-2.69z" fill="#232328" transform="translate(-50.37 -32.36)"/><path d="m743.5 341.58a4.39 4.39 0 0 1 0-4.68l-.18-.2s-1.69 2.71 0 5.09z" fill="#232328" transform="translate(-50.37 -32.36)"/><path d="m734.78 378.3-2.03-3.07-7.88-11.93-5.67 7.09 7.02 8.27 2.47 2.91 1.91 19.77 8.86-2.14-1.14-19.09z" fill="#f4f4f4"/><path d="m724.87 363.3 7.88 11.93 2.03 3.07 3.54 1.81-5.18-10.87-3.09-6.49z" fill="#000100"/><path d="m583.31 400.21a5.45 5.45 0 0 0 5.45 5.45h6.81l-7-8.27 5.67-7.09 7.88 11.92-7.88-11.92 5.18-.55 3.09 6.49v-11.64a27.6 27.6 0 0 0 -6.54-.8v-5a34.4 34.4 0 0 1 6.54.62v-1.12a5.19 5.19 0 0 0 -.17-1.32 34.6 34.6 0 0 0 -9.05-1.18h-.22a37 37 0 0 0 -9.59 1.25 5.16 5.16 0 0 0 -.15 1.25z" fill="#000100" transform="translate(-50.37 -32.36)"/><path d="m590.5 606a52.39 52.39 0 0 0 19-3.16l-27 2.47a46.22 46.22 0 0 0 8 .69z" fill="#fff" transform="translate(-50.37 -32.36)"/><path d="m124.72 668.8 589.79-65.63 10.17-1.17 233.36-26c.33-1.73.65-3.47 1-5.2l-337.61 30.98c-7.71 6.14-18.07 9.26-30.93 9.26a45.74 45.74 0 0 1 -20.6-4.54l-490.34 44.9q4.05 10.82 8.68 21.46l14.51-1.61z" fill="#fff" transform="translate(-50.37 -32.36)"/><path d="m753.84 197.63 115 10.39q-6.45-8.21-13.32-16.2l-102.39-9.36z" fill="#225e30" transform="translate(-50.37 -32.36)"/><path d="m699.75 177.58-479-43.78q-8.46 6.84-16.66 14.14l476.62 43.06z" fill="#225e30" transform="translate(-50.37 -32.36)"/><path d="m839.24 173.85-449.93-42.69-146.75-13.93q-11.09 7.92-21.78 16.57l634.77 58q-7.87-9.12-16.31-17.95z" fill="#85c178" transform="translate(-50.37 -32.36)"/><path d="m839.23 173.85q-3.56-3.73-7.21-7.39-5.37-5.37-10.88-10.52l-560.93-50.7q-8.92 5.78-17.65 12l146.75 13.93z" fill="#f2f3f8" transform="translate(-50.37 -32.36)"/><path d="m282.38 91.82 532.05 58c-148.73-134.03-364.1-153.35-532.05-58z" fill="#9da68b" transform="translate(-50.37 -32.36)"/><path d="m814.43 149.77-532.06-58q-11.22 6.36-22.15 13.42l560.92 50.7q-3.33-3.07-6.71-6.12z" fill="#85c178" transform="translate(-50.37 -32.36)"/><path d="m174.17 272.24a30.33 30.33 0 0 0 15.35-2.87 25.34 25.34 0 0 0 10.84-9.61l-8.71-5.44a15.6 15.6 0 0 1 -7.05 6.49 20.59 20.59 0 0 1 -10.46 1.87 22.53 22.53 0 0 1 -21.81-23.14q-.06-9.43 6-15t15.81-4.71a22.54 22.54 0 0 1 10.41 3.51 20.12 20.12 0 0 1 7.1 7.61l8.71-4.17a32.17 32.17 0 0 0 -10.93-11.28 34 34 0 0 0 -15.29-5.23q-13.75-1.35-22.82 6.9t-9.06 21.58a32.46 32.46 0 0 0 9.06 23 33.14 33.14 0 0 0 22.85 10.49z" fill="#fff" transform="translate(-50.37 -32.36)"/><path d="m218 251.55c0-4.07 1-7 3-8.83a10.23 10.23 0 0 1 8-2.32 10.7 10.7 0 0 1 7.14 3.07 10.07 10.07 0 0 1 2.61 7.33v24.53l9.41.61v-25.33c0-5.28-1.54-9.55-4.61-12.84a18 18 0 0 0 -12.11-5.57q-9.22-.8-13.44 5.3v-22.09l-9.41-.87v58.82l9.41.64z" fill="#fff" transform="translate(-50.37 -32.36)"/><path d="m262.16 271.68a22.51 22.51 0 0 0 15.33 7.22q9.93.64 15.25-5.88v5.82l9.4.61v-40.2l-9.4-.79v5.76q-5.33-7.25-15.25-8.08a19.49 19.49 0 0 0 -15.33 4.93 19 19 0 0 0 -6.36 14.85 22.16 22.16 0 0 0 6.36 15.76zm7-24.17a12.75 12.75 0 0 1 9.84-2.92 15 15 0 0 1 9.85 4.48 13.18 13.18 0 0 1 3.92 9.56 11.31 11.31 0 0 1 -3.92 9 13.09 13.09 0 0 1 -9.85 3 14.75 14.75 0 0 1 -9.84-4.39 13.29 13.29 0 0 1 -3.92-9.67 11.4 11.4 0 0 1 3.89-9.06z" fill="#fff" transform="translate(-50.37 -32.36)"/><path d="m322.54 260.75q0-6.13 4-8.48a14.31 14.31 0 0 1 9.4-1.59v-9.27q-9.84-.84-13.41 6.27v-6.68l-9.41-.79v40l9.41.62z" fill="#fff" transform="translate(-50.37 -32.36)"/><path d="m372.14 290.1q-3.43 2.61-9.54 2.26-9.32-.57-12.72-6.82l-8.1 3.74q5.57 9.87 20.65 10.72 9.31.48 15.85-3.83t6.54-13.12v-36.82l-9.24-.78v5.71q-5.29-7.17-15.16-8-9.23-.78-15.59 4.62a17.46 17.46 0 0 0 -6.36 13.9 20.42 20.42 0 0 0 6.36 14.76 23.46 23.46 0 0 0 15.59 7q9.85.65 15.16-5.76v4.76a9 9 0 0 1 -3.44 7.66zm-.52-17.25a13.63 13.63 0 0 1 -9.89 2.81 15.36 15.36 0 0 1 -9.89-4.21 12.19 12.19 0 0 1 -4-9.1 10.39 10.39 0 0 1 4-8.49 13.37 13.37 0 0 1 9.89-2.73 15.61 15.61 0 0 1 9.89 4.3 12.08 12.08 0 0 1 4 9 10.33 10.33 0 0 1 -4 8.42z" fill="#fff" transform="translate(-50.37 -32.36)"/><path d="m399.89 281.14q6.53 6.12 17.16 6.82 12.63.78 19.08-7l-7.76-4.46q-3.74 4.42-11.23 3.92a18 18 0 0 1 -9.15-3 11.41 11.41 0 0 1 -4.79-7l34.64 2.58a22.39 22.39 0 0 0 .35-3.36 20.23 20.23 0 0 0 -6.14-14.64 24 24 0 0 0 -15.73-7.14q-10.1-.87-16.55 4.38a17 17 0 0 0 -6.45 13.89 19.74 19.74 0 0 0 6.57 15.01zm3.22-17.46a10.05 10.05 0 0 1 4.44-6.49 13.71 13.71 0 0 1 8.72-1.81 14.9 14.9 0 0 1 8.05 3 11.72 11.72 0 0 1 4.4 7.3z" fill="#fff" transform="translate(-50.37 -32.36)"/><path d="m157.69 373.33a14.89 14.89 0 0 1 -4.45 6.51 10.17 10.17 0 0 1 -7.14 1.74v8.73q15 1 21.26-15.52l16.72-43.54-10-.38-11.15 30.72-13-31.64-10.28-.39 18.47 42.92z" fill="#fff" transform="translate(-50.37 -32.36)"/><path d="m185.84 352.56a21.63 21.63 0 0 0 6.71 16 23 23 0 0 0 16.29 6.72 22.46 22.46 0 0 0 16.34-6 20.19 20.19 0 0 0 6.66-15.4 21.33 21.33 0 0 0 -6.66-15.78 23.65 23.65 0 0 0 -16.34-7 21.76 21.76 0 0 0 -16.29 5.8 20.4 20.4 0 0 0 -6.71 15.66zm13.33-9.19a12.94 12.94 0 0 1 9.67-3.46 13.87 13.87 0 0 1 9.67 4.09 12.9 12.9 0 0 1 3.92 9.56 12.2 12.2 0 0 1 -3.92 9.34 13.16 13.16 0 0 1 -9.67 3.55 13.68 13.68 0 0 1 -9.67-4 13.06 13.06 0 0 1 -3.92-9.65 12.36 12.36 0 0 1 3.92-9.43z" fill="#fff" transform="translate(-50.37 -32.36)"/><path d="m248.92 333.71-9.41-.36v25.39q0 8 4.61 12.6a16.84 16.84 0 0 0 12.11 4.76q9.22.21 13.51-6v5.22l9.41.18v-40.64l-9.41-.36-.07 21.88c0 4-1 6.9-3 8.79a11 11 0 0 1 -8 2.73 10.25 10.25 0 0 1 -7.14-2.63 9.48 9.48 0 0 1 -2.61-7.15z" fill="#fff" transform="translate(-50.37 -32.36)"/><path d="m299.53 342.39v-6.76l-9.41-.36v40.41l9.42.2v-20.37q0-6.19 4-8.76a14.38 14.38 0 0 1 9.41-2v-9.36q-9.85-.39-13.42 7z" fill="#fff" transform="translate(-50.37 -32.36)"/><path d="m165.32 432.25q-10.11.08-16.56 6.65a22.45 22.45 0 0 0 -6.44 16.31 21.25 21.25 0 0 0 6.5 16.1q6.54 6.3 17.16 6 12.63-.37 19.08-9.8l-7.75-4.24q-3.75 5.36-11.24 5.56a15.39 15.39 0 0 1 -9.15-2.4 11.48 11.48 0 0 1 -4.79-7.43l34.67-.7a28.85 28.85 0 0 0 .35-3.82 22.13 22.13 0 0 0 -6.14-15.8 20.42 20.42 0 0 0 -15.69-6.43zm-13.32 19.16a13 13 0 0 1 4.45-7.81 13.36 13.36 0 0 1 8.71-3 12.77 12.77 0 0 1 8.06 2.55 12.06 12.06 0 0 1 4.4 7.79z" fill="#fff" transform="translate(-50.37 -32.36)"/><path d="m154.46 442.76v-61.44h-9.4v61.7z" fill="#fff"/><path d="m256.06 465.8-7.76-4.1q-3.74 5.19-11.23 5.39a15.75 15.75 0 0 1 -9.15-2.32 11 11 0 0 1 -4.79-7.19l34.71-.69a27.09 27.09 0 0 0 .35-3.7 21 21 0 0 0 -6.14-15.29q-6.15-6.3-15.73-6.21-10.09.06-16.55 6.44a21.34 21.34 0 0 0 -6.45 15.79 20.42 20.42 0 0 0 6.5 15.64q6.52 6 17.16 5.74 12.63-.36 19.08-9.5zm-28.58-23.13a13.73 13.73 0 0 1 8.72-2.85 13 13 0 0 1 8.05 2.46 11.58 11.58 0 0 1 4.4 7.53l-25.61.43a12.48 12.48 0 0 1 4.44-7.57z" fill="#fff" transform="translate(-50.37 -32.36)"/><path d="m306.33 462.9-8.1-4.08a12 12 0 0 1 -4.66 4.62 14.45 14.45 0 0 1 -6.92 1.86 13.18 13.18 0 0 1 -9.63-3.42 11.81 11.81 0 0 1 -3.88-9.05 12.19 12.19 0 0 1 3.88-9.18 13.6 13.6 0 0 1 9.63-3.78 14 14 0 0 1 6.92 1.57 10.54 10.54 0 0 1 4.49 4.5l8.1-4.46a18.7 18.7 0 0 0 -7.84-7.47 23.93 23.93 0 0 0 -11.58-2.73 23.25 23.25 0 0 0 -16.42 6.3 20.39 20.39 0 0 0 -6.6 15.42 19.71 19.71 0 0 0 6.58 15.15c4.42 4 9.86 5.92 16.42 5.74a24.62 24.62 0 0 0 11.61-3.15 20.85 20.85 0 0 0 8-7.84z" fill="#fff" transform="translate(-50.37 -32.36)"/><path d="m337.42 440.13v-8.22l-10.8.09v-11.12l-9.41 2.58v8.62l-8 .07v8.33l8-.1v19.15q0 7.83 4.71 10.61t15.5 1.28v-7.66q-3.61.24-6 .18a5.79 5.79 0 0 1 -3.62-1.1 4.44 4.44 0 0 1 -1.22-3.51v-19.07z" fill="#fff" transform="translate(-50.37 -32.36)"/><path d="m346.41 431.83v39.34l9.4-.26v-19.74q0-6 4-8.71a15.26 15.26 0 0 1 9.41-2.42v-9.1q-9.84.06-13.42 7.39v-6.58z" fill="#fff" transform="translate(-50.37 -32.36)"/><path d="m325.82 437.98 9.41-.26v-38.58l-9.41.08z" fill="#fff"/><path d="m376.62 416.68a5 5 0 0 0 -1.74 3.74 4.85 4.85 0 0 0 1.79 3.75 6.13 6.13 0 0 0 4.22 1.57 6.24 6.24 0 0 0 4.23-1.61 6.65 6.65 0 0 0 .65-.65 4.86 4.86 0 0 0 -.65-6.84 6.53 6.53 0 0 0 -8.5.04z" fill="#fff" transform="translate(-50.37 -32.36)"/><path d="m400.62 464.84q6.57 5.64 16.43 5.35a25.91 25.91 0 0 0 11.6-3 20.18 20.18 0 0 0 8-7.36l-8.11-3.81a11.59 11.59 0 0 1 -4.66 4.34 15.33 15.33 0 0 1 -6.92 1.75 13.68 13.68 0 0 1 -9.63-3.2 10.73 10.73 0 0 1 -3.87-8.47 11.12 11.12 0 0 1 3.87-8.62 14.16 14.16 0 0 1 9.63-3.56 14.66 14.66 0 0 1 6.92 1.47 10.1 10.1 0 0 1 4.49 4.21l8.1-4.18a18.19 18.19 0 0 0 -7.84-7 25.21 25.21 0 0 0 -11.58-2.55c-6.57.06-12 2-16.43 5.92a18.64 18.64 0 0 0 -6.57 14.48 18 18 0 0 0 6.57 14.23z" fill="#fff" transform="translate(-50.37 -32.36)"/><path d="m172.15 568.8a14.37 14.37 0 0 1 -6.92 2.28 12.35 12.35 0 0 1 -1.82.06 12.17 12.17 0 0 1 -11.68-12.64 14.17 14.17 0 0 1 13.5-14.32 12.85 12.85 0 0 1 6.92 1.34 10.14 10.14 0 0 1 4.49 4.55l8.1-5.08a17.93 17.93 0 0 0 -7.84-7.55 22.13 22.13 0 0 0 -11.58-2.35 23.59 23.59 0 0 0 -16.43 7.41 23.22 23.22 0 0 0 -6.57 16.61 20.48 20.48 0 0 0 6.57 15.72q6.59 6.06 16.43 5.33a24.33 24.33 0 0 0 11.6-3.8 22.81 22.81 0 0 0 8-8.66l-8.11-4a13.08 13.08 0 0 1 -4.66 5.1z" fill="#fff" transform="translate(-50.37 -32.36)"/><path d="m225.48 538.85q-5.31-6.72-15.24-6.17a21.94 21.94 0 0 0 -15.34 7.23 23 23 0 0 0 -6.35 16.22 20.25 20.25 0 0 0 6.35 15.36 19.3 19.3 0 0 0 15.34 5.32q9.93-.75 15.24-8.23v6l9.41-.7v-41.5l-9.41.51zm-3.92 24.68a14.59 14.59 0 0 1 -9.84 4.5 12.75 12.75 0 0 1 -9.85-3.14 12.13 12.13 0 0 1 -3.92-9.42 13.78 13.78 0 0 1 3.92-9.9 14.32 14.32 0 0 1 9.85-4.41 12.85 12.85 0 0 1 9.84 3.23 12 12 0 0 1 3.92 9.31 13.59 13.59 0 0 1 -3.92 9.83z" fill="#fff" transform="translate(-50.37 -32.36)"/><path d="m255.32 538.16v-6.9l-9.41.51v41.31l9.41-.7v-20.71q0-6.33 4-9.33a15.25 15.25 0 0 1 9.41-3v-9.55q-9.84.51-13.41 8.37z" fill="#fff" transform="translate(-50.37 -32.36)"/><path d="m333.12 530.23q-4.67-4.11-11.8-3.71-8.9.48-13 6.31v-20.52l-11.24.53v56.42l11.24-.84v-21.64c0-3.32.87-5.85 2.6-7.61a10.29 10.29 0 0 1 7-2.9 8.64 8.64 0 0 1 6.28 1.73c1.56 1.31 2.35 3.29 2.35 5.94v23.12l11.24-.83v-24.23q-.01-7.67-4.67-11.77z" fill="#fff" transform="translate(-50.37 -32.36)"/><path d="m383.89 529q-6.22-5.52-15.81-5-10.09.54-16.55 6.83a20.49 20.49 0 0 0 -6.45 15.17 17.82 17.82 0 0 0 6.54 14.41q6.53 5.4 17.33 4.59 12.56-.94 19-9.67l-9.06-4c-2.2 2.73-5.46 4.25-9.75 4.55q-10 .71-12.29-6.49l32.84-2.2a21.09 21.09 0 0 0 .43-4.11 18 18 0 0 0 -6.23-14.08zm-27.21 12.61a10.57 10.57 0 0 1 3.88-6.07 13.45 13.45 0 0 1 7.49-2.51 11.7 11.7 0 0 1 6.84 1.54 8.53 8.53 0 0 1 4 5.65z" fill="#fff" transform="translate(-50.37 -32.36)"/><path d="m409.21 529.36v-6.56l-11.24.62v38.34l11.24-.83v-18.22q0-5.51 4.05-8.11a15.44 15.44 0 0 1 9.19-2.38v-10.9a18.2 18.2 0 0 0 -8.06 2.26 11.55 11.55 0 0 0 -5.18 5.78z" fill="#fff" transform="translate(-50.37 -32.36)"/><path d="m463.86 524.39q-6.23-5.31-15.81-4.78-10.1.58-16.55 6.59a19.34 19.34 0 0 0 -6.45 14.63 16.78 16.78 0 0 0 6.54 13.83c4.33 3.45 10.13 4.89 17.33 4.36q12.56-1 19-9.34l-9.06-3.81c-2.2 2.63-5.46 4.1-9.75 4.4q-10 .69-12.29-6.2l32.84-2.15a20 20 0 0 0 .43-4 16.9 16.9 0 0 0 -6.23-13.53zm-27.21 12.17a10.16 10.16 0 0 1 3.88-5.84 13.76 13.76 0 0 1 7.49-2.43 12.25 12.25 0 0 1 6.84 1.46 8.23 8.23 0 0 1 4 5.42z" fill="#fff" transform="translate(-50.37 -32.36)"/><path d="m488.57 546.63a6.54 6.54 0 0 0 -4.62-1.3 7.37 7.37 0 0 0 -4.66 1.94 5.35 5.35 0 0 0 -1.87 4 4.57 4.57 0 0 0 1.92 3.76 6.56 6.56 0 0 0 4.66 1.27 7.61 7.61 0 0 0 4.62-2 5.28 5.28 0 0 0 1.92-3.93 4.51 4.51 0 0 0 -1.97-3.74z" fill="#fff" transform="translate(-50.37 -32.36)"/><path d="m514.5 396.62a5.07 5.07 0 0 1 -3.7-1.9c-4.65-5-10.44-21-11.6-69.29-.87-36 1.22-73.51 2.16-88 2.73-41.83 43.08-42.9 44.79-42.92v-1.4l-14-1.15c-14 4.14-33.79 15.27-35.74 45.14-.94 14.51-3 52.16-2.17 88.4 1 40.59 5.22 64.33 12.95 72.59a9.91 9.91 0 0 0 7.35 3.48c11.5 0 24.91-4.19 28.26-22.55a17.8 17.8 0 0 1 -4.87-1.24c-2.21 12.66-9.93 18.84-23.43 18.84z" fill="#000100" transform="translate(-50.37 -32.36)"/><path d="m624.73 395.08c9.41 16.16 10.57 38.31 3.16 54.16.29 2.86.58 5.71.87 8.52.64-.93 1.25-1.87 1.83-2.87 10-17.41 9.36-43.62-1.54-62.32a49.19 49.19 0 0 0 -7.56-9.94q.36 4.19.77 8.66c.86 1.2 1.74 2.46 2.47 3.79z" fill="#000100" transform="translate(-50.37 -32.36)"/><path d="m622.36 392.48c.38 4.12.77 8.4 1.19 12.77a49.56 49.56 0 0 1 2.35 15.68 50.46 50.46 0 0 1 -.3 5.54c.48 4.8 1 9.63 1.45 14.44a51.93 51.93 0 0 0 3.85-20c0-10.25-2.9-20.57-8.54-28.43z" fill="#000100" transform="translate(-50.37 -32.36)"/><path d="m555.69 418.31c-.05.78-.43 7.24-1.12 16.5 3.19 10.21 7.78 19.71 14.39 26.81a37.48 37.48 0 0 0 28.44 12.38c10.68 0 19.94-3.77 26.89-10.78-.23-2.24-.46-4.51-.7-6.79-4.87 6.4-13 12.57-26.19 12.57a32.65 32.65 0 0 1 -24.78-10.76 52.34 52.34 0 0 1 -8.53-12.84c6.88 10.46 17.39 17.69 30.77 17.69 11.25 0 20.67-4.63 27.23-13.39.24-.33.48-.66.71-1q-.43-4.26-.86-8.54a35.81 35.81 0 0 1 -3.85 6.54c-5.59 7.45-13.62 11.39-23.23 11.39a29.16 29.16 0 0 1 -12-2.52 63.43 63.43 0 0 1 -8.18.51v-5h.95c-10.07-8.37-15.74-23-15.78-37.39 0-14.88 6.31-31.92 23.57-36.59a37 37 0 0 1 9.59-1.25h.22a34.6 34.6 0 0 1 9.05 1.18 34.09 34.09 0 0 1 14.34 7.95c-.21-2.38-.41-4.7-.59-6.93a38.64 38.64 0 0 0 -22.8-7.2h-.23c-26.18.15-38 21.23-38.13 42.26q-.61-4.1-1.06-8.44a233.46 233.46 0 0 1 -1.11-27.57c-.43 0-.85.05-1.3.06a14.48 14.48 0 0 1 -3.75 1.57 217.28 217.28 0 0 0 3 39.84c0-.3 0-.47 0-.5z" fill="#000100" transform="translate(-50.37 -32.36)"/><path d="m596 378.8v5a27.6 27.6 0 0 1 6.54.8 28.23 28.23 0 0 1 15 9.5q-.36-4-.69-7.75a30.59 30.59 0 0 0 -14.3-6.93 34.4 34.4 0 0 0 -6.55-.62z" fill="#000100" transform="translate(-50.37 -32.36)"/><path d="m573.55 347.21c1.84-3.29 2.67-11.27 4.19-27.83 2.26-24.63 6.4-69.73 19.31-72.86l-.93-2.32-2.83-1.56c-12.21 6.38-16.64 35.84-19.89 69.51a10.05 10.05 0 0 1 .15 1.84z" fill="#000100" transform="translate(-50.37 -32.36)"/><path d="m625.76 597.71c15.87-17.64 12.55-48.73 10.57-67.31-.16-1.5-.31-2.94-.44-4.28-.47-4.73-1.36-13.17-2.49-23.9-1.27-12.1-2.92-27.74-4.64-44.46-.29-2.81-.58-5.66-.87-8.52s-.56-5.54-.84-8.33c-.49-4.81-1-9.64-1.45-14.44-.71-7.2-1.4-14.34-2.05-21.22-.42-4.37-.81-8.65-1.19-12.77 0-.4-.07-.8-.1-1.19q-.4-4.47-.77-8.66c-1.47-17-2.41-30.3-2.32-35.91 0-2.53.16-5.9.3-9.81 1-26.81 2.77-76.72-11.24-91.24a14.34 14.34 0 0 0 -5-3.41l.5.88v5.2c.29.25.58.51.86.8 12.53 13 10.72 63.38 9.84 87.59-.14 3.93-.26 7.33-.3 9.91-.09 5.23.67 16.63 1.9 31.36.18 2.23.38 4.55.59 6.93 0 .47.08.94.13 1.42q.33 3.78.69 7.75c1.3 14.22 2.86 30.15 4.46 46q.42 4.28.86 8.54.41 3.88.79 7.73c.24 2.28.47 4.55.7 6.79 1.5 14.51 2.94 28.18 4.14 39.56 1.12 10.71 2 19.14 2.48 23.86.14 1.36.29 2.81.45 4.32 1.89 17.75 5.06 47.46-9.32 63.44a32.31 32.31 0 0 1 -12.57 8.51 52.39 52.39 0 0 1 -19 3.16 46.22 46.22 0 0 1 -8-.69 36.88 36.88 0 0 1 -22.9-13.51c-18.94-23.35-16.81-70-12.81-89 3.66-17.37 6.38-48.79 7.8-68.08.69-9.26 1.07-15.72 1.12-16.5l-5-.29s0 .2 0 .5c-.34 5.72-3.7 59.25-8.79 83.34-3.3 15.66-7.86 66.39 13.83 93.13a42.43 42.43 0 0 0 14.2 11.51 45.74 45.74 0 0 0 20.62 4.58c12.86 0 23.22-3.12 30.93-9.26a34.67 34.67 0 0 0 4.33-4.03z" fill="#000100" transform="translate(-50.37 -32.36)"/><path d="m542.91 210.28 2.84 1.56.92 2.32 2.36 5.89h4.37v-4.06-5.21l-.5-.87-3.32-5.86 6.07-3.2h-11.43v-.44-35.62l-12.28-1.01v40.45z" fill="#171c21"/><path d="m555.65 200.85h2.11l-1.27-33.45-12.27-1.82v34.83.44z" fill="#1f222a"/><path d="m544.87 376.53c-12.71-2.39-21.06-8.1-21.06-23.5 0-12.68-4.25-41.18 6.12-51-3.37.7-9.35 3.41-10.11 13.83-1.07 14.61-.13 40 0 43.68.09 2.48 8.15 14.32 18.07 18.3a17.8 17.8 0 0 0 4.87 1.24 13.91 13.91 0 0 0 4.91-.39 14.48 14.48 0 0 0 3.75-1.57 32.73 32.73 0 0 1 -6.55-.59z" fill="#020303" transform="translate(-50.37 -32.36)"/><path d="m564.38 373.23h-.12l-.49.07a96.72 96.72 0 0 1 -9.85.79h-.17-1.28-.56-.82-2.64a95.11 95.11 0 0 1 -10.84-.47c-7.67-1-9-6.55-9-11.86v-50.34c0-11.06 10.71-10.62 10.71-10.62h.37.22c.38 0 .75.07 1.13.09h.05l2.38.21 2.21.21c1.36.14 2.73.3 4.09.48l1.08.13c1.69.23 3.37.48 5 .76h.2c1.69.28 3.37.58 5 .92-2.32-2.32-7.93-5.22-22.34-5a12.52 12.52 0 0 0 -8.88 3.43c-10.37 9.83-6.12 38.33-6.12 51 0 15.4 8.35 21.11 21.06 23.5a32.73 32.73 0 0 0 6.55.58c.45 0 .87 0 1.3-.06 7.63-.47 11.66-3.81 11.66-3.81z" fill="#3c3d3d" transform="translate(-50.37 -32.36)"/><path d="m564.71 373.18.64-.11h-.1z" fill="#b2b2b2" transform="translate(-50.37 -32.36)"/><path d="m573.53 314v45.32c0 7.4-1.08 9.51-3.3 11.56-.32.3-.67.6-1 .92a3.36 3.36 0 0 1 -.44.29l-.18.08c-.14.06-.27.13-.43.19l-.23.08c-.17.06-.34.12-.54.17l-.23.07-.68.17h-.21l-.59.13a8.88 8.88 0 0 0 3.55-1.22c2.92-2.48 4.34-4 4.34-12.48v-45.28a10.05 10.05 0 0 0 -.15-1.84 8.65 8.65 0 0 0 -.24-.94 8.92 8.92 0 0 1 .33 2.78z" fill="#b2b2b2" transform="translate(-50.37 -32.36)"/><path d="m564.15 373.27-.38.05.49-.07h-.11z" fill="#b2b2b2" transform="translate(-50.37 -32.36)"/><path d="m539.27 373.74c-7.67-1-9-6.55-9-11.86v-50.5c0-8.14 5.78-10.05 8.85-10.49l-.12-.09h.32s-10.71-.44-10.71 10.62v50.46c0 5.31 1.33 10.89 9 11.86a95.11 95.11 0 0 0 10.84.47 88 88 0 0 1 -9.18-.47z" fill="#b2b2b2" transform="translate(-50.37 -32.36)"/><path d="m543.47 301.1 2.21.21z" fill="#cfd0cf" transform="translate(-50.37 -32.36)"/><path d="m555.9 302.68h.2z" fill="#cfd0cf" transform="translate(-50.37 -32.36)"/><path d="m549.77 301.79 1.08.13z" fill="#cfd0cf" transform="translate(-50.37 -32.36)"/><path d="m541 300.89c-.38 0-.75-.07-1.13-.09h-.22l1.26.09z" fill="#cfd0cf" transform="translate(-50.37 -32.36)"/><path d="m567.91 372.43.23-.08z" fill="#cfd0cf" transform="translate(-50.37 -32.36)"/><path d="m570.23 370.87c-.32.3-.67.6-1 .92.33-.32.68-.62 1-.92z" fill="#cfd0cf" transform="translate(-50.37 -32.36)"/><path d="m567.14 372.67.23-.07z" fill="#cfd0cf" transform="translate(-50.37 -32.36)"/><path d="m568.57 372.16.18-.08z" fill="#cfd0cf" transform="translate(-50.37 -32.36)"/><path d="m566.25 372.88h.21z" fill="#cfd0cf" transform="translate(-50.37 -32.36)"/><path d="m565.25 373.08h.16z" fill="#cfd0cf" transform="translate(-50.37 -32.36)"/><path d="m541.22 373.74a11.7 11.7 0 0 1 -4.4-1.39c-3.81-2.19-4.6-6.41-4.6-10.47v-50.5c0-6.9 4.19-9.31 7.3-10.16l-.4-.33c-3.07.44-8.85 2.35-8.85 10.49v50.5c0 5.31 1.33 10.89 9 11.86a88 88 0 0 0 9.18.47h1.44a83.64 83.64 0 0 1 -8.67-.47z" fill="#cfd0cf" transform="translate(-50.37 -32.36)"/><path d="m555.9 302.68c-1.68-.28-3.36-.53-5-.76l-1.08-.13c-1.36-.18-2.73-.34-4.09-.48l-2.21-.21-2.38-.21h-.14-.09l2.9.25h.09c.9.08 1.9.18 3 .31v49.25l-6.37 10h.2l-2.57 4.95v5.8l-1.37.87a11.7 11.7 0 0 0 4.4 1.39 83.64 83.64 0 0 0 8.67.47h1.2.82.56 1.28.17a96.72 96.72 0 0 0 9.85-.79l.38-.05h.11.12l.33-.05.54-.1h.16l.25-.05.59-.13h.21l.68-.17.23-.07c.2-.05.37-.11.54-.17l.23-.08c.16-.06.29-.13.43-.19l.18-.08a3.36 3.36 0 0 0 .44-.29c.37-.32.72-.62 1-.92 2.22-2.05 3.3-4.16 3.3-11.56v-45.48a8.92 8.92 0 0 0 -.37-2.78c-.85-2.74-3.55-5.82-11.73-7.53l-.28-.05c-1.68-.34-3.36-.64-5-.92zm7.21 32.78-.25.15c-1-2.17.11-3.1.12-3.1l.13.25s-.93.79 0 2.7zm-.79 1c-1.69-2.38 0-5.06 0-5.08l.19.19a4.35 4.35 0 0 0 0 4.68zm5.38-.27h-3.64a.64.64 0 0 1 -.55-.7v-2.94a.64.64 0 0 1 .55-.7h3.64a.64.64 0 0 1 .55.7v2.94a.65.65 0 0 1 -.55.67zm.91-3.4.12-.25s1.08.93.08 3.1l-.2-.15c.88-1.95 0-2.72 0-2.73zm.54 3.46c1.55-2.18 0-4.66 0-4.68l.18-.19s1.7 2.7 0 5.08z" fill="#f4f4f4" transform="translate(-50.37 -32.36)"/><path d="m568 332.55a.34.34 0 0 0 -.31-.39h-3.64a.35.35 0 0 0 -.31.38v.25h4.26z" fill="#f4f4f4" transform="translate(-50.37 -32.36)"/><path d="m563.75 335.49a.37.37 0 0 0 .31.4h3.64a.37.37 0 0 0 .31-.4v-2.39h-4.26z" fill="#f4f4f4" transform="translate(-50.37 -32.36)"/><path d="m537.82 365.31 2.72-4.58v-58.73l-1-.82c-3.11.85-7.3 3.26-7.3 10.16v50.5c0 4.06.79 8.28 4.6 10.47l1-1.07z" fill="#f4f4f4" transform="translate(-50.37 -32.36)"/><path d="m490.19 328.34-.02.03h.02z" fill="#f4f4f4"/><path d="m543.85 301.16-2.9-.25-1.26-.09h-.37s1.68.08 4.53.34z" fill="#020303" transform="translate(-50.37 -32.36)"/><path d="m544.87 302.48-.83 18h.16c.28 0 .56 0 .56.59s-.32.58-.77.58l-.16 3.38h.37c.28 0 .56 0 .56.58s-.39.59-.9.59h-.08l-.17 3.53h.51c.29 0 .57 0 .57.59s-.39.59-.9.59a.79.79 0 0 1 -.23 0l-1.25 27.09-1.75 2.75 6.37-10v-49.27c-1.09-.13-2.09-.23-3-.31z" fill="#020303" transform="translate(-50.37 -32.36)"/><path d="m539.3 300.8h-.3l.12.09.4.33 1 .82v58.69l1.75-2.75 1.25-27.13a.67.67 0 0 1 -.58-.69c0-.45.26-.45.26-.45h.37l.17-3.53a.69.69 0 0 1 -.73-.71c0-.44.27-.44.27-.44h.51l.16-3.38h-.27a.71.71 0 0 1 -.67-.74c0-.44.27-.44.27-.44h.72l.83-18-.93-1.31h-.09c-2.81-.26-4.51-.36-4.51-.36z" fill="#3e3e3e" transform="translate(-50.37 -32.36)"/><path d="m544.76 321c0-.59-.28-.59-.56-.59h-.88s-.27 0-.27.44a.71.71 0 0 0 .67.74h.28c.44.03.76-.02.76-.59z" fill="#219e38" transform="translate(-50.37 -32.36)"/><path d="m544.76 325.58c0-.59-.28-.58-.56-.58h-.88s-.27 0-.27.44a.69.69 0 0 0 .73.71h.08c.51.02.9.02.9-.57z" fill="#219e38" transform="translate(-50.37 -32.36)"/><path d="m543.79 330.86c.51 0 .9 0 .9-.59s-.28-.59-.57-.59h-.88s-.26 0-.26.45a.67.67 0 0 0 .58.69.79.79 0 0 0 .23.04z" fill="#d01522" transform="translate(-50.37 -32.36)"/><path d="m490.17 328.37-2.72 4.58v5.97l-1 1.08 1.37-.88v-5.8l2.57-4.95h-.2z" fill="#020303"/><path d="m568.25 332.52a.64.64 0 0 0 -.55-.7h-3.64a.64.64 0 0 0 -.55.7v2.94a.64.64 0 0 0 .55.7h3.64a.65.65 0 0 0 .55-.7zm-.19.58v2.39a.37.37 0 0 1 -.31.4h-3.64a.37.37 0 0 1 -.31-.4v-2.39h-.12v-.3h.12v-.25a.35.35 0 0 1 .31-.38h3.64a.34.34 0 0 1 .31.39v.25z" fill="#232328" transform="translate(-50.37 -32.36)"/><path d="m513.38 300.44h-.12v.3h.12 4.26.05v-.3h-.05z" fill="#232328"/><path d="m568.81 335.61c1-2.17-.08-3.1-.08-3.1l-.12.25s.88.78 0 2.7z" fill="#232328" transform="translate(-50.37 -32.36)"/><path d="m569.33 331.35-.18.19s1.55 2.5 0 4.68l.17.21c1.68-2.38.01-5.08.01-5.08z" fill="#232328" transform="translate(-50.37 -32.36)"/><path d="m563.11 332.76-.13-.25s-1.12.93-.12 3.1l.25-.15c-.93-1.91 0-2.7 0-2.7z" fill="#232328" transform="translate(-50.37 -32.36)"/><path d="m562.51 331.54-.19-.19s-1.69 2.7 0 5.08l.19-.21a4.35 4.35 0 0 1 0-4.68z" fill="#232328" transform="translate(-50.37 -32.36)"/><path d="m602.92 445.65c5.59-7.29 4.62-16 4.05-19l-4.87 1.18c.42 2.5 1 9.34-3.18 14.82s-12 8.24-23.25 8.39h-.95v5a63.43 63.43 0 0 0 8.18-.51c9.15-1.18 15.88-4.48 20.02-9.88z" fill="#000100" transform="translate(-50.37 -32.36)"/><path d="m538.18 365.03 7.02 8.27 2.47 2.91 1.91 19.77 2.15-.52 4.87-1.18 1.84-.44-1.14-19.08-3.54-1.82-2.03-3.07-7.88-11.93z" fill="#f4f4f4"/><path d="m543.85 357.94 7.88 11.93 2.03 3.07 3.54 1.82-5.18-10.88-3.09-6.49z" fill="#000100"/><path d="m724.69 602-10.17 1.13-10.52 1.22 233.47 45.73q2-5.24 3.76-10.51z" fill="#fff" transform="translate(-50.37 -32.36)"/><path d="m624 690.81c-7.37.27-22.37 2.18-22.37 2.18s2.19 4.62 6.28 4.1 31.9 4.62 31.9 4.62l-6.54 4.64 2.34 3.27 26-3.27s0-5.73 7.91-7.91 89.17-1.36 104.71 0 26.18 4.64 26.45 12.82-12.82 12.26-21 19.9-44.18 9-67.9 6.28-61.09 3.82-76.19 7.09-43.26 12-52.52 19.63-30 13.09-57.26 10.36-55.63 0-55.63 0l-10.91-7.67s23.45-6.81 37.63-12.27 42.27-17.9 42.27-17.9 13.35-5.52 24.81-6.88 82.6-11.45 115.02-16.36a178.55 178.55 0 0 1 61.08 1.91l10.39-4.35s-28.09-3.28-52.9-4.09-79.35 10.09-79.35 10.09-60.82 7.35-76.69 10.35-32.68 10.9-41.4 15.81-51.81 15.54-57.81 19.36-9.82 8.72-3 14.18 12 6.52 27 6 35.19.54 47.46 0 34.09-3 53.72-3 37.09-7.89 48-17.43 14.74-4.33 27.82-8.45 62.42-10.4 78.79-10.4 45.55-1.63 54.82-2.72 2.72 0 5.45 0 11.47-3.24 31.38-17.42 13.63-10.1-10.64-23.46-130.63-9-145.89-6.54-25.89-2.74-33.23-2.47z" fill="#fff" transform="translate(-50.37 -32.36)"/><path d="m593.54 694.18s-24.41 2.73-30.13 7.09-31.77 7.5-31.77 7.5v3l30.81-3.68 13.64-1.63 2.45 1.49-37.22 8.35 3.41 2.32s39.27-6.14 44.58-6.41 9.55 2.73 14.86 2.18 6-.68 11.19-1.22 17.72-2.87 17.72-2.87l-3.41-2.62s-20.72.41-25.36 0-12.31-7.91-12.31-7.91l8.86-.81z" fill="#fff" transform="translate(-50.37 -32.36)"/><path d="m754.24 206.54-9.69 6.29 18.78 2 12.27 1.34 12.75 1.39 95.35 10.44q-7.11-10.14-14.83-20l-115-10.39z" fill="#85c178" transform="translate(-50.37 -32.36)"/><path d="m546.13 193.16 36.18 3 12.28 1 25.72 2.12 49.87 5.44-.44-6 11-7.74-476.62-43.04q-8.53 7.59-16.78 15.69l344.77 28.37z" fill="#85c178" transform="translate(-50.37 -32.36)"/><path d="m650.66 168.28 53.21 5.9-.4-8.91-.68-15.17-53.4-4.88z" fill="#d5d3d8"/><path d="m649.39 168.14 1.27.14-1.27-23.06h-.01l-19.04 13.44-10.97 7.74.44 5.95 1.21 16.25z" fill="#908b8f"/><path d="m650.66 168.28-1.27-.14-28.37 20.46 11.41.43 5.53.22 40.33 1.53 15.88-10.31 9.7-6.29z" fill="#c2beb8"/><path d="m844.68 465.61 35.83-.28v24.39l-15.14 1.13 4.85 2.55 14.46-1.19v-29.71h-44.17v22.51l4.17-3.71z" fill="#fff"/><path d="m887.06 526.68a2.25 2.25 0 0 0 1.8-1.08v.63.22a1.88 1.88 0 0 1 -1.85 1.9 3.07 3.07 0 0 1 -1.66-.31l-.26.81a3.71 3.71 0 0 0 1.89.31 3.36 3.36 0 0 0 2.06-.85 3.45 3.45 0 0 0 .8-2.63v-3.28c0-.68 0-1.14 0-1.55l-.89.08v.85a1.75 1.75 0 0 0 -1.77-.87 3 3 0 0 0 -2.55 3.19 2.17 2.17 0 0 0 0 .36 2.32 2.32 0 0 0 2.43 2.22zm.29-5a1.35 1.35 0 0 1 1.44 1 1.76 1.76 0 0 1 .06.46v1a1.76 1.76 0 0 1 -.09.55 1.65 1.65 0 0 1 -1.42 1.15c-1.12.09-1.68-.8-1.68-1.91 0-1.31.69-2.19 1.69-2.25z" fill="#fff" transform="translate(-50.37 -32.36)"/><path d="m892.4 521.79v-1.09l-.9.06v1.74 3.92l1-.08v-3a1.85 1.85 0 0 1 0-.47 1.56 1.56 0 0 1 1.38-1.4h.35v-1a.71.71 0 0 0 -.29 0 1.82 1.82 0 0 0 -1.54 1.32z" fill="#fff" transform="translate(-50.37 -32.36)"/><path d="m897.59 526a5.13 5.13 0 0 0 1.88-.49l-.17-.7a4.11 4.11 0 0 1 -1.57.41 2.2 2.2 0 0 1 -.44 0 1.66 1.66 0 0 1 -1.5-1.79l4-.29a3.68 3.68 0 0 0 0-.47 2.84 2.84 0 0 0 0-.41 2.19 2.19 0 0 0 -2.35-2 3.48 3.48 0 0 0 -2.64 3.82 2.4 2.4 0 0 0 2.79 1.92zm-.23-5c1.16-.08 1.43.89 1.43 1.52l-3 .22a1.81 1.81 0 0 1 1.57-1.74z" fill="#fff" transform="translate(-50.37 -32.36)"/><path d="m903.45 525.52a5.43 5.43 0 0 0 1.89-.48l-.18-.69a4.28 4.28 0 0 1 -1.57.4 1.78 1.78 0 0 1 -.46 0 1.63 1.63 0 0 1 -1.48-1.76l4-.29a3.53 3.53 0 0 0 0-.46 2.18 2.18 0 0 0 -2.34-2.39 2.89 2.89 0 0 0 -2.65 3.12 2.31 2.31 0 0 0 0 .64 2.37 2.37 0 0 0 2.79 1.91zm-.23-4.94c1.16-.08 1.43.88 1.43 1.51l-3 .21a1.8 1.8 0 0 1 1.57-1.72z" fill="#fff" transform="translate(-50.37 -32.36)"/><path d="m909.73 519.46a2.24 2.24 0 0 0 -1.87 1.13v-.89l-.92.06v1.46 3.92l1-.08v-3.23a1.39 1.39 0 0 1 .07-.46 1.55 1.55 0 0 1 1.38-1.08c1-.07 1.31.62 1.31 1.48v3.07l1-.08v-3.17a1.87 1.87 0 0 0 -1.97-2.13z" fill="#fff" transform="translate(-50.37 -32.36)"/><path d="m891.68 534.4a2.47 2.47 0 0 1 -1.36-.27l-.26.8a3 3 0 0 0 1.59.23 2.14 2.14 0 0 0 2.12-1.88c0-.83-.49-1.26-1.49-1.54-.74-.21-1.08-.43-1.08-.85s.39-.79 1-.85a2.12 2.12 0 0 1 1.16.22l.26-.75a2.68 2.68 0 0 0 -1.39-.23 1.93 1.93 0 0 0 -2 1.81c0 .68.5 1.19 1.5 1.45.76.21 1 .47 1 .93s-.3.86-1.05.93z" fill="#fff" transform="translate(-50.37 -32.36)"/><path d="m898.08 528.84a2.46 2.46 0 0 0 -2 1.24l-.05-1-.93.08v1.84l.06 6 1-.11v-3a1.82 1.82 0 0 0 1.75.7 3 3 0 0 0 2.57-3.2c0-1.64-1.03-2.67-2.4-2.55zm-.43 4.91a1.42 1.42 0 0 1 -1.55-1 2.67 2.67 0 0 1 0-.4v-1a1.42 1.42 0 0 1 .07-.42 1.81 1.81 0 0 1 1.55-1.38c1.09-.11 1.69.79 1.69 1.89a2 2 0 0 1 -1.76 2.31z" fill="#fff" transform="translate(-50.37 -32.36)"/><path d="m905.75 530.35a1.77 1.77 0 0 0 -2.16-2 3.84 3.84 0 0 0 -1.86.64l.24.63a3 3 0 0 1 1.47-.53c1.16-.1 1.29.69 1.29 1.14v.11c-2.19.19-3.41 1-3.41 2.34a1.42 1.42 0 0 0 1.76 1.33 2.46 2.46 0 0 0 1.73-1l.09.67h.94a7 7 0 0 1 -.09-1.29zm-1 1.88a1.57 1.57 0 0 1 -1.36 1 .82.82 0 0 1 -.27 0 .8.8 0 0 1 -.73-.86c0-1.06 1.28-1.37 2.4-1.45v1a.85.85 0 0 1 -.09.31z" fill="#fff" transform="translate(-50.37 -32.36)"/><path d="m910 532.55a1.83 1.83 0 0 1 -.47 0 1.68 1.68 0 0 1 -1.53-1.83 2.09 2.09 0 0 1 2-2.19 2.35 2.35 0 0 1 1.2.14l.23-.76a3.16 3.16 0 0 0 -1.43-.15 3.09 3.09 0 0 0 -3 3.11 2.33 2.33 0 0 0 2.82 2.46 4.43 4.43 0 0 0 1.63-.47l-.19-.71a3.49 3.49 0 0 1 -1.26.4z" fill="#fff" transform="translate(-50.37 -32.36)"/><path d="m914.82 527.35a2.92 2.92 0 0 0 -2.66 3.08 2.28 2.28 0 0 0 2.79 2.4 5.38 5.38 0 0 0 1.88-.52l-.17-.66a4.31 4.31 0 0 1 -1.57.42 1.63 1.63 0 0 1 -.49 0 1.57 1.57 0 0 1 -1.45-1.68l4-.37a3.38 3.38 0 0 0 0-.45 2.26 2.26 0 0 0 0-.52 2.06 2.06 0 0 0 -2.33-1.7zm-1.67 2.36a1.81 1.81 0 0 1 1.58-1.7 1.15 1.15 0 0 1 .37 0 1.25 1.25 0 0 1 1 1.42z" fill="#fff" transform="translate(-50.37 -32.36)"/></svg>