<svg viewBox="0 0 40 40" xmlns="http://www.w3.org/2000/svg"><g fill="#8fc03f"><path d="m4.76 28.56a.84.84 0 0 0 -.56 1 .92.92 0 0 0 .18.32 9 9 0 0 0 5.94 2.58 3.75 3.75 0 0 0 3-1.22 11.13 11.13 0 0 0 6.68 3.34 11.16 11.16 0 0 0 6.71-3.33 3.71 3.71 0 0 0 3 1.25 9 9 0 0 0 5.94-2.58.84.84 0 0 0 -.06-1.18.92.92 0 0 0 -.32-.18 6.25 6.25 0 0 1 -3.71-4.56 5.22 5.22 0 0 0 .52-2.13 3.53 3.53 0 0 0 -.77-2.4c.64-4.6-.07-8.17-2.13-10.59s-5.06-3.46-9.18-3.46-7.29 1.16-9.25 3.48-2.75 5.99-2.13 10.6a3.56 3.56 0 0 0 -.77 2.41 5.17 5.17 0 0 0 .56 2.21 6.14 6.14 0 0 1 -3.65 4.44zm15.24 3.52c-1.69 0-6.38-2.53-7-6.23a2.89 2.89 0 0 0 -1.66-2.17 2.11 2.11 0 0 1 -.93-1.84 1.06 1.06 0 0 1 .16-.73 1.25 1.25 0 0 0 .68-1.32c-.11-.65-.18-1.27-.23-1.87a.42.42 0 0 1 .38-.45 11.2 11.2 0 0 0 8.36-2.95.37.37 0 0 1 .5 0 11.28 11.28 0 0 0 8.28 3 .41.41 0 0 1 .42.41c-.05.59-.12 1.2-.23 1.84a1.28 1.28 0 0 0 .68 1.34 1 1 0 0 1 .18.73 2.13 2.13 0 0 1 -.94 1.83 2.9 2.9 0 0 0 -1.65 2.19c-.65 3.74-5.31 6.22-7 6.22z"/><path d="m21.32 26a2.55 2.55 0 0 1 -1.27.29 2.74 2.74 0 0 1 -1.29-.29 1.25 1.25 0 0 0 -1.22 2.18 5.12 5.12 0 0 0 2.51.61 5.19 5.19 0 0 0 2.5-.61 1.25 1.25 0 1 0 -1.14-2.22h-.08z"/><path d="m18.55 22.14a1.24 1.24 0 0 0 -.07-1.76 3.35 3.35 0 0 0 -4.33 0 1.25 1.25 0 0 0 1.7 1.83.91.91 0 0 1 .93 0 1.25 1.25 0 0 0 1.77-.07z"/><path d="m21.52 20.38a1.25 1.25 0 1 0 1.7 1.83.91.91 0 0 1 .93 0 1.25 1.25 0 1 0 1.7-1.83 3.35 3.35 0 0 0 -4.33 0z"/></g><path d="m37 14.37a16.91 16.91 0 0 0 -17-14.37 16.91 16.91 0 0 0 -17 14.37 3.8 3.8 0 0 0 -3 3.73v3.81a3.82 3.82 0 0 0 3.81 3.81h1.9a1 1 0 0 0 1-1v-9.48a1 1 0 0 0 -1-1h-.14a14.43 14.43 0 0 1 14.43-11.74 14.43 14.43 0 0 1 14.43 11.78h-.15a1 1 0 0 0 -1 1v9.52a1 1 0 0 0 1 1h1.91a3.82 3.82 0 0 0 3.81-3.89v-3.81a3.8 3.8 0 0 0 -3-3.73z" fill="#8fc03f"/><path d="m34.29 35.37a43.35 43.35 0 0 1 -6.45-1.58.85.85 0 0 0 -.93.29c-1.33 1.77-3.52 2.59-6.91 2.59s-5.59-.82-6.92-2.59a.83.83 0 0 0 -.92-.29 41.7 41.7 0 0 1 -6.33 1.53c-2.9.52-4.65.84-5.77 3.53a.84.84 0 0 0 .45 1.09.87.87 0 0 0 .32.06h38.34a.83.83 0 0 0 .83-.83.87.87 0 0 0 -.06-.32c-1.11-2.65-2.82-2.96-5.65-3.48z" fill="#8fc03f"/></svg>