<svg viewBox="0 0 40 40" xmlns="http://www.w3.org/2000/svg"><g fill="#00bada"><path d="m21.25 8.33h-10a1.25 1.25 0 0 0 0 2.5h10a1.25 1.25 0 0 0 0-2.5z"/><path d="m22.5 15.42a1.25 1.25 0 0 0 -1.25-1.25h-13.33a1.25 1.25 0 1 0 0 2.5h13.33a1.25 1.25 0 0 0 1.25-1.25z"/><path d="m7.92 20a1.25 1.25 0 0 0 0 2.5h9.16a1.25 1.25 0 0 0 0-2.5z"/><path d="m18.83 29.43a.4.4 0 0 0 -.38-.26h-14.28a.85.85 0 0 1 -.84-.84v-24.16a.85.85 0 0 1 .84-.84h21.66a.85.85 0 0 1 .84.84v16.83a.41.41 0 0 0 .41.42.43.43 0 0 0 .3-.13l2.13-2.13a1.68 1.68 0 0 0 .49-1.23v-14.6a3.33 3.33 0 0 0 -3.33-3.33h-23.34a3.33 3.33 0 0 0 -3.33 3.33v25.84a3.33 3.33 0 0 0 3.33 3.33h13.12a.83.83 0 0 0 .79-.59 3.15 3.15 0 0 1 .84-1.36l.66-.67a.4.4 0 0 0 .09-.45z"/></g><path d="m20.1 33.55a.41.41 0 0 0 -.59 0 .47.47 0 0 0 -.11.21l-1 5.23a.83.83 0 0 0 .6 1.01h.17.17l5.23-1a.41.41 0 0 0 .33-.49.53.53 0 0 0 -.11-.21z" fill="#8fc03f"/><path d="m38.71 19.61a4.36 4.36 0 0 0 -6.16 0l-10.84 10.83a.85.85 0 0 0 0 1.18l5 5a.83.83 0 0 0 1.18 0l10.84-10.83a4.37 4.37 0 0 0 0-6.18z" fill="#8fc03f"/></svg>