<svg viewBox="0 0 780.8 760.56" xmlns="http://www.w3.org/2000/svg" xmlns:xlink="http://www.w3.org/1999/xlink"><clipPath id="a" transform="translate(-3 -12.43)"><path d="m0 0h799v773h-799z"/></clipPath><mask id="b" height="568.4" maskUnits="userSpaceOnUse" width="305.62" x="282.58" y="121.9"><rect fill="#fff" height="252.06" rx="26.89" transform="matrix(.10036171 -.99495102 .99495102 .10036171 -24.97 799.86)" width="545.79" x="165.32" y="292.27"/></mask><mask id="c" height="26.51" maskUnits="userSpaceOnUse" width="26.51" x="492.31" y="450.6"><path d="m508.48 475.16c-2.22-.82-2.89-1.51-2.79-2.46s1.2-1.75 2.89-1.58 2.37 1.1 2.3 2.36l2.22.22a4 4 0 0 0 -2.84-4.15l.22-2.19-3-.31-.22 2.17c-2 .23-3.68 1.33-3.87 3.27-.24 2.32 1.56 3.66 4.29 4.62 2.45.85 2.86 1.79 2.77 2.72-.07.69-.67 1.75-2.89 1.52s-2.79-1.21-2.78-2.41l-2.2-.22c-.11 2.21 1.42 3.61 3.3 4.22l-.22 2.17 3 .31.22-2.16c2-.17 3.66-1.15 3.87-3.21.25-2.85-2.05-4.05-4.27-4.89z" fill="#fff" fill-rule="evenodd" transform="translate(-3 -12.43)"/></mask><clipPath id="d" transform="translate(-3 -12.43)"><path d="m347.32 449.13h24.2v24.2h-24.2z" transform="matrix(.10036171 -.99495102 .99495102 .10036171 -135.57 772.52)"/></clipPath><g clip-path="url(#a)"><path d="m782.23 357.05a385.42 385.42 0 0 0 -66-183.85l-41.13 3.14c-16.94 1.32-31.73-11.81-33-29.32l-.08-.66c-1.07-15.53 8.84-29.32 23.05-33-72.51-68.92-171.4-107.91-277.55-99.9-148.28 11.24-269.72 111.34-318.71 245.89l53-4.05c16.93-1.32 31.72 11.81 33 29.32l.08.66c1.24 17.51-11.48 32.71-28.42 34l-75.17 5.7a390.74 390.74 0 0 0 -4.79 95.64c7.27 101.59 52.62 190.88 120.61 254.22l75.59-5.69c16.93-1.32 31.72 11.81 33 29.32l.08.66c1.16 16.76-10.49 31.38-26.35 33.7a358.21 358.21 0 0 0 192.4 39.15c143.65-10.91 262-105.06 313.91-233.25l-54.44 4.13c-16.93 1.32-31.72-11.81-33-29.32l-.08-.66c-1.24-17.51 11.48-32.71 28.42-34l79-5.95a390.6 390.6 0 0 0 8.18-76.64s-.83-31.55-1.6-39.24z" fill="#e0f7fb" transform="translate(-3 -12.43)"/><path d="m168.64 413.9c0 11.56-9.08 20.89-20.32 20.89s-20.32-9.33-20.32-20.89 9.09-20.9 20.32-20.9 20.32 9.33 20.32 20.9z" fill="#4dcfe6" transform="translate(-3 -12.43)"/><path d="m737.1 421a13.56 13.56 0 1 1 -13.55-14 13.76 13.76 0 0 1 13.55 14z" fill="#4dcfe6" transform="translate(-3 -12.43)"/><path d="m315.73 95.81a11.81 11.81 0 1 1 -11.81-12.14 12 12 0 0 1 11.81 12.14z" fill="#4dcfe6" transform="translate(-3 -12.43)"/><path d="m279.8 510 35.52 10.9-8.43 77.1s-8.42-10.9-8-16.85-31.89-7.68-37.83-6.19-14.63 10.9-14.63 10.9a185.32 185.32 0 0 1 37.92 18c18.59 11.81 20.57 8.5 20.57 8.5s-.91 9.09-2.31 20c-1.82 14-3.72 31.22 1.73 39.07 0 0-59.23-17.1-63-17.59s-5.28 1.73-2.06 3.55 34.12 16.35 38.58 17.84 18.91 5.2 25.85 8a66.76 66.76 0 0 1 10.91 5.45l-120.12-2.18-4.58-35 24-79 46.08-54.5z" fill="#cc9393" transform="translate(-3 -12.43)"/><g fill="#b2726f"><path d="m320.77 473.18s-15.36-.33-19.91 21.56 14.46 25.69 14.46 25.69z" transform="translate(-3 -12.43)"/><path d="m282.77 535.29a.75.75 0 0 0 .09-.33.83.83 0 0 0 -.09.33z" transform="translate(-3 -12.43)"/><path d="m261.13 575c5.95-1.49 38.25.33 37.83 6.2s8 16.85 8 16.85l4.87-45c-7.68.91-15.36 11.07-25.11 9.25s-4.63-24.2-3.88-27a186.57 186.57 0 0 1 -7.77 23.46c-3.14 7.35-10.91 13.63-15.94 17a8 8 0 0 1 2-.76z" transform="translate(-3 -12.43)"/><path d="m261 599.47c6 8.51 3.14 28.91 2.65 34.19s3.8-11.48 19.16-12.88c8.26-.74 16.36-1 21.4-1.49a22.52 22.52 0 0 0 .16-6.85s-1.32 3.22-19.91-8.59a185.38 185.38 0 0 0 -37.91-18l-24 7.35 1.73 3.14c-.08.07 30.65-5.46 36.72 3.13z" transform="translate(-3 -12.43)"/><path d="m277.82 675.46c-4.46-1.49-35.28-16.11-38.58-17.84s-1.74-4 2.06-3.56 63 17.6 63 17.6c-2-2.81-3.14-6.94-3.71-11.73-12.07-2.15-34.95-6.86-39.9-13.22-6.86-8.67-5.29-9.33-11.73-5.12s-18.76 12.14-26.52 12.14-16.85-.66-16.85-.66l-.09 4.88s5.21 2.47 15.37 3.14 28.83 8.83 40.72 13c8 2.8 51.47 19.07 65.1 23.62l-12.14-8.92a65.79 65.79 0 0 0 -10.91-5.45c-6.99-2.76-21.45-6.48-25.82-7.88z" transform="translate(-3 -12.43)"/></g><path d="m314.58 688.84s20.81 9.58 13.46 20.89c-35.04 37.27-143.54-25.23-143.54-25.23z" fill="#cc9393" transform="translate(-3 -12.43)"/><rect fill="#070707" height="277.15" rx="40.33" transform="matrix(.10036171 -.99495102 .99495102 .10036171 -24.97 799.86)" width="570.88" x="152.77" y="279.72"/><rect fill="#1d1d1d" height="252.06" rx="26.89" transform="matrix(.10036171 -.99495102 .99495102 .10036171 -24.97 799.86)" width="545.79" x="165.32" y="292.27"/><g mask="url(#b)"><path d="m165.47 292.49h545.84v252.08h-545.84z" fill="#fff" transform="matrix(.10036171 -.99495102 .99495102 .10036171 -25.05 800.25)"/><g fill="#e5e5e5"><rect height="65.88" rx="5.38" transform="matrix(.10036171 -.99495102 .99495102 .10036171 -337.67 941.35)" width="18.82" x="350.7" y="629.03"/><rect height="45.71" rx="5.38" transform="matrix(.10036171 -.99495102 .99495102 .10036171 -232.91 1083.68)" width="13.44" x="484.47" y="652.34"/><rect height="65.88" rx="5.38" transform="matrix(.10036171 -.99495102 .99495102 .10036171 -266.32 887.71)" width="18.82" x="356.71" y="562.75"/><rect height="45.71" rx="5.38" transform="matrix(.10036171 -.99495102 .99495102 .10036171 -161.56 1030.04)" width="13.44" x="490.49" y="586.06"/><rect height="120.33" rx="5.38" transform="matrix(.10036171 -.99495102 .99495102 .10036171 -186.76 854.34)" width="13.44" x="380.72" y="474.84"/><rect height="45.71" rx="5.38" transform="matrix(.10036171 -.99495102 .99495102 .10036171 -246.92 836.49)" width="13.44" x="340.77" y="536.49"/><rect height="16.13" rx="5.38" transform="matrix(.10036171 -.99495102 .99495102 .10036171 -83.33 994.85)" width="16.13" x="508.8" y="540"/><rect height="8.07" rx="2.69" transform="matrix(.10036171 -.99495102 .99495102 .10036171 -113.83 1017.3)" width="8.07" x="509.99" y="572.12"/><rect height="65.88" rx="5.38" transform="matrix(.10036171 -.99495102 .99495102 .10036171 -300.45 912.83)" width="18.82" x="353.54" y="594.18"/><rect height="45.71" rx="5.38" transform="matrix(.10036171 -.99495102 .99495102 .10036171 -195.69 1055.16)" width="13.44" x="487.31" y="617.49"/></g><path d="m322.6 529.51 199.31 20.11" fill="none" stroke="#e4e4e4" stroke-width=".67"/><path d="m319.83 556.93 199.31 20.12" fill="none" stroke="#e4e4e4" stroke-width=".67"/><path d="m329.63 593.73 185.94 18.76" fill="none" stroke="#e4e4e4" stroke-width=".67"/><path d="m322.68 662.62 185.93 18.76" fill="none" stroke="#e4e4e4" stroke-width=".67"/><path d="m326.12 628.51 185.94 18.76" fill="none" stroke="#e4e4e4" stroke-width=".67"/><path d="m427.33 55.72h69.91v252.08h-69.91z" fill="#8fc03f" transform="matrix(.10036171 -.99495102 .99495102 .10036171 232.02 611.03)"/><path d="m570.83 200.83a8.06 8.06 0 0 1 7.21 8.83 8.05 8.05 0 0 1 -8.83 7.22 8.06 8.06 0 0 1 -7.21-8.88 8.06 8.06 0 0 1 8.83-7.17z" fill="#80dded" transform="translate(-3 -12.43)"/><rect fill="#80dded" height="16.13" rx="2.69" transform="matrix(.10036171 -.99495102 .99495102 .10036171 131.47 510.94)" width="16.13" x="348.6" y="179.26"/><rect fill="#80dded" height="120.33" rx="2.69" transform="matrix(.10036171 -.99495102 .99495102 .10036171 197.48 600.62)" width="13.44" x="432.54" y="135.49"/><rect fill="#80dded" height="28.91" rx="2.69" transform="matrix(.10036171 -.99495102 .99495102 .10036171 188.27 495.55)" width="10.19" x="371.45" y="133.76"/><rect fill="#80dded" height="10.19" rx="2.69" transform="matrix(.10036171 -.99495102 .99495102 .10036171 320.12 674.68)" width="10.19" x="536.44" y="159.78"/><rect fill="#80dded" height="10.19" rx="2.69" transform="matrix(.10036171 -.99495102 .99495102 .10036171 330.7 689.05)" width="10.19" x="549.68" y="161.11"/><rect fill="#80dded" height="10.19" rx="2.69" transform="matrix(.10036171 -.99495102 .99495102 .10036171 341.18 703.29)" width="10.19" x="562.79" y="162.44"/><path d="m508.48 475.16c-2.22-.82-2.89-1.51-2.79-2.46s1.2-1.75 2.89-1.58 2.37 1.1 2.3 2.36l2.22.22a4 4 0 0 0 -2.84-4.15l.22-2.19-3-.31-.22 2.17c-2 .23-3.68 1.33-3.87 3.27-.24 2.32 1.56 3.66 4.29 4.62 2.45.85 2.86 1.79 2.77 2.72-.07.69-.67 1.75-2.89 1.52s-2.79-1.21-2.78-2.41l-2.2-.22c-.11 2.21 1.42 3.61 3.3 4.22l-.22 2.17 3 .31.22-2.16c2-.17 3.66-1.15 3.87-3.21.25-2.85-2.05-4.05-4.27-4.89z" fill="#fff" fill-rule="evenodd" transform="translate(-3 -12.43)"/><g mask="url(#c)"><path d="m496.47 464.19h24.2v24.2h-24.2z" fill="#e5e5e5" transform="matrix(.10036171 -.99495102 .99495102 .10036171 -19.38 922.03)"/></g><g clip-path="url(#d)"><path d="m363.56 453.15.12-1.22a.63.63 0 0 0 -.57-.7.65.65 0 0 0 -.7.51l-4-.4a.66.66 0 0 0 -.58-.65.65.65 0 0 0 -.71.58l-.12 1.22a9.67 9.67 0 1 0 6.56.66zm-1.92 4.55a2.05 2.05 0 0 1 1.49-.47 2.05 2.05 0 0 1 1.8 2.21 2 2 0 0 1 -.73 1.35 2.1 2.1 0 0 1 -1.51.47 2.05 2.05 0 0 1 -1.8-2.21 2 2 0 0 1 .75-1.35zm-6.55-.67a2.09 2.09 0 0 1 1.49-.46 2 2 0 0 1 1.8 2.21 2 2 0 0 1 -.73 1.35 2.1 2.1 0 0 1 -1.51.47 2.05 2.05 0 0 1 -1.8-2.21 2 2 0 0 1 .75-1.39zm-.31 7.3a1.43 1.43 0 0 1 -1.26-1.54 1.4 1.4 0 0 1 1.52-1.24 1.4 1.4 0 0 1 -.25 2.78zm5.44 3.24a2 2 0 0 1 -3.31-1.74 2 2 0 0 1 .74-1.35 2.05 2.05 0 0 1 1.49-.47 2.05 2.05 0 0 1 1.8 2.21 2 2 0 0 1 -.72 1.35zm3.24-2.36a1.43 1.43 0 0 1 -1.25-1.54 1.38 1.38 0 0 1 1.52-1.24 1.4 1.4 0 0 1 -.25 2.78z" fill="#e5e5e5" transform="translate(-3 -12.43)"/><path d="m358.53 470a8.07 8.07 0 1 0 -7.21-8.84 8.06 8.06 0 0 0 7.21 8.84z" fill="none" stroke="#fff" stroke-miterlimit="10" stroke-width=".97" transform="translate(-3 -12.43)"/></g><rect fill="#e5e5e5" height="33.61" rx="4.03" transform="matrix(.10036171 -.99495102 .99495102 .10036171 -166.17 780.41)" width="8.07" x="352.82" y="469.84"/><rect fill="#e5e5e5" height="33.61" rx="4.03" transform="matrix(.10036171 -.99495102 .99495102 .10036171 -106.84 861.01)" width="8.07" x="427.06" y="477.34"/><rect fill="#e5e5e5" height="33.61" rx="4.03" transform="matrix(.10036171 -.99495102 .99495102 .10036171 -46.97 942.34)" width="8.07" x="501.97" y="484.9"/><path d="m496.5 508.85 16 1.62a2.7 2.7 0 0 1 2.41 2.95 2.69 2.69 0 0 1 -3 2.4l-15.91-1.62a2.69 2.69 0 0 1 -2.41-2.94 2.69 2.69 0 0 1 2.91-2.41z" fill="#e5e5e5" transform="translate(-3 -12.43)"/><path d="m422.26 501.36 16.05 1.64a2.68 2.68 0 0 1 2.41 2.94 2.69 2.69 0 0 1 -3 2.41l-16-1.62a2.69 2.69 0 0 1 -2.41-2.95 2.69 2.69 0 0 1 2.95-2.42z" fill="#e5e5e5" transform="translate(-3 -12.43)"/><path d="m348 493.86 16.05 1.62a2.69 2.69 0 0 1 2.41 2.95 2.69 2.69 0 0 1 -3 2.4l-16-1.62a2.68 2.68 0 0 1 -2.41-2.94 2.69 2.69 0 0 1 2.95-2.41z" fill="#e5e5e5" transform="translate(-3 -12.43)"/><path d="m439.6 467.25-4.24-.43c.31-1.09.63-2.19.95-3.29l1.16-4a.46.46 0 0 0 -.79-.43l-1.87 2.14-3.81 4.36-2.31 2.62-.73.84-.39.44a.46.46 0 0 0 .32.72l4.24.43c-.31 1.09-.63 2.19-.95 3.28-.39 1.33-.77 2.66-1.16 4a.46.46 0 0 0 .79.43l1.87-2.14 3.81-4.35 2.31-2.63.73-.83.39-.44a.46.46 0 0 0 -.32-.72" fill="#e5e5e5" fill-rule="evenodd" transform="translate(-3 -12.43)"/><rect fill="#89cb00" fill-opacity=".8" height="52.43" rx="7.39" transform="matrix(.10036171 -.99495102 .99495102 .10036171 -45.84 816.11)" width="14.79" x="429.37" y="411.74"/><rect fill="#e5e5e5" height="122.34" rx="5.38" transform="matrix(.10036171 -.99495102 .99495102 .10036171 -6.09 787.97)" width="18.82" x="431.67" y="340.74"/><rect fill="#e5e5e5" height="59.83" rx="4.03" transform="matrix(.10036171 -.99495102 .99495102 .10036171 -23.98 801.7)" width="8.07" x="435.69" y="388.75"/><path d="m452.16 381.41 14.66 1.48 1.54-15.23a.81.81 0 0 0 -.66-.92l-13.16-1.33a.8.8 0 0 0 -.84.77z" fill="#4d4b4b" fill-rule="evenodd" transform="translate(-3 -12.43)"/><path d="m457.32 381.93 8.84.89c-4.14-12.57-6.43-28.72-4.63-37.8l-8-1.6c-1.96 9.66-.11 25.22 3.79 38.51z" fill="#191a1a" fill-rule="evenodd" transform="translate(-3 -12.43)"/><path d="m402.44 376.39 8.3.84a240.89 240.89 0 0 1 16.84-41.55l.06-.1-3.59-2-3.58-2a224.54 224.54 0 0 0 -11.8 26.22c-2.02 5.34-4.21 11.63-6.23 18.59z" fill="#191a1a" fill-rule="evenodd" transform="translate(-3 -12.43)"/><path d="m475.23 339.33-1.47 14.59-6.08.87 1.69-16.74z" fill="#707070" transform="translate(-3 -12.43)"/><path d="m464.21 339.6-1.35 13.4 5.09 1.76 1.77-17.52z" fill="#191a1a" transform="translate(-3 -12.43)"/><path d="m445.21 346.67-.61 6.05 3.18 1.71 1.18.64 6.62.67 5.74-.21.91-8.95z" fill="#f7f7f6" transform="translate(-3 -12.43)"/><path d="m461.32 355.53.91-8.95h-6.42l-.67 6.58-5.93-.6.61-6h-1.68l-.55 5.44-2.08-1.59.39-3.81h-.69l-.61 6.05 3.18 1.71 1.18.64 6.62.67z" fill="#707070" transform="translate(-3 -12.43)"/><path d="m478.45 239.31s9.05-1 12 13.15 4.69 31.17-.22 54.69-12 31-12 31l-1 4.37-13.77.79z" fill="#191a1a" transform="translate(-3 -12.43)"/><path d="m461.69 229s14.66 1.22 17.41 7.19 7 29.83 4.66 55.55-11.37 55.54-21.83 56.56-11.7-.49-11.7-.49z" fill="#afafaf" transform="translate(-3 -12.43)"/><path d="m461.69 229c5 .5 16.4 4.12 17.88 14 2.49 16.7 3.71 39.49.81 54.53s-8.49 42.02-15.38 47.47-25.32 4.45-31.56-.56-15-19.28-15.74-43 8.82-51.78 16-62.38c-.04 0 4.15-12.51 27.99-10.06z" fill="#f3f3f3" transform="translate(-3 -12.43)"/><path d="m431.45 268.15s4.62-14.17 12-14.57 17.57-1.26 20.63 6.16-32.63 8.41-32.63 8.41z" fill="#20add0" transform="translate(-3 -12.43)"/><path d="m443.62 255.4a33.07 33.07 0 0 1 12.41.66c7 1.66 8.48 3.36 9.94 6.86s7.42 30.16 5 42.25-8.81 29.19-18.85 28.6-20.45-2.39-21.26-7.77-5.11-10.62-5.11-10.62-3.26-9.8-1.87-23.58 11.5-35.8 19.74-36.4z" fill="#505051" transform="translate(-3 -12.43)"/><path d="m426.35 312.09s-4.34-11.39 1.74-26 10.17-15.33 14.4-15.59 18.83.29 22.3 8 6.52 21.71 5 29.09-8.09 27.68-22.33 24.63-18.65-3.95-18.65-3.95z" fill="#333" transform="translate(-3 -12.43)"/><path d="m436 298.76s-.25-17.07 3.9-18.73 17.15-.34 20.81.85 6.51 14.08 6.74 18.68 0 9.28-6.14 10.57-15.91.53-15.91.53z" fill="#191a1a" transform="translate(-3 -12.43)"/><path d="m438.32 293.33s-3 1.47-6.57 8-9.72 20-9.72 20-2.19 5.77-2.42 7c0 0 9.66-1.09 10.35 5.75 0 0 5.66-8.18 6.7-10.61s6.17-11 6.17-11a31.78 31.78 0 0 0 5.72-1.82c1.81-1 7.28-3.74 7.71-8s2.3-10.36-3.31-12.87-14.63 3.55-14.63 3.55z" fill="#e6e4e4" transform="translate(-3 -12.43)"/><path d="m448.8 285.34s-10.6 5.84-13.8 12.66-1.42 5.95-1.42 5.95l3.19.38 13.4-13.19s5.5 1.25 6.06 8.45c0 0-.56 4.54-1.91 6.55 0 0 7.38-3.7 5.19-11.62s-7.18-8.96-10.71-9.18z" fill="#242529" transform="translate(-3 -12.43)"/><path d="m433.74 321.06c-.19.31-.85.28-1.47-.08s-1-1-.76-1.26.85-.28 1.47.08.96.95.76 1.26z" fill="#525050" transform="translate(-3 -12.43)"/><path d="m439.37 309.29c-.2.31-.85.28-1.47-.08s-1-.95-.76-1.26.85-.28 1.47.08.96.97.76 1.26z" fill="#525050" transform="translate(-3 -12.43)"/><path d="m453 298c-.29.27-.89.05-1.4-.5s-.63-1.18-.35-1.42.9 0 1.4.51.59 1.11.35 1.41z" fill="#525050" transform="translate(-3 -12.43)"/><path d="m440.79 307c-.16.28-.71.22-1.21-.09s-.78-.77-.62-1.05.72-.22 1.21.09.83.74.62 1.05z" fill="#525050" transform="translate(-3 -12.43)"/><path d="m442.83 312.47a31.78 31.78 0 0 0 5.72-1.82c1.56-.83 5.73-3 7.2-6.19-.26-.32-.47-.54-.52-.41-.1.35-7.86 6.15-8.63 6s-5-.49-5-.49-6.61 11.37-8.11 14.15a9 9 0 0 0 -.61 6 59.5 59.5 0 0 0 3.76-6.2c1.05-2.51 6.19-11.04 6.19-11.04z" fill="#c2c2c1" transform="translate(-3 -12.43)"/><path d="m444.38 285.06a1.67 1.67 0 1 1 -1.49-1.83 1.67 1.67 0 0 1 1.49 1.83z" fill="#0f0f0e" transform="translate(-3 -12.43)"/><path d="m462.38 286.74a1.61 1.61 0 1 1 -1.44-1.76 1.58 1.58 0 0 1 1.44 1.76z" fill="#0f0f0e" transform="translate(-3 -12.43)"/><path d="m463.81 304.49a1.6 1.6 0 1 1 -1.43-1.76 1.6 1.6 0 0 1 1.43 1.76z" fill="#0f0f0e" transform="translate(-3 -12.43)"/><path d="m450.48 265.4-3.19-.32a.5.5 0 0 1 -.44-.54l.2-2a.51.51 0 0 1 .54-.44l3.19.33a.49.49 0 0 1 .44.54l-.2 2a.53.53 0 0 1 -.54.43zm-2.91-3.09a.26.26 0 0 0 -.29.24l-.2 2a.25.25 0 0 0 .23.28l3.19.33a.26.26 0 0 0 .29-.24l.2-2a.25.25 0 0 0 -.23-.28z" fill="#fffdff" transform="translate(-3 -12.43)"/><path d="m451 263.12-3.88-.39v.19l3.88.4z" fill="#fffdff" transform="translate(-3 -12.43)"/><path d="m451.46 265.11-.18-.12c.91-1.22.15-1.83.15-1.86l.12-.15s.94.72-.09 2.13z" fill="#fffdff" transform="translate(-3 -12.43)"/><path d="m451.86 265.71-.15-.15a2.56 2.56 0 0 0 .33-3.22l.18-.12a2.72 2.72 0 0 1 -.36 3.49z" fill="#fffdff" transform="translate(-3 -12.43)"/><path d="m446.25 264.58c-.73-1.58.31-2.1.31-2.1l.08.17s-.87.47-.22 1.85z" fill="#fffdff" transform="translate(-3 -12.43)"/><path d="m445.74 265.09a2.7 2.7 0 0 1 .35-3.48l.15.14a2.5 2.5 0 0 0 -.32 3.23z" fill="#fffdff" transform="translate(-3 -12.43)"/><path d="m444.63 261.13h-.2l.08-.75a.54.54 0 0 1 .17-.41.47.47 0 0 1 .4-.09l.65.06v.2l-.61-.06a.26.26 0 0 0 -.36.29l-.08.78z" fill="#fffdff" transform="translate(-3 -12.43)"/><path d="m453.91 262.07h-.2l.08-.75a.46.46 0 0 0 0-.27.33.33 0 0 0 -.22-.09l-.65-.06v-.23l.62.06a.45.45 0 0 1 .38.17.55.55 0 0 1 .09.44l-.08.75z" fill="#fffdff" transform="translate(-3 -12.43)"/><path d="m444.36 266.73a.53.53 0 0 1 -.38-.17.55.55 0 0 1 -.09-.44l.08-.75h.19l-.07.75a.46.46 0 0 0 0 .27.31.31 0 0 0 .22.09l.65.06v.2l-.62-.06z" fill="#fffdff" transform="translate(-3 -12.43)"/><path d="m452.83 267.58-.66-.06v-.2l.61.06a.33.33 0 0 0 .27 0 .4.4 0 0 0 .09-.26l.08-.75h.19l-.07.75a.55.55 0 0 1 -.18.41.41.41 0 0 1 -.33.05z" fill="#fffdff" transform="translate(-3 -12.43)"/><path d="m419.62 327.93-1.73 7.07a9.54 9.54 0 0 1 8 3.74l4.11-4.74s1.64-6.14-10.38-6.07z" fill="#191a1a" transform="translate(-3 -12.43)"/></g><path d="m303 416.5c10.66 9.17 13.15 32.73 13.15 32.73 0 25.27-36.43 60.87-36.43 60.87s-37.92 55.84-50.73 74-16.35 21.22-16.85 37.16-1.32 13.47-4.87 22-1.16 28.91 0 33.21 0 94.55 0 94.55h-204.27s9.79-119.84 24-158 34.3-61.52 57.84-66.39 48.33-1.73 53.2-8 40-43.7 51.46-55.1 22.31-30.14 29-37 46.16-26.16 55-35 18.84-4.2 29.5 4.97z" fill="#eac3bc" transform="translate(-3 -12.43)"/><path d="m274.5 416c-10.5 6-32.5 19.5-32.5 19.5l27 14.5s29.53-5 30.5-19c.42-6.1-.2-10.65-4.5-15-4.93-5-10-6-20.5 0z" fill="#f7e7e4" transform="translate(-3 -12.43)"/><path d="m398.23 139.53 135.09 13.64-.45 4.45a15.23 15.23 0 0 1 -16.69 13.63l-104.77-10.57a15.24 15.24 0 0 1 -13.63-16.68z" fill="#070707" transform="translate(-3 -12.43)"/><path d="m447.91 513.9s-8 24 10.9 37.83 8 7.68 24 19.16 13 6.53 21.89 8.84 12.39 6.19 20.65 18.34 13.3 23.62 10.08 30.14-1.81 13 1 18.59 2.81 17.75 2 28.9 44.07 84.3 44.07 84.3h162.5s-34.23-191.17-64.38-203.56-64.1-52.53-83.6-68.8-24.62-16.94-24.62-16.94l-4.62 38s-30.78-20.24-48.17-14.29-21 9.42-34.28 9.42-29.41-5.83-37.42 10.07z" fill="#eac3bc" transform="translate(-3 -12.43)"/><path d="m549.68 672.73c6-8.59 25.53 1.74 10.16-4.71s-9.16-5.61-11.48-11.81-7.68-40.14-11.81-50.22-27.18-32.21-32.22-41-2.64-16.93-3.8-22.8-5 12.64-3.8 20.65-10.9-8.26-28.09-15.94c-7.93-3.55-15.77-9.75-21.89-15.36a30.09 30.09 0 0 0 12.15 20.07c18.91 13.87 8 7.68 24 19.16s13 6.52 21.89 8.84 12.4 6.19 20.66 18.33 13.3 23.62 10.07 30.15-1.81 13 1 18.58 2.81 17.76 2 28.91 40.31 75.74 40.31 75.74l-32.53-62.48c.82-4.96.08-11.32 3.38-16.11z" fill="#b2726f" transform="translate(-3 -12.43)"/><path d="m596.19 537.77c12.72 14.79 35.44 44.23 47.81 51.71s-5.28-7.85 3.8-13.22 7.69-11.31 8-12.14a11 11 0 0 0 .33-3.22c0-.91-2.65 8.26-12.72 11.48s-9.75.33-18.59-9.17-56.75-55.92-56.75-55.92l-.17 1.49z" fill="#b2726f" transform="translate(-3 -12.43)"/><path d="m136.39 540s-57.91 19.66-65.51 63.93c0 0 17.12-44.85 65.51-63.93z" fill="#b2726f" transform="translate(-3 -12.43)"/><path d="m558.61 313s4.37-3 5.12 1.16-6 7-6 7-6-5.7-3.72-8.92 4.6.76 4.6.76z" fill="none" stroke="#fff" stroke-miterlimit="10" transform="translate(-3 -12.43)"/><path d="m470.23 503s-7 0-8.5 2a3.11 3.11 0 0 0 0 4c6.49 6.49 21.77 4 21.77 4l6.73-10z" fill="#f7e7e4" transform="translate(-3 -12.43)"/></g></svg>