<svg viewBox="0 0 40 40" xmlns="http://www.w3.org/2000/svg"><path d="m29.17 18.33a10.84 10.84 0 1 0 10.83 10.84 10.84 10.84 0 0 0 -10.83-10.84zm4 9.48a.83.83 0 0 1 -.17 1.19.81.81 0 0 1 -.52.19h-1.23a.41.41 0 0 0 -.42.41v4.59a1.67 1.67 0 0 1 -3.33 0v-4.61a.41.41 0 0 0 -.42-.41h-1.25a.84.84 0 0 1 -.65-1.36l3.34-4.17a.88.88 0 0 1 1.22-.08.6.6 0 0 0 .08.08z" fill="#8fc03f"/><path d="m40 5a5 5 0 0 0 -5-5h-30a5 5 0 0 0 -5 5v24.17a5 5 0 0 0 5 5h8.33a1.67 1.67 0 0 0 1.67-1.67 1.67 1.67 0 0 0 -1.67-1.67h-8.33a1.66 1.66 0 0 1 -1.67-1.66v-20.42a.42.42 0 0 1 .42-.42h32.5a.42.42 0 0 1 .42.42v7.08a1.66 1.66 0 0 0 1.66 1.67 1.67 1.67 0 0 0 1.67-1.67zm-32.76 0a1.6 1.6 0 0 1 -2.18.63 1.55 1.55 0 0 1 -.64-.63 1.55 1.55 0 0 1 -.25-.83 1.57 1.57 0 0 1 .15-.68 1.66 1.66 0 0 1 1.51-1 1.63 1.63 0 0 1 1.41.83 1.66 1.66 0 0 1 .26.84 1.65 1.65 0 0 1 -.26.84zm5.84 0a1.61 1.61 0 0 1 -2.19.63 1.47 1.47 0 0 1 -.63-.63 1.65 1.65 0 0 1 -.26-.83 1.66 1.66 0 0 1 .26-.84 1.6 1.6 0 0 1 2.18-.63 1.68 1.68 0 0 1 .64.63 1.52 1.52 0 0 1 0 1.67zm5.83 0a1.61 1.61 0 0 1 -2.19.63 1.59 1.59 0 0 1 -.63-.63 1.65 1.65 0 0 1 -.26-.83 1.66 1.66 0 0 1 .26-.84 1.61 1.61 0 0 1 2.19-.63 1.73 1.73 0 0 1 .63.63 1.66 1.66 0 0 1 .26.84 1.65 1.65 0 0 1 -.26.83z" fill="#8fc03f"/></svg>