<svg width="40" height="40" viewBox="0 0 40 40" fill="none" xmlns="http://www.w3.org/2000/svg">
<path d="M6.4 36.6664L3.76 36.7281C3.70451 36.7292 3.64935 36.7193 3.59774 36.6988C3.54613 36.6784 3.4991 36.6479 3.45939 36.6091C3.41968 36.5704 3.38808 36.5241 3.36644 36.473C3.3448 36.4219 3.33354 36.3669 3.33333 36.3114V33.5998C3.33333 33.1577 3.15774 32.7338 2.84518 32.4213C2.53262 32.1087 2.10869 31.9331 1.66667 31.9331C1.22464 31.9331 0.800716 32.1087 0.488155 32.4213C0.175595 32.7338 0 33.1577 0 33.5998L0 36.7381C0 37.6032 0.343639 38.4328 0.95532 39.0445C1.567 39.6561 2.39662 39.9998 3.26167 39.9998H6.4C6.84203 39.9998 7.26595 39.8242 7.57851 39.5116C7.89107 39.1991 8.06667 38.7751 8.06667 38.3331C8.06667 37.8911 7.89107 37.4672 7.57851 37.1546C7.26595 36.842 6.84203 36.6664 6.4 36.6664Z" fill="#8fc03f"/>
<path d="M1.66667 8.06667C2.10869 8.06667 2.53262 7.89107 2.84518 7.57851C3.15774 7.26595 3.33333 6.84203 3.33333 6.4L3.27 3.76C3.26889 3.70451 3.27884 3.64935 3.29927 3.59774C3.31969 3.54613 3.35018 3.4991 3.38896 3.45939C3.42774 3.41968 3.47403 3.38808 3.52514 3.36644C3.57625 3.3448 3.63116 3.33354 3.68667 3.33333H6.4C6.84203 3.33333 7.26595 3.15774 7.57851 2.84518C7.89107 2.53262 8.06667 2.10869 8.06667 1.66667C8.06667 1.22464 7.89107 0.800716 7.57851 0.488155C7.26595 0.175595 6.84203 0 6.4 0L3.26 0C2.39539 0 1.5662 0.343463 0.954832 0.954832C0.343463 1.5662 0 2.39539 0 3.26L0 6.4C0 6.84203 0.175595 7.26595 0.488155 7.57851C0.800716 7.89107 1.22464 8.06667 1.66667 8.06667Z" fill="#8fc03f"/>
<path d="M36.7386 0H33.6003C33.1582 0 32.7343 0.175595 32.4217 0.488155C32.1092 0.800716 31.9336 1.22464 31.9336 1.66667C31.9336 2.10869 32.1092 2.53262 32.4217 2.84518C32.7343 3.15774 33.1582 3.33333 33.6003 3.33333L36.2403 3.27167C36.2958 3.27056 36.3509 3.28051 36.4025 3.30093C36.4541 3.32135 36.5012 3.35184 36.5409 3.39062C36.5806 3.4294 36.6122 3.4757 36.6338 3.52681C36.6555 3.57792 36.6667 3.63283 36.6669 3.68833V6.4C36.6669 6.84203 36.8425 7.26595 37.1551 7.57851C37.4676 7.89107 37.8916 8.06667 38.3336 8.06667C38.7756 8.06667 39.1995 7.89107 39.5121 7.57851C39.8247 7.26595 40.0003 6.84203 40.0003 6.4V3.26167C40.0003 2.39662 39.6566 1.567 39.0449 0.95532C38.4333 0.343639 37.6036 0 36.7386 0V0Z" fill="#8fc03f"/>
<path d="M38.3336 31.9331C37.8916 31.9331 37.4676 32.1087 37.1551 32.4213C36.8425 32.7338 36.6669 33.1577 36.6669 33.5998L36.7303 36.2398C36.7314 36.2953 36.7214 36.3504 36.701 36.402C36.6806 36.4536 36.6501 36.5007 36.6113 36.5404C36.5725 36.5801 36.5262 36.6117 36.4751 36.6333C36.424 36.655 36.3691 36.6662 36.3136 36.6664H33.6003C33.1582 36.6664 32.7343 36.842 32.4217 37.1546C32.1092 37.4672 31.9336 37.8911 31.9336 38.3331C31.9336 38.7751 32.1092 39.1991 32.4217 39.5116C32.7343 39.8242 33.1582 39.9998 33.6003 39.9998H36.7403C37.6049 39.9998 38.4341 39.6563 39.0454 39.0449C39.6568 38.4336 40.0003 37.6044 40.0003 36.7398V33.5998C40.0003 33.1577 39.8247 32.7338 39.5121 32.4213C39.1995 32.1087 38.7756 31.9331 38.3336 31.9331Z" fill="#8fc03f"/>
<path d="M8.33398 7.5H14.1673V13.3333H8.33398V7.5Z" fill="#8fc03f"/>
<path d="M25.834 7.5H31.6673V13.3333H25.834V7.5Z" fill="#8fc03f"/>
<path d="M25.834 26.6665H31.6673V32.4998H25.834V26.6665Z" fill="#8fc03f"/>
<path d="M8.33398 26.6665H14.1673V32.4998H8.33398V26.6665Z" fill="#8fc03f"/>
<path d="M17.5 13.7683C17.8315 13.7683 18.1495 13.6366 18.3839 13.4022C18.6183 13.1678 18.75 12.8499 18.75 12.5183V10.4167C18.75 10.3062 18.7939 10.2002 18.872 10.122C18.9502 10.0439 19.0562 10 19.1667 10H22.3867C22.7182 10 23.0361 9.8683 23.2705 9.63388C23.505 9.39946 23.6367 9.08152 23.6367 8.75C23.6367 8.41848 23.505 8.10054 23.2705 7.86612C23.0361 7.6317 22.7182 7.5 22.3867 7.5H17.5C17.1685 7.5 16.8505 7.6317 16.6161 7.86612C16.3817 8.10054 16.25 8.41848 16.25 8.75V12.5183C16.25 12.8499 16.3817 13.1678 16.6161 13.4022C16.8505 13.6366 17.1685 13.7683 17.5 13.7683Z" fill="#8fc03f"/>
<path d="M22.5 11.8848C22.1685 11.8848 21.8505 12.0165 21.6161 12.2509C21.3817 12.4853 21.25 12.8032 21.25 13.1348V18.7148C21.25 19.0463 21.3817 19.3642 21.6161 19.5986C21.8505 19.8331 22.1685 19.9648 22.5 19.9648C22.8315 19.9648 23.1495 19.8331 23.3839 19.5986C23.6183 19.3642 23.75 19.0463 23.75 18.7148V13.1348C23.75 12.8032 23.6183 12.4853 23.3839 12.2509C23.1495 12.0165 22.8315 11.8848 22.5 11.8848Z" fill="#8fc03f"/>
<path d="M17.4993 24.1667C17.8309 24.1667 18.1488 24.035 18.3832 23.8006C18.6177 23.5661 18.7493 23.2482 18.7493 22.9167V18.895C18.7493 18.5635 18.6177 18.2456 18.3832 18.0111C18.1488 17.7767 17.8309 17.645 17.4993 17.645C17.1678 17.645 16.8499 17.7767 16.6155 18.0111C16.381 18.2456 16.2493 18.5635 16.2493 18.895V21.25C16.2493 21.3605 16.2055 21.4665 16.1273 21.5446C16.0492 21.6228 15.9432 21.6667 15.8327 21.6667H9.16602C8.8345 21.6667 8.51655 21.7984 8.28213 22.0328C8.04771 22.2672 7.91602 22.5852 7.91602 22.9167C7.91602 23.2482 8.04771 23.5661 8.28213 23.8006C8.51655 24.035 8.8345 24.1667 9.16602 24.1667H17.4993Z" fill="#8fc03f"/>
<path d="M22.3867 30.0002H19.1667C19.0562 30.0002 18.9502 29.9563 18.872 29.8781C18.7939 29.8 18.75 29.694 18.75 29.5835V27.2285C18.75 26.897 18.6183 26.5791 18.3839 26.3446C18.1495 26.1102 17.8315 25.9785 17.5 25.9785C17.1685 25.9785 16.8505 26.1102 16.6161 26.3446C16.3817 26.5791 16.25 26.897 16.25 27.2285V31.2502C16.25 31.5817 16.3817 31.8996 16.6161 32.1341C16.8505 32.3685 17.1685 32.5002 17.5 32.5002H22.3867C22.7182 32.5002 23.0361 32.3685 23.2705 32.1341C23.505 31.8996 23.6367 31.5817 23.6367 31.2502C23.6367 30.9187 23.505 30.6007 23.2705 30.3663C23.0361 30.1319 22.7182 30.0002 22.3867 30.0002Z" fill="#8fc03f"/>
<path d="M9.16602 18.3335H12.4993C12.8309 18.3335 13.1488 18.2018 13.3832 17.9674C13.6177 17.733 13.7493 17.415 13.7493 17.0835C13.7493 16.752 13.6177 16.434 13.3832 16.1996C13.1488 15.9652 12.8309 15.8335 12.4993 15.8335H9.16602C8.8345 15.8335 8.51655 15.9652 8.28213 16.1996C8.04771 16.434 7.91602 16.752 7.91602 17.0835C7.91602 17.415 8.04771 17.733 8.28213 17.9674C8.51655 18.2018 8.8345 18.3335 9.16602 18.3335Z" fill="#8fc03f"/>
<path d="M26.666 18.3335H30.8327C31.1642 18.3335 31.4821 18.2018 31.7166 17.9674C31.951 17.733 32.0827 17.415 32.0827 17.0835C32.0827 16.752 31.951 16.434 31.7166 16.1996C31.4821 15.9652 31.1642 15.8335 30.8327 15.8335H26.666C26.3345 15.8335 26.0166 15.9652 25.7821 16.1996C25.5477 16.434 25.416 16.752 25.416 17.0835C25.416 17.415 25.5477 17.733 25.7821 17.9674C26.0166 18.2018 26.3345 18.3335 26.666 18.3335Z" fill="#8fc03f"/>
<path d="M30.8327 21.6665H21.666C21.3345 21.6665 21.0166 21.7982 20.7821 22.0326C20.5477 22.267 20.416 22.585 20.416 22.9165C20.416 23.248 20.5477 23.566 20.7821 23.8004C21.0166 24.0348 21.3345 24.1665 21.666 24.1665H30.8327C31.1642 24.1665 31.4821 24.0348 31.7166 23.8004C31.951 23.566 32.0827 23.248 32.0827 22.9165C32.0827 22.585 31.951 22.267 31.7166 22.0326C31.4821 21.7982 31.1642 21.6665 30.8327 21.6665Z" fill="#8fc03f"/>
</svg>
