<svg viewBox="0 0 40 40" xmlns="http://www.w3.org/2000/svg"><path d="m36.73 12.78a1.66 1.66 0 1 0 -3 1.5 15.22 15.22 0 0 1 1.66 7 15.42 15.42 0 1 1 -16.39-15.41.83.83 0 0 1 .78.41 4.16 4.16 0 0 0 3.58 2.05h2.5a1.69 1.69 0 0 0 1.25-.55.8.8 0 0 1 .62-.28h2.27a1.25 1.25 0 0 0 0-2.5h-1.67a.83.83 0 0 1 -.83-.83.84.84 0 0 1 .83-.84h1.67a1.25 1.25 0 0 0 0-2.5h-2.3a.83.83 0 0 1 -.62-.27 1.66 1.66 0 0 0 -1.25-.56h-2.5a4.16 4.16 0 0 0 -3.62 2.11.85.85 0 0 1 -.68.42 18.75 18.75 0 1 0 19.72 18.72 18.45 18.45 0 0 0 -2.02-8.47z" fill="#00bada"/><path d="m25.21 30.42a1.66 1.66 0 0 0 1.66-1.67v-1a.86.86 0 0 1 .42-.72 3.33 3.33 0 0 0 1.22-4.55 3.38 3.38 0 0 0 -1.25-1.24.82.82 0 0 1 -.42-.66c-.32-5-2.91-6.84-5.33-6.84h-3.18c-2.43 0-5.24 1.81-5.58 6.84a.84.84 0 0 1 -.43.67 3.34 3.34 0 0 0 0 5.79.82.82 0 0 1 .42.72v1a1.67 1.67 0 1 0 3.33 0v-.42a.83.83 0 0 1 .83-.83h5.84a.83.83 0 0 1 .83.83v.42a1.67 1.67 0 0 0 1.64 1.66zm-1.78-9.59h-7.26a.84.84 0 0 1 -.84-.83s0-.09 0-.13c.41-2.63 1.74-3.62 3-3.62h3.17c1.46 0 2.44 1.33 2.76 3.64a.84.84 0 0 1 -.71.94h-.13z" fill="#8fc03f"/></svg>