<?xml version="1.0" encoding="utf-8"?>
<!-- Generator: Adobe Illustrator 22.0.1, SVG Export Plug-In . SVG Version: 6.00 Build 0)  -->
<svg version="1.1" id="Layer_1" xmlns:svgjs="http://svgjs.com/svgjs"
	 xmlns="http://www.w3.org/2000/svg" xmlns:xlink="http://www.w3.org/1999/xlink" x="0px" y="0px" viewBox="0 0 40 40"
	 style="enable-background:new 0 0 40 40;" xml:space="preserve">
<style type="text/css">
	.st0{fill:#8fc03f;}
	.st1{fill:#8fc03f;}
</style>
<g transform="matrix(1.6666666666666667,0,0,1.6666666666666667,0,0)">
	<path class="st0" d="M0.1,19.1L0.1,19.1C0,19.2,0,19.3,0,19.5c0,0.5,0.4,0.9,0.9,0.9H5c0,0,0,0,0,0c0.1,0,0.2,0.1,0.2,0.2L5.1,22
		c0,0.1-0.1,0.2-0.2,0.2H0.9c-0.5,0-0.9,0.4-0.9,0.9C0,23.6,0.4,24,0.9,24h19.9c0.5,0,0.9-0.4,0.9-0.9c0-0.5-0.4-0.9-0.9-0.9h-3.9
		c-0.1,0-0.2-0.1-0.2-0.2l-0.1-1.4c0,0,0,0,0,0c0-0.1,0.1-0.2,0.2-0.2h4.1c0.2,0,0.3,0,0.4-0.1c0.4-0.2,0.6-0.8,0.3-1.2l0,0
		l-4.1-7.7c-0.2-0.3-0.5-0.5-0.8-0.5h-0.8c-0.1,0-0.2-0.1-0.2-0.2l-0.2-2.5c0,0,0,0,0,0c0-0.1,0.1-0.2,0.2-0.2h1.2
		c0.4,0,0.7-0.3,0.7-0.7s-0.3-0.7-0.7-0.7h-1.3c-0.1,0-0.2-0.1-0.2-0.2l-0.2-2c0,0,0,0,0,0c0-0.1,0.1-0.2,0.2-0.2h1.9
		c0.5,0,0.9-0.4,0.9-0.9s-0.4-0.9-0.9-0.9H3.8c-0.5,0-0.9,0.4-0.9,0.9s0.4,0.9,0.9,0.9h2.4c0,0,0,0,0,0c0.1,0,0.2,0.1,0.2,0.2
		l-0.2,2c0,0.1-0.1,0.2-0.2,0.2H4.7c-0.4,0-0.7,0.3-0.7,0.7S4.4,8,4.7,8h1.2c0,0,0,0,0,0c0.1,0,0.2,0.1,0.2,0.2L6,10.7
		c0,0.1-0.1,0.2-0.2,0.2H5c-0.3,0-0.6,0.2-0.8,0.5L0.1,19.1z M13.8,9.1c0,0.1,0,0.1-0.1,0.2c-0.1,0.1-0.2,0.1-0.3,0l-1.5-1.8
		c-0.1-0.1-0.1-0.2,0-0.3l1.3-1.5c0,0,0.1-0.1,0.2-0.1c0.1,0,0.2,0.1,0.2,0.2L13.8,9.1z M8.2,5.7c0-0.1,0-0.1,0.1-0.2
		c0.1-0.1,0.2-0.1,0.3,0l1.3,1.5c0.1,0.1,0.1,0.2,0,0.3L8.3,9.2c0,0.1-0.1,0.1-0.2,0.1C8,9.3,7.9,9.2,7.9,9.1L8.2,5.7z M12.2,12.7
		c0.1,0,0.1,0,0.2,0.1c0.1,0.1,0.1,0.2,0,0.3L11,14.4c-0.1,0.1-0.2,0.1-0.3,0l-1.4-1.3c0,0-0.1-0.1-0.1-0.2c0-0.1,0.1-0.2,0.2-0.2
		H12.2z M9.2,10.9c-0.1,0-0.1,0-0.1-0.1c-0.1-0.1-0.1-0.2,0-0.3l1.7-2c0,0,0,0,0,0c0.1-0.1,0.2-0.1,0.3,0l1.7,2c0,0,0.1,0.1,0.1,0.1
		c0,0.1-0.1,0.2-0.2,0.2H9.2z M9.7,15.4C9.7,15.4,9.7,15.4,9.7,15.4c0.1,0.1,0.1,0.2,0,0.3l-2.1,2c0,0-0.1,0.1-0.2,0.1
		c-0.1,0-0.2-0.1-0.2-0.2l0.3-3.8c0-0.1,0-0.1,0.1-0.1c0.1-0.1,0.2-0.1,0.3,0L9.7,15.4z M9.4,4.5c0,0-0.1-0.1-0.1-0.1
		c0-0.1,0.1-0.2,0.2-0.2h2.5c0.1,0,0.1,0,0.1,0.1c0.1,0.1,0.1,0.2,0,0.3L11,6c0,0,0,0,0,0c-0.1,0.1-0.2,0.1-0.3,0L9.4,4.5z
		 M13.7,13.6c0,0,0.1-0.1,0.1-0.1c0.1,0,0.2,0.1,0.2,0.2l0.3,3.8c0,0.1,0,0.1-0.1,0.2c-0.1,0.1-0.2,0.1-0.3,0l-2.1-2c0,0,0,0,0,0
		c-0.1-0.1-0.1-0.2,0-0.3L13.7,13.6z M12.6,18.2c0,0,0.1,0.1,0.1,0.2c0,0.1-0.1,0.2-0.2,0.2H9.2c-0.1,0-0.1,0-0.2-0.1
		c-0.1-0.1-0.1-0.2,0-0.3l1.6-1.6c0.1-0.1,0.2-0.1,0.3,0L12.6,18.2z M5.7,12.7c0.1,0,0.2,0.1,0.1,0.2l-0.4,5.5
		c0,0.1-0.1,0.2-0.2,0.2H2.8c0,0-0.1,0-0.1,0c-0.1-0.1-0.2-0.2-0.1-0.3l2.8-5.4C5.5,12.7,5.6,12.7,5.7,12.7z M16.5,18.6
		c-0.1,0-0.2-0.1-0.2-0.2l-0.4-5.5c0-0.1,0-0.2,0.1-0.2c0.1,0,0.2,0,0.2,0.1l2.8,5.4c0,0,0,0.1,0,0.1c0,0.1-0.1,0.2-0.2,0.2
		L16.5,18.6z M14.8,21.9C14.8,22,14.8,22,14.8,21.9c0,0.1-0.1,0.2-0.2,0.2H7.1c0,0,0,0,0,0c-0.1,0-0.2-0.1-0.2-0.2L7,20.6
		c0-0.1,0.1-0.2,0.2-0.2h7.2c0.1,0,0.2,0.1,0.2,0.2L14.8,21.9z"/>
</g>
<path class="st1" d="M39.6,6.2c-1.1,0-2.3,0-3.3,0c0.2-0.9,0.4-1.8,0.4-2.6c0.2-1.1,0.4-2.1,0.5-3.2c0.1-0.4-0.4-0.6-0.7-0.3
	c-0.4,0.6-0.9,1.2-1.2,1.8c-0.9,1.2-1.8,2.5-2.6,3.7c-0.5,0.7-1.1,1.5-1.6,2.3c-0.2,0.3-0.4,0.4-0.5,0.7C30.4,8.8,30.4,9,30.3,9
	c-0.2,0.3,0,0.5,0.4,0.5H34c-0.2,0.9-0.4,1.8-0.4,2.6c-0.2,1.1-0.4,2.1-0.5,3.2c-0.1,0.4,0.4,0.6,0.7,0.3c0.4-0.6,0.9-1.2,1.2-1.8
	c0.9-1.2,1.8-2.5,2.6-3.7c0.5-0.7,1.1-1.5,1.6-2.3c0.2-0.3,0.4-0.4,0.5-0.7c0.1-0.1,0.2-0.3,0.3-0.4C40.1,6.6,39.9,6.2,39.6,6.2z"/>
</svg>
