<svg enable-background="new 0 0 40 40" viewBox="0 0 40 40" xmlns="http://www.w3.org/2000/svg"><g transform="scale(1.66666667)"><path d="m23.2 22.5h-.2c-.3 0-.5-.2-.5-.5v-4c0-.3.2-.5.5-.5h.2c.4 0 .8-.3.8-.8s-.3-.7-.8-.7h-22.5c-.4 0-.7.3-.7.7s.3.8.7.8h.3c.3 0 .5.2.5.5v4c0 .3-.2.5-.5.5h-.3c-.4 0-.7.3-.7.8s.3.7.7.7h22.5c.4 0 .8-.3.8-.8s-.3-.7-.8-.7zm-17.2-1.3c0 .5-.3.8-.8.8-.4 0-.8-.3-.8-.7v-2.5c0-.4.3-.8.8-.8s.8.3.8.7zm4.5 0c0 .4-.3.7-.8.7s-.7-.2-.7-.7v-2.5c0-.4.3-.7.7-.7s.8.3.8.8zm4.5 0c0 .4-.3.7-.7.7s-.8-.3-.8-.7v-2.5c0-.4.3-.8.8-.8s.7.3.7.8zm4.5 0c0 .4-.3.7-.8.7s-.7-.2-.7-.7v-2.5c0-.4.3-.8.8-.8s.8.3.8.8v2.5z" fill="#8fc03f"/><path d="m6.2 7.5h11.6c.1 0 .2-.1.3-.2v-.1c-.8-2-2.5-3.5-4.7-4-.2-.1-.4-.3-.4-.5v-1.7c0-.6-.4-1-1-1s-1 .4-1 1v1.7c0 .2-.2.4-.4.5-2.1.5-3.9 2-4.7 4 0 .1.1.2.3.3-.1 0-.1 0 0 0z" fill="#8fc03f"/><path d="m4.2 10h.8c.3 0 .5.2.5.5v4c0 .3.2.5.5.5h12c.3 0 .5-.2.5-.5v-4c0-.3.2-.5.5-.5h.8c.4 0 .8-.3.8-.8s-.3-.8-.8-.8h-15.6c-.4 0-.7.3-.7.8s.3.8.7.8zm9.3.5c0-.4.3-.8.8-.8s.7.3.7.8v2.5c0 .4-.3.8-.7.8s-.8-.3-.8-.8zm-4.5 0c0-.4.3-.8.8-.8s.8.3.8.8v2.5c0 .4-.3.8-.8.8s-.8-.4-.8-.8z" fill="#8fc03f"/></g></svg>