<svg viewBox="0 0 40 40.83" xmlns="http://www.w3.org/2000/svg"><g transform="translate(0 .42)"><g fill="#8fc03f"><path d="m2.08 35h5.84a.41.41 0 0 0 .41-.41v-3.34a1.66 1.66 0 0 0 -1.66-1.67h-3.34a1.66 1.66 0 0 0 -1.66 1.67v3.33a.41.41 0 0 0 .41.42z"/><path d="m13.33 21.25a1.66 1.66 0 0 0 -1.66 1.67v11.66a.41.41 0 0 0 .41.42h5.84a.41.41 0 0 0 .41-.41v-11.67a1.66 1.66 0 0 0 -1.66-1.67z"/><path d="m23.33 24.58a1.66 1.66 0 0 0 -1.66 1.67v8.33a.41.41 0 0 0 .41.42h5.84a.41.41 0 0 0 .41-.41v-8.34a1.66 1.66 0 0 0 -1.66-1.67z"/><path d="m33.33 12.92a1.66 1.66 0 0 0 -1.66 1.66v20a.41.41 0 0 0 .41.42h5.84a.41.41 0 0 0 .41-.41v-20a1.66 1.66 0 0 0 -1.66-1.66z"/></g><path d="m35-.42a3.34 3.34 0 0 0 -3.33 3.34 3.22 3.22 0 0 0 .09.76.45.45 0 0 1 -.09.37l-5.43 6.33a.43.43 0 0 1 -.42.14 3.23 3.23 0 0 0 -.82-.1 3.3 3.3 0 0 0 -2.36 1 .42.42 0 0 1 -.43.1l-3.63-1.21a.41.41 0 0 1 -.28-.31 3.33 3.33 0 1 0 -6.54 1.23.44.44 0 0 1 -.14.42l-4.84 4a.42.42 0 0 1 -.43.06 3.35 3.35 0 1 0 2 3.05 3.31 3.31 0 0 0 -.11-.76.44.44 0 0 1 .14-.42l4.84-4a.4.4 0 0 1 .43-.06 3.35 3.35 0 0 0 3.71-.71.42.42 0 0 1 .43-.1l3.62 1.21a.41.41 0 0 1 .28.33 3.33 3.33 0 0 0 6.64-.45 3.39 3.39 0 0 0 -.26-1.3.42.42 0 0 1 .07-.44l5.07-5.92a.43.43 0 0 1 .48-.14 3.33 3.33 0 0 0 2.62-6.15 3.27 3.27 0 0 0 -1.31-.27z" fill="#8fc03f"/><path d="m1.67 40.42h36.66a1.67 1.67 0 0 0 0-3.34h-36.66a1.67 1.67 0 0 0 0 3.34z" fill="#8fc03f"/></g></svg>