<svg width="601" height="138" viewBox="0 0 601 138" fill="none" xmlns="http://www.w3.org/2000/svg">
<path d="M579.31 53.3879H588.31V54.1879H584.21V64.3879H583.31V54.1879H579.31V53.3879ZM595.21 64.4879L591.21 55.1879V64.4879H590.31V53.3879H591.31L595.51 63.0879L599.71 53.3879H600.71V64.4879H599.81V55.1879L595.81 64.4879H595.21ZM566.91 32.7879C566.91 41.1879 566.91 33.3879 566.91 52.8879H549.41V80.0879C549.41 83.4879 547.91 86.3879 543.71 86.3879C539.41 86.3879 538.01 83.4879 538.01 80.0879V52.9879H520.11V80.1879C520.11 83.5879 518.61 86.4879 514.41 86.4879C510.21 86.4879 508.71 83.5879 508.71 80.1879V52.9879H490.41C490.41 31.9879 490.51 38.5879 490.51 32.7879C490.51 10.6879 509.91 0.0878906 528.71 0.0878906C547.41 0.0878906 566.91 10.5879 566.91 32.7879ZM544.31 107.188C538.61 107.188 532.81 104.088 528.91 99.5879H528.81C524.91 104.088 519.11 107.188 513.41 107.188C506.41 107.188 499.71 104.488 495.41 99.5879H490.41C490.41 120.688 507.51 137.888 528.71 137.888C549.91 137.888 567.01 120.788 567.01 99.5879H562.31C557.91 104.388 551.31 107.188 544.31 107.188ZM0.610157 51.6879H19.1102V84.9879C19.1102 88.4879 20.6102 91.4879 25.0102 91.4879C29.4102 91.4879 30.9102 88.4879 30.9102 84.9879V51.6879H49.4102V84.9879C49.4102 88.4879 50.9102 91.4879 55.3102 91.4879C59.7102 91.4879 61.2102 88.4879 61.2102 84.9879V51.6879H79.6102V87.9879C79.6102 101.088 68.4102 109.288 56.0102 109.288C50.1102 109.288 44.1102 106.088 40.0102 101.388C36.0102 105.988 29.9102 109.288 24.0102 109.288C11.6102 109.288 0.410156 101.088 0.410156 87.9879V51.6879H0.610157ZM151.71 107.788H132.21V101.688H132.01C128.61 107.188 121.81 109.588 115.41 109.588C99.1102 109.588 87.6102 95.9879 87.6102 80.1879C87.6102 64.3879 98.9102 50.8879 115.21 50.8879C121.51 50.8879 128.21 53.2879 132.31 58.0879V52.6879H151.81V107.788H151.71ZM107.71 80.3879C107.71 87.3879 112.31 92.6879 120.21 92.6879C128.11 92.6879 132.71 87.2879 132.71 80.3879C132.71 73.5879 128.11 67.9879 120.21 67.9879C112.31 67.8879 107.71 73.5879 107.71 80.3879ZM162.61 18.6879H182.11V107.788H162.61V18.6879ZM195.01 18.6879H214.61V107.788H195.11V18.6879H195.01ZM226.81 18.6879H246.31V58.0879C250.51 53.2879 257.01 50.8879 263.41 50.8879C279.71 50.8879 291.01 64.3879 291.01 80.1879C291.01 96.0879 279.61 109.588 263.21 109.588C256.81 109.588 250.11 107.088 246.61 101.688H246.41V107.788H226.91V18.6879H226.81ZM245.71 80.3879C245.71 87.3879 250.31 92.6879 258.21 92.6879C266.11 92.6879 270.71 87.2879 270.71 80.3879C270.71 73.5879 266.11 67.9879 258.21 67.9879C250.31 67.8879 245.71 73.5879 245.71 80.3879ZM362.91 80.3879C362.91 99.0879 347.41 109.688 329.71 109.688C312.11 109.688 296.51 99.1879 296.51 80.3879C296.51 61.5879 312.01 50.9879 329.71 50.9879C347.41 50.8879 362.91 61.4879 362.91 80.3879ZM317.21 80.3879C317.21 87.3879 321.81 92.6879 329.71 92.6879C337.61 92.6879 342.21 87.2879 342.21 80.3879C342.21 73.5879 337.61 67.9879 329.71 67.9879C321.81 67.8879 317.21 73.5879 317.21 80.3879ZM362.41 52.7879H387.21L397.11 64.1879L407.01 52.7879H432.21L409.41 77.9879L436.91 107.888H411.31L397.11 91.5879L382.91 107.888H357.31L384.81 77.9879L362.41 52.7879Z" fill="black"/>
</svg>
