<?xml version="1.0" encoding="utf-8"?>
<!-- Generator: Adobe Illustrator 24.2.1, SVG Export Plug-In . SVG Version: 6.00 Build 0)  -->
<svg version="1.1" id="Layer_1" xmlns="http://www.w3.org/2000/svg" xmlns:xlink="http://www.w3.org/1999/xlink" x="0px" y="0px"
	 viewBox="0 0 100 100" style="enable-background:new 0 0 100 100;" xml:space="preserve">
<style type="text/css">
	.st0{fill:#8fc03f;}
	.st1{fill:#8fc03f;}
</style>
<g>
	<path class="st0" d="M65.9,22.9c-0.5,5.8,3.7,10.8,9.3,11.3s10.8-3.7,11.3-9.4c0.5-5.7-3.7-10.8-9.3-11.3
		C71.7,13,66.5,17.2,65.9,22.9z"/>
	<path class="st0" d="M77.5,9.4c1.7,0.2,3.2-1.1,3.4-2.8l0.3-3.2C81.3,1.7,80,0.2,78.4,0S75.1,1.1,75,2.8l-0.3,3.1
		C74.4,7.7,75.7,9.2,77.5,9.4z"/>
	<path class="st0" d="M89.5,15.7c0.8,0.1,1.6-0.2,2.3-0.7l2.4-2c1.3-1.1,1.5-3.1,0.4-4.4s-3.1-1.5-4.4-0.4l-2.4,2
		c-1.3,1.1-1.5,3.1-0.4,4.4C87.9,15.2,88.7,15.6,89.5,15.7z"/>
	<path class="st0" d="M100,26.1c0.2-1.7-1.1-3.2-2.8-3.4l-3.1-0.3c-1.7-0.2-3.2,1.1-3.4,2.8c-0.2,1.7,1.1,3.2,2.8,3.4l3.1,0.3
		C98.3,29,99.8,27.8,100,26.1z"/>
	<path class="st0" d="M89.9,35.5c-1.1-1.3-3.1-1.6-4.4-0.5c-1.3,1.1-1.6,3.1-0.5,4.4l0.1,0.1l2,2.4c1.1,1.3,3.1,1.5,4.4,0.4
		c1.3-1.1,1.5-3.1,0.4-4.4L89.9,35.5z"/>
	<path class="st0" d="M74.9,38.4c-1.7-0.2-3.2,1.1-3.4,2.8l-0.3,3.1c-0.2,1.7,1.1,3.2,2.8,3.4c1.7,0.2,3.2-1.1,3.4-2.8l0.3-3.1
		C77.8,40,76.6,38.5,74.9,38.4z"/>
	<path class="st0" d="M62.4,12.2c1.1,1.3,3.1,1.6,4.4,0.5c1.3-1.1,1.6-3.1,0.5-4.4l-0.1-0.1l-2-2.4c-1.1-1.3-3.1-1.5-4.4-0.4
		c-1.3,1.1-1.5,3.1-0.4,4.4L62.4,12.2z"/>
</g>
<path class="st1" d="M95.8,91.7H74.2c-1.2,0-2.1-0.8-2.1-2.1v-7.9c0-0.8,0.8-1.2,1.2-1.2c2.5,0,4.2-1.7,4.2-4.2c0-0.4,0-0.8,0-1.2
	l-1.2-4.6c-0.4-0.8-1.2-1.7-2.1-1.7H57.5c-1.7,0-3.3-1.2-3.3-3.3s1.2-3.3,3.3-3.3h13.3c1.2,0,2.1-0.8,2.1-2.1v-0.4l-0.8-2.1
	c-0.4-0.8-1.2-1.7-2.1-1.7H57.1c-1.7,0-3.3-1.2-3.3-3.3s1.2-2.9,3.3-2.9h9.6c1.3,0,2.1-0.8,2.1-2.1v-0.4l-12.1-40
	c-0.4-1.7-2.1-2.9-3.8-2.9S49.6,5,48.8,6.7l-5,11.7v0.8v62.1c0,0,0,0.4,0.4,0.4c0.4,0.4,0.8,0.8,0.8,1.7v6.2c0,1.2-0.8,2.1-2.1,2.1
	h-4.2c-1.2,0-2.1-0.8-2.1-2.1v-6.2c0-0.8,0.4-1.2,0.8-1.7l0.4-0.4V17.5c-0.4-0.4-0.4-0.8-0.4-0.8L32.1,2.5C31.7,1.2,30,0,28.3,0
	h-0.4c-1.7,0-2.9,1.2-3.8,2.9l-5.8,19.6c-0.4,0.8,0.4,2.1,1.2,2.5H20h3.8c1.7,0,2.9,1.3,2.9,2.9c0,1.7-0.8,3.3-2.9,3.3h-6.7
	c-0.8,0-1.7,0.4-2.1,1.7L14.6,35c-0.4,0.8,0,2.1,1.2,2.5h0.4h7.5c1.7,0,2.9,1.2,2.9,3.3s-1.2,3.3-2.9,3.3H12.9
	c-0.8,0-1.7,0.4-2.1,1.7L10,47.9c-0.4,1.2,0.4,2.1,1.2,2.5h0.8h11.2c1.7,0,2.9,1.2,2.9,2.9s-1.2,3.3-2.9,3.3H9.2
	c-0.8,0-1.7,0.4-2.1,1.7L2.1,75c-0.4,2.1,0.8,4.6,2.9,5h1.2h1.2c1.2,0,2.1,0.8,2.1,2.1v7.5c-0.4,1.2-1.2,2.1-2.5,2.1H4.2
	c-2.5,0-4.2,1.7-4.2,4.2s1.7,4.2,4.2,4.2h91.7c2.5,0,4.2-1.7,4.2-4.2S98.3,91.7,95.8,91.7z M27.9,89.6c0,1.2-0.8,2.1-2.1,2.1h-6.2
	c-1.2,0-2.1-0.8-2.1-2.1v-7.5c0-1.2,0.8-2.1,2.1-2.1h6.2c1.2,0,2.1,0.8,2.1,2.1V89.6z M63.3,89.6c0,1.2-0.8,2.1-2.1,2.1H55
	c-1.2,0-2.1-0.8-2.1-2.1v-7.5c0-1.2,0.8-2.1,2.1-2.1h6.2c1.2,0,2.1,0.8,2.1,2.1V89.6z"/>
</svg>
